solid Object01
  facet normal 0.000000e+000 -9.978687e-001 6.525313e-002
    outer loop
      vertex -3.499998e+000 6.625099e-001 5.525039e-001
      vertex -3.499998e+000 6.556969e-001 4.483169e-001
      vertex 3.499997e+000 6.556969e-001 4.483169e-001
    endloop
  endfacet
  facet normal -1.091436e-006 -9.978735e-001 6.518011e-002
    outer loop
      vertex 3.499997e+000 6.556969e-001 4.483169e-001
      vertex 3.499997e+000 6.625414e-001 5.531030e-001
      vertex -3.499998e+000 6.625099e-001 5.525039e-001
    endloop
  endfacet
  facet normal 0.000000e+000 -9.469323e-001 3.214331e-001
    outer loop
      vertex -3.499998e+000 6.357775e-001 3.481749e-001
      vertex -3.499998e+000 6.029577e-001 2.514889e-001
      vertex 3.499997e+000 6.029577e-001 2.514889e-001
    endloop
  endfacet
  facet normal 0.000000e+000 -9.469323e-001 3.214331e-001
    outer loop
      vertex 3.499997e+000 6.029577e-001 2.514889e-001
      vertex 3.499997e+000 6.357775e-001 3.481749e-001
      vertex -3.499998e+000 6.357775e-001 3.481749e-001
    endloop
  endfacet
  facet normal 6.124317e-008 -8.314723e-001 5.555661e-001
    outer loop
      vertex -3.499998e+000 5.577984e-001 1.599153e-001
      vertex -3.499998e+000 5.010729e-001 7.501870e-002
      vertex 3.499997e+000 5.010729e-001 7.501793e-002
    endloop
  endfacet
  facet normal 2.866692e-008 -8.314736e-001 5.555642e-001
    outer loop
      vertex 3.499997e+000 5.010729e-001 7.501793e-002
      vertex 3.499997e+000 5.577984e-001 1.599150e-001
      vertex -3.499998e+000 5.577984e-001 1.599153e-001
    endloop
  endfacet
  facet normal 0.000000e+000 -6.593453e-001 7.518402e-001
    outer loop
      vertex -3.499998e+000 4.337511e-001 -1.747906e-003
      vertex -3.499998e+000 3.569851e-001 -6.906980e-002
      vertex 3.499997e+000 3.569851e-001 -6.906980e-002
    endloop
  endfacet
  facet normal -3.192451e-008 -6.593469e-001 7.518388e-001
    outer loop
      vertex 3.499997e+000 3.569851e-001 -6.906980e-002
      vertex 3.499997e+000 4.337511e-001 -1.747608e-003
      vertex -3.499998e+000 4.337511e-001 -1.747906e-003
    endloop
  endfacet
  facet normal 5.342416e-008 -4.422865e-001 8.968738e-001
    outer loop
      vertex -3.499998e+000 2.720890e-001 -1.257951e-001
      vertex -3.499998e+000 1.805134e-001 -1.709549e-001
      vertex 3.499997e+000 1.805134e-001 -1.709553e-001
    endloop
  endfacet
  facet normal 1.628800e-008 -4.422888e-001 8.968727e-001
    outer loop
      vertex 3.499997e+000 1.805134e-001 -1.709553e-001
      vertex 3.499997e+000 2.720881e-001 -1.257957e-001
      vertex -3.499998e+000 2.720890e-001 -1.257951e-001
    endloop
  endfacet
  facet normal 0.000000e+000 -1.950881e-001 9.807857e-001
    outer loop
      vertex -3.499998e+000 8.382797e-002 -2.037757e-001
      vertex -3.499998e+000 -1.631355e-002 -2.236949e-001
      vertex 3.499997e+000 -1.631355e-002 -2.236949e-001
    endloop
  endfacet
  facet normal 0.000000e+000 -1.950881e-001 9.807857e-001
    outer loop
      vertex 3.499997e+000 -1.631355e-002 -2.236949e-001
      vertex 3.499997e+000 8.382797e-002 -2.037757e-001
      vertex -3.499998e+000 8.382797e-002 -2.037757e-001
    endloop
  endfacet
  facet normal 0.000000e+000 2.018088e-008 1.000000e+000
    outer loop
      vertex 3.499998e+000 -3.071719e+000 -2.303729e-001
      vertex 3.499997e+000 -1.181984e-001 -2.303730e-001
      vertex -3.499998e+000 -1.181984e-001 -2.303730e-001
    endloop
  endfacet
  facet normal 0.000000e+000 2.018088e-008 1.000000e+000
    outer loop
      vertex -3.499998e+000 -1.181984e-001 -2.303730e-001
      vertex -3.499998e+000 -3.071719e+000 -2.303729e-001
      vertex 3.499998e+000 -3.071719e+000 -2.303729e-001
    endloop
  endfacet
  facet normal -1.362393e-007 -1.000000e+000 0.000000e+000
    outer loop
      vertex -3.499998e+000 -3.071718e+000 -8.178431e-001
      vertex 3.499998e+000 -3.071719e+000 -8.178431e-001
      vertex 3.499998e+000 -3.071719e+000 -2.303729e-001
    endloop
  endfacet
  facet normal 0.000000e+000 -1.000000e+000 -1.623358e-006
    outer loop
      vertex 3.499998e+000 -3.071719e+000 -2.303729e-001
      vertex -3.499998e+000 -3.071719e+000 -2.303729e-001
      vertex -3.499998e+000 -3.071718e+000 -8.178431e-001
    endloop
  endfacet
  facet normal 4.180090e-006 -9.999932e-001 3.690033e-003
    outer loop
      vertex -3.499998e+000 6.625099e-001 5.525039e-001
      vertex 3.499997e+000 6.625414e-001 5.531030e-001
      vertex 3.499997e+000 6.643963e-001 1.055777e+000
    endloop
  endfacet
  facet normal -1.718365e-004 -9.999812e-001 6.138193e-003
    outer loop
      vertex 3.499997e+000 6.643963e-001 1.055777e+000
      vertex -3.499998e+000 6.655989e-001 1.055729e+000
      vertex -3.499998e+000 6.625099e-001 5.525039e-001
    endloop
  endfacet
  facet normal 0.000000e+000 -9.807854e-001 1.950895e-001
    outer loop
      vertex -3.499998e+000 6.556969e-001 4.483169e-001
      vertex -3.499998e+000 6.357775e-001 3.481749e-001
      vertex 3.499997e+000 6.357775e-001 3.481749e-001
    endloop
  endfacet
  facet normal 0.000000e+000 -9.807854e-001 1.950895e-001
    outer loop
      vertex 3.499997e+000 6.357775e-001 3.481749e-001
      vertex 3.499997e+000 6.556969e-001 4.483169e-001
      vertex -3.499998e+000 6.556969e-001 4.483169e-001
    endloop
  endfacet
  facet normal 2.215192e-008 -8.968718e-001 4.422906e-001
    outer loop
      vertex -3.499998e+000 6.029577e-001 2.514889e-001
      vertex -3.499998e+000 5.577984e-001 1.599153e-001
      vertex 3.499997e+000 5.577984e-001 1.599150e-001
    endloop
  endfacet
  facet normal 0.000000e+000 -8.968725e-001 4.422892e-001
    outer loop
      vertex 3.499997e+000 5.577984e-001 1.599150e-001
      vertex 3.499997e+000 6.029577e-001 2.514889e-001
      vertex -3.499998e+000 6.029577e-001 2.514889e-001
    endloop
  endfacet
  facet normal -2.801534e-008 -7.518434e-001 6.593418e-001
    outer loop
      vertex -3.499998e+000 5.010729e-001 7.501870e-002
      vertex -3.499998e+000 4.337511e-001 -1.747906e-003
      vertex 3.499997e+000 4.337511e-001 -1.747608e-003
    endloop
  endfacet
  facet normal 7.297076e-008 -7.518388e-001 6.593469e-001
    outer loop
      vertex 3.499997e+000 4.337511e-001 -1.747608e-003
      vertex 3.499997e+000 5.010729e-001 7.501793e-002
      vertex -3.499998e+000 5.010729e-001 7.501870e-002
    endloop
  endfacet
  facet normal -5.212214e-009 -5.555669e-001 8.314718e-001
    outer loop
      vertex -3.499998e+000 3.569851e-001 -6.906980e-002
      vertex -3.499998e+000 2.720890e-001 -1.257951e-001
      vertex 3.499997e+000 2.720881e-001 -1.257957e-001
    endloop
  endfacet
  facet normal 0.000000e+000 -5.555667e-001 8.314720e-001
    outer loop
      vertex 3.499997e+000 2.720881e-001 -1.257957e-001
      vertex 3.499997e+000 3.569851e-001 -6.906980e-002
      vertex -3.499998e+000 3.569851e-001 -6.906980e-002
    endloop
  endfacet
  facet normal 0.000000e+000 -3.214443e-001 9.469285e-001
    outer loop
      vertex -3.499998e+000 1.805134e-001 -1.709549e-001
      vertex -3.499998e+000 8.382797e-002 -2.037757e-001
      vertex 3.499997e+000 8.382797e-002 -2.037757e-001
    endloop
  endfacet
  facet normal 5.635667e-008 -3.214406e-001 9.469298e-001
    outer loop
      vertex 3.499997e+000 8.382797e-002 -2.037757e-001
      vertex 3.499997e+000 1.805134e-001 -1.709553e-001
      vertex -3.499998e+000 1.805134e-001 -1.709549e-001
    endloop
  endfacet
  facet normal 0.000000e+000 -6.540526e-002 9.978588e-001
    outer loop
      vertex -3.499998e+000 -1.631355e-002 -2.236949e-001
      vertex -3.499998e+000 -1.181984e-001 -2.303730e-001
      vertex 3.499997e+000 -1.181984e-001 -2.303730e-001
    endloop
  endfacet
  facet normal 0.000000e+000 -6.540526e-002 9.978588e-001
    outer loop
      vertex 3.499997e+000 -1.181984e-001 -2.303730e-001
      vertex 3.499997e+000 -1.631355e-002 -2.236949e-001
      vertex -3.499998e+000 -1.631355e-002 -2.236949e-001
    endloop
  endfacet
  facet normal 1.000000e+000 -1.314345e-004 4.850012e-007
    outer loop
      vertex 3.499997e+000 6.643963e-001 1.055777e+000
      vertex 3.499997e+000 6.625414e-001 5.531030e-001
      vertex 3.499999e+000 6.701803e-001 -8.178431e-001
    endloop
  endfacet
  facet normal 1.000000e+000 -1.717222e-005 1.121673e-006
    outer loop
      vertex 3.499997e+000 6.625414e-001 5.531030e-001
      vertex 3.499997e+000 6.556969e-001 4.483169e-001
      vertex 3.499999e+000 6.701803e-001 -8.178431e-001
    endloop
  endfacet
  facet normal 1.000000e+000 -6.266229e-006 1.246425e-006
    outer loop
      vertex 3.499997e+000 6.556969e-001 4.483169e-001
      vertex 3.499997e+000 6.357775e-001 3.481749e-001
      vertex 3.499999e+000 6.701803e-001 -8.178431e-001
    endloop
  endfacet
  facet normal 1.000000e+000 -3.879394e-006 1.316847e-006
    outer loop
      vertex 3.499997e+000 6.357775e-001 3.481749e-001
      vertex 3.499997e+000 6.029577e-001 2.514889e-001
      vertex 3.499999e+000 6.701803e-001 -8.178431e-001
    endloop
  endfacet
  facet normal 1.000000e+000 -2.807003e-006 1.384262e-006
    outer loop
      vertex 3.499997e+000 6.029577e-001 2.514889e-001
      vertex 3.499997e+000 5.577984e-001 1.599150e-001
      vertex 3.499999e+000 6.701803e-001 -8.178431e-001
    endloop
  endfacet
  facet normal 1.000000e+000 -2.179645e-006 1.456370e-006
    outer loop
      vertex 3.499997e+000 5.577984e-001 1.599150e-001
      vertex 3.499997e+000 5.010729e-001 7.501793e-002
      vertex 3.499999e+000 6.701803e-001 -8.178431e-001
    endloop
  endfacet
  facet normal 1.000000e+000 -1.752842e-006 1.537206e-006
    outer loop
      vertex 3.499997e+000 5.010729e-001 7.501793e-002
      vertex 3.499997e+000 4.337511e-001 -1.747608e-003
      vertex 3.499999e+000 6.701803e-001 -8.178431e-001
    endloop
  endfacet
  facet normal 1.000000e+000 -1.430097e-006 1.630708e-006
    outer loop
      vertex 3.499997e+000 4.337511e-001 -1.747608e-003
      vertex 3.499997e+000 3.569851e-001 -6.906980e-002
      vertex 3.499999e+000 6.701803e-001 -8.178431e-001
    endloop
  endfacet
  facet normal 1.000000e+000 -1.163971e-006 1.742022e-006
    outer loop
      vertex 3.499997e+000 3.569851e-001 -6.906980e-002
      vertex 3.499997e+000 2.720881e-001 -1.257957e-001
      vertex 3.499999e+000 6.701803e-001 -8.178431e-001
    endloop
  endfacet
  facet normal 1.000000e+000 -9.264498e-007 1.878654e-006
    outer loop
      vertex 3.499997e+000 2.720881e-001 -1.257957e-001
      vertex 3.499997e+000 1.805134e-001 -1.709553e-001
      vertex 3.499999e+000 6.701803e-001 -8.178431e-001
    endloop
  endfacet
  facet normal 1.000000e+000 -6.967435e-007 2.052532e-006
    outer loop
      vertex 3.499997e+000 1.805134e-001 -1.709553e-001
      vertex 3.499997e+000 8.382797e-002 -2.037757e-001
      vertex 3.499999e+000 6.701803e-001 -8.178431e-001
    endloop
  endfacet
  facet normal 1.000000e+000 -4.543144e-007 2.284020e-006
    outer loop
      vertex 3.499997e+000 8.382797e-002 -2.037757e-001
      vertex 3.499997e+000 -1.631355e-002 -2.236949e-001
      vertex 3.499999e+000 6.701803e-001 -8.178431e-001
    endloop
  endfacet
  facet normal 1.000000e+000 -1.711522e-007 2.611192e-006
    outer loop
      vertex 3.499997e+000 -1.631355e-002 -2.236949e-001
      vertex 3.499997e+000 -1.181984e-001 -2.303730e-001
      vertex 3.499999e+000 6.701803e-001 -8.178431e-001
    endloop
  endfacet
  facet normal 1.000000e+000 4.036176e-007 0.000000e+000
    outer loop
      vertex 3.499997e+000 -1.181984e-001 -2.303730e-001
      vertex 3.499998e+000 -3.071719e+000 -2.303729e-001
      vertex 3.499998e+000 -3.071719e+000 -8.178431e-001
    endloop
  endfacet
  facet normal 1.000000e+000 -1.274318e-007 2.669864e-006
    outer loop
      vertex 3.499998e+000 -3.071719e+000 -8.178431e-001
      vertex 3.499999e+000 6.701803e-001 -8.178431e-001
      vertex 3.499997e+000 -1.181984e-001 -2.303730e-001
    endloop
  endfacet
  facet normal 1.717821e-004 9.999976e-001 2.215732e-003
    outer loop
      vertex -3.499999e+000 6.697502e-001 -8.178431e-001
      vertex -3.499998e+000 6.655989e-001 1.055729e+000
      vertex 3.499997e+000 6.643963e-001 1.055777e+000
    endloop
  endfacet
  facet normal -6.144362e-005 9.999952e-001 3.087076e-003
    outer loop
      vertex 3.499997e+000 6.643963e-001 1.055777e+000
      vertex 3.499999e+000 6.701803e-001 -8.178431e-001
      vertex -3.499999e+000 6.697502e-001 -8.178431e-001
    endloop
  endfacet
  facet normal -0.000000e+000 0.000000e+000 -1.000000e+000
    outer loop
      vertex -3.499999e+000 6.697502e-001 -8.178431e-001
      vertex 3.499999e+000 6.701803e-001 -8.178431e-001
      vertex 3.499998e+000 -3.071719e+000 -8.178431e-001
    endloop
  endfacet
  facet normal 0.000000e+000 0.000000e+000 -1.000000e+000
    outer loop
      vertex 3.499998e+000 -3.071719e+000 -8.178431e-001
      vertex -3.499998e+000 -3.071718e+000 -8.178431e-001
      vertex -3.499999e+000 6.697502e-001 -8.178431e-001
    endloop
  endfacet
  facet normal -1.000000e+000 -4.569767e-005 2.805064e-007
    outer loop
      vertex -3.499998e+000 6.625099e-001 5.525039e-001
      vertex -3.499998e+000 6.655989e-001 1.055729e+000
      vertex -3.499999e+000 6.697502e-001 -8.178431e-001
    endloop
  endfacet
  facet normal -1.000000e+000 -7.385136e-006 4.829325e-007
    outer loop
      vertex -3.499998e+000 6.556969e-001 4.483169e-001
      vertex -3.499998e+000 6.625099e-001 5.525039e-001
      vertex -3.499999e+000 6.697502e-001 -8.178431e-001
    endloop
  endfacet
  facet normal -1.000000e+000 -2.689871e-006 5.350462e-007
    outer loop
      vertex -3.499998e+000 6.357775e-001 3.481749e-001
      vertex -3.499998e+000 6.556969e-001 4.483169e-001
      vertex -3.499999e+000 6.697502e-001 -8.178431e-001
    endloop
  endfacet
  facet normal -1.000000e+000 -1.664261e-006 5.649280e-007
    outer loop
      vertex -3.499998e+000 6.029577e-001 2.514889e-001
      vertex -3.499998e+000 6.357775e-001 3.481749e-001
      vertex -3.499999e+000 6.697502e-001 -8.178431e-001
    endloop
  endfacet
  facet normal -1.000000e+000 -1.203868e-006 5.936851e-007
    outer loop
      vertex -3.499998e+000 5.577984e-001 1.599153e-001
      vertex -3.499998e+000 6.029577e-001 2.514889e-001
      vertex -3.499999e+000 6.697502e-001 -8.178431e-001
    endloop
  endfacet
  facet normal -1.000000e+000 -9.346546e-007 6.245095e-007
    outer loop
      vertex -3.499998e+000 5.010729e-001 7.501870e-002
      vertex -3.499998e+000 5.577984e-001 1.599153e-001
      vertex -3.499999e+000 6.697502e-001 -8.178431e-001
    endloop
  endfacet
  facet normal -1.000000e+000 -7.515657e-007 6.590982e-007
    outer loop
      vertex -3.499998e+000 4.337511e-001 -1.747906e-003
      vertex -3.499998e+000 5.010729e-001 7.501870e-002
      vertex -3.499999e+000 6.697502e-001 -8.178431e-001
    endloop
  endfacet
  facet normal -1.000000e+000 -6.131227e-007 6.991334e-007
    outer loop
      vertex -3.499998e+000 3.569851e-001 -6.906980e-002
      vertex -3.499998e+000 4.337511e-001 -1.747906e-003
      vertex -3.499999e+000 6.697502e-001 -8.178431e-001
    endloop
  endfacet
  facet normal -1.000000e+000 -4.989948e-007 7.468050e-007
    outer loop
      vertex -3.499998e+000 2.720890e-001 -1.257951e-001
      vertex -3.499998e+000 3.569851e-001 -6.906980e-002
      vertex -3.499999e+000 6.697502e-001 -8.178431e-001
    endloop
  endfacet
  facet normal -1.000000e+000 -3.971427e-007 8.053307e-007
    outer loop
      vertex -3.499998e+000 1.805134e-001 -1.709549e-001
      vertex -3.499998e+000 2.720890e-001 -1.257951e-001
      vertex -3.499999e+000 6.697502e-001 -8.178431e-001
    endloop
  endfacet
  facet normal -1.000000e+000 -2.986608e-007 8.798118e-007
    outer loop
      vertex -3.499998e+000 8.382797e-002 -2.037757e-001
      vertex -3.499998e+000 1.805134e-001 -1.709549e-001
      vertex -3.499999e+000 6.697502e-001 -8.178431e-001
    endloop
  endfacet
  facet normal -1.000000e+000 -1.947290e-007 9.789800e-007
    outer loop
      vertex -3.499998e+000 -1.631355e-002 -2.236949e-001
      vertex -3.499998e+000 8.382797e-002 -2.037757e-001
      vertex -3.499999e+000 6.697502e-001 -8.178431e-001
    endloop
  endfacet
  facet normal -1.000000e+000 -7.335417e-008 1.119132e-006
    outer loop
      vertex -3.499998e+000 -1.181984e-001 -2.303730e-001
      vertex -3.499998e+000 -1.631355e-002 -2.236949e-001
      vertex -3.499999e+000 6.697502e-001 -8.178431e-001
    endloop
  endfacet
  facet normal -1.000000e+000 -1.911698e-007 9.611106e-007
    outer loop
      vertex -3.499998e+000 -1.181984e-001 -2.303730e-001
      vertex -3.499999e+000 6.697502e-001 -8.178431e-001
      vertex -3.499998e+000 -3.071718e+000 -8.178431e-001
    endloop
  endfacet
  facet normal -1.000000e+000 0.000000e+000 0.000000e+000
    outer loop
      vertex -3.499998e+000 -3.071719e+000 -2.303729e-001
      vertex -3.499998e+000 -1.181984e-001 -2.303730e-001
      vertex -3.499998e+000 -3.071718e+000 -8.178431e-001
    endloop
  endfacet
endsolid Object01
