solid Object01
  facet normal 9.990411e-001 -5.910917e-004 4.377735e-002
    outer loop
      vertex -4.297829e-001 -1.877751e+000 4.740031e-001
      vertex -4.251728e-001 -1.877610e+000 3.687990e-001
      vertex -4.225082e-001 2.871594e+000 3.721159e-001
    endloop
  endfacet
  facet normal 9.978579e-001 -1.250004e-004 6.541914e-002
    outer loop
      vertex -4.225082e-001 2.871594e+000 3.721159e-001
      vertex -4.291878e-001 2.871594e+000 4.740009e-001
      vertex -4.297829e-001 -1.877751e+000 4.740031e-001
    endloop
  endfacet
  facet normal 9.458870e-001 0.000000e+000 3.244962e-001
    outer loop
      vertex -4.029369e-001 -1.877540e+000 2.719739e-001
      vertex -3.697681e-001 -1.877540e+000 1.752889e-001
      vertex -3.697681e-001 2.871594e+000 1.752889e-001
    endloop
  endfacet
  facet normal 9.469256e-001 -6.921543e-005 3.214527e-001
    outer loop
      vertex -3.697681e-001 2.871594e+000 1.752889e-001
      vertex -4.025898e-001 2.871594e+000 2.719739e-001
      vertex -4.029369e-001 -1.877540e+000 2.719739e-001
    endloop
  endfacet
  facet normal 8.314590e-001 6.722097e-009 5.555860e-001
    outer loop
      vertex -3.246078e-001 -1.877540e+000 8.371347e-002
      vertex -2.678795e-001 -1.877540e+000 -1.183033e-003
      vertex -2.678795e-001 2.871594e+000 -1.183093e-003
    endloop
  endfacet
  facet normal 8.314592e-001 0.000000e+000 5.555858e-001
    outer loop
      vertex -2.678795e-001 2.871594e+000 -1.183093e-003
      vertex -3.246078e-001 2.871594e+000 8.371347e-002
      vertex -3.246078e-001 -1.877540e+000 8.371347e-002
    endloop
  endfacet
  facet normal 6.593337e-001 0.000000e+000 7.518504e-001
    outer loop
      vertex -2.005653e-001 -1.877540e+000 -7.794827e-002
      vertex -1.237965e-001 -1.877540e+000 -1.452706e-001
      vertex -1.237965e-001 2.871594e+000 -1.452706e-001
    endloop
  endfacet
  facet normal 6.593354e-001 -4.705407e-008 7.518489e-001
    outer loop
      vertex -1.237965e-001 2.871594e+000 -1.452706e-001
      vertex -2.005653e-001 2.871594e+000 -7.794797e-002
      vertex -2.005653e-001 -1.877540e+000 -7.794827e-002
    endloop
  endfacet
  facet normal 4.423166e-001 -3.361276e-008 8.968590e-001
    outer loop
      vertex -3.889656e-002 -1.877540e+000 -2.019954e-001
      vertex 5.267143e-002 -1.877540e+000 -2.471553e-001
      vertex 5.267143e-002 2.871594e+000 -2.471551e-001
    endloop
  endfacet
  facet normal 4.423185e-001 -7.874982e-008 8.968580e-001
    outer loop
      vertex 5.267143e-002 2.871594e+000 -2.471551e-001
      vertex -3.889656e-002 2.871594e+000 -2.019950e-001
      vertex -3.889656e-002 -1.877540e+000 -2.019954e-001
    endloop
  endfacet
  facet normal 1.950883e-001 -4.945738e-008 9.807857e-001
    outer loop
      vertex 1.493607e-001 -1.877540e+000 -2.799767e-001
      vertex 2.495003e-001 -1.877540e+000 -2.998955e-001
      vertex 2.495003e-001 2.871594e+000 -2.998953e-001
    endloop
  endfacet
  facet normal 1.950861e-001 0.000000e+000 9.807861e-001
    outer loop
      vertex 2.495003e-001 2.871594e+000 -2.998953e-001
      vertex 1.493607e-001 2.871594e+000 -2.799767e-001
      vertex 1.493607e-001 -1.877540e+000 -2.799767e-001
    endloop
  endfacet
  facet normal 1.104868e-003 -4.500898e-004 9.999993e-001
    outer loop
      vertex 3.513832e-001 -1.877324e+000 -3.065739e-001
      vertex 2.286001e+000 -1.877685e+000 -3.087116e-001
      vertex 2.286003e+000 2.871594e+000 -3.065740e-001
    endloop
  endfacet
  facet normal -0.000000e+000 1.255121e-008 1.000000e+000
    outer loop
      vertex 2.286003e+000 2.871594e+000 -3.065740e-001
      vertex 3.513832e-001 2.871594e+000 -3.065740e-001
      vertex 3.513832e-001 -1.877324e+000 -3.065739e-001
    endloop
  endfacet
  facet normal 9.999977e-001 -1.252986e-004 2.124995e-003
    outer loop
      vertex -4.297829e-001 -1.877751e+000 4.740031e-001
      vertex -4.291878e-001 2.871594e+000 4.740009e-001
      vertex -4.302616e-001 2.871594e+000 9.793362e-001
    endloop
  endfacet
  facet normal 9.999979e-001 -1.172694e-004 2.049532e-003
    outer loop
      vertex -4.302616e-001 2.871594e+000 9.793362e-001
      vertex -4.308186e-001 -1.877685e+000 9.793360e-001
      vertex -4.297829e-001 -1.877751e+000 4.740031e-001
    endloop
  endfacet
  facet normal 9.746297e-001 -7.124053e-005 2.238235e-001
    outer loop
      vertex -4.251728e-001 -1.877610e+000 3.687990e-001
      vertex -4.029369e-001 -1.877540e+000 2.719739e-001
      vertex -4.025898e-001 2.871594e+000 2.719739e-001
    endloop
  endfacet
  facet normal 9.807870e-001 -6.865212e-004 1.950805e-001
    outer loop
      vertex -4.025898e-001 2.871594e+000 2.719739e-001
      vertex -4.225082e-001 2.871594e+000 3.721159e-001
      vertex -4.251728e-001 -1.877610e+000 3.687990e-001
    endloop
  endfacet
  facet normal 8.968715e-001 0.000000e+000 4.422911e-001
    outer loop
      vertex -3.697681e-001 -1.877540e+000 1.752889e-001
      vertex -3.246078e-001 -1.877540e+000 8.371347e-002
      vertex -3.246078e-001 2.871594e+000 8.371347e-002
    endloop
  endfacet
  facet normal 8.968715e-001 0.000000e+000 4.422911e-001
    outer loop
      vertex -3.246078e-001 2.871594e+000 8.371347e-002
      vertex -3.697681e-001 2.871594e+000 1.752889e-001
      vertex -3.697681e-001 -1.877540e+000 1.752889e-001
    endloop
  endfacet
  facet normal 7.518746e-001 -4.129571e-008 6.593062e-001
    outer loop
      vertex -2.678795e-001 -1.877540e+000 -1.183033e-003
      vertex -2.005653e-001 -1.877540e+000 -7.794827e-002
      vertex -2.005653e-001 2.871594e+000 -7.794797e-002
    endloop
  endfacet
  facet normal 7.518731e-001 7.682942e-009 6.593079e-001
    outer loop
      vertex -2.005653e-001 2.871594e+000 -7.794797e-002
      vertex -2.678795e-001 2.871594e+000 -1.183093e-003
      vertex -2.678795e-001 -1.877540e+000 -1.183033e-003
    endloop
  endfacet
  facet normal 5.555468e-001 -7.298215e-008 8.314853e-001
    outer loop
      vertex -1.237965e-001 -1.877540e+000 -1.452706e-001
      vertex -3.889656e-002 -1.877540e+000 -2.019954e-001
      vertex -3.889656e-002 2.871594e+000 -2.019950e-001
    endloop
  endfacet
  facet normal 5.555440e-001 0.000000e+000 8.314871e-001
    outer loop
      vertex -3.889656e-002 2.871594e+000 -2.019950e-001
      vertex -1.237965e-001 2.871594e+000 -1.452706e-001
      vertex -1.237965e-001 -1.877540e+000 -1.452706e-001
    endloop
  endfacet
  facet normal 3.214382e-001 0.000000e+000 9.469306e-001
    outer loop
      vertex 5.267143e-002 -1.877540e+000 -2.471553e-001
      vertex 1.493607e-001 -1.877540e+000 -2.799767e-001
      vertex 1.493607e-001 2.871594e+000 -2.799767e-001
    endloop
  endfacet
  facet normal 3.214397e-001 -3.601030e-008 9.469301e-001
    outer loop
      vertex 1.493607e-001 2.871594e+000 -2.799767e-001
      vertex 5.267143e-002 2.871594e+000 -2.471551e-001
      vertex 5.267143e-002 -1.877540e+000 -2.471553e-001
    endloop
  endfacet
  facet normal 6.540938e-002 1.248494e-008 9.978585e-001
    outer loop
      vertex 2.495003e-001 -1.877540e+000 -2.998955e-001
      vertex 3.513832e-001 -1.877324e+000 -3.065739e-001
      vertex 3.513832e-001 2.871594e+000 -3.065740e-001
    endloop
  endfacet
  facet normal 6.541230e-002 -5.005750e-008 9.978583e-001
    outer loop
      vertex 3.513832e-001 2.871594e+000 -3.065740e-001
      vertex 2.495003e-001 2.871594e+000 -2.998953e-001
      vertex 2.495003e-001 -1.877540e+000 -2.998955e-001
    endloop
  endfacet
  facet normal 0.000000e+000 1.000000e+000 0.000000e+000
    outer loop
      vertex -4.369774e-001 2.871594e+000 -8.940441e-001
      vertex -4.302616e-001 2.871594e+000 9.793362e-001
      vertex -4.291878e-001 2.871594e+000 4.740009e-001
    endloop
  endfacet
  facet normal 0.000000e+000 1.000000e+000 -0.000000e+000
    outer loop
      vertex -4.291878e-001 2.871594e+000 4.740009e-001
      vertex -4.225082e-001 2.871594e+000 3.721159e-001
      vertex -4.369774e-001 2.871594e+000 -8.940441e-001
    endloop
  endfacet
  facet normal 0.000000e+000 1.000000e+000 -0.000000e+000
    outer loop
      vertex -4.225082e-001 2.871594e+000 3.721159e-001
      vertex -4.025898e-001 2.871594e+000 2.719739e-001
      vertex -4.369774e-001 2.871594e+000 -8.940441e-001
    endloop
  endfacet
  facet normal 0.000000e+000 1.000000e+000 -0.000000e+000
    outer loop
      vertex -4.025898e-001 2.871594e+000 2.719739e-001
      vertex -3.697681e-001 2.871594e+000 1.752889e-001
      vertex -4.369774e-001 2.871594e+000 -8.940441e-001
    endloop
  endfacet
  facet normal 0.000000e+000 1.000000e+000 -0.000000e+000
    outer loop
      vertex -3.697681e-001 2.871594e+000 1.752889e-001
      vertex -3.246078e-001 2.871594e+000 8.371347e-002
      vertex -4.369774e-001 2.871594e+000 -8.940441e-001
    endloop
  endfacet
  facet normal 0.000000e+000 1.000000e+000 -0.000000e+000
    outer loop
      vertex -3.246078e-001 2.871594e+000 8.371347e-002
      vertex -2.678795e-001 2.871594e+000 -1.183093e-003
      vertex -4.369774e-001 2.871594e+000 -8.940441e-001
    endloop
  endfacet
  facet normal 0.000000e+000 1.000000e+000 -0.000000e+000
    outer loop
      vertex -2.678795e-001 2.871594e+000 -1.183093e-003
      vertex -2.005653e-001 2.871594e+000 -7.794797e-002
      vertex -4.369774e-001 2.871594e+000 -8.940441e-001
    endloop
  endfacet
  facet normal 0.000000e+000 1.000000e+000 -0.000000e+000
    outer loop
      vertex -2.005653e-001 2.871594e+000 -7.794797e-002
      vertex -1.237965e-001 2.871594e+000 -1.452706e-001
      vertex -4.369774e-001 2.871594e+000 -8.940441e-001
    endloop
  endfacet
  facet normal 0.000000e+000 1.000000e+000 -0.000000e+000
    outer loop
      vertex -1.237965e-001 2.871594e+000 -1.452706e-001
      vertex -3.889656e-002 2.871594e+000 -2.019950e-001
      vertex -4.369774e-001 2.871594e+000 -8.940441e-001
    endloop
  endfacet
  facet normal 0.000000e+000 1.000000e+000 -0.000000e+000
    outer loop
      vertex -3.889656e-002 2.871594e+000 -2.019950e-001
      vertex 5.267143e-002 2.871594e+000 -2.471551e-001
      vertex -4.369774e-001 2.871594e+000 -8.940441e-001
    endloop
  endfacet
  facet normal 0.000000e+000 1.000000e+000 -0.000000e+000
    outer loop
      vertex 5.267143e-002 2.871594e+000 -2.471551e-001
      vertex 1.493607e-001 2.871594e+000 -2.799767e-001
      vertex -4.369774e-001 2.871594e+000 -8.940441e-001
    endloop
  endfacet
  facet normal 0.000000e+000 1.000000e+000 -0.000000e+000
    outer loop
      vertex 1.493607e-001 2.871594e+000 -2.799767e-001
      vertex 2.495003e-001 2.871594e+000 -2.998953e-001
      vertex -4.369774e-001 2.871594e+000 -8.940441e-001
    endloop
  endfacet
  facet normal 0.000000e+000 1.000000e+000 -0.000000e+000
    outer loop
      vertex 2.495003e-001 2.871594e+000 -2.998953e-001
      vertex 3.513832e-001 2.871594e+000 -3.065740e-001
      vertex -4.369774e-001 2.871594e+000 -8.940441e-001
    endloop
  endfacet
  facet normal -0.000000e+000 1.000000e+000 0.000000e+000
    outer loop
      vertex 2.286003e+000 2.871594e+000 -8.940441e-001
      vertex -4.369774e-001 2.871594e+000 -8.940441e-001
      vertex 3.513832e-001 2.871594e+000 -3.065740e-001
    endloop
  endfacet
  facet normal 0.000000e+000 1.000000e+000 0.000000e+000
    outer loop
      vertex 3.513832e-001 2.871594e+000 -3.065740e-001
      vertex 2.286003e+000 2.871594e+000 -3.065740e-001
      vertex 2.286003e+000 2.871594e+000 -8.940441e-001
    endloop
  endfacet
  facet normal 1.000000e+000 1.204861e-006 0.000000e+000
    outer loop
      vertex 2.286009e+000 -1.877540e+000 -8.940441e-001
      vertex 2.286003e+000 2.871594e+000 -8.940441e-001
      vertex 2.286003e+000 2.871594e+000 -3.065740e-001
    endloop
  endfacet
  facet normal 1.000000e+000 -4.074746e-007 1.303419e-005
    outer loop
      vertex 2.286003e+000 2.871594e+000 -3.065740e-001
      vertex 2.286001e+000 -1.877685e+000 -3.087116e-001
      vertex 2.286009e+000 -1.877540e+000 -8.940441e-001
    endloop
  endfacet
  facet normal -9.999915e-001 1.172688e-004 -4.110710e-003
    outer loop
      vertex -4.275875e-001 -1.877713e+000 1.933343e-001
      vertex -4.308186e-001 -1.877685e+000 9.793360e-001
      vertex -4.302616e-001 2.871594e+000 9.793362e-001
    endloop
  endfacet
  facet normal 9.937329e-001 -1.770649e-002 1.103698e-001
    outer loop
      vertex -4.289570e-001 -1.877667e+000 2.056720e-001
      vertex -4.275875e-001 -1.877713e+000 1.933343e-001
      vertex -4.302616e-001 2.871594e+000 9.793362e-001
    endloop
  endfacet
  facet normal 9.997810e-001 3.632081e-003 -2.061018e-002
    outer loop
      vertex -4.286289e-001 -1.877667e+000 2.215860e-001
      vertex -4.289570e-001 -1.877667e+000 2.056720e-001
      vertex -4.302616e-001 2.871594e+000 9.793362e-001
    endloop
  endfacet
  facet normal 9.997335e-001 3.972114e-003 -2.274147e-002
    outer loop
      vertex -4.281483e-001 -1.877667e+000 2.427159e-001
      vertex -4.286289e-001 -1.877667e+000 2.215860e-001
      vertex -4.302616e-001 2.871594e+000 9.793362e-001
    endloop
  endfacet
  facet normal 9.997475e-001 3.877924e-003 -2.213415e-002
    outer loop
      vertex -4.275780e-001 -1.877667e+000 2.684749e-001
      vertex -4.281483e-001 -1.877667e+000 2.427159e-001
      vertex -4.302616e-001 2.871594e+000 9.793362e-001
    endloop
  endfacet
  facet normal 9.999998e-001 6.131392e-004 -3.211870e-004
    outer loop
      vertex -4.275684e-001 -1.877667e+000 2.981670e-001
      vertex -4.275780e-001 -1.877667e+000 2.684749e-001
      vertex -4.302616e-001 2.871594e+000 9.793362e-001
    endloop
  endfacet
  facet normal 9.999881e-001 -1.330289e-004 4.881215e-003
    outer loop
      vertex -4.277287e-001 -1.877667e+000 3.309899e-001
      vertex -4.275684e-001 -1.877667e+000 2.981670e-001
      vertex -4.302616e-001 2.871594e+000 9.793362e-001
    endloop
  endfacet
  facet normal 9.976747e-001 9.740905e-003 -6.745629e-002
    outer loop
      vertex -4.251728e-001 -1.877610e+000 3.687990e-001
      vertex -4.277287e-001 -1.877667e+000 3.309899e-001
      vertex -4.302616e-001 2.871594e+000 9.793362e-001
    endloop
  endfacet
  facet normal 9.958366e-001 -1.057249e-002 9.054082e-002
    outer loop
      vertex -4.282188e-001 -1.877667e+000 4.022949e-001
      vertex -4.251728e-001 -1.877610e+000 3.687990e-001
      vertex -4.302616e-001 2.871594e+000 9.793362e-001
    endloop
  endfacet
  facet normal 9.998262e-001 2.671883e-003 -1.845111e-002
    outer loop
      vertex -4.275475e-001 -1.877667e+000 4.386759e-001
      vertex -4.282188e-001 -1.877667e+000 4.022949e-001
      vertex -4.302616e-001 2.871594e+000 9.793362e-001
    endloop
  endfacet
  facet normal 9.979831e-001 -6.616889e-003 6.313396e-002
    outer loop
      vertex -4.297829e-001 -1.877751e+000 4.740031e-001
      vertex -4.275475e-001 -1.877667e+000 4.386759e-001
      vertex -4.302616e-001 2.871594e+000 9.793362e-001
    endloop
  endfacet
  facet normal -9.999864e-001 -6.528979e-004 5.188854e-003
    outer loop
      vertex -4.368820e-001 -1.877052e+000 -8.940441e-001
      vertex -4.297829e-001 -1.877751e+000 4.740031e-001
      vertex -4.302616e-001 2.871594e+000 9.793362e-001
    endloop
  endfacet
  facet normal -9.999936e-001 -2.008295e-005 3.584820e-003
    outer loop
      vertex -4.369774e-001 2.871594e+000 -8.940441e-001
      vertex -4.368820e-001 -1.877052e+000 -8.940441e-001
      vertex -4.302616e-001 2.871594e+000 9.793362e-001
    endloop
  endfacet
  facet normal 0.000000e+000 -0.000000e+000 -1.000000e+000
    outer loop
      vertex -4.368820e-001 -1.877052e+000 -8.940441e-001
      vertex -4.369774e-001 2.871594e+000 -8.940441e-001
      vertex 2.286003e+000 2.871594e+000 -8.940441e-001
    endloop
  endfacet
  facet normal 0.000000e+000 0.000000e+000 -1.000000e+000
    outer loop
      vertex 2.286003e+000 2.871594e+000 -8.940441e-001
      vertex 2.286009e+000 -1.877540e+000 -8.940441e-001
      vertex -4.368820e-001 -1.877052e+000 -8.940441e-001
    endloop
  endfacet
  facet normal 2.742085e-002 -9.996238e-001 -6.530806e-004
    outer loop
      vertex -4.275475e-001 -1.877667e+000 4.386759e-001
      vertex -4.297829e-001 -1.877751e+000 4.740031e-001
      vertex -4.368820e-001 -1.877052e+000 -8.940441e-001
    endloop
  endfacet
  facet normal -4.024573e-002 9.991896e-001 7.427076e-004
    outer loop
      vertex -4.282188e-001 -1.877667e+000 4.022949e-001
      vertex -4.275475e-001 -1.877667e+000 4.386759e-001
      vertex -4.368820e-001 -1.877052e+000 -8.940441e-001
    endloop
  endfacet
  facet normal 1.271417e-002 -9.999190e-001 -5.590655e-004
    outer loop
      vertex -4.251728e-001 -1.877610e+000 3.687990e-001
      vertex -4.282188e-001 -1.877667e+000 4.022949e-001
      vertex -4.368820e-001 -1.877052e+000 -8.940441e-001
    endloop
  endfacet
  facet normal -3.360073e-002 9.994351e-001 7.525143e-004
    outer loop
      vertex -4.277287e-001 -1.877667e+000 3.309899e-001
      vertex -4.251728e-001 -1.877610e+000 3.687990e-001
      vertex -4.368820e-001 -1.877052e+000 -8.940441e-001
    endloop
  endfacet
  facet normal -4.058237e-002 -9.991762e-001 -1.980937e-004
    outer loop
      vertex -4.275684e-001 -1.877667e+000 2.981670e-001
      vertex -4.277287e-001 -1.877667e+000 3.309899e-001
      vertex -4.368820e-001 -1.877052e+000 -8.940441e-001
    endloop
  endfacet
  facet normal -6.866150e-002 -9.976400e-001 2.205319e-005
    outer loop
      vertex -4.275780e-001 -1.877667e+000 2.684749e-001
      vertex -4.275684e-001 -1.877667e+000 2.981670e-001
      vertex -4.368820e-001 -1.877052e+000 -8.940441e-001
    endloop
  endfacet
  facet normal -3.737495e-002 9.993010e-001 8.274719e-004
    outer loop
      vertex -4.281483e-001 -1.877667e+000 2.427159e-001
      vertex -4.275780e-001 -1.877667e+000 2.684749e-001
      vertex -4.368820e-001 -1.877052e+000 -8.940441e-001
    endloop
  endfacet
  facet normal -3.586902e-002 9.993562e-001 8.159316e-004
    outer loop
      vertex -4.286289e-001 -1.877667e+000 2.215860e-001
      vertex -4.281483e-001 -1.877667e+000 2.427159e-001
      vertex -4.368820e-001 -1.877052e+000 -8.940441e-001
    endloop
  endfacet
  facet normal -4.164788e-002 9.991320e-001 8.585583e-004
    outer loop
      vertex -4.289570e-001 -1.877667e+000 2.056720e-001
      vertex -4.286289e-001 -1.877667e+000 2.215860e-001
      vertex -4.368820e-001 -1.877052e+000 -8.940441e-001
    endloop
  endfacet
  facet normal -3.625626e-002 -9.993425e-001 -2.972648e-004
    outer loop
      vertex -4.275875e-001 -1.877713e+000 1.933343e-001
      vertex -4.289570e-001 -1.877667e+000 2.056720e-001
      vertex -4.368820e-001 -1.877052e+000 -8.940441e-001
    endloop
  endfacet
  facet normal -8.849027e-002 -9.960771e-001 -4.977548e-005
    outer loop
      vertex -4.308186e-001 -1.877685e+000 9.793360e-001
      vertex -4.368820e-001 -1.877052e+000 -8.940441e-001
      vertex -4.297829e-001 -1.877751e+000 4.740031e-001
    endloop
  endfacet
  facet normal 1.708480e-002 -9.998538e-001 -5.995617e-004
    outer loop
      vertex -4.251728e-001 -1.877610e+000 3.687990e-001
      vertex -4.297829e-001 -1.877751e+000 4.740031e-001
      vertex -4.368820e-001 -1.877052e+000 -8.940441e-001
    endloop
  endfacet
  facet normal 1.162705e-003 -9.999992e-001 -4.519945e-004
    outer loop
      vertex -4.029369e-001 -1.877540e+000 2.719739e-001
      vertex -4.251728e-001 -1.877610e+000 3.687990e-001
      vertex -4.368820e-001 -1.877052e+000 -8.940441e-001
    endloop
  endfacet
  facet normal -1.136780e-003 -9.999993e-001 -3.850520e-004
    outer loop
      vertex -3.697681e-001 -1.877540e+000 1.752889e-001
      vertex -4.029369e-001 -1.877540e+000 2.719739e-001
      vertex -4.368820e-001 -1.877052e+000 -8.940441e-001
    endloop
  endfacet
  facet normal -8.116262e-004 -9.999996e-001 -4.054595e-004
    outer loop
      vertex -3.246078e-001 -1.877540e+000 8.371347e-002
      vertex -3.697681e-001 -1.877540e+000 1.752889e-001
      vertex -4.368820e-001 -1.877052e+000 -8.940441e-001
    endloop
  endfacet
  facet normal -6.439997e-004 -9.999997e-001 -4.247079e-004
    outer loop
      vertex -2.678795e-001 -1.877540e+000 -1.183033e-003
      vertex -3.246078e-001 -1.877540e+000 8.371347e-002
      vertex -4.368820e-001 -1.877052e+000 -8.940441e-001
    endloop
  endfacet
  facet normal -5.068575e-004 -9.999998e-001 -4.506664e-004
    outer loop
      vertex -2.005653e-001 -1.877540e+000 -7.794827e-002
      vertex -2.678795e-001 -1.877540e+000 -1.183033e-003
      vertex -4.368820e-001 -1.877052e+000 -8.940441e-001
    endloop
  endfacet
  facet normal -4.227743e-004 -9.999998e-001 -4.750144e-004
    outer loop
      vertex -1.237965e-001 -1.877540e+000 -1.452706e-001
      vertex -2.005653e-001 -1.877540e+000 -7.794827e-002
      vertex -4.368820e-001 -1.877052e+000 -8.940441e-001
    endloop
  endfacet
  facet normal -3.360006e-004 -9.999998e-001 -5.112972e-004
    outer loop
      vertex -3.889656e-002 -1.877540e+000 -2.019954e-001
      vertex -1.237965e-001 -1.877540e+000 -1.452706e-001
      vertex -4.368820e-001 -1.877052e+000 -8.940441e-001
    endloop
  endfacet
  facet normal -2.747446e-004 -9.999998e-001 -5.465245e-004
    outer loop
      vertex 5.267143e-002 -1.877540e+000 -2.471553e-001
      vertex -3.889656e-002 -1.877540e+000 -2.019954e-001
      vertex -4.368820e-001 -1.877052e+000 -8.940441e-001
    endloop
  endfacet
  facet normal -1.998320e-004 -9.999998e-001 -6.032170e-004
    outer loop
      vertex 1.493607e-001 -1.877540e+000 -2.799767e-001
      vertex 5.267143e-002 -1.877540e+000 -2.471553e-001
      vertex -4.368820e-001 -1.877052e+000 -8.940441e-001
    endloop
  endfacet
  facet normal -1.367306e-004 -9.999998e-001 -6.634591e-004
    outer loop
      vertex 2.495003e-001 -1.877540e+000 -2.998955e-001
      vertex 1.493607e-001 -1.877540e+000 -2.799767e-001
      vertex -4.368820e-001 -1.877052e+000 -8.940441e-001
    endloop
  endfacet
  facet normal 1.927364e-003 -9.999935e-001 -3.047972e-003
    outer loop
      vertex 3.513832e-001 -1.877324e+000 -3.065739e-001
      vertex 2.495003e-001 -1.877540e+000 -2.998955e-001
      vertex -4.368820e-001 -1.877052e+000 -8.940441e-001
    endloop
  endfacet
  facet normal -1.792370e-004 -9.999999e-001 -2.213458e-004
    outer loop
      vertex -4.368820e-001 -1.877052e+000 -8.940441e-001
      vertex 2.286009e+000 -1.877540e+000 -8.940441e-001
      vertex 3.513832e-001 -1.877324e+000 -3.065739e-001
    endloop
  endfacet
  facet normal -1.868547e-004 -9.999999e-001 -2.464320e-004
    outer loop
      vertex 2.286001e+000 -1.877685e+000 -3.087116e-001
      vertex 3.513832e-001 -1.877324e+000 -3.065739e-001
      vertex 2.286009e+000 -1.877540e+000 -8.940441e-001
    endloop
  endfacet
endsolid Object01
