solid Object01
  facet normal 0.000000e+000 9.978585e-001 6.540976e-002
    outer loop
      vertex 3.499998e+000 -6.622725e-001 1.368045e+000
      vertex 3.499998e+000 -6.555939e-001 1.266160e+000
      vertex -3.499997e+000 -6.555939e-001 1.266160e+000
    endloop
  endfacet
  facet normal -1.140169e-009 9.978585e-001 6.540984e-002
    outer loop
      vertex -3.499997e+000 -6.555939e-001 1.266160e+000
      vertex -3.499997e+000 -6.622725e-001 1.368045e+000
      vertex 3.499998e+000 -6.622725e-001 1.368045e+000
    endloop
  endfacet
  facet normal 0.000000e+000 9.469323e-001 3.214331e-001
    outer loop
      vertex 3.499998e+000 -6.356745e-001 1.166018e+000
      vertex 3.499998e+000 -6.028547e-001 1.069332e+000
      vertex -3.499997e+000 -6.028547e-001 1.069332e+000
    endloop
  endfacet
  facet normal 0.000000e+000 9.469323e-001 3.214331e-001
    outer loop
      vertex -3.499997e+000 -6.028547e-001 1.069332e+000
      vertex -3.499997e+000 -6.356745e-001 1.166018e+000
      vertex 3.499998e+000 -6.356745e-001 1.166018e+000
    endloop
  endfacet
  facet normal -6.124317e-008 8.314723e-001 5.555661e-001
    outer loop
      vertex 3.499998e+000 -5.576954e-001 9.777584e-001
      vertex 3.499998e+000 -5.009699e-001 8.928618e-001
      vertex -3.499997e+000 -5.009699e-001 8.928610e-001
    endloop
  endfacet
  facet normal -2.866692e-008 8.314736e-001 5.555642e-001
    outer loop
      vertex -3.499997e+000 -5.009699e-001 8.928610e-001
      vertex -3.499997e+000 -5.576954e-001 9.777580e-001
      vertex 3.499998e+000 -5.576954e-001 9.777584e-001
    endloop
  endfacet
  facet normal 0.000000e+000 6.593453e-001 7.518402e-001
    outer loop
      vertex 3.499998e+000 -4.336481e-001 8.160952e-001
      vertex 3.499998e+000 -3.568821e-001 7.487733e-001
      vertex -3.499997e+000 -3.568821e-001 7.487733e-001
    endloop
  endfacet
  facet normal 3.192451e-008 6.593469e-001 7.518388e-001
    outer loop
      vertex -3.499997e+000 -3.568821e-001 7.487733e-001
      vertex -3.499997e+000 -4.336481e-001 8.160955e-001
      vertex 3.499998e+000 -4.336481e-001 8.160952e-001
    endloop
  endfacet
  facet normal -5.342416e-008 4.422865e-001 8.968738e-001
    outer loop
      vertex 3.499998e+000 -2.719860e-001 6.920480e-001
      vertex 3.499998e+000 -1.804104e-001 6.468882e-001
      vertex -3.499997e+000 -1.804104e-001 6.468878e-001
    endloop
  endfacet
  facet normal -1.628800e-008 4.422888e-001 8.968727e-001
    outer loop
      vertex -3.499997e+000 -1.804104e-001 6.468878e-001
      vertex -3.499997e+000 -2.719851e-001 6.920474e-001
      vertex 3.499998e+000 -2.719860e-001 6.920480e-001
    endloop
  endfacet
  facet normal 0.000000e+000 1.950881e-001 9.807857e-001
    outer loop
      vertex 3.499998e+000 -8.372498e-002 6.140674e-001
      vertex 3.499998e+000 1.641655e-002 5.941482e-001
      vertex -3.499997e+000 1.641655e-002 5.941482e-001
    endloop
  endfacet
  facet normal 0.000000e+000 1.950881e-001 9.807857e-001
    outer loop
      vertex -3.499997e+000 1.641655e-002 5.941482e-001
      vertex -3.499997e+000 -8.372498e-002 6.140674e-001
      vertex 3.499998e+000 -8.372498e-002 6.140674e-001
    endloop
  endfacet
  facet normal 8.514955e-009 -2.749429e-015 1.000000e+000
    outer loop
      vertex -3.499997e+000 1.183014e-001 5.874702e-001
      vertex 3.499998e+000 1.183014e-001 5.874701e-001
      vertex 3.499999e+000 3.071822e+000 5.874701e-001
    endloop
  endfacet
  facet normal -0.000000e+000 2.018088e-008 1.000000e+000
    outer loop
      vertex 3.499999e+000 3.071822e+000 5.874701e-001
      vertex -3.499997e+000 3.071822e+000 5.874701e-001
      vertex -3.499997e+000 1.183014e-001 5.874702e-001
    endloop
  endfacet
  facet normal -1.377756e-010 9.999673e-001 8.090214e-003
    outer loop
      vertex 3.499998e+000 -6.622725e-001 1.368045e+000
      vertex -3.499997e+000 -6.622725e-001 1.368045e+000
      vertex -3.499999e+000 -6.663609e-001 1.873380e+000
    endloop
  endfacet
  facet normal 9.604312e-005 9.999556e-001 9.420529e-003
    outer loop
      vertex -3.499999e+000 -6.663609e-001 1.873380e+000
      vertex 3.499998e+000 -6.670332e-001 1.873381e+000
      vertex 3.499998e+000 -6.622725e-001 1.368045e+000
    endloop
  endfacet
  facet normal 0.000000e+000 9.807854e-001 1.950895e-001
    outer loop
      vertex 3.499998e+000 -6.555939e-001 1.266160e+000
      vertex 3.499998e+000 -6.356745e-001 1.166018e+000
      vertex -3.499997e+000 -6.356745e-001 1.166018e+000
    endloop
  endfacet
  facet normal 0.000000e+000 9.807854e-001 1.950895e-001
    outer loop
      vertex -3.499997e+000 -6.356745e-001 1.166018e+000
      vertex -3.499997e+000 -6.555939e-001 1.266160e+000
      vertex 3.499998e+000 -6.555939e-001 1.266160e+000
    endloop
  endfacet
  facet normal -2.215192e-008 8.968718e-001 4.422906e-001
    outer loop
      vertex 3.499998e+000 -6.028547e-001 1.069332e+000
      vertex 3.499998e+000 -5.576954e-001 9.777584e-001
      vertex -3.499997e+000 -5.576954e-001 9.777580e-001
    endloop
  endfacet
  facet normal 0.000000e+000 8.968725e-001 4.422892e-001
    outer loop
      vertex -3.499997e+000 -5.576954e-001 9.777580e-001
      vertex -3.499997e+000 -6.028547e-001 1.069332e+000
      vertex 3.499998e+000 -6.028547e-001 1.069332e+000
    endloop
  endfacet
  facet normal 2.801534e-008 7.518434e-001 6.593418e-001
    outer loop
      vertex 3.499998e+000 -5.009699e-001 8.928618e-001
      vertex 3.499998e+000 -4.336481e-001 8.160952e-001
      vertex -3.499997e+000 -4.336481e-001 8.160955e-001
    endloop
  endfacet
  facet normal -7.297076e-008 7.518388e-001 6.593469e-001
    outer loop
      vertex -3.499997e+000 -4.336481e-001 8.160955e-001
      vertex -3.499997e+000 -5.009699e-001 8.928610e-001
      vertex 3.499998e+000 -5.009699e-001 8.928618e-001
    endloop
  endfacet
  facet normal 5.212214e-009 5.555669e-001 8.314718e-001
    outer loop
      vertex 3.499998e+000 -3.568821e-001 7.487733e-001
      vertex 3.499998e+000 -2.719860e-001 6.920480e-001
      vertex -3.499997e+000 -2.719851e-001 6.920474e-001
    endloop
  endfacet
  facet normal 0.000000e+000 5.555667e-001 8.314720e-001
    outer loop
      vertex -3.499997e+000 -2.719851e-001 6.920474e-001
      vertex -3.499997e+000 -3.568821e-001 7.487733e-001
      vertex 3.499998e+000 -3.568821e-001 7.487733e-001
    endloop
  endfacet
  facet normal 0.000000e+000 3.214443e-001 9.469285e-001
    outer loop
      vertex 3.499998e+000 -1.804104e-001 6.468882e-001
      vertex 3.499998e+000 -8.372498e-002 6.140674e-001
      vertex -3.499997e+000 -8.372498e-002 6.140674e-001
    endloop
  endfacet
  facet normal -5.635667e-008 3.214406e-001 9.469298e-001
    outer loop
      vertex -3.499997e+000 -8.372498e-002 6.140674e-001
      vertex -3.499997e+000 -1.804104e-001 6.468878e-001
      vertex 3.499998e+000 -1.804104e-001 6.468882e-001
    endloop
  endfacet
  facet normal 8.469841e-009 6.540526e-002 9.978588e-001
    outer loop
      vertex 3.499998e+000 1.641655e-002 5.941482e-001
      vertex 3.499998e+000 1.183014e-001 5.874701e-001
      vertex -3.499997e+000 1.183014e-001 5.874702e-001
    endloop
  endfacet
  facet normal 0.000000e+000 6.540468e-002 9.978588e-001
    outer loop
      vertex -3.499997e+000 1.183014e-001 5.874702e-001
      vertex -3.499997e+000 1.641655e-002 5.941482e-001
      vertex 3.499998e+000 1.641655e-002 5.941482e-001
    endloop
  endfacet
  facet normal -9.999999e-001 4.304246e-004 -1.235689e-006
    outer loop
      vertex -3.499999e+000 -6.700773e-001 0.000000e+000
      vertex -3.499999e+000 -6.663609e-001 1.873380e+000
      vertex -3.499997e+000 -6.622725e-001 1.368045e+000
    endloop
  endfacet
  facet normal -1.000000e+000 1.712065e-005 1.122263e-006
    outer loop
      vertex -3.499997e+000 -6.622725e-001 1.368045e+000
      vertex -3.499997e+000 -6.555939e-001 1.266160e+000
      vertex -3.499999e+000 -6.700773e-001 0.000000e+000
    endloop
  endfacet
  facet normal -1.000000e+000 6.266229e-006 1.246425e-006
    outer loop
      vertex -3.499997e+000 -6.555939e-001 1.266160e+000
      vertex -3.499997e+000 -6.356745e-001 1.166018e+000
      vertex -3.499999e+000 -6.700773e-001 0.000000e+000
    endloop
  endfacet
  facet normal -1.000000e+000 3.879394e-006 1.316847e-006
    outer loop
      vertex -3.499997e+000 -6.356745e-001 1.166018e+000
      vertex -3.499997e+000 -6.028547e-001 1.069332e+000
      vertex -3.499999e+000 -6.700773e-001 0.000000e+000
    endloop
  endfacet
  facet normal -1.000000e+000 2.807003e-006 1.384262e-006
    outer loop
      vertex -3.499997e+000 -6.028547e-001 1.069332e+000
      vertex -3.499997e+000 -5.576954e-001 9.777580e-001
      vertex -3.499999e+000 -6.700773e-001 0.000000e+000
    endloop
  endfacet
  facet normal -1.000000e+000 2.179645e-006 1.456370e-006
    outer loop
      vertex -3.499997e+000 -5.576954e-001 9.777580e-001
      vertex -3.499997e+000 -5.009699e-001 8.928610e-001
      vertex -3.499999e+000 -6.700773e-001 0.000000e+000
    endloop
  endfacet
  facet normal -1.000000e+000 1.752842e-006 1.537206e-006
    outer loop
      vertex -3.499997e+000 -5.009699e-001 8.928610e-001
      vertex -3.499997e+000 -4.336481e-001 8.160955e-001
      vertex -3.499999e+000 -6.700773e-001 0.000000e+000
    endloop
  endfacet
  facet normal -1.000000e+000 1.430097e-006 1.630708e-006
    outer loop
      vertex -3.499997e+000 -4.336481e-001 8.160955e-001
      vertex -3.499997e+000 -3.568821e-001 7.487733e-001
      vertex -3.499999e+000 -6.700773e-001 0.000000e+000
    endloop
  endfacet
  facet normal -1.000000e+000 1.163971e-006 1.742022e-006
    outer loop
      vertex -3.499997e+000 -3.568821e-001 7.487733e-001
      vertex -3.499997e+000 -2.719851e-001 6.920474e-001
      vertex -3.499999e+000 -6.700773e-001 0.000000e+000
    endloop
  endfacet
  facet normal -1.000000e+000 9.264498e-007 1.878654e-006
    outer loop
      vertex -3.499997e+000 -2.719851e-001 6.920474e-001
      vertex -3.499997e+000 -1.804104e-001 6.468878e-001
      vertex -3.499999e+000 -6.700773e-001 0.000000e+000
    endloop
  endfacet
  facet normal -1.000000e+000 6.967435e-007 2.052532e-006
    outer loop
      vertex -3.499997e+000 -1.804104e-001 6.468878e-001
      vertex -3.499997e+000 -8.372498e-002 6.140674e-001
      vertex -3.499999e+000 -6.700773e-001 0.000000e+000
    endloop
  endfacet
  facet normal -1.000000e+000 4.543144e-007 2.284020e-006
    outer loop
      vertex -3.499997e+000 -8.372498e-002 6.140674e-001
      vertex -3.499997e+000 1.641655e-002 5.941482e-001
      vertex -3.499999e+000 -6.700773e-001 0.000000e+000
    endloop
  endfacet
  facet normal -1.000000e+000 1.711508e-007 2.611194e-006
    outer loop
      vertex -3.499997e+000 1.641655e-002 5.941482e-001
      vertex -3.499997e+000 1.183014e-001 5.874702e-001
      vertex -3.499999e+000 -6.700773e-001 0.000000e+000
    endloop
  endfacet
  facet normal -1.000000e+000 4.460115e-007 2.242333e-006
    outer loop
      vertex -3.499997e+000 3.071822e+000 0.000000e+000
      vertex -3.499999e+000 -6.700773e-001 0.000000e+000
      vertex -3.499997e+000 1.183014e-001 5.874702e-001
    endloop
  endfacet
  facet normal -1.000000e+000 0.000000e+000 0.000000e+000
    outer loop
      vertex -3.499997e+000 1.183014e-001 5.874702e-001
      vertex -3.499997e+000 3.071822e+000 5.874701e-001
      vertex -3.499997e+000 3.071822e+000 0.000000e+000
    endloop
  endfacet
  facet normal 1.362393e-007 1.000000e+000 0.000000e+000
    outer loop
      vertex 3.499998e+000 3.071821e+000 0.000000e+000
      vertex -3.499997e+000 3.071822e+000 0.000000e+000
      vertex -3.499997e+000 3.071822e+000 5.874701e-001
    endloop
  endfacet
  facet normal 0.000000e+000 1.000000e+000 -1.623358e-006
    outer loop
      vertex -3.499997e+000 3.071822e+000 5.874701e-001
      vertex 3.499999e+000 3.071822e+000 5.874701e-001
      vertex 3.499998e+000 3.071821e+000 0.000000e+000
    endloop
  endfacet
  facet normal -9.604876e-005 -9.999989e-001 1.477817e-003
    outer loop
      vertex 3.499999e+000 -6.698017e-001 0.000000e+000
      vertex 3.499998e+000 -6.670332e-001 1.873381e+000
      vertex -3.499999e+000 -6.663609e-001 1.873380e+000
    endloop
  endfacet
  facet normal 3.937306e-005 -9.999980e-001 1.983827e-003
    outer loop
      vertex -3.499999e+000 -6.663609e-001 1.873380e+000
      vertex -3.499999e+000 -6.700773e-001 0.000000e+000
      vertex 3.499999e+000 -6.698017e-001 0.000000e+000
    endloop
  endfacet
  facet normal 0.000000e+000 0.000000e+000 -1.000000e+000
    outer loop
      vertex 3.499999e+000 -6.698017e-001 0.000000e+000
      vertex -3.499999e+000 -6.700773e-001 0.000000e+000
      vertex -3.499997e+000 3.071822e+000 0.000000e+000
    endloop
  endfacet
  facet normal 0.000000e+000 0.000000e+000 -1.000000e+000
    outer loop
      vertex -3.499997e+000 3.071822e+000 0.000000e+000
      vertex 3.499998e+000 3.071821e+000 0.000000e+000
      vertex 3.499999e+000 -6.698017e-001 0.000000e+000
    endloop
  endfacet
  facet normal 1.000000e+000 3.503144e-005 3.300293e-007
    outer loop
      vertex 3.499998e+000 -6.622725e-001 1.368045e+000
      vertex 3.499998e+000 -6.670332e-001 1.873381e+000
      vertex 3.499999e+000 -6.698017e-001 0.000000e+000
    endloop
  endfacet
  facet normal 1.000000e+000 7.358234e-006 4.823333e-007
    outer loop
      vertex 3.499998e+000 -6.555939e-001 1.266160e+000
      vertex 3.499998e+000 -6.622725e-001 1.368045e+000
      vertex 3.499999e+000 -6.698017e-001 0.000000e+000
    endloop
  endfacet
  facet normal 1.000000e+000 2.688309e-006 5.347355e-007
    outer loop
      vertex 3.499998e+000 -6.356745e-001 1.166018e+000
      vertex 3.499998e+000 -6.555939e-001 1.266160e+000
      vertex 3.499999e+000 -6.698017e-001 0.000000e+000
    endloop
  endfacet
  facet normal 1.000000e+000 1.663663e-006 5.647250e-007
    outer loop
      vertex 3.499998e+000 -6.028547e-001 1.069332e+000
      vertex 3.499998e+000 -6.356745e-001 1.166018e+000
      vertex 3.499999e+000 -6.698017e-001 0.000000e+000
    endloop
  endfacet
  facet normal 1.000000e+000 1.203555e-006 5.935307e-007
    outer loop
      vertex 3.499998e+000 -5.576954e-001 9.777584e-001
      vertex 3.499998e+000 -6.028547e-001 1.069332e+000
      vertex 3.499999e+000 -6.698017e-001 0.000000e+000
    endloop
  endfacet
  facet normal 1.000000e+000 9.344660e-007 6.243835e-007
    outer loop
      vertex 3.499998e+000 -5.009699e-001 8.928618e-001
      vertex 3.499998e+000 -5.576954e-001 9.777584e-001
      vertex 3.499999e+000 -6.698017e-001 0.000000e+000
    endloop
  endfacet
  facet normal 1.000000e+000 7.514437e-007 6.589913e-007
    outer loop
      vertex 3.499998e+000 -4.336481e-001 8.160952e-001
      vertex 3.499998e+000 -5.009699e-001 8.928618e-001
      vertex 3.499999e+000 -6.698017e-001 0.000000e+000
    endloop
  endfacet
  facet normal 1.000000e+000 6.130415e-007 6.990408e-007
    outer loop
      vertex 3.499998e+000 -3.568821e-001 7.487733e-001
      vertex 3.499998e+000 -4.336481e-001 8.160952e-001
      vertex 3.499999e+000 -6.698017e-001 0.000000e+000
    endloop
  endfacet
  facet normal 1.000000e+000 4.989410e-007 7.467244e-007
    outer loop
      vertex 3.499998e+000 -2.719860e-001 6.920480e-001
      vertex 3.499998e+000 -3.568821e-001 7.487733e-001
      vertex 3.499999e+000 -6.698017e-001 0.000000e+000
    endloop
  endfacet
  facet normal 1.000000e+000 3.971086e-007 8.052616e-007
    outer loop
      vertex 3.499998e+000 -1.804104e-001 6.468882e-001
      vertex 3.499998e+000 -2.719860e-001 6.920480e-001
      vertex 3.499999e+000 -6.698017e-001 0.000000e+000
    endloop
  endfacet
  facet normal 1.000000e+000 2.986416e-007 8.797550e-007
    outer loop
      vertex 3.499998e+000 -8.372498e-002 6.140674e-001
      vertex 3.499998e+000 -1.804104e-001 6.468882e-001
      vertex 3.499999e+000 -6.698017e-001 0.000000e+000
    endloop
  endfacet
  facet normal 1.000000e+000 1.947208e-007 9.789388e-007
    outer loop
      vertex 3.499998e+000 1.641655e-002 5.941482e-001
      vertex 3.499998e+000 -8.372498e-002 6.140674e-001
      vertex 3.499999e+000 -6.698017e-001 0.000000e+000
    endloop
  endfacet
  facet normal 1.000000e+000 7.335301e-008 1.119114e-006
    outer loop
      vertex 3.499998e+000 1.183014e-001 5.874701e-001
      vertex 3.499998e+000 1.641655e-002 5.941482e-001
      vertex 3.499999e+000 -6.698017e-001 0.000000e+000
    endloop
  endfacet
  facet normal 1.000000e+000 1.911619e-007 9.610709e-007
    outer loop
      vertex 3.499998e+000 1.183014e-001 5.874701e-001
      vertex 3.499999e+000 -6.698017e-001 0.000000e+000
      vertex 3.499998e+000 3.071821e+000 0.000000e+000
    endloop
  endfacet
  facet normal 1.000000e+000 -3.228941e-007 -1.623358e-006
    outer loop
      vertex 3.499999e+000 3.071822e+000 5.874701e-001
      vertex 3.499998e+000 1.183014e-001 5.874701e-001
      vertex 3.499998e+000 3.071821e+000 0.000000e+000
    endloop
  endfacet
endsolid Object01
