solid Object01
  facet normal -9.978579e-001 -4.007390e-007 6.541914e-002
    outer loop
      vertex 6.601143e-001 2.375000e+000 5.502258e-001
      vertex 6.534348e-001 2.375000e+000 4.483408e-001
      vertex 6.534367e-001 -2.375000e+000 4.483408e-001
    endloop
  endfacet
  facet normal -9.974023e-001 -1.428980e-004 7.203268e-002
    outer loop
      vertex 6.534367e-001 -2.375000e+000 4.483408e-001
      vertex 6.616631e-001 -2.375000e+000 5.622478e-001
      vertex 6.601143e-001 2.375000e+000 5.502258e-001
    endloop
  endfacet
  facet normal -9.807872e-001 -3.938322e-007 1.950805e-001
    outer loop
      vertex 6.534367e-001 -2.375000e+000 4.483408e-001
      vertex 6.534348e-001 2.375000e+000 4.483408e-001
      vertex 6.335163e-001 2.375000e+000 3.481988e-001
    endloop
  endfacet
  facet normal -9.807833e-001 3.917097e-008 1.951003e-001
    outer loop
      vertex 6.335163e-001 2.375000e+000 3.481988e-001
      vertex 6.335163e-001 -2.375000e+000 3.481998e-001
      vertex 6.534367e-001 -2.375000e+000 4.483408e-001
    endloop
  endfacet
  facet normal -9.469256e-001 6.453919e-008 3.214526e-001
    outer loop
      vertex 6.335163e-001 -2.375000e+000 3.481998e-001
      vertex 6.335163e-001 2.375000e+000 3.481988e-001
      vertex 6.006947e-001 2.375000e+000 2.515138e-001
    endloop
  endfacet
  facet normal -9.469255e-001 7.260667e-008 3.214530e-001
    outer loop
      vertex 6.006947e-001 2.375000e+000 2.515138e-001
      vertex 6.006947e-001 -2.375000e+000 2.515149e-001
      vertex 6.335163e-001 -2.375000e+000 3.481998e-001
    endloop
  endfacet
  facet normal -8.968715e-001 9.990040e-008 4.422911e-001
    outer loop
      vertex 6.006947e-001 -2.375000e+000 2.515149e-001
      vertex 6.006947e-001 2.375000e+000 2.515138e-001
      vertex 5.555344e-001 2.375000e+000 1.599384e-001
    endloop
  endfacet
  facet normal -8.968726e-001 4.994996e-008 4.422891e-001
    outer loop
      vertex 5.555344e-001 2.375000e+000 1.599384e-001
      vertex 5.555344e-001 -2.375000e+000 1.599389e-001
      vertex 6.006947e-001 -2.375000e+000 2.515149e-001
    endloop
  endfacet
  facet normal -8.314592e-001 6.274514e-008 5.555857e-001
    outer loop
      vertex 5.555344e-001 -2.375000e+000 1.599389e-001
      vertex 5.555344e-001 2.375000e+000 1.599384e-001
      vertex 4.988060e-001 2.375000e+000 7.504183e-002
    endloop
  endfacet
  facet normal -8.314564e-001 1.742934e-007 5.555901e-001
    outer loop
      vertex 4.988060e-001 2.375000e+000 7.504183e-002
      vertex 4.988060e-001 -2.375000e+000 7.504332e-002
      vertex 5.555344e-001 -2.375000e+000 1.599389e-001
    endloop
  endfacet
  facet normal -7.518731e-001 2.068306e-007 6.593079e-001
    outer loop
      vertex 4.988060e-001 -2.375000e+000 7.504332e-002
      vertex 4.988060e-001 2.375000e+000 7.504183e-002
      vertex 4.314919e-001 2.375000e+000 -1.723051e-003
    endloop
  endfacet
  facet normal -7.518718e-001 2.481973e-007 6.593093e-001
    outer loop
      vertex 4.314919e-001 2.375000e+000 -1.723051e-003
      vertex 4.314919e-001 -2.375000e+000 -1.721263e-003
      vertex 4.988060e-001 -2.375000e+000 7.504332e-002
    endloop
  endfacet
  facet normal -6.593354e-001 2.830338e-007 7.518489e-001
    outer loop
      vertex 4.314919e-001 -2.375000e+000 -1.721263e-003
      vertex 4.314919e-001 2.375000e+000 -1.723051e-003
      vertex 3.547230e-001 2.375000e+000 -6.904566e-002
    endloop
  endfacet
  facet normal -6.593364e-001 2.547301e-007 7.518481e-001
    outer loop
      vertex 3.547230e-001 2.375000e+000 -6.904566e-002
      vertex 3.547230e-001 -2.375000e+000 -6.904405e-002
      vertex 4.314919e-001 -2.375000e+000 -1.721263e-003
    endloop
  endfacet
  facet normal -5.555441e-001 2.817123e-007 8.314871e-001
    outer loop
      vertex 3.547230e-001 -2.375000e+000 -6.904405e-002
      vertex 3.547230e-001 2.375000e+000 -6.904566e-002
      vertex 2.698231e-001 2.375000e+000 -1.257701e-001
    endloop
  endfacet
  facet normal -5.555570e-001 -5.216840e-008 8.314785e-001
    outer loop
      vertex 2.698231e-001 2.375000e+000 -1.257701e-001
      vertex 2.698231e-001 -2.375000e+000 -1.257704e-001
      vertex 3.547230e-001 -2.375000e+000 -6.904405e-002
    endloop
  endfacet
  facet normal -4.423184e-001 -5.627043e-008 8.968580e-001
    outer loop
      vertex 2.698231e-001 -2.375000e+000 -1.257704e-001
      vertex 2.698231e-001 2.375000e+000 -1.257701e-001
      vertex 1.782551e-001 2.375000e+000 -1.709302e-001
    endloop
  endfacet
  facet normal -4.423161e-001 0.000000e+000 8.968592e-001
    outer loop
      vertex 1.782551e-001 2.375000e+000 -1.709302e-001
      vertex 1.782551e-001 -2.375000e+000 -1.709302e-001
      vertex 2.698231e-001 -2.375000e+000 -1.257704e-001
    endloop
  endfacet
  facet normal -3.214397e-001 0.000000e+000 9.469301e-001
    outer loop
      vertex 1.782551e-001 -2.375000e+000 -1.709302e-001
      vertex 1.782551e-001 2.375000e+000 -1.709302e-001
      vertex 8.156586e-002 2.375000e+000 -2.037518e-001
    endloop
  endfacet
  facet normal -3.214428e-001 -7.129436e-008 9.469290e-001
    outer loop
      vertex 8.156586e-002 2.375000e+000 -2.037518e-001
      vertex 8.156586e-002 -2.375000e+000 -2.037522e-001
      vertex 1.782551e-001 -2.375000e+000 -1.709302e-001
    endloop
  endfacet
  facet normal -1.950861e-001 -7.384347e-008 9.807861e-001
    outer loop
      vertex 8.156586e-002 -2.375000e+000 -2.037522e-001
      vertex 8.156586e-002 2.375000e+000 -2.037518e-001
      vertex -1.857376e-002 2.375000e+000 -2.236704e-001
    endloop
  endfacet
  facet normal -1.950827e-001 0.000000e+000 9.807868e-001
    outer loop
      vertex -1.857376e-002 2.375000e+000 -2.236704e-001
      vertex -1.857376e-002 -2.375000e+000 -2.236704e-001
      vertex 8.156586e-002 -2.375000e+000 -2.037522e-001
    endloop
  endfacet
  facet normal -6.541230e-002 0.000000e+000 9.978583e-001
    outer loop
      vertex -1.857376e-002 -2.375000e+000 -2.236704e-001
      vertex -1.857376e-002 2.375000e+000 -2.236704e-001
      vertex -1.204567e-001 2.375000e+000 -2.303491e-001
    endloop
  endfacet
  facet normal -6.541172e-002 1.252147e-008 9.978583e-001
    outer loop
      vertex -1.204567e-001 2.375000e+000 -2.303491e-001
      vertex -1.204567e-001 -2.375000e+000 -2.303490e-001
      vertex -1.857376e-002 -2.375000e+000 -2.236704e-001
    endloop
  endfacet
  facet normal -7.498133e-004 1.254834e-008 9.999997e-001
    outer loop
      vertex -1.204567e-001 -2.375000e+000 -2.303490e-001
      vertex -1.204567e-001 2.375000e+000 -2.303491e-001
      vertex -3.055086e+000 2.375000e+000 -2.325495e-001
    endloop
  endfacet
  facet normal -1.599209e-003 -5.247585e-004 9.999986e-001
    outer loop
      vertex -3.055086e+000 2.375000e+000 -2.325495e-001
      vertex -3.055086e+000 -2.375000e+000 -2.350421e-001
      vertex -1.204567e-001 -2.375000e+000 -2.303490e-001
    endloop
  endfacet
  facet normal -1.000000e+000 -0.000000e+000 0.000000e+000
    outer loop
      vertex -3.055086e+000 -2.375000e+000 -2.350421e-001
      vertex -3.055086e+000 2.375000e+000 -2.325495e-001
      vertex -3.055086e+000 2.375000e+000 -8.178192e-001
    endloop
  endfacet
  facet normal -1.000000e+000 0.000000e+000 0.000000e+000
    outer loop
      vertex -3.055086e+000 2.375000e+000 -8.178192e-001
      vertex -3.055086e+000 -2.375000e+000 -8.178192e-001
      vertex -3.055086e+000 -2.375000e+000 -2.350421e-001
    endloop
  endfacet
  facet normal 9.999995e-001 -5.858570e-004 7.902306e-004
    outer loop
      vertex 6.636467e-001 -2.375000e+000 1.055181e+000
      vertex 6.651268e-001 -2.375000e+000 -8.178192e-001
      vertex 6.679096e-001 2.375000e+000 -8.178192e-001
    endloop
  endfacet
  facet normal 9.999980e-001 -1.194407e-004 1.973076e-003
    outer loop
      vertex 6.679096e-001 2.375000e+000 -8.178192e-001
      vertex 6.642132e-001 2.375000e+000 1.055618e+000
      vertex 6.636467e-001 -2.375000e+000 1.055181e+000
    endloop
  endfacet
  facet normal 0.000000e+000 -0.000000e+000 -1.000000e+000
    outer loop
      vertex -3.055086e+000 -2.375000e+000 -8.178192e-001
      vertex -3.055086e+000 2.375000e+000 -8.178192e-001
      vertex 6.679096e-001 2.375000e+000 -8.178192e-001
    endloop
  endfacet
  facet normal 0.000000e+000 0.000000e+000 -1.000000e+000
    outer loop
      vertex 6.679096e-001 2.375000e+000 -8.178192e-001
      vertex 6.651268e-001 -2.375000e+000 -8.178192e-001
      vertex -3.055086e+000 -2.375000e+000 -8.178192e-001
    endloop
  endfacet
  facet normal -9.999919e-001 1.188883e-004 4.024130e-003
    outer loop
      vertex 6.616631e-001 -2.375000e+000 5.622478e-001
      vertex 6.636467e-001 -2.375000e+000 1.055181e+000
      vertex 6.642132e-001 2.375000e+000 1.055618e+000
    endloop
  endfacet
  facet normal -9.999670e-001 -3.055193e-004 8.110055e-003
    outer loop
      vertex 6.642132e-001 2.375000e+000 1.055618e+000
      vertex 6.601143e-001 2.375000e+000 5.502258e-001
      vertex 6.616631e-001 -2.375000e+000 5.622478e-001
    endloop
  endfacet
  facet normal 1.280789e-007 1.000000e+000 -6.398012e-007
    outer loop
      vertex -1.204567e-001 2.375000e+000 -2.303491e-001
      vertex 6.679096e-001 2.375000e+000 -8.178192e-001
      vertex -3.055086e+000 2.375000e+000 -8.178192e-001
    endloop
  endfacet
  facet normal 0.000000e+000 1.000000e+000 0.000000e+000
    outer loop
      vertex -3.055086e+000 2.375000e+000 -8.178192e-001
      vertex -3.055086e+000 2.375000e+000 -2.325495e-001
      vertex -1.204567e-001 2.375000e+000 -2.303491e-001
    endloop
  endfacet
  facet normal 4.890554e-008 1.000000e+000 -7.460494e-007
    outer loop
      vertex -1.204567e-001 2.375000e+000 -2.303491e-001
      vertex -1.857376e-002 2.375000e+000 -2.236704e-001
      vertex 6.679096e-001 2.375000e+000 -8.178192e-001
    endloop
  endfacet
  facet normal 1.298032e-007 1.000000e+000 -6.525796e-007
    outer loop
      vertex -1.857376e-002 2.375000e+000 -2.236704e-001
      vertex 8.156586e-002 2.375000e+000 -2.037518e-001
      vertex 6.679096e-001 2.375000e+000 -8.178192e-001
    endloop
  endfacet
  facet normal 1.990698e-007 1.000000e+000 -5.864403e-007
    outer loop
      vertex 8.156586e-002 2.375000e+000 -2.037518e-001
      vertex 1.782551e-001 2.375000e+000 -1.709302e-001
      vertex 6.679096e-001 2.375000e+000 -8.178192e-001
    endloop
  endfacet
  facet normal 2.647175e-007 1.000000e+000 -5.367490e-007
    outer loop
      vertex 1.782551e-001 2.375000e+000 -1.709302e-001
      vertex 2.698231e-001 2.375000e+000 -1.257701e-001
      vertex 6.679096e-001 2.375000e+000 -8.178192e-001
    endloop
  endfacet
  facet normal 3.325498e-007 1.000000e+000 -4.977300e-007
    outer loop
      vertex 2.698231e-001 2.375000e+000 -1.257701e-001
      vertex 3.547230e-001 2.375000e+000 -6.904566e-002
      vertex 6.679096e-001 2.375000e+000 -8.178192e-001
    endloop
  endfacet
  facet normal 4.085927e-007 1.000000e+000 -4.659238e-007
    outer loop
      vertex 3.547230e-001 2.375000e+000 -6.904566e-002
      vertex 4.314919e-001 2.375000e+000 -1.723051e-003
      vertex 6.679096e-001 2.375000e+000 -8.178192e-001
    endloop
  endfacet
  facet normal 5.008572e-007 1.000000e+000 -4.391953e-007
    outer loop
      vertex 4.314919e-001 2.375000e+000 -1.723051e-003
      vertex 4.988060e-001 2.375000e+000 7.504183e-002
      vertex 6.679096e-001 2.375000e+000 -8.178192e-001
    endloop
  endfacet
  facet normal 6.227318e-007 1.000000e+000 -4.161129e-007
    outer loop
      vertex 4.988060e-001 2.375000e+000 7.504183e-002
      vertex 5.555344e-001 2.375000e+000 1.599384e-001
      vertex 6.679096e-001 2.375000e+000 -8.178192e-001
    endloop
  endfacet
  facet normal 8.020065e-007 1.000000e+000 -3.955086e-007
    outer loop
      vertex 5.555344e-001 2.375000e+000 1.599384e-001
      vertex 6.006947e-001 2.375000e+000 2.515138e-001
      vertex 6.679096e-001 2.375000e+000 -8.178192e-001
    endloop
  endfacet
  facet normal 1.108353e-006 1.000000e+000 -3.762525e-007
    outer loop
      vertex 6.006947e-001 2.375000e+000 2.515138e-001
      vertex 6.335163e-001 2.375000e+000 3.481988e-001
      vertex 6.679096e-001 2.375000e+000 -8.178192e-001
    endloop
  endfacet
  facet normal 1.790490e-006 1.000000e+000 -3.561320e-007
    outer loop
      vertex 6.335163e-001 2.375000e+000 3.481988e-001
      vertex 6.534348e-001 2.375000e+000 4.483408e-001
      vertex 6.679096e-001 2.375000e+000 -8.178192e-001
    endloop
  endfacet
  facet normal 4.891451e-006 1.000000e+000 -3.206815e-007
    outer loop
      vertex 6.534348e-001 2.375000e+000 4.483408e-001
      vertex 6.601143e-001 2.375000e+000 5.502258e-001
      vertex 6.679096e-001 2.375000e+000 -8.178192e-001
    endloop
  endfacet
  facet normal 2.524201e-005 1.000000e+000 -2.047208e-007
    outer loop
      vertex 6.601143e-001 2.375000e+000 5.502258e-001
      vertex 6.642132e-001 2.375000e+000 1.055618e+000
      vertex 6.679096e-001 2.375000e+000 -8.178192e-001
    endloop
  endfacet
  facet normal -0.000000e+000 -1.000000e+000 0.000000e+000
    outer loop
      vertex 6.534367e-001 -2.375000e+000 4.483408e-001
      vertex 6.651268e-001 -2.375000e+000 -8.178192e-001
      vertex 6.636467e-001 -2.375000e+000 1.055181e+000
    endloop
  endfacet
  facet normal 0.000000e+000 1.000000e+000 0.000000e+000
    outer loop
      vertex 6.636467e-001 -2.375000e+000 1.055181e+000
      vertex 6.616631e-001 -2.375000e+000 5.622478e-001
      vertex 6.534367e-001 -2.375000e+000 4.483408e-001
    endloop
  endfacet
  facet normal 0.000000e+000 -1.000000e+000 0.000000e+000
    outer loop
      vertex 6.534367e-001 -2.375000e+000 4.483408e-001
      vertex 6.335163e-001 -2.375000e+000 3.481998e-001
      vertex 6.651268e-001 -2.375000e+000 -8.178192e-001
    endloop
  endfacet
  facet normal 0.000000e+000 -1.000000e+000 0.000000e+000
    outer loop
      vertex 6.335163e-001 -2.375000e+000 3.481998e-001
      vertex 6.006947e-001 -2.375000e+000 2.515149e-001
      vertex 6.651268e-001 -2.375000e+000 -8.178192e-001
    endloop
  endfacet
  facet normal 0.000000e+000 -1.000000e+000 0.000000e+000
    outer loop
      vertex 6.006947e-001 -2.375000e+000 2.515149e-001
      vertex 5.555344e-001 -2.375000e+000 1.599389e-001
      vertex 6.651268e-001 -2.375000e+000 -8.178192e-001
    endloop
  endfacet
  facet normal 0.000000e+000 -1.000000e+000 0.000000e+000
    outer loop
      vertex 5.555344e-001 -2.375000e+000 1.599389e-001
      vertex 4.988060e-001 -2.375000e+000 7.504332e-002
      vertex 6.651268e-001 -2.375000e+000 -8.178192e-001
    endloop
  endfacet
  facet normal 0.000000e+000 -1.000000e+000 0.000000e+000
    outer loop
      vertex 4.988060e-001 -2.375000e+000 7.504332e-002
      vertex 4.314919e-001 -2.375000e+000 -1.721263e-003
      vertex 6.651268e-001 -2.375000e+000 -8.178192e-001
    endloop
  endfacet
  facet normal 0.000000e+000 -1.000000e+000 0.000000e+000
    outer loop
      vertex 4.314919e-001 -2.375000e+000 -1.721263e-003
      vertex 3.547230e-001 -2.375000e+000 -6.904405e-002
      vertex 6.651268e-001 -2.375000e+000 -8.178192e-001
    endloop
  endfacet
  facet normal 0.000000e+000 -1.000000e+000 0.000000e+000
    outer loop
      vertex 3.547230e-001 -2.375000e+000 -6.904405e-002
      vertex 2.698231e-001 -2.375000e+000 -1.257704e-001
      vertex 6.651268e-001 -2.375000e+000 -8.178192e-001
    endloop
  endfacet
  facet normal 0.000000e+000 -1.000000e+000 0.000000e+000
    outer loop
      vertex 2.698231e-001 -2.375000e+000 -1.257704e-001
      vertex 1.782551e-001 -2.375000e+000 -1.709302e-001
      vertex 6.651268e-001 -2.375000e+000 -8.178192e-001
    endloop
  endfacet
  facet normal 0.000000e+000 -1.000000e+000 0.000000e+000
    outer loop
      vertex 1.782551e-001 -2.375000e+000 -1.709302e-001
      vertex 8.156586e-002 -2.375000e+000 -2.037522e-001
      vertex 6.651268e-001 -2.375000e+000 -8.178192e-001
    endloop
  endfacet
  facet normal 0.000000e+000 -1.000000e+000 0.000000e+000
    outer loop
      vertex 8.156586e-002 -2.375000e+000 -2.037522e-001
      vertex -1.857376e-002 -2.375000e+000 -2.236704e-001
      vertex 6.651268e-001 -2.375000e+000 -8.178192e-001
    endloop
  endfacet
  facet normal 0.000000e+000 -1.000000e+000 0.000000e+000
    outer loop
      vertex -3.055086e+000 -2.375000e+000 -2.350421e-001
      vertex -3.055086e+000 -2.375000e+000 -8.178192e-001
      vertex 6.651268e-001 -2.375000e+000 -8.178192e-001
    endloop
  endfacet
  facet normal 0.000000e+000 -1.000000e+000 0.000000e+000
    outer loop
      vertex -1.204567e-001 -2.375000e+000 -2.303490e-001
      vertex -3.055086e+000 -2.375000e+000 -2.350421e-001
      vertex 6.651268e-001 -2.375000e+000 -8.178192e-001
    endloop
  endfacet
  facet normal 0.000000e+000 -1.000000e+000 0.000000e+000
    outer loop
      vertex -1.857376e-002 -2.375000e+000 -2.236704e-001
      vertex -1.204567e-001 -2.375000e+000 -2.303490e-001
      vertex 6.651268e-001 -2.375000e+000 -8.178192e-001
    endloop
  endfacet
endsolid Object01
