solid Object01
  facet normal 0.000000e+000 0.000000e+000 1.000000e+000
    outer loop
      vertex 9.999291e+000 -8.644794e+000 2.165943e+000
      vertex 9.999290e+000 -5.623131e-001 2.165943e+000
      vertex -9.999291e+000 -5.623131e-001 2.165943e+000
    endloop
  endfacet
  facet normal 0.000000e+000 0.000000e+000 1.000000e+000
    outer loop
      vertex -9.999291e+000 -5.623131e-001 2.165943e+000
      vertex -9.999290e+000 -8.644791e+000 2.165943e+000
      vertex 9.999291e+000 -8.644794e+000 2.165943e+000
    endloop
  endfacet
  facet normal -4.077947e-008 2.125681e-001 9.771463e-001
    outer loop
      vertex -9.999290e+000 4.652786e-002 2.078405e+000
      vertex -9.999290e+000 -2.547607e-001 2.143947e+000
      vertex 9.999290e+000 -2.547569e-001 2.143947e+000
    endloop
  endfacet
  facet normal 6.041399e-009 2.125710e-001 9.771456e-001
    outer loop
      vertex 9.999290e+000 -2.547569e-001 2.143947e+000
      vertex 9.999290e+000 4.653168e-002 2.078404e+000
      vertex -9.999290e+000 4.652786e-002 2.078405e+000
    endloop
  endfacet
  facet normal 4.228937e-008 4.792489e-001 8.776790e-001
    outer loop
      vertex -9.999290e+000 6.060524e-001 1.822881e+000
      vertex -9.999290e+000 3.354301e-001 1.970652e+000
      vertex 9.999290e+000 3.354301e-001 1.970651e+000
    endloop
  endfacet
  facet normal 7.068459e-008 4.792505e-001 8.776782e-001
    outer loop
      vertex 9.999290e+000 3.354301e-001 1.970651e+000
      vertex 9.999290e+000 6.060486e-001 1.822881e+000
      vertex -9.999290e+000 6.060524e-001 1.822881e+000
    endloop
  endfacet
  facet normal 1.014952e-007 7.071114e-001 7.071021e-001
    outer loop
      vertex -9.999290e+000 1.070911e+000 1.420074e+000
      vertex -9.999290e+000 8.528862e-001 1.638102e+000
      vertex 9.999290e+000 8.528824e-001 1.638103e+000
    endloop
  endfacet
  facet normal 3.322717e-008 7.071083e-001 7.071052e-001
    outer loop
      vertex 9.999290e+000 8.528824e-001 1.638103e+000
      vertex 9.999290e+000 1.070911e+000 1.420073e+000
      vertex -9.999290e+000 1.070911e+000 1.420074e+000
    endloop
  endfacet
  facet normal 1.673458e-007 8.776796e-001 4.792477e-001
    outer loop
      vertex -9.999291e+000 1.403461e+000 9.026163e-001
      vertex -9.999290e+000 1.255692e+000 1.173238e+000
      vertex 9.999290e+000 1.255688e+000 1.173238e+000
    endloop
  endfacet
  facet normal 5.437192e-009 8.776746e-001 4.792570e-001
    outer loop
      vertex 9.999290e+000 1.255688e+000 1.173238e+000
      vertex 9.999290e+000 1.403461e+000 9.026160e-001
      vertex -9.999291e+000 1.403461e+000 9.026163e-001
    endloop
  endfacet
  facet normal 1.712732e-007 9.771504e-001 2.125487e-001
    outer loop
      vertex -9.999291e+000 1.576756e+000 3.124294e-001
      vertex -9.999290e+000 1.511219e+000 6.137204e-001
      vertex 9.999290e+000 1.511215e+000 6.137218e-001
    endloop
  endfacet
  facet normal 2.718600e-009 9.771481e-001 2.125594e-001
    outer loop
      vertex 9.999290e+000 1.511215e+000 6.137218e-001
      vertex 9.999290e+000 1.576756e+000 3.124292e-001
      vertex -9.999291e+000 1.576756e+000 3.124294e-001
    endloop
  endfacet
  facet normal 3.926893e-009 9.771478e-001 -2.125609e-001
    outer loop
      vertex -9.999290e+000 1.511215e+000 -6.139636e-001
      vertex -9.999291e+000 1.576756e+000 -3.126731e-001
      vertex 9.999290e+000 1.576756e+000 -3.126727e-001
    endloop
  endfacet
  facet normal 5.135171e-009 9.771478e-001 -2.125610e-001
    outer loop
      vertex 9.999290e+000 1.576756e+000 -3.126727e-001
      vertex 9.999290e+000 1.511215e+000 -6.139631e-001
      vertex -9.999290e+000 1.511215e+000 -6.139636e-001
    endloop
  endfacet
  facet normal 0.000000e+000 8.776783e-001 -4.792502e-001
    outer loop
      vertex -9.999291e+000 1.255692e+000 -1.173480e+000
      vertex -9.999290e+000 1.403461e+000 -9.028608e-001
      vertex 9.999290e+000 1.403461e+000 -9.028608e-001
    endloop
  endfacet
  facet normal 2.295736e-008 8.776776e-001 -4.792515e-001
    outer loop
      vertex 9.999290e+000 1.403461e+000 -9.028608e-001
      vertex 9.999290e+000 1.255692e+000 -1.173479e+000
      vertex -9.999291e+000 1.255692e+000 -1.173480e+000
    endloop
  endfacet
  facet normal 6.705886e-008 7.071043e-001 -7.071093e-001
    outer loop
      vertex -9.999290e+000 8.528824e-001 -1.638347e+000
      vertex -9.999290e+000 1.070911e+000 -1.420319e+000
      vertex 9.999290e+000 1.070911e+000 -1.420317e+000
    endloop
  endfacet
  facet normal 6.766181e-008 7.071043e-001 -7.071093e-001
    outer loop
      vertex 9.999290e+000 1.070911e+000 -1.420317e+000
      vertex 9.999290e+000 8.528786e-001 -1.638349e+000
      vertex -9.999290e+000 8.528824e-001 -1.638347e+000
    endloop
  endfacet
  facet normal 4.168526e-008 4.792477e-001 -8.776797e-001
    outer loop
      vertex -9.999290e+000 3.354301e-001 -1.970896e+000
      vertex -9.999291e+000 6.060524e-001 -1.823126e+000
      vertex 9.999290e+000 6.060524e-001 -1.823125e+000
    endloop
  endfacet
  facet normal 1.335122e-007 4.792424e-001 -8.776826e-001
    outer loop
      vertex 9.999290e+000 6.060524e-001 -1.823125e+000
      vertex 9.999290e+000 3.354263e-001 -1.970895e+000
      vertex -9.999290e+000 3.354301e-001 -1.970896e+000
    endloop
  endfacet
  facet normal 4.651943e-008 2.125647e-001 -9.771470e-001
    outer loop
      vertex -9.999291e+000 -2.547569e-001 -2.144190e+000
      vertex -9.999290e+000 4.652786e-002 -2.078650e+000
      vertex 9.999290e+000 4.652786e-002 -2.078649e+000
    endloop
  endfacet
  facet normal 2.325971e-008 2.125662e-001 -9.771467e-001
    outer loop
      vertex 9.999290e+000 4.652786e-002 -2.078649e+000
      vertex 9.999290e+000 -2.547569e-001 -2.144190e+000
      vertex -9.999291e+000 -2.547569e-001 -2.144190e+000
    endloop
  endfacet
  facet normal 1.151295e-011 6.572049e-005 -1.000000e+000
    outer loop
      vertex -9.999290e+000 -8.644796e+000 -2.166187e+000
      vertex -9.999290e+000 -5.548782e-001 -2.165655e+000
      vertex 9.999290e+000 -5.548820e-001 -2.165655e+000
    endloop
  endfacet
  facet normal -8.634721e-012 6.572054e-005 -1.000000e+000
    outer loop
      vertex 9.999290e+000 -5.548820e-001 -2.165655e+000
      vertex 9.999291e+000 -8.644794e+000 -2.166187e+000
      vertex -9.999290e+000 -8.644796e+000 -2.166187e+000
    endloop
  endfacet
  facet normal -1.359287e-008 7.133805e-002 9.974522e-001
    outer loop
      vertex 9.999290e+000 -5.623131e-001 2.165943e+000
      vertex 9.999290e+000 -2.547569e-001 2.143947e+000
      vertex -9.999290e+000 -2.547607e-001 2.143947e+000
    endloop
  endfacet
  facet normal 0.000000e+000 7.133893e-002 9.974521e-001
    outer loop
      vertex -9.999290e+000 -2.547607e-001 2.143947e+000
      vertex -9.999291e+000 -5.623131e-001 2.165943e+000
      vertex 9.999290e+000 -5.623131e-001 2.165943e+000
    endloop
  endfacet
  facet normal 4.470582e-008 3.494620e-001 9.369505e-001
    outer loop
      vertex 9.999290e+000 4.653168e-002 2.078404e+000
      vertex 9.999290e+000 3.354301e-001 1.970651e+000
      vertex -9.999290e+000 3.354301e-001 1.970652e+000
    endloop
  endfacet
  facet normal -2.205059e-008 3.494580e-001 9.369521e-001
    outer loop
      vertex -9.999290e+000 3.354301e-001 1.970652e+000
      vertex -9.999290e+000 4.652786e-002 2.078405e+000
      vertex 9.999290e+000 4.653168e-002 2.078404e+000
    endloop
  endfacet
  facet normal 7.612192e-008 5.992797e-001 8.005397e-001
    outer loop
      vertex 9.999290e+000 6.060486e-001 1.822881e+000
      vertex 9.999290e+000 8.528824e-001 1.638103e+000
      vertex -9.999290e+000 8.528862e-001 1.638102e+000
    endloop
  endfacet
  facet normal 9.545439e-008 5.992807e-001 8.005390e-001
    outer loop
      vertex -9.999290e+000 8.528862e-001 1.638102e+000
      vertex -9.999290e+000 6.060524e-001 1.822881e+000
      vertex 9.999290e+000 6.060486e-001 1.822881e+000
    endloop
  endfacet
  facet normal 1.522438e-007 8.005450e-001 5.992727e-001
    outer loop
      vertex 9.999290e+000 1.070911e+000 1.420073e+000
      vertex 9.999290e+000 1.255688e+000 1.173238e+000
      vertex -9.999290e+000 1.255692e+000 1.173238e+000
    endloop
  endfacet
  facet normal 2.899854e-008 8.005401e-001 5.992791e-001
    outer loop
      vertex -9.999290e+000 1.255692e+000 1.173238e+000
      vertex -9.999290e+000 1.070911e+000 1.420074e+000
      vertex 9.999290e+000 1.070911e+000 1.420073e+000
    endloop
  endfacet
  facet normal 1.537536e-007 9.369478e-001 3.494693e-001
    outer loop
      vertex 9.999290e+000 1.403461e+000 9.026160e-001
      vertex 9.999290e+000 1.511215e+000 6.137218e-001
      vertex -9.999290e+000 1.511219e+000 6.137204e-001
    endloop
  endfacet
  facet normal 4.228940e-009 9.369444e-001 3.494784e-001
    outer loop
      vertex -9.999290e+000 1.511219e+000 6.137204e-001
      vertex -9.999291e+000 1.403461e+000 9.026163e-001
      vertex 9.999290e+000 1.403461e+000 9.026160e-001
    endloop
  endfacet
  facet normal 8.240245e-010 9.974931e-001 7.076381e-002
    outer loop
      vertex 9.999290e+000 1.576756e+000 3.124292e-001
      vertex 9.999290e+000 1.598751e+000 2.377987e-003
      vertex -9.999290e+000 1.598751e+000 2.378225e-003
    endloop
  endfacet
  facet normal 8.240245e-010 9.974931e-001 7.076381e-002
    outer loop
      vertex -9.999290e+000 1.598751e+000 2.378225e-003
      vertex -9.999291e+000 1.576756e+000 3.124294e-001
      vertex 9.999290e+000 1.576756e+000 3.124292e-001
    endloop
  endfacet
  facet normal 1.253382e-009 9.975718e-001 -6.964636e-002
    outer loop
      vertex 9.999290e+000 1.598751e+000 2.377987e-003
      vertex 9.999290e+000 1.576756e+000 -3.126727e-001
      vertex -9.999291e+000 1.576756e+000 -3.126731e-001
    endloop
  endfacet
  facet normal -8.847388e-010 9.975718e-001 -6.964622e-002
    outer loop
      vertex -9.999291e+000 1.576756e+000 -3.126731e-001
      vertex -9.999290e+000 1.598751e+000 2.378225e-003
      vertex 9.999290e+000 1.598751e+000 2.377987e-003
    endloop
  endfacet
  facet normal 0.000000e+000 9.369492e-001 -3.494656e-001
    outer loop
      vertex 9.999290e+000 1.511215e+000 -6.139631e-001
      vertex 9.999290e+000 1.403461e+000 -9.028608e-001
      vertex -9.999290e+000 1.403461e+000 -9.028608e-001
    endloop
  endfacet
  facet normal 8.155816e-009 9.369490e-001 -3.494661e-001
    outer loop
      vertex -9.999290e+000 1.403461e+000 -9.028608e-001
      vertex -9.999290e+000 1.511215e+000 -6.139636e-001
      vertex 9.999290e+000 1.511215e+000 -6.139631e-001
    endloop
  endfacet
  facet normal 5.678857e-008 8.005419e-001 -5.992767e-001
    outer loop
      vertex 9.999290e+000 1.255692e+000 -1.173479e+000
      vertex 9.999290e+000 1.070911e+000 -1.420317e+000
      vertex -9.999290e+000 1.070911e+000 -1.420319e+000
    endloop
  endfacet
  facet normal 2.839421e-008 8.005431e-001 -5.992752e-001
    outer loop
      vertex -9.999290e+000 1.070911e+000 -1.420319e+000
      vertex -9.999291e+000 1.255692e+000 -1.173480e+000
      vertex 9.999290e+000 1.255692e+000 -1.173479e+000
    endloop
  endfacet
  facet normal 3.806189e-008 5.992866e-001 -8.005345e-001
    outer loop
      vertex 9.999290e+000 8.528786e-001 -1.638349e+000
      vertex 9.999290e+000 6.060524e-001 -1.823125e+000
      vertex -9.999291e+000 6.060524e-001 -1.823126e+000
    endloop
  endfacet
  facet normal 3.806131e-008 5.992866e-001 -8.005345e-001
    outer loop
      vertex -9.999291e+000 6.060524e-001 -1.823126e+000
      vertex -9.999290e+000 8.528824e-001 -1.638347e+000
      vertex 9.999290e+000 8.528786e-001 -1.638349e+000
    endloop
  endfacet
  facet normal 4.470578e-008 3.494647e-001 -9.369495e-001
    outer loop
      vertex 9.999290e+000 3.354263e-001 -1.970895e+000
      vertex 9.999290e+000 4.652786e-002 -2.078649e+000
      vertex -9.999290e+000 4.652786e-002 -2.078650e+000
    endloop
  endfacet
  facet normal 1.111590e-007 3.494607e-001 -9.369510e-001
    outer loop
      vertex -9.999290e+000 4.652786e-002 -2.078650e+000
      vertex -9.999290e+000 3.354301e-001 -1.970896e+000
      vertex 9.999290e+000 3.354263e-001 -1.970895e+000
    endloop
  endfacet
  facet normal 1.361988e-008 7.134052e-002 -9.974520e-001
    outer loop
      vertex 9.999290e+000 -2.547569e-001 -2.144190e+000
      vertex 9.999290e+000 -5.548820e-001 -2.165655e+000
      vertex -9.999290e+000 -5.548782e-001 -2.165655e+000
    endloop
  endfacet
  facet normal 2.375771e-008 7.133985e-002 -9.974521e-001
    outer loop
      vertex -9.999290e+000 -5.548782e-001 -2.165655e+000
      vertex -9.999291e+000 -2.547569e-001 -2.144190e+000
      vertex 9.999290e+000 -2.547569e-001 -2.144190e+000
    endloop
  endfacet
  facet normal -1.000000e+000 -4.192054e-005 5.953758e-006
    outer loop
      vertex -9.999290e+000 1.598751e+000 2.378225e-003
      vertex -9.999291e+000 1.576756e+000 -3.126731e-001
      vertex -9.999290e+000 1.511215e+000 -6.139636e-001
    endloop
  endfacet
  facet normal -1.000000e+000 2.036312e-005 -7.595097e-006
    outer loop
      vertex -9.999290e+000 1.511215e+000 -6.139636e-001
      vertex -9.999290e+000 1.403461e+000 -9.028608e-001
      vertex -9.999291e+000 1.255692e+000 -1.173480e+000
    endloop
  endfacet
  facet normal -1.000000e+000 1.536684e-005 -1.536695e-005
    outer loop
      vertex -9.999291e+000 1.255692e+000 -1.173480e+000
      vertex -9.999290e+000 1.070911e+000 -1.420319e+000
      vertex -9.999290e+000 8.528824e-001 -1.638347e+000
    endloop
  endfacet
  facet normal -1.000000e+000 -9.164937e-006 5.889964e-006
    outer loop
      vertex -9.999290e+000 1.511215e+000 -6.139636e-001
      vertex -9.999291e+000 1.255692e+000 -1.173480e+000
      vertex -9.999290e+000 8.528824e-001 -1.638347e+000
    endloop
  endfacet
  facet normal -1.000000e+000 0.000000e+000 0.000000e+000
    outer loop
      vertex -9.999290e+000 1.598751e+000 2.378225e-003
      vertex -9.999290e+000 1.511215e+000 -6.139636e-001
      vertex -9.999290e+000 8.528824e-001 -1.638347e+000
    endloop
  endfacet
  facet normal -1.000000e+000 7.595223e-006 -2.036381e-005
    outer loop
      vertex -9.999290e+000 3.354301e-001 -1.970896e+000
      vertex -9.999290e+000 4.652786e-002 -2.078650e+000
      vertex -9.999291e+000 -2.547569e-001 -2.144190e+000
    endloop
  endfacet
  facet normal -1.000000e+000 -4.721243e-006 2.158234e-005
    outer loop
      vertex -9.999290e+000 3.354301e-001 -1.970896e+000
      vertex -9.999291e+000 -2.547569e-001 -2.144190e+000
      vertex -9.999290e+000 -5.548782e-001 -2.165655e+000
    endloop
  endfacet
  facet normal -1.000000e+000 2.355425e-006 -1.076741e-005
    outer loop
      vertex -9.999291e+000 6.060524e-001 -1.823126e+000
      vertex -9.999290e+000 3.354301e-001 -1.970896e+000
      vertex -9.999290e+000 -5.548782e-001 -2.165655e+000
    endloop
  endfacet
  facet normal -1.000000e+000 -3.869239e-006 1.032974e-005
    outer loop
      vertex -9.999290e+000 8.528824e-001 -1.638347e+000
      vertex -9.999291e+000 6.060524e-001 -1.823126e+000
      vertex -9.999290e+000 -5.548782e-001 -2.165655e+000
    endloop
  endfacet
  facet normal -1.000000e+000 0.000000e+000 0.000000e+000
    outer loop
      vertex -9.999290e+000 1.598751e+000 2.378225e-003
      vertex -9.999290e+000 8.528824e-001 -1.638347e+000
      vertex -9.999290e+000 -5.548782e-001 -2.165655e+000
    endloop
  endfacet
  facet normal -1.000000e+000 -1.178920e-007 1.171087e-007
    outer loop
      vertex -9.999290e+000 1.598751e+000 2.378225e-003
      vertex -9.999290e+000 -5.548782e-001 -2.165655e+000
      vertex -9.999290e+000 -8.644796e+000 -2.166187e+000
    endloop
  endfacet
  facet normal -1.000000e+000 5.498044e-007 -3.036857e-006
    outer loop
      vertex -9.999291e+000 1.576756e+000 3.124294e-001
      vertex -9.999290e+000 1.598751e+000 2.378225e-003
      vertex -9.999290e+000 -8.644796e+000 -2.166187e+000
    endloop
  endfacet
  facet normal -1.000000e+000 -2.359856e-007 3.116990e-013
    outer loop
      vertex -9.999290e+000 -8.644796e+000 -2.166187e+000
      vertex -9.999290e+000 -8.644791e+000 2.165943e+000
      vertex -9.999291e+000 -5.623131e-001 2.165943e+000
    endloop
  endfacet
  facet normal -1.000000e+000 -1.457992e-007 -1.682612e-007
    outer loop
      vertex -9.999291e+000 1.576756e+000 3.124294e-001
      vertex -9.999290e+000 -8.644796e+000 -2.166187e+000
      vertex -9.999291e+000 -5.623131e-001 2.165943e+000
    endloop
  endfacet
  facet normal -1.000000e+000 3.379822e-006 3.900522e-006
    outer loop
      vertex -9.999291e+000 1.576756e+000 3.124294e-001
      vertex -9.999291e+000 -5.623131e-001 2.165943e+000
      vertex -9.999290e+000 -2.547607e-001 2.143947e+000
    endloop
  endfacet
  facet normal -1.000000e+000 3.379754e-006 3.900454e-006
    outer loop
      vertex -9.999290e+000 1.511219e+000 6.137204e-001
      vertex -9.999291e+000 1.576756e+000 3.124294e-001
      vertex -9.999290e+000 -2.547607e-001 2.143947e+000
    endloop
  endfacet
  facet normal -1.000000e+000 0.000000e+000 0.000000e+000
    outer loop
      vertex -9.999290e+000 1.511219e+000 6.137204e-001
      vertex -9.999290e+000 -2.547607e-001 2.143947e+000
      vertex -9.999290e+000 4.652786e-002 2.078405e+000
    endloop
  endfacet
  facet normal -1.000000e+000 -5.264857e-006 -5.264882e-006
    outer loop
      vertex -9.999291e+000 1.403461e+000 9.026163e-001
      vertex -9.999290e+000 1.511219e+000 6.137204e-001
      vertex -9.999290e+000 4.652786e-002 2.078405e+000
    endloop
  endfacet
  facet normal -1.000000e+000 5.311346e-007 1.424056e-006
    outer loop
      vertex -9.999291e+000 1.403461e+000 9.026163e-001
      vertex -9.999290e+000 4.652786e-002 2.078405e+000
      vertex -9.999290e+000 3.354301e-001 1.970652e+000
    endloop
  endfacet
  facet normal -1.000000e+000 5.795918e-006 6.688818e-006
    outer loop
      vertex -9.999290e+000 1.255692e+000 1.173238e+000
      vertex -9.999291e+000 1.403461e+000 9.026163e-001
      vertex -9.999290e+000 3.354301e-001 1.970652e+000
    endloop
  endfacet
  facet normal -1.000000e+000 0.000000e+000 0.000000e+000
    outer loop
      vertex -9.999290e+000 1.255692e+000 1.173238e+000
      vertex -9.999290e+000 3.354301e-001 1.970652e+000
      vertex -9.999290e+000 6.060524e-001 1.822881e+000
    endloop
  endfacet
  facet normal -1.000000e+000 0.000000e+000 0.000000e+000
    outer loop
      vertex -9.999290e+000 6.060524e-001 1.822881e+000
      vertex -9.999290e+000 8.528862e-001 1.638102e+000
      vertex -9.999290e+000 1.070911e+000 1.420074e+000
    endloop
  endfacet
  facet normal -1.000000e+000 0.000000e+000 0.000000e+000
    outer loop
      vertex -9.999290e+000 1.255692e+000 1.173238e+000
      vertex -9.999290e+000 6.060524e-001 1.822881e+000
      vertex -9.999290e+000 1.070911e+000 1.420074e+000
    endloop
  endfacet
  facet normal 1.000000e+000 0.000000e+000 0.000000e+000
    outer loop
      vertex 9.999290e+000 -2.547569e-001 -2.144190e+000
      vertex 9.999290e+000 4.652786e-002 -2.078649e+000
      vertex 9.999290e+000 3.354263e-001 -1.970895e+000
    endloop
  endfacet
  facet normal 1.000000e+000 0.000000e+000 0.000000e+000
    outer loop
      vertex 9.999290e+000 8.528786e-001 -1.638349e+000
      vertex 9.999290e+000 1.070911e+000 -1.420317e+000
      vertex 9.999290e+000 1.255692e+000 -1.173479e+000
    endloop
  endfacet
  facet normal 1.000000e+000 0.000000e+000 0.000000e+000
    outer loop
      vertex 9.999290e+000 1.255692e+000 -1.173479e+000
      vertex 9.999290e+000 1.403461e+000 -9.028608e-001
      vertex 9.999290e+000 1.511215e+000 -6.139631e-001
    endloop
  endfacet
  facet normal 1.000000e+000 0.000000e+000 0.000000e+000
    outer loop
      vertex 9.999290e+000 8.528786e-001 -1.638349e+000
      vertex 9.999290e+000 1.255692e+000 -1.173479e+000
      vertex 9.999290e+000 1.511215e+000 -6.139631e-001
    endloop
  endfacet
  facet normal 1.000000e+000 0.000000e+000 0.000000e+000
    outer loop
      vertex 9.999290e+000 1.511215e+000 -6.139631e-001
      vertex 9.999290e+000 1.576756e+000 -3.126727e-001
      vertex 9.999290e+000 1.598751e+000 2.377987e-003
    endloop
  endfacet
  facet normal 1.000000e+000 0.000000e+000 0.000000e+000
    outer loop
      vertex 9.999290e+000 8.528786e-001 -1.638349e+000
      vertex 9.999290e+000 1.511215e+000 -6.139631e-001
      vertex 9.999290e+000 1.598751e+000 2.377987e-003
    endloop
  endfacet
  facet normal 1.000000e+000 0.000000e+000 0.000000e+000
    outer loop
      vertex 9.999290e+000 1.070911e+000 1.420073e+000
      vertex 9.999290e+000 8.528824e-001 1.638103e+000
      vertex 9.999290e+000 6.060486e-001 1.822881e+000
    endloop
  endfacet
  facet normal 1.000000e+000 0.000000e+000 0.000000e+000
    outer loop
      vertex 9.999290e+000 1.255688e+000 1.173238e+000
      vertex 9.999290e+000 1.070911e+000 1.420073e+000
      vertex 9.999290e+000 6.060486e-001 1.822881e+000
    endloop
  endfacet
  facet normal 1.000000e+000 0.000000e+000 0.000000e+000
    outer loop
      vertex 9.999290e+000 1.255688e+000 1.173238e+000
      vertex 9.999290e+000 6.060486e-001 1.822881e+000
      vertex 9.999290e+000 3.354301e-001 1.970651e+000
    endloop
  endfacet
  facet normal 1.000000e+000 0.000000e+000 0.000000e+000
    outer loop
      vertex 9.999290e+000 1.403461e+000 9.026160e-001
      vertex 9.999290e+000 1.255688e+000 1.173238e+000
      vertex 9.999290e+000 3.354301e-001 1.970651e+000
    endloop
  endfacet
  facet normal 1.000000e+000 0.000000e+000 0.000000e+000
    outer loop
      vertex 9.999290e+000 1.403461e+000 9.026160e-001
      vertex 9.999290e+000 3.354301e-001 1.970651e+000
      vertex 9.999290e+000 4.653168e-002 2.078404e+000
    endloop
  endfacet
  facet normal 1.000000e+000 0.000000e+000 0.000000e+000
    outer loop
      vertex 9.999290e+000 1.511215e+000 6.137218e-001
      vertex 9.999290e+000 1.403461e+000 9.026160e-001
      vertex 9.999290e+000 4.653168e-002 2.078404e+000
    endloop
  endfacet
  facet normal 1.000000e+000 0.000000e+000 0.000000e+000
    outer loop
      vertex 9.999290e+000 1.511215e+000 6.137218e-001
      vertex 9.999290e+000 4.653168e-002 2.078404e+000
      vertex 9.999290e+000 -2.547569e-001 2.143947e+000
    endloop
  endfacet
  facet normal 1.000000e+000 0.000000e+000 0.000000e+000
    outer loop
      vertex 9.999290e+000 1.576756e+000 3.124292e-001
      vertex 9.999290e+000 1.511215e+000 6.137218e-001
      vertex 9.999290e+000 -2.547569e-001 2.143947e+000
    endloop
  endfacet
  facet normal 1.000000e+000 0.000000e+000 0.000000e+000
    outer loop
      vertex 9.999290e+000 1.598751e+000 2.377987e-003
      vertex 9.999290e+000 1.576756e+000 3.124292e-001
      vertex 9.999290e+000 -2.547569e-001 2.143947e+000
    endloop
  endfacet
  facet normal 1.000000e+000 1.179928e-007 1.649781e-006
    outer loop
      vertex 9.999290e+000 -2.547569e-001 2.143947e+000
      vertex 9.999290e+000 -5.623131e-001 2.165943e+000
      vertex 9.999291e+000 -8.644794e+000 2.165943e+000
    endloop
  endfacet
  facet normal 1.000000e+000 1.136675e-007 0.000000e+000
    outer loop
      vertex 9.999290e+000 -2.547569e-001 2.143947e+000
      vertex 9.999291e+000 -8.644794e+000 2.165943e+000
      vertex 9.999291e+000 -8.644794e+000 -2.166187e+000
    endloop
  endfacet
  facet normal 1.000000e+000 7.868329e-008 6.809965e-008
    outer loop
      vertex 9.999290e+000 1.598751e+000 2.377987e-003
      vertex 9.999290e+000 -2.547569e-001 2.143947e+000
      vertex 9.999291e+000 -8.644794e+000 -2.166187e+000
    endloop
  endfacet
  facet normal 1.000000e+000 1.030140e-007 -4.683004e-008
    outer loop
      vertex 9.999290e+000 8.528786e-001 -1.638349e+000
      vertex 9.999290e+000 1.598751e+000 2.377987e-003
      vertex 9.999291e+000 -8.644794e+000 -2.166187e+000
    endloop
  endfacet
  facet normal 1.000000e+000 1.179051e-007 -3.147733e-007
    outer loop
      vertex 9.999290e+000 8.528786e-001 -1.638349e+000
      vertex 9.999291e+000 -8.644794e+000 -2.166187e+000
      vertex 9.999290e+000 -5.548820e-001 -2.165655e+000
    endloop
  endfacet
  facet normal 1.000000e+000 -0.000000e+000 0.000000e+000
    outer loop
      vertex 9.999290e+000 6.060524e-001 -1.823125e+000
      vertex 9.999290e+000 8.528786e-001 -1.638349e+000
      vertex 9.999290e+000 -5.548820e-001 -2.165655e+000
    endloop
  endfacet
  facet normal 1.000000e+000 -0.000000e+000 0.000000e+000
    outer loop
      vertex 9.999290e+000 3.354263e-001 -1.970895e+000
      vertex 9.999290e+000 6.060524e-001 -1.823125e+000
      vertex 9.999290e+000 -5.548820e-001 -2.165655e+000
    endloop
  endfacet
  facet normal 1.000000e+000 -0.000000e+000 0.000000e+000
    outer loop
      vertex 9.999290e+000 -2.547569e-001 -2.144190e+000
      vertex 9.999290e+000 3.354263e-001 -1.970895e+000
      vertex 9.999290e+000 -5.548820e-001 -2.165655e+000
    endloop
  endfacet
  facet normal 9.537420e-008 -1.000000e+000 1.320839e-006
    outer loop
      vertex -9.999290e+000 -8.644791e+000 2.165943e+000
      vertex -9.999290e+000 -8.644796e+000 -2.166187e+000
      vertex 9.999291e+000 -8.644794e+000 -2.166187e+000
    endloop
  endfacet
  facet normal -1.907484e-007 -1.000000e+000 -0.000000e+000
    outer loop
      vertex 9.999291e+000 -8.644794e+000 -2.166187e+000
      vertex 9.999291e+000 -8.644794e+000 2.165943e+000
      vertex -9.999290e+000 -8.644791e+000 2.165943e+000
    endloop
  endfacet
endsolid Object01
