solid Object01
  facet normal -7.133981e-002 -2.034304e-008 9.974521e-001
    outer loop
      vertex 2.731857e-001 -9.985157e+000 2.143190e+000
      vertex 5.807343e-001 -9.985157e+000 2.165186e+000
      vertex 5.807419e-001 9.985158e+000 2.165187e+000
    endloop
  endfacet
  facet normal -7.133981e-002 -2.034304e-008 9.974521e-001
    outer loop
      vertex 5.807419e-001 9.985158e+000 2.165187e+000
      vertex 2.731934e-001 9.985158e+000 2.143191e+000
      vertex 2.731857e-001 -9.985157e+000 2.143190e+000
    endloop
  endfacet
  facet normal -2.125629e-001 3.454358e-008 9.771474e-001
    outer loop
      vertex 2.731857e-001 -9.985157e+000 2.143190e+000
      vertex 2.731934e-001 9.985158e+000 2.143191e+000
      vertex -2.810287e-002 9.985159e+000 2.077649e+000
    endloop
  endfacet
  facet normal -2.125651e-001 0.000000e+000 9.771469e-001
    outer loop
      vertex -2.810287e-002 9.985159e+000 2.077649e+000
      vertex -2.810287e-002 -9.985157e+000 2.077649e+000
      vertex 2.731857e-001 -9.985157e+000 2.143190e+000
    endloop
  endfacet
  facet normal -3.494647e-001 0.000000e+000 9.369496e-001
    outer loop
      vertex -2.810287e-002 -9.985157e+000 2.077649e+000
      vertex -2.810287e-002 9.985159e+000 2.077649e+000
      vertex -3.169937e-001 9.985158e+000 1.969898e+000
    endloop
  endfacet
  facet normal -3.494661e-001 -2.237181e-008 9.369490e-001
    outer loop
      vertex -3.169937e-001 9.985158e+000 1.969898e+000
      vertex -3.169937e-001 -9.985157e+000 1.969897e+000
      vertex -2.810287e-002 -9.985157e+000 2.077649e+000
    endloop
  endfacet
  facet normal -4.792456e-001 -2.095665e-008 8.776808e-001
    outer loop
      vertex -3.169937e-001 -9.985157e+000 1.969897e+000
      vertex -3.169937e-001 9.985158e+000 1.969898e+000
      vertex -5.876236e-001 9.985159e+000 1.822124e+000
    endloop
  endfacet
  facet normal -4.792484e-001 -7.058865e-008 8.776793e-001
    outer loop
      vertex -5.876236e-001 9.985159e+000 1.822124e+000
      vertex -5.876198e-001 -9.985157e+000 1.822124e+000
      vertex -3.169937e-001 -9.985157e+000 1.969897e+000
    endloop
  endfacet
  facet normal -5.992855e-001 -9.535992e-008 8.005354e-001
    outer loop
      vertex -5.876198e-001 -9.985157e+000 1.822124e+000
      vertex -5.876236e-001 9.985159e+000 1.822124e+000
      vertex -8.294449e-001 9.985158e+000 1.641095e+000
    endloop
  endfacet
  facet normal -5.992792e-001 2.287216e-008 8.005401e-001
    outer loop
      vertex -8.294449e-001 9.985158e+000 1.641095e+000
      vertex -8.280220e-001 -9.985157e+000 1.642161e+000
      vertex -5.876198e-001 -9.985157e+000 1.822124e+000
    endloop
  endfacet
  facet normal -7.049736e-001 -1.238049e-005 7.092335e-001
    outer loop
      vertex -8.280220e-001 -9.985157e+000 1.642161e+000
      vertex -8.294449e-001 9.985158e+000 1.641095e+000
      vertex -1.039272e+000 9.985159e+000 1.432528e+000
    endloop
  endfacet
  facet normal -7.044221e-001 -7.944380e-007 7.097813e-001
    outer loop
      vertex -1.039272e+000 9.985159e+000 1.432528e+000
      vertex -1.035286e+000 -9.985157e+000 1.436462e+000
      vertex -8.280220e-001 -9.985157e+000 1.642161e+000
    endloop
  endfacet
  facet normal -7.956340e-001 -3.948909e-005 6.057776e-001
    outer loop
      vertex -1.035286e+000 -9.985157e+000 1.436462e+000
      vertex -1.039272e+000 9.985159e+000 1.432528e+000
      vertex -1.237267e+000 9.985158e+000 1.172481e+000
    endloop
  endfacet
  facet normal -7.942930e-001 -2.698917e-006 6.075348e-001
    outer loop
      vertex -1.237267e+000 9.985158e+000 1.172481e+000
      vertex -1.237225e+000 -9.985156e+000 1.172447e+000
      vertex -1.035286e+000 -9.985157e+000 1.436462e+000
    endloop
  endfacet
  facet normal -8.776845e-001 -2.656641e-006 4.792389e-001
    outer loop
      vertex -1.237225e+000 -9.985156e+000 1.172447e+000
      vertex -1.237267e+000 9.985158e+000 1.172481e+000
      vertex -1.385033e+000 9.985158e+000 9.018598e-001
    endloop
  endfacet
  facet normal -8.776029e-001 -2.861625e-008 4.793883e-001
    outer loop
      vertex -1.385033e+000 9.985158e+000 9.018598e-001
      vertex -1.385033e+000 -9.985157e+000 9.018586e-001
      vertex -1.237225e+000 -9.985156e+000 1.172447e+000
    endloop
  endfacet
  facet normal -9.369531e-001 -2.086011e-008 3.494551e-001
    outer loop
      vertex -1.385033e+000 -9.985157e+000 9.018586e-001
      vertex -1.385033e+000 9.985158e+000 9.018598e-001
      vertex -1.492783e+000 9.985158e+000 6.129625e-001
    endloop
  endfacet
  facet normal -9.369525e-001 4.172041e-009 3.494567e-001
    outer loop
      vertex -1.492783e+000 9.985158e+000 6.129625e-001
      vertex -1.492783e+000 -9.985157e+000 6.129627e-001
      vertex -1.385033e+000 -9.985157e+000 9.018586e-001
    endloop
  endfacet
  facet normal -9.771425e-001 2.537981e-009 2.125853e-001
    outer loop
      vertex -1.492783e+000 -9.985157e+000 6.129627e-001
      vertex -1.492783e+000 9.985158e+000 6.129625e-001
      vertex -1.558331e+000 9.985158e+000 3.116732e-001
    endloop
  endfacet
  facet normal -9.771452e-001 -1.942662e-007 2.125728e-001
    outer loop
      vertex -1.558331e+000 9.985158e+000 3.116732e-001
      vertex -1.558327e+000 -9.985157e+000 3.116724e-001
      vertex -1.492783e+000 -9.985157e+000 6.129627e-001
    endloop
  endfacet
  facet normal -9.974940e-001 -1.930737e-007 7.075155e-002
    outer loop
      vertex -1.558327e+000 -9.985157e+000 3.116724e-001
      vertex -1.558331e+000 9.985158e+000 3.116732e-001
      vertex -1.580322e+000 9.985158e+000 1.621723e-003
    endloop
  endfacet
  facet normal -9.974914e-001 3.827686e-007 7.078844e-002
    outer loop
      vertex -1.580322e+000 9.985158e+000 1.621723e-003
      vertex -1.580330e+000 -9.985157e+000 1.622200e-003
      vertex -1.558327e+000 -9.985157e+000 3.116724e-001
    endloop
  endfacet
  facet normal -9.975675e-001 3.794254e-007 -6.970656e-002
    outer loop
      vertex -1.558315e+000 -9.985157e+000 -3.134280e-001
      vertex -1.580330e+000 -9.985157e+000 1.622200e-003
      vertex -1.580322e+000 9.985158e+000 1.621723e-003
    endloop
  endfacet
  facet normal -9.975718e-001 -5.737548e-007 -6.964643e-002
    outer loop
      vertex -1.580322e+000 9.985158e+000 1.621723e-003
      vertex -1.558327e+000 9.985158e+000 -3.134286e-001
      vertex -1.558315e+000 -9.985157e+000 -3.134280e-001
    endloop
  endfacet
  facet normal -9.771504e-001 -5.663049e-007 -2.125491e-001
    outer loop
      vertex -1.558315e+000 -9.985157e+000 -3.134280e-001
      vertex -1.558327e+000 9.985158e+000 -3.134286e-001
      vertex -1.492790e+000 9.985159e+000 -6.147192e-001
    endloop
  endfacet
  facet normal -9.771581e-001 -8.879946e-009 -2.125138e-001
    outer loop
      vertex -1.492790e+000 9.985159e+000 -6.147192e-001
      vertex -1.492790e+000 -9.985157e+000 -6.147183e-001
      vertex -1.558315e+000 -9.985157e+000 -3.134280e-001
    endloop
  endfacet
  facet normal -9.369454e-001 -1.460294e-008 -3.494757e-001
    outer loop
      vertex -1.492790e+000 -9.985157e+000 -6.147183e-001
      vertex -1.492790e+000 9.985159e+000 -6.147192e-001
      vertex -1.385033e+000 9.985158e+000 -9.036175e-001
    endloop
  endfacet
  facet normal -9.369451e-001 -2.920595e-008 -3.494766e-001
    outer loop
      vertex -1.385033e+000 9.985158e+000 -9.036175e-001
      vertex -1.385033e+000 -9.985157e+000 -9.036158e-001
      vertex -1.492790e+000 -9.985157e+000 -6.147183e-001
    endloop
  endfacet
  facet normal -8.776778e-001 -4.005129e-008 -4.792512e-001
    outer loop
      vertex -1.385033e+000 -9.985157e+000 -9.036158e-001
      vertex -1.385033e+000 9.985158e+000 -9.036175e-001
      vertex -1.237263e+000 9.985158e+000 -1.174236e+000
    endloop
  endfacet
  facet normal -8.776749e-001 -1.304612e-007 -4.792564e-001
    outer loop
      vertex -1.237263e+000 9.985158e+000 -1.174236e+000
      vertex -1.237259e+000 -9.985157e+000 -1.174238e+000
      vertex -1.385033e+000 -9.985157e+000 -9.036158e-001
    endloop
  endfacet
  facet normal -8.005422e-001 -1.064137e-007 -5.992763e-001
    outer loop
      vertex -1.237259e+000 -9.985157e+000 -1.174238e+000
      vertex -1.237263e+000 9.985158e+000 -1.174236e+000
      vertex -1.052483e+000 9.985159e+000 -1.421075e+000
    endloop
  endfacet
  facet normal -8.005501e-001 9.568438e-008 -5.992658e-001
    outer loop
      vertex -1.052483e+000 9.985159e+000 -1.421075e+000
      vertex -1.052486e+000 -9.985157e+000 -1.421073e+000
      vertex -1.237259e+000 -9.985157e+000 -1.174238e+000
    endloop
  endfacet
  facet normal -7.071085e-001 6.753569e-008 -7.071050e-001
    outer loop
      vertex -1.052486e+000 -9.985157e+000 -1.421073e+000
      vertex -1.052483e+000 9.985159e+000 -1.421075e+000
      vertex -8.344574e-001 9.985158e+000 -1.639101e+000
    endloop
  endfacet
  facet normal -7.071018e-001 -8.019862e-008 -7.071118e-001
    outer loop
      vertex -8.344574e-001 9.985158e+000 -1.639101e+000
      vertex -8.344574e-001 -9.985157e+000 -1.639099e+000
      vertex -1.052486e+000 -9.985157e+000 -1.421073e+000
    endloop
  endfacet
  facet normal -5.992807e-001 -9.079486e-008 -8.005390e-001
    outer loop
      vertex -8.344574e-001 -9.985157e+000 -1.639099e+000
      vertex -8.344574e-001 9.985158e+000 -1.639101e+000
      vertex -5.876236e-001 9.985159e+000 -1.823880e+000
    endloop
  endfacet
  facet normal -5.992861e-001 1.433596e-008 -8.005349e-001
    outer loop
      vertex -5.876236e-001 9.985159e+000 -1.823880e+000
      vertex -5.876236e-001 -9.985157e+000 -1.823880e+000
      vertex -8.344574e-001 -9.985157e+000 -1.639099e+000
    endloop
  endfacet
  facet normal -4.792432e-001 1.571751e-008 -8.776821e-001
    outer loop
      vertex -5.876236e-001 -9.985157e+000 -1.823880e+000
      vertex -5.876236e-001 9.985159e+000 -1.823880e+000
      vertex -3.169937e-001 9.985158e+000 -1.971653e+000
    endloop
  endfacet
  facet normal -4.792437e-001 2.343516e-008 -8.776819e-001
    outer loop
      vertex -3.169937e-001 9.985158e+000 -1.971653e+000
      vertex -3.169975e-001 -9.985157e+000 -1.971651e+000
      vertex -5.876236e-001 -9.985157e+000 -1.823880e+000
    endloop
  endfacet
  facet normal -3.494633e-001 -5.954539e-009 -9.369500e-001
    outer loop
      vertex -3.169975e-001 -9.985157e+000 -1.971651e+000
      vertex -3.169937e-001 9.985158e+000 -1.971653e+000
      vertex -2.809906e-002 9.985158e+000 -2.079404e+000
    endloop
  endfacet
  facet normal -3.494651e-001 2.237182e-008 -9.369494e-001
    outer loop
      vertex -2.809906e-002 9.985158e+000 -2.079404e+000
      vertex -2.809906e-002 -9.985157e+000 -2.079405e+000
      vertex -3.169975e-001 -9.985157e+000 -1.971651e+000
    endloop
  endfacet
  facet normal -2.125651e-001 2.333163e-008 -9.771469e-001
    outer loop
      vertex -2.809906e-002 -9.985157e+000 -2.079405e+000
      vertex -2.809906e-002 9.985158e+000 -2.079404e+000
      vertex 2.731895e-001 9.985158e+000 -2.144946e+000
    endloop
  endfacet
  facet normal -2.125640e-001 6.059631e-009 -9.771472e-001
    outer loop
      vertex 2.731895e-001 9.985158e+000 -2.144946e+000
      vertex 2.731934e-001 -9.985157e+000 -2.144947e+000
      vertex -2.809906e-002 -9.985157e+000 -2.079405e+000
    endloop
  endfacet
  facet normal -7.134201e-002 3.400528e-008 -9.974519e-001
    outer loop
      vertex 2.731934e-001 -9.985157e+000 -2.144947e+000
      vertex 2.731895e-001 9.985158e+000 -2.144946e+000
      vertex 5.807419e-001 9.985158e+000 -2.166943e+000
    endloop
  endfacet
  facet normal -7.134157e-002 2.725510e-008 -9.974520e-001
    outer loop
      vertex 5.807419e-001 9.985158e+000 -2.166943e+000
      vertex 5.807343e-001 -9.985157e+000 -2.166943e+000
      vertex 2.731934e-001 -9.985157e+000 -2.144947e+000
    endloop
  endfacet
  facet normal 0.000000e+000 0.000000e+000 -1.000000e+000
    outer loop
      vertex 5.807343e-001 -9.985157e+000 -2.166943e+000
      vertex 5.807419e-001 9.985158e+000 -2.166943e+000
      vertex 8.418816e+000 9.985157e+000 -2.166943e+000
    endloop
  endfacet
  facet normal 0.000000e+000 0.000000e+000 -1.000000e+000
    outer loop
      vertex 8.418816e+000 9.985157e+000 -2.166943e+000
      vertex 8.418816e+000 -9.985158e+000 -2.166943e+000
      vertex 5.807343e-001 -9.985157e+000 -2.166943e+000
    endloop
  endfacet
  facet normal -7.595040e-006 1.000000e+000 -2.036315e-005
    outer loop
      vertex -2.809906e-002 9.985158e+000 -2.079404e+000
      vertex -3.169937e-001 9.985158e+000 -1.971653e+000
      vertex -5.876236e-001 9.985159e+000 -1.823880e+000
    endloop
  endfacet
  facet normal -2.839253e-005 1.000000e+000 -3.276651e-005
    outer loop
      vertex -5.876236e-001 9.985159e+000 -1.823880e+000
      vertex -8.344574e-001 9.985158e+000 -1.639101e+000
      vertex -1.052483e+000 9.985159e+000 -1.421075e+000
    endloop
  endfacet
  facet normal -1.907522e-005 1.000000e+000 -1.041592e-005
    outer loop
      vertex -1.052483e+000 9.985159e+000 -1.421075e+000
      vertex -1.237263e+000 9.985158e+000 -1.174236e+000
      vertex -1.385033e+000 9.985158e+000 -9.036175e-001
    endloop
  endfacet
  facet normal 3.603893e-006 1.000000e+000 4.159087e-006
    outer loop
      vertex -5.876236e-001 9.985159e+000 -1.823880e+000
      vertex -1.052483e+000 9.985159e+000 -1.421075e+000
      vertex -1.385033e+000 9.985158e+000 -9.036175e-001
    endloop
  endfacet
  facet normal 4.159095e-005 1.000000e+000 1.221213e-005
    outer loop
      vertex -1.385033e+000 9.985158e+000 -9.036175e-001
      vertex -1.492790e+000 9.985159e+000 -6.147192e-001
      vertex -1.558327e+000 9.985158e+000 -3.134286e-001
    endloop
  endfacet
  facet normal 0.000000e+000 1.000000e+000 0.000000e+000
    outer loop
      vertex -1.558327e+000 9.985158e+000 -3.134286e-001
      vertex -1.580322e+000 9.985158e+000 1.621723e-003
      vertex -1.558331e+000 9.985158e+000 3.116732e-001
    endloop
  endfacet
  facet normal 0.000000e+000 1.000000e+000 0.000000e+000
    outer loop
      vertex -1.385033e+000 9.985158e+000 -9.036175e-001
      vertex -1.558327e+000 9.985158e+000 -3.134286e-001
      vertex -1.558331e+000 9.985158e+000 3.116732e-001
    endloop
  endfacet
  facet normal 0.000000e+000 1.000000e+000 0.000000e+000
    outer loop
      vertex -1.558331e+000 9.985158e+000 3.116732e-001
      vertex -1.492783e+000 9.985158e+000 6.129625e-001
      vertex -1.385033e+000 9.985158e+000 9.018598e-001
    endloop
  endfacet
  facet normal -1.702945e-005 1.000000e+000 9.298528e-006
    outer loop
      vertex -1.385033e+000 9.985158e+000 9.018598e-001
      vertex -1.237267e+000 9.985158e+000 1.172481e+000
      vertex -1.039272e+000 9.985159e+000 1.432528e+000
    endloop
  endfacet
  facet normal -5.020952e-006 1.000000e+000 1.474314e-006
    outer loop
      vertex -1.558331e+000 9.985158e+000 3.116732e-001
      vertex -1.385033e+000 9.985158e+000 9.018598e-001
      vertex -1.039272e+000 9.985159e+000 1.432528e+000
    endloop
  endfacet
  facet normal -1.404756e-006 1.000000e+000 -2.003152e-007
    outer loop
      vertex -1.385033e+000 9.985158e+000 -9.036175e-001
      vertex -1.558331e+000 9.985158e+000 3.116732e-001
      vertex -1.039272e+000 9.985159e+000 1.432528e+000
    endloop
  endfacet
  facet normal -2.984040e-005 1.000000e+000 3.459321e-005
    outer loop
      vertex -1.039272e+000 9.985159e+000 1.432528e+000
      vertex -8.294449e-001 9.985158e+000 1.641095e+000
      vertex -5.876236e-001 9.985159e+000 1.822124e+000
    endloop
  endfacet
  facet normal -1.801106e-005 1.000000e+000 3.943871e-005
    outer loop
      vertex -5.876236e-001 9.985159e+000 1.822124e+000
      vertex -3.169937e-001 9.985158e+000 1.969898e+000
      vertex -2.810287e-002 9.985159e+000 2.077649e+000
    endloop
  endfacet
  facet normal 0.000000e+000 1.000000e+000 0.000000e+000
    outer loop
      vertex -1.039272e+000 9.985159e+000 1.432528e+000
      vertex -5.876236e-001 9.985159e+000 1.822124e+000
      vertex -2.810287e-002 9.985159e+000 2.077649e+000
    endloop
  endfacet
  facet normal 2.876030e-007 1.000000e+000 -4.507922e-007
    outer loop
      vertex -1.385033e+000 9.985158e+000 -9.036175e-001
      vertex -1.039272e+000 9.985159e+000 1.432528e+000
      vertex -2.810287e-002 9.985159e+000 2.077649e+000
    endloop
  endfacet
  facet normal -1.550449e-006 1.000000e+000 2.167792e-005
    outer loop
      vertex -2.810287e-002 9.985159e+000 2.077649e+000
      vertex 2.731934e-001 9.985158e+000 2.143191e+000
      vertex 5.807419e-001 9.985158e+000 2.165187e+000
    endloop
  endfacet
  facet normal 3.650161e-007 1.000000e+000 4.402796e-007
    outer loop
      vertex 5.807419e-001 9.985158e+000 2.165187e+000
      vertex 8.418816e+000 9.985155e+000 2.165187e+000
      vertex 8.418816e+000 9.985157e+000 -2.166943e+000
    endloop
  endfacet
  facet normal 1.268131e-006 1.000000e+000 2.074275e-006
    outer loop
      vertex -2.810287e-002 9.985159e+000 2.077649e+000
      vertex 5.807419e-001 9.985158e+000 2.165187e+000
      vertex 8.418816e+000 9.985157e+000 -2.166943e+000
    endloop
  endfacet
  facet normal 5.294903e-008 1.000000e+000 -3.439889e-007
    outer loop
      vertex -1.385033e+000 9.985158e+000 -9.036175e-001
      vertex -2.810287e-002 9.985159e+000 2.077649e+000
      vertex 8.418816e+000 9.985157e+000 -2.166943e+000
    endloop
  endfacet
  facet normal 2.598258e-007 1.000000e+000 1.261447e-006
    outer loop
      vertex -5.876236e-001 9.985159e+000 -1.823880e+000
      vertex -1.385033e+000 9.985158e+000 -9.036175e-001
      vertex 8.418816e+000 9.985157e+000 -2.166943e+000
    endloop
  endfacet
  facet normal 7.594706e-008 1.000000e+000 -3.565919e-006
    outer loop
      vertex -2.809906e-002 9.985158e+000 -2.079404e+000
      vertex -5.876236e-001 9.985159e+000 -1.823880e+000
      vertex 8.418816e+000 9.985157e+000 -2.166943e+000
    endloop
  endfacet
  facet normal 1.185498e-007 1.000000e+000 5.449650e-007
    outer loop
      vertex 2.731895e-001 9.985158e+000 -2.144946e+000
      vertex -2.809906e-002 9.985158e+000 -2.079404e+000
      vertex 8.418816e+000 9.985157e+000 -2.166943e+000
    endloop
  endfacet
  facet normal 1.216720e-007 1.000000e+000 1.701130e-006
    outer loop
      vertex 2.731895e-001 9.985158e+000 -2.144946e+000
      vertex 8.418816e+000 9.985157e+000 -2.166943e+000
      vertex 5.807419e-001 9.985158e+000 -2.166943e+000
    endloop
  endfacet
  facet normal -1.216719e-007 0.000000e+000 1.000000e+000
    outer loop
      vertex 5.807343e-001 -9.985157e+000 2.165186e+000
      vertex 8.418816e+000 -9.985159e+000 2.165187e+000
      vertex 8.418816e+000 9.985155e+000 2.165187e+000
    endloop
  endfacet
  facet normal -1.743120e-014 -4.775460e-008 1.000000e+000
    outer loop
      vertex 8.418816e+000 9.985155e+000 2.165187e+000
      vertex 5.807419e-001 9.985158e+000 2.165187e+000
      vertex 5.807343e-001 -9.985157e+000 2.165186e+000
    endloop
  endfacet
  facet normal 1.000000e+000 0.000000e+000 0.000000e+000
    outer loop
      vertex 8.418816e+000 -9.985158e+000 -2.166943e+000
      vertex 8.418816e+000 9.985157e+000 -2.166943e+000
      vertex 8.418816e+000 9.985155e+000 2.165187e+000
    endloop
  endfacet
  facet normal 1.000000e+000 0.000000e+000 0.000000e+000
    outer loop
      vertex 8.418816e+000 9.985155e+000 2.165187e+000
      vertex 8.418816e+000 -9.985159e+000 2.165187e+000
      vertex 8.418816e+000 -9.985158e+000 -2.166943e+000
    endloop
  endfacet
  facet normal -2.433438e-007 -1.000000e+000 -2.201398e-007
    outer loop
      vertex 8.418816e+000 -9.985158e+000 -2.166943e+000
      vertex 8.418816e+000 -9.985159e+000 2.165187e+000
      vertex 5.807343e-001 -9.985157e+000 2.165186e+000
    endloop
  endfacet
  facet normal 0.000000e+000 -1.000000e+000 0.000000e+000
    outer loop
      vertex -3.169937e-001 -9.985157e+000 1.969897e+000
      vertex -5.876198e-001 -9.985157e+000 1.822124e+000
      vertex -8.280220e-001 -9.985157e+000 1.642161e+000
    endloop
  endfacet
  facet normal 0.000000e+000 -1.000000e+000 0.000000e+000
    outer loop
      vertex -2.810287e-002 -9.985157e+000 2.077649e+000
      vertex -3.169937e-001 -9.985157e+000 1.969897e+000
      vertex -8.280220e-001 -9.985157e+000 1.642161e+000
    endloop
  endfacet
  facet normal 0.000000e+000 -1.000000e+000 0.000000e+000
    outer loop
      vertex -2.810287e-002 -9.985157e+000 2.077649e+000
      vertex -8.280220e-001 -9.985157e+000 1.642161e+000
      vertex -1.035286e+000 -9.985157e+000 1.436462e+000
    endloop
  endfacet
  facet normal 0.000000e+000 -1.000000e+000 0.000000e+000
    outer loop
      vertex 2.731857e-001 -9.985157e+000 2.143190e+000
      vertex -2.810287e-002 -9.985157e+000 2.077649e+000
      vertex -1.035286e+000 -9.985157e+000 1.436462e+000
    endloop
  endfacet
  facet normal 0.000000e+000 -1.000000e+000 0.000000e+000
    outer loop
      vertex 5.807343e-001 -9.985157e+000 2.165186e+000
      vertex 2.731857e-001 -9.985157e+000 2.143190e+000
      vertex -1.035286e+000 -9.985157e+000 1.436462e+000
    endloop
  endfacet
  facet normal -3.264291e-005 -1.000000e+000 2.135555e-005
    outer loop
      vertex -1.035286e+000 -9.985157e+000 1.436462e+000
      vertex -1.237225e+000 -9.985156e+000 1.172447e+000
      vertex -1.385033e+000 -9.985157e+000 9.018586e-001
    endloop
  endfacet
  facet normal 0.000000e+000 -1.000000e+000 0.000000e+000
    outer loop
      vertex 5.807343e-001 -9.985157e+000 2.165186e+000
      vertex -1.035286e+000 -9.985157e+000 1.436462e+000
      vertex -1.385033e+000 -9.985157e+000 9.018586e-001
    endloop
  endfacet
  facet normal 0.000000e+000 -1.000000e+000 0.000000e+000
    outer loop
      vertex -1.385033e+000 -9.985157e+000 9.018586e-001
      vertex -1.492783e+000 -9.985157e+000 6.129627e-001
      vertex -1.558327e+000 -9.985157e+000 3.116724e-001
    endloop
  endfacet
  facet normal 0.000000e+000 -1.000000e+000 0.000000e+000
    outer loop
      vertex -1.558327e+000 -9.985157e+000 3.116724e-001
      vertex -1.580330e+000 -9.985157e+000 1.622200e-003
      vertex -1.558315e+000 -9.985157e+000 -3.134280e-001
    endloop
  endfacet
  facet normal 0.000000e+000 -1.000000e+000 0.000000e+000
    outer loop
      vertex -1.385033e+000 -9.985157e+000 9.018586e-001
      vertex -1.558327e+000 -9.985157e+000 3.116724e-001
      vertex -1.558315e+000 -9.985157e+000 -3.134280e-001
    endloop
  endfacet
  facet normal 0.000000e+000 -1.000000e+000 0.000000e+000
    outer loop
      vertex -1.558315e+000 -9.985157e+000 -3.134280e-001
      vertex -1.492790e+000 -9.985157e+000 -6.147183e-001
      vertex -1.385033e+000 -9.985157e+000 -9.036158e-001
    endloop
  endfacet
  facet normal 0.000000e+000 -1.000000e+000 0.000000e+000
    outer loop
      vertex -1.385033e+000 -9.985157e+000 -9.036158e-001
      vertex -1.237259e+000 -9.985157e+000 -1.174238e+000
      vertex -1.052486e+000 -9.985157e+000 -1.421073e+000
    endloop
  endfacet
  facet normal 0.000000e+000 -1.000000e+000 0.000000e+000
    outer loop
      vertex -1.558315e+000 -9.985157e+000 -3.134280e-001
      vertex -1.385033e+000 -9.985157e+000 -9.036158e-001
      vertex -1.052486e+000 -9.985157e+000 -1.421073e+000
    endloop
  endfacet
  facet normal 0.000000e+000 -1.000000e+000 0.000000e+000
    outer loop
      vertex -1.385033e+000 -9.985157e+000 9.018586e-001
      vertex -1.558315e+000 -9.985157e+000 -3.134280e-001
      vertex -1.052486e+000 -9.985157e+000 -1.421073e+000
    endloop
  endfacet
  facet normal 0.000000e+000 -1.000000e+000 0.000000e+000
    outer loop
      vertex 5.807343e-001 -9.985157e+000 2.165186e+000
      vertex -1.385033e+000 -9.985157e+000 9.018586e-001
      vertex -1.052486e+000 -9.985157e+000 -1.421073e+000
    endloop
  endfacet
  facet normal 0.000000e+000 -1.000000e+000 0.000000e+000
    outer loop
      vertex -1.052486e+000 -9.985157e+000 -1.421073e+000
      vertex -8.344574e-001 -9.985157e+000 -1.639099e+000
      vertex -5.876236e-001 -9.985157e+000 -1.823880e+000
    endloop
  endfacet
  facet normal 0.000000e+000 -1.000000e+000 0.000000e+000
    outer loop
      vertex 5.807343e-001 -9.985157e+000 2.165186e+000
      vertex -1.052486e+000 -9.985157e+000 -1.421073e+000
      vertex -5.876236e-001 -9.985157e+000 -1.823880e+000
    endloop
  endfacet
  facet normal -1.047198e-007 -1.000000e+000 3.067138e-008
    outer loop
      vertex 8.418816e+000 -9.985158e+000 -2.166943e+000
      vertex 5.807343e-001 -9.985157e+000 2.165186e+000
      vertex -5.876236e-001 -9.985157e+000 -1.823880e+000
    endloop
  endfacet
  facet normal 0.000000e+000 -1.000000e+000 0.000000e+000
    outer loop
      vertex -5.876236e-001 -9.985157e+000 -1.823880e+000
      vertex -3.169975e-001 -9.985157e+000 -1.971651e+000
      vertex -2.809906e-002 -9.985157e+000 -2.079405e+000
    endloop
  endfacet
  facet normal 0.000000e+000 -1.000000e+000 0.000000e+000
    outer loop
      vertex -2.809906e-002 -9.985157e+000 -2.079405e+000
      vertex 2.731934e-001 -9.985157e+000 -2.144947e+000
      vertex 5.807343e-001 -9.985157e+000 -2.166943e+000
    endloop
  endfacet
  facet normal 0.000000e+000 -1.000000e+000 0.000000e+000
    outer loop
      vertex -5.876236e-001 -9.985157e+000 -1.823880e+000
      vertex -2.809906e-002 -9.985157e+000 -2.079405e+000
      vertex 5.807343e-001 -9.985157e+000 -2.166943e+000
    endloop
  endfacet
  facet normal -1.216719e-007 -1.000000e+000 -4.143738e-007
    outer loop
      vertex 8.418816e+000 -9.985158e+000 -2.166943e+000
      vertex -5.876236e-001 -9.985157e+000 -1.823880e+000
      vertex 5.807343e-001 -9.985157e+000 -2.166943e+000
    endloop
  endfacet
endsolid Object01
