solid Object01
  facet normal 0.000000e+000 0.000000e+000 1.000000e+000
    outer loop
      vertex 9.997406e+000 -3.783894e+001 4.332130e+000
      vertex 9.997406e+000 -2.999977e+001 4.332130e+000
      vertex -1.000117e+001 -2.999977e+001 4.332130e+000
    endloop
  endfacet
  facet normal 0.000000e+000 -0.000000e+000 1.000000e+000
    outer loop
      vertex -1.000117e+001 -2.999977e+001 4.332130e+000
      vertex -1.000117e+001 -3.783894e+001 4.332130e+000
      vertex 9.997406e+000 -3.783894e+001 4.332130e+000
    endloop
  endfacet
  facet normal 0.000000e+000 -7.133805e-002 9.974522e-001
    outer loop
      vertex 9.997406e+000 -3.783894e+001 4.332130e+000
      vertex -1.000117e+001 -3.783894e+001 4.332130e+000
      vertex -1.000117e+001 -3.814649e+001 4.310134e+000
    endloop
  endfacet
  facet normal 0.000000e+000 -7.133805e-002 9.974522e-001
    outer loop
      vertex -1.000117e+001 -3.814649e+001 4.310134e+000
      vertex 9.997406e+000 -3.814649e+001 4.310134e+000
      vertex 9.997406e+000 -3.783894e+001 4.332130e+000
    endloop
  endfacet
  facet normal 0.000000e+000 -2.125707e-001 9.771457e-001
    outer loop
      vertex 9.997406e+000 -3.814649e+001 4.310134e+000
      vertex -1.000117e+001 -3.814649e+001 4.310134e+000
      vertex -1.000117e+001 -3.844778e+001 4.244592e+000
    endloop
  endfacet
  facet normal 0.000000e+000 -2.125707e-001 9.771457e-001
    outer loop
      vertex -1.000117e+001 -3.844778e+001 4.244592e+000
      vertex 9.997406e+000 -3.844778e+001 4.244592e+000
      vertex 9.997406e+000 -3.814649e+001 4.310134e+000
    endloop
  endfacet
  facet normal 0.000000e+000 -3.494607e-001 9.369510e-001
    outer loop
      vertex 9.997406e+000 -3.844778e+001 4.244592e+000
      vertex -1.000117e+001 -3.844778e+001 4.244592e+000
      vertex -1.000117e+001 -3.873668e+001 4.136838e+000
    endloop
  endfacet
  facet normal -4.468053e-008 -3.494580e-001 9.369521e-001
    outer loop
      vertex -1.000117e+001 -3.873668e+001 4.136838e+000
      vertex 9.997406e+000 -3.873668e+001 4.136839e+000
      vertex 9.997406e+000 -3.844778e+001 4.244592e+000
    endloop
  endfacet
  facet normal -4.185397e-008 -4.792489e-001 8.776790e-001
    outer loop
      vertex 9.997406e+000 -3.873668e+001 4.136839e+000
      vertex -1.000117e+001 -3.873668e+001 4.136838e+000
      vertex -1.000117e+001 -3.900730e+001 3.989067e+000
    endloop
  endfacet
  facet normal -4.185397e-008 -4.792489e-001 8.776790e-001
    outer loop
      vertex -1.000117e+001 -3.900730e+001 3.989067e+000
      vertex 9.997406e+000 -3.900730e+001 3.989068e+000
      vertex 9.997406e+000 -3.873668e+001 4.136839e+000
    endloop
  endfacet
  facet normal -3.817545e-008 -5.992787e-001 8.005404e-001
    outer loop
      vertex 9.997406e+000 -3.900730e+001 3.989068e+000
      vertex -1.000117e+001 -3.900730e+001 3.989067e+000
      vertex -1.000117e+001 -3.925414e+001 3.804289e+000
    endloop
  endfacet
  facet normal -3.817545e-008 -5.992787e-001 8.005404e-001
    outer loop
      vertex -1.000117e+001 -3.925414e+001 3.804289e+000
      vertex 9.997406e+000 -3.925414e+001 3.804290e+000
      vertex 9.997406e+000 -3.900730e+001 3.989068e+000
    endloop
  endfacet
  facet normal -3.371965e-008 -7.071114e-001 7.071021e-001
    outer loop
      vertex 9.997406e+000 -3.925414e+001 3.804290e+000
      vertex -1.000117e+001 -3.925414e+001 3.804289e+000
      vertex -1.000117e+001 -3.947216e+001 3.586261e+000
    endloop
  endfacet
  facet normal -3.371965e-008 -7.071114e-001 7.071021e-001
    outer loop
      vertex -1.000117e+001 -3.947216e+001 3.586261e+000
      vertex 9.997406e+000 -3.947216e+001 3.586262e+000
      vertex 9.997406e+000 -3.925414e+001 3.804290e+000
    endloop
  endfacet
  facet normal -2.857803e-008 -8.005378e-001 5.992822e-001
    outer loop
      vertex 9.997406e+000 -3.947216e+001 3.586262e+000
      vertex -1.000117e+001 -3.947216e+001 3.586261e+000
      vertex -1.000117e+001 -3.965494e+001 3.342097e+000
    endloop
  endfacet
  facet normal 1.241248e-007 -8.005438e-001 5.992742e-001
    outer loop
      vertex -1.000117e+001 -3.965494e+001 3.342097e+000
      vertex 9.997406e+000 -3.965494e+001 3.342098e+000
      vertex 9.997406e+000 -3.947216e+001 3.586262e+000
    endloop
  endfacet
  facet normal 1.443593e-007 -8.769501e-001 4.805815e-001
    outer loop
      vertex 9.997406e+000 -3.965494e+001 3.342098e+000
      vertex -1.000117e+001 -3.965494e+001 3.342097e+000
      vertex -1.000117e+001 -3.980471e+001 3.068803e+000
    endloop
  endfacet
  facet normal -2.864750e-008 -8.769448e-001 4.805912e-001
    outer loop
      vertex -1.000117e+001 -3.980471e+001 3.068803e+000
      vertex 9.997406e+000 -3.980471e+001 3.068805e+000
      vertex 9.997406e+000 -3.965494e+001 3.342098e+000
    endloop
  endfacet
  facet normal -2.083195e-008 -9.369448e-001 3.494774e-001
    outer loop
      vertex 9.997406e+000 -3.980471e+001 3.068805e+000
      vertex -1.000117e+001 -3.980471e+001 3.068803e+000
      vertex -1.000117e+001 -3.991247e+001 2.779907e+000
    endloop
  endfacet
  facet normal -1.666555e-008 -9.369449e-001 3.494771e-001
    outer loop
      vertex -1.000117e+001 -3.991247e+001 2.779907e+000
      vertex 9.997406e+000 -3.991247e+001 2.779907e+000
      vertex 9.997406e+000 -3.980471e+001 3.068805e+000
    endloop
  endfacet
  facet normal -1.013586e-008 -9.771503e-001 2.125494e-001
    outer loop
      vertex 9.997406e+000 -3.991247e+001 2.779907e+000
      vertex -1.000117e+001 -3.991247e+001 2.779907e+000
      vertex -1.000117e+001 -3.997800e+001 2.478616e+000
    endloop
  endfacet
  facet normal 0.000000e+000 -9.771504e-001 2.125487e-001
    outer loop
      vertex -1.000117e+001 -3.997800e+001 2.478616e+000
      vertex 9.997406e+000 -3.997800e+001 2.478616e+000
      vertex 9.997406e+000 -3.991247e+001 2.779907e+000
    endloop
  endfacet
  facet normal -0.000000e+000 -9.975718e-001 -6.964622e-002
    outer loop
      vertex -1.000117e+001 -3.997800e+001 1.853514e+000
      vertex 9.997406e+000 -3.997800e+001 1.853514e+000
      vertex 9.997406e+000 -4.000000e+001 2.168565e+000
    endloop
  endfacet
  facet normal 0.000000e+000 -9.974931e-001 7.076381e-002
    outer loop
      vertex 9.997406e+000 -3.997800e+001 2.478616e+000
      vertex -1.000117e+001 -3.997800e+001 2.478616e+000
      vertex -1.000117e+001 -4.000000e+001 2.168565e+000
    endloop
  endfacet
  facet normal 0.000000e+000 -9.974931e-001 7.076381e-002
    outer loop
      vertex 9.997406e+000 -4.000000e+001 2.168565e+000
      vertex 9.997406e+000 -3.997800e+001 2.478616e+000
      vertex -1.000117e+001 -4.000000e+001 2.168565e+000
    endloop
  endfacet
  facet normal 0.000000e+000 -9.975718e-001 -6.964622e-002
    outer loop
      vertex -1.000117e+001 -3.997800e+001 1.853514e+000
      vertex 9.997406e+000 -4.000000e+001 2.168565e+000
      vertex -1.000117e+001 -4.000000e+001 2.168565e+000
    endloop
  endfacet
  facet normal 0.000000e+000 -9.771503e-001 -2.125494e-001
    outer loop
      vertex 9.997406e+000 -3.997800e+001 1.853514e+000
      vertex -1.000117e+001 -3.997800e+001 1.853514e+000
      vertex -1.000117e+001 -3.991247e+001 1.552224e+000
    endloop
  endfacet
  facet normal -5.067924e-009 -9.771504e-001 -2.125491e-001
    outer loop
      vertex -1.000117e+001 -3.991247e+001 1.552224e+000
      vertex 9.997406e+000 -3.991247e+001 1.552223e+000
      vertex 9.997406e+000 -3.997800e+001 1.853514e+000
    endloop
  endfacet
  facet normal -8.332754e-009 -9.369452e-001 -3.494762e-001
    outer loop
      vertex 9.997406e+000 -3.991247e+001 1.552223e+000
      vertex -1.000117e+001 -3.991247e+001 1.552224e+000
      vertex -1.000117e+001 -3.980471e+001 1.263326e+000
    endloop
  endfacet
  facet normal -0.000000e+000 -9.369450e-001 -3.494768e-001
    outer loop
      vertex -1.000117e+001 -3.980471e+001 1.263326e+000
      vertex 9.997406e+000 -3.980471e+001 1.263326e+000
      vertex 9.997406e+000 -3.991247e+001 1.552223e+000
    endloop
  endfacet
  facet normal 0.000000e+000 -8.776782e-001 -4.792505e-001
    outer loop
      vertex 9.997406e+000 -3.980471e+001 1.263326e+000
      vertex -1.000117e+001 -3.980471e+001 1.263326e+000
      vertex -1.000117e+001 -3.965694e+001 9.927067e-001
    endloop
  endfacet
  facet normal -0.000000e+000 -8.776782e-001 -4.792505e-001
    outer loop
      vertex -1.000117e+001 -3.965694e+001 9.927067e-001
      vertex 9.997406e+000 -3.965694e+001 9.927067e-001
      vertex 9.997406e+000 -3.980471e+001 1.263326e+000
    endloop
  endfacet
  facet normal 0.000000e+000 -8.005433e-001 -5.992749e-001
    outer loop
      vertex 9.997406e+000 -3.965694e+001 9.927067e-001
      vertex -1.000117e+001 -3.965694e+001 9.927067e-001
      vertex -1.000117e+001 -3.947216e+001 7.458676e-001
    endloop
  endfacet
  facet normal -0.000000e+000 -8.005433e-001 -5.992749e-001
    outer loop
      vertex -1.000117e+001 -3.947216e+001 7.458676e-001
      vertex 9.997406e+000 -3.947216e+001 7.458676e-001
      vertex 9.997406e+000 -3.965694e+001 9.927067e-001
    endloop
  endfacet
  facet normal 0.000000e+000 -7.071038e-001 -7.071097e-001
    outer loop
      vertex 9.997406e+000 -3.947216e+001 7.458676e-001
      vertex -1.000117e+001 -3.947216e+001 7.458676e-001
      vertex -1.000117e+001 -3.925413e+001 5.278404e-001
    endloop
  endfacet
  facet normal -0.000000e+000 -7.071038e-001 -7.071097e-001
    outer loop
      vertex -1.000117e+001 -3.925413e+001 5.278404e-001
      vertex 9.997406e+000 -3.925413e+001 5.278404e-001
      vertex 9.997406e+000 -3.947216e+001 7.458676e-001
    endloop
  endfacet
  facet normal 0.000000e+000 -5.992848e-001 -8.005359e-001
    outer loop
      vertex 9.997406e+000 -3.925413e+001 5.278404e-001
      vertex -1.000117e+001 -3.925413e+001 5.278404e-001
      vertex -1.000117e+001 -3.900730e+001 3.430624e-001
    endloop
  endfacet
  facet normal -3.817517e-008 -5.992868e-001 -8.005344e-001
    outer loop
      vertex -1.000117e+001 -3.900730e+001 3.430624e-001
      vertex 9.997406e+000 -3.900730e+001 3.430614e-001
      vertex 9.997406e+000 -3.925413e+001 5.278404e-001
    endloop
  endfacet
  facet normal -4.185402e-008 -4.792469e-001 -8.776801e-001
    outer loop
      vertex 9.997406e+000 -3.900730e+001 3.430614e-001
      vertex -1.000117e+001 -3.900730e+001 3.430624e-001
      vertex -1.000117e+001 -3.873668e+001 1.952923e-001
    endloop
  endfacet
  facet normal -4.185402e-008 -4.792469e-001 -8.776801e-001
    outer loop
      vertex -1.000117e+001 -3.873668e+001 1.952923e-001
      vertex 9.997406e+000 -3.873668e+001 1.952913e-001
      vertex 9.997406e+000 -3.900730e+001 3.430614e-001
    endloop
  endfacet
  facet normal -4.468043e-008 -3.494636e-001 -9.369500e-001
    outer loop
      vertex 9.997406e+000 -3.873668e+001 1.952913e-001
      vertex -1.000117e+001 -3.873668e+001 1.952923e-001
      vertex -1.000117e+001 -3.844778e+001 8.753753e-002
    endloop
  endfacet
  facet normal -0.000000e+000 -3.494609e-001 -9.369510e-001
    outer loop
      vertex -1.000117e+001 -3.844778e+001 8.753753e-002
      vertex 9.997406e+000 -3.844778e+001 8.753753e-002
      vertex 9.997406e+000 -3.873668e+001 1.952913e-001
    endloop
  endfacet
  facet normal 0.000000e+000 -2.125640e-001 -9.771472e-001
    outer loop
      vertex 9.997406e+000 -3.844778e+001 8.753753e-002
      vertex -1.000117e+001 -3.844778e+001 8.753753e-002
      vertex -1.000117e+001 -3.814649e+001 2.199745e-002
    endloop
  endfacet
  facet normal -2.329865e-008 -2.125655e-001 -9.771468e-001
    outer loop
      vertex -1.000117e+001 -3.814649e+001 2.199745e-002
      vertex 9.997406e+000 -3.814649e+001 2.199697e-002
      vertex 9.997406e+000 -3.844778e+001 8.753753e-002
    endloop
  endfacet
  facet normal -2.378279e-008 -7.134113e-002 -9.974520e-001
    outer loop
      vertex 9.997406e+000 -3.814649e+001 2.199697e-002
      vertex -1.000117e+001 -3.814649e+001 2.199745e-002
      vertex -1.000117e+001 -3.783894e+001 0.000000e+000
    endloop
  endfacet
  facet normal -0.000000e+000 -7.133958e-002 -9.974521e-001
    outer loop
      vertex -1.000117e+001 -3.783894e+001 0.000000e+000
      vertex 9.997406e+000 -3.783894e+001 0.000000e+000
      vertex 9.997406e+000 -3.814649e+001 2.199697e-002
    endloop
  endfacet
  facet normal 0.000000e+000 7.603443e-009 -1.000000e+000
    outer loop
      vertex 9.997406e+000 -3.783894e+001 0.000000e+000
      vertex -1.000117e+001 -3.783894e+001 0.000000e+000
      vertex -1.000117e+001 -2.999977e+001 5.960464e-008
    endloop
  endfacet
  facet normal -2.980444e-009 0.000000e+000 -1.000000e+000
    outer loop
      vertex -1.000117e+001 -2.999977e+001 5.960464e-008
      vertex 9.997406e+000 -2.999977e+001 0.000000e+000
      vertex 9.997406e+000 -3.783894e+001 0.000000e+000
    endloop
  endfacet
  facet normal 1.000000e+000 0.000000e+000 0.000000e+000
    outer loop
      vertex 9.997406e+000 -3.997800e+001 2.478616e+000
      vertex 9.997406e+000 -4.000000e+001 2.168565e+000
      vertex 9.997406e+000 -3.997800e+001 1.853514e+000
    endloop
  endfacet
  facet normal 1.000000e+000 0.000000e+000 0.000000e+000
    outer loop
      vertex 9.997406e+000 -3.997800e+001 1.853514e+000
      vertex 9.997406e+000 -3.991247e+001 1.552223e+000
      vertex 9.997406e+000 -3.980471e+001 1.263326e+000
    endloop
  endfacet
  facet normal 1.000000e+000 0.000000e+000 0.000000e+000
    outer loop
      vertex 9.997406e+000 -3.980471e+001 1.263326e+000
      vertex 9.997406e+000 -3.965694e+001 9.927067e-001
      vertex 9.997406e+000 -3.947216e+001 7.458676e-001
    endloop
  endfacet
  facet normal 1.000000e+000 0.000000e+000 0.000000e+000
    outer loop
      vertex 9.997406e+000 -3.997800e+001 1.853514e+000
      vertex 9.997406e+000 -3.980471e+001 1.263326e+000
      vertex 9.997406e+000 -3.947216e+001 7.458676e-001
    endloop
  endfacet
  facet normal 1.000000e+000 0.000000e+000 0.000000e+000
    outer loop
      vertex 9.997406e+000 -3.900730e+001 3.430614e-001
      vertex 9.997406e+000 -3.873668e+001 1.952913e-001
      vertex 9.997406e+000 -3.844778e+001 8.753753e-002
    endloop
  endfacet
  facet normal 1.000000e+000 0.000000e+000 0.000000e+000
    outer loop
      vertex 9.997406e+000 -3.900730e+001 3.430614e-001
      vertex 9.997406e+000 -3.844778e+001 8.753753e-002
      vertex 9.997406e+000 -3.814649e+001 2.199697e-002
    endloop
  endfacet
  facet normal 1.000000e+000 0.000000e+000 0.000000e+000
    outer loop
      vertex 9.997406e+000 -3.925413e+001 5.278404e-001
      vertex 9.997406e+000 -3.900730e+001 3.430614e-001
      vertex 9.997406e+000 -3.814649e+001 2.199697e-002
    endloop
  endfacet
  facet normal 1.000000e+000 0.000000e+000 0.000000e+000
    outer loop
      vertex 9.997406e+000 -3.925413e+001 5.278404e-001
      vertex 9.997406e+000 -3.814649e+001 2.199697e-002
      vertex 9.997406e+000 -3.783894e+001 0.000000e+000
    endloop
  endfacet
  facet normal 1.000000e+000 0.000000e+000 0.000000e+000
    outer loop
      vertex 9.997406e+000 -3.947216e+001 7.458676e-001
      vertex 9.997406e+000 -3.925413e+001 5.278404e-001
      vertex 9.997406e+000 -3.783894e+001 0.000000e+000
    endloop
  endfacet
  facet normal 1.000000e+000 0.000000e+000 0.000000e+000
    outer loop
      vertex 9.997406e+000 -3.997800e+001 1.853514e+000
      vertex 9.997406e+000 -3.947216e+001 7.458676e-001
      vertex 9.997406e+000 -3.783894e+001 0.000000e+000
    endloop
  endfacet
  facet normal 1.000000e+000 0.000000e+000 -0.000000e+000
    outer loop
      vertex 9.997406e+000 -3.997800e+001 2.478616e+000
      vertex 9.997406e+000 -3.997800e+001 1.853514e+000
      vertex 9.997406e+000 -3.783894e+001 0.000000e+000
    endloop
  endfacet
  facet normal 1.000000e+000 0.000000e+000 0.000000e+000
    outer loop
      vertex 9.997406e+000 -3.997800e+001 2.478616e+000
      vertex 9.997406e+000 -3.783894e+001 0.000000e+000
      vertex 9.997406e+000 -2.999977e+001 0.000000e+000
    endloop
  endfacet
  facet normal 1.000000e+000 0.000000e+000 -0.000000e+000
    outer loop
      vertex 9.997406e+000 -3.991247e+001 2.779907e+000
      vertex 9.997406e+000 -3.997800e+001 2.478616e+000
      vertex 9.997406e+000 -2.999977e+001 0.000000e+000
    endloop
  endfacet
  facet normal 1.000000e+000 0.000000e+000 0.000000e+000
    outer loop
      vertex 9.997406e+000 -2.999977e+001 0.000000e+000
      vertex 9.997406e+000 -2.999977e+001 4.332130e+000
      vertex 9.997406e+000 -3.783894e+001 4.332130e+000
    endloop
  endfacet
  facet normal 1.000000e+000 0.000000e+000 0.000000e+000
    outer loop
      vertex 9.997406e+000 -3.991247e+001 2.779907e+000
      vertex 9.997406e+000 -2.999977e+001 0.000000e+000
      vertex 9.997406e+000 -3.783894e+001 4.332130e+000
    endloop
  endfacet
  facet normal 1.000000e+000 0.000000e+000 -0.000000e+000
    outer loop
      vertex 9.997406e+000 -3.980471e+001 3.068805e+000
      vertex 9.997406e+000 -3.991247e+001 2.779907e+000
      vertex 9.997406e+000 -3.783894e+001 4.332130e+000
    endloop
  endfacet
  facet normal 1.000000e+000 0.000000e+000 0.000000e+000
    outer loop
      vertex 9.997406e+000 -3.980471e+001 3.068805e+000
      vertex 9.997406e+000 -3.783894e+001 4.332130e+000
      vertex 9.997406e+000 -3.814649e+001 4.310134e+000
    endloop
  endfacet
  facet normal 1.000000e+000 0.000000e+000 0.000000e+000
    outer loop
      vertex 9.997406e+000 -3.900730e+001 3.989068e+000
      vertex 9.997406e+000 -3.925414e+001 3.804290e+000
      vertex 9.997406e+000 -3.947216e+001 3.586262e+000
    endloop
  endfacet
  facet normal 1.000000e+000 0.000000e+000 0.000000e+000
    outer loop
      vertex 9.997406e+000 -3.900730e+001 3.989068e+000
      vertex 9.997406e+000 -3.947216e+001 3.586262e+000
      vertex 9.997406e+000 -3.965494e+001 3.342098e+000
    endloop
  endfacet
  facet normal 1.000000e+000 0.000000e+000 0.000000e+000
    outer loop
      vertex 9.997406e+000 -3.873668e+001 4.136839e+000
      vertex 9.997406e+000 -3.900730e+001 3.989068e+000
      vertex 9.997406e+000 -3.965494e+001 3.342098e+000
    endloop
  endfacet
  facet normal 1.000000e+000 0.000000e+000 0.000000e+000
    outer loop
      vertex 9.997406e+000 -3.844778e+001 4.244592e+000
      vertex 9.997406e+000 -3.873668e+001 4.136839e+000
      vertex 9.997406e+000 -3.965494e+001 3.342098e+000
    endloop
  endfacet
  facet normal 1.000000e+000 0.000000e+000 0.000000e+000
    outer loop
      vertex 9.997406e+000 -3.814649e+001 4.310134e+000
      vertex 9.997406e+000 -3.844778e+001 4.244592e+000
      vertex 9.997406e+000 -3.965494e+001 3.342098e+000
    endloop
  endfacet
  facet normal 1.000000e+000 0.000000e+000 0.000000e+000
    outer loop
      vertex 9.997406e+000 -3.980471e+001 3.068805e+000
      vertex 9.997406e+000 -3.814649e+001 4.310134e+000
      vertex 9.997406e+000 -3.965494e+001 3.342098e+000
    endloop
  endfacet
  facet normal -1.000000e+000 0.000000e+000 0.000000e+000
    outer loop
      vertex -1.000117e+001 -3.844778e+001 8.753753e-002
      vertex -1.000117e+001 -3.873668e+001 1.952923e-001
      vertex -1.000117e+001 -3.900730e+001 3.430624e-001
    endloop
  endfacet
  facet normal -1.000000e+000 0.000000e+000 0.000000e+000
    outer loop
      vertex -1.000117e+001 -3.814649e+001 2.199745e-002
      vertex -1.000117e+001 -3.844778e+001 8.753753e-002
      vertex -1.000117e+001 -3.900730e+001 3.430624e-001
    endloop
  endfacet
  facet normal -1.000000e+000 0.000000e+000 0.000000e+000
    outer loop
      vertex -1.000117e+001 -3.814649e+001 2.199745e-002
      vertex -1.000117e+001 -3.900730e+001 3.430624e-001
      vertex -1.000117e+001 -3.925413e+001 5.278404e-001
    endloop
  endfacet
  facet normal -1.000000e+000 0.000000e+000 0.000000e+000
    outer loop
      vertex -1.000117e+001 -3.925413e+001 5.278404e-001
      vertex -1.000117e+001 -3.947216e+001 7.458676e-001
      vertex -1.000117e+001 -3.965694e+001 9.927067e-001
    endloop
  endfacet
  facet normal -1.000000e+000 0.000000e+000 0.000000e+000
    outer loop
      vertex -1.000117e+001 -3.965694e+001 9.927067e-001
      vertex -1.000117e+001 -3.980471e+001 1.263326e+000
      vertex -1.000117e+001 -3.991247e+001 1.552224e+000
    endloop
  endfacet
  facet normal -1.000000e+000 0.000000e+000 0.000000e+000
    outer loop
      vertex -1.000117e+001 -3.991247e+001 1.552224e+000
      vertex -1.000117e+001 -3.997800e+001 1.853514e+000
      vertex -1.000117e+001 -4.000000e+001 2.168565e+000
    endloop
  endfacet
  facet normal -1.000000e+000 0.000000e+000 0.000000e+000
    outer loop
      vertex -1.000117e+001 -3.965694e+001 9.927067e-001
      vertex -1.000117e+001 -3.991247e+001 1.552224e+000
      vertex -1.000117e+001 -4.000000e+001 2.168565e+000
    endloop
  endfacet
  facet normal -1.000000e+000 0.000000e+000 0.000000e+000
    outer loop
      vertex -1.000117e+001 -3.947216e+001 3.586261e+000
      vertex -1.000117e+001 -3.925414e+001 3.804289e+000
      vertex -1.000117e+001 -3.900730e+001 3.989067e+000
    endloop
  endfacet
  facet normal -1.000000e+000 0.000000e+000 0.000000e+000
    outer loop
      vertex -1.000117e+001 -3.965494e+001 3.342097e+000
      vertex -1.000117e+001 -3.947216e+001 3.586261e+000
      vertex -1.000117e+001 -3.900730e+001 3.989067e+000
    endloop
  endfacet
  facet normal -1.000000e+000 0.000000e+000 0.000000e+000
    outer loop
      vertex -1.000117e+001 -3.965494e+001 3.342097e+000
      vertex -1.000117e+001 -3.900730e+001 3.989067e+000
      vertex -1.000117e+001 -3.873668e+001 4.136838e+000
    endloop
  endfacet
  facet normal -1.000000e+000 0.000000e+000 0.000000e+000
    outer loop
      vertex -1.000117e+001 -3.965494e+001 3.342097e+000
      vertex -1.000117e+001 -3.873668e+001 4.136838e+000
      vertex -1.000117e+001 -3.844778e+001 4.244592e+000
    endloop
  endfacet
  facet normal -1.000000e+000 0.000000e+000 0.000000e+000
    outer loop
      vertex -1.000117e+001 -3.965494e+001 3.342097e+000
      vertex -1.000117e+001 -3.844778e+001 4.244592e+000
      vertex -1.000117e+001 -3.814649e+001 4.310134e+000
    endloop
  endfacet
  facet normal -1.000000e+000 0.000000e+000 0.000000e+000
    outer loop
      vertex -1.000117e+001 -3.980471e+001 3.068803e+000
      vertex -1.000117e+001 -3.965494e+001 3.342097e+000
      vertex -1.000117e+001 -3.814649e+001 4.310134e+000
    endloop
  endfacet
  facet normal -1.000000e+000 0.000000e+000 0.000000e+000
    outer loop
      vertex -1.000117e+001 -3.980471e+001 3.068803e+000
      vertex -1.000117e+001 -3.814649e+001 4.310134e+000
      vertex -1.000117e+001 -3.783894e+001 4.332130e+000
    endloop
  endfacet
  facet normal -1.000000e+000 0.000000e+000 0.000000e+000
    outer loop
      vertex -1.000117e+001 -3.991247e+001 2.779907e+000
      vertex -1.000117e+001 -3.980471e+001 3.068803e+000
      vertex -1.000117e+001 -3.783894e+001 4.332130e+000
    endloop
  endfacet
  facet normal -1.000000e+000 0.000000e+000 0.000000e+000
    outer loop
      vertex -1.000117e+001 -3.997800e+001 2.478616e+000
      vertex -1.000117e+001 -3.991247e+001 2.779907e+000
      vertex -1.000117e+001 -3.783894e+001 4.332130e+000
    endloop
  endfacet
  facet normal -1.000000e+000 0.000000e+000 0.000000e+000
    outer loop
      vertex -1.000117e+001 -3.997800e+001 2.478616e+000
      vertex -1.000117e+001 -3.783894e+001 4.332130e+000
      vertex -1.000117e+001 -2.999977e+001 4.332130e+000
    endloop
  endfacet
  facet normal -1.000000e+000 -0.000000e+000 0.000000e+000
    outer loop
      vertex -1.000117e+001 -3.997800e+001 2.478616e+000
      vertex -1.000117e+001 -2.999977e+001 4.332130e+000
      vertex -1.000117e+001 -2.999977e+001 5.960464e-008
    endloop
  endfacet
  facet normal -1.000000e+000 -0.000000e+000 0.000000e+000
    outer loop
      vertex -1.000117e+001 -4.000000e+001 2.168565e+000
      vertex -1.000117e+001 -3.997800e+001 2.478616e+000
      vertex -1.000117e+001 -2.999977e+001 5.960464e-008
    endloop
  endfacet
  facet normal -1.000000e+000 -0.000000e+000 -0.000000e+000
    outer loop
      vertex -1.000117e+001 -3.965694e+001 9.927067e-001
      vertex -1.000117e+001 -4.000000e+001 2.168565e+000
      vertex -1.000117e+001 -2.999977e+001 5.960464e-008
    endloop
  endfacet
  facet normal -1.000000e+000 -0.000000e+000 -0.000000e+000
    outer loop
      vertex -1.000117e+001 -3.925413e+001 5.278404e-001
      vertex -1.000117e+001 -3.965694e+001 9.927067e-001
      vertex -1.000117e+001 -2.999977e+001 5.960464e-008
    endloop
  endfacet
  facet normal -1.000000e+000 0.000000e+000 0.000000e+000
    outer loop
      vertex -1.000117e+001 -3.925413e+001 5.278404e-001
      vertex -1.000117e+001 -2.999977e+001 5.960464e-008
      vertex -1.000117e+001 -3.783894e+001 0.000000e+000
    endloop
  endfacet
  facet normal -1.000000e+000 -0.000000e+000 -0.000000e+000
    outer loop
      vertex -1.000117e+001 -3.814649e+001 2.199745e-002
      vertex -1.000117e+001 -3.925413e+001 5.278404e-001
      vertex -1.000117e+001 -3.783894e+001 0.000000e+000
    endloop
  endfacet
  facet normal 0.000000e+000 1.000000e+000 0.000000e+000
    outer loop
      vertex 9.997406e+000 -2.999977e+001 4.332130e+000
      vertex 9.997406e+000 -2.999977e+001 0.000000e+000
      vertex -1.000117e+001 -2.999977e+001 5.960464e-008
    endloop
  endfacet
  facet normal 0.000000e+000 1.000000e+000 0.000000e+000
    outer loop
      vertex -1.000117e+001 -2.999977e+001 5.960464e-008
      vertex -1.000117e+001 -2.999977e+001 4.332130e+000
      vertex 9.997406e+000 -2.999977e+001 4.332130e+000
    endloop
  endfacet
endsolid Object01
