solid Object01
  facet normal 7.133981e-002 -1.368807e-008 9.974521e-001
    outer loop
      vertex -2.730370e-001 9.985155e+000 2.143968e+000
      vertex -5.805855e-001 9.985156e+000 2.165965e+000
      vertex -5.805893e-001 -9.985158e+000 2.165965e+000
    endloop
  endfacet
  facet normal 7.133981e-002 -1.368807e-008 9.974521e-001
    outer loop
      vertex -5.805893e-001 -9.985158e+000 2.165965e+000
      vertex -2.730408e-001 -9.985156e+000 2.143968e+000
      vertex -2.730370e-001 9.985155e+000 2.143968e+000
    endloop
  endfacet
  facet normal 2.125655e-001 -4.060393e-008 9.771468e-001
    outer loop
      vertex -2.730370e-001 9.985155e+000 2.143968e+000
      vertex -2.730408e-001 -9.985156e+000 2.143968e+000
      vertex 2.825165e-002 -9.985157e+000 2.078426e+000
    endloop
  endfacet
  facet normal 2.125699e-001 2.939005e-008 9.771459e-001
    outer loop
      vertex 2.825165e-002 -9.985157e+000 2.078426e+000
      vertex 2.825546e-002 9.985156e+000 2.078425e+000
      vertex -2.730370e-001 9.985155e+000 2.143968e+000
    endloop
  endfacet
  facet normal 3.494606e-001 3.621705e-010 9.369510e-001
    outer loop
      vertex 2.825546e-002 9.985156e+000 2.078425e+000
      vertex 2.825165e-002 -9.985157e+000 2.078426e+000
      vertex 3.171463e-001 -9.985156e+000 1.970675e+000
    endloop
  endfacet
  facet normal 3.494565e-001 -6.675264e-008 9.369526e-001
    outer loop
      vertex 3.171463e-001 -9.985156e+000 1.970675e+000
      vertex 3.171501e-001 9.985155e+000 1.970675e+000
      vertex 2.825546e-002 9.985156e+000 2.078425e+000
    endloop
  endfacet
  facet normal 4.792484e-001 -9.154528e-008 8.776793e-001
    outer loop
      vertex 3.171501e-001 9.985155e+000 1.970675e+000
      vertex 3.171463e-001 -9.985156e+000 1.970675e+000
      vertex 5.877724e-001 -9.985157e+000 1.822902e+000
    endloop
  endfacet
  facet normal 4.792595e-001 1.020256e-007 8.776733e-001
    outer loop
      vertex 5.877724e-001 -9.985157e+000 1.822902e+000
      vertex 5.877686e-001 9.985156e+000 1.822902e+000
      vertex 3.171501e-001 9.985155e+000 1.970675e+000
    endloop
  endfacet
  facet normal 5.992827e-001 1.240313e-007 8.005375e-001
    outer loop
      vertex 5.877686e-001 9.985156e+000 1.822902e+000
      vertex 5.877724e-001 -9.985157e+000 1.822902e+000
      vertex 8.346062e-001 -9.985156e+000 1.638123e+000
    endloop
  endfacet
  facet normal 5.992748e-001 -2.845584e-008 8.005434e-001
    outer loop
      vertex 8.346062e-001 -9.985156e+000 1.638123e+000
      vertex 8.346100e-001 9.985155e+000 1.638120e+000
      vertex 5.877686e-001 9.985156e+000 1.822902e+000
    endloop
  endfacet
  facet normal 7.070994e-001 -5.909111e-008 7.071142e-001
    outer loop
      vertex 8.346100e-001 9.985155e+000 1.638120e+000
      vertex 8.346062e-001 -9.985156e+000 1.638123e+000
      vertex 1.052639e+000 -9.985157e+000 1.420094e+000
    endloop
  endfacet
  facet normal 7.071061e-001 8.441880e-008 7.071075e-001
    outer loop
      vertex 1.052639e+000 -9.985157e+000 1.420094e+000
      vertex 1.052635e+000 9.985156e+000 1.420096e+000
      vertex 8.346100e-001 9.985155e+000 1.638120e+000
    endloop
  endfacet
  facet normal 8.005506e-001 1.099934e-007 5.992651e-001
    outer loop
      vertex 1.052635e+000 9.985156e+000 1.420096e+000
      vertex 1.052639e+000 -9.985157e+000 1.420094e+000
      vertex 1.237411e+000 -9.985156e+000 1.173259e+000
    endloop
  endfacet
  facet normal 8.005486e-001 5.723560e-008 5.992678e-001
    outer loop
      vertex 1.237411e+000 -9.985156e+000 1.173259e+000
      vertex 1.237411e+000 9.985155e+000 1.173257e+000
      vertex 1.052635e+000 9.985156e+000 1.420096e+000
    endloop
  endfacet
  facet normal 8.776748e-001 4.577343e-008 4.792567e-001
    outer loop
      vertex 1.237411e+000 9.985155e+000 1.173257e+000
      vertex 1.237411e+000 -9.985156e+000 1.173259e+000
      vertex 1.385185e+000 -9.985156e+000 9.026372e-001
    endloop
  endfacet
  facet normal 8.776669e-001 -2.077035e-007 4.792711e-001
    outer loop
      vertex 1.385185e+000 -9.985156e+000 9.026372e-001
      vertex 1.385189e+000 9.985155e+000 9.026389e-001
      vertex 1.237411e+000 9.985155e+000 1.173257e+000
    endloop
  endfacet
  facet normal 9.369527e-001 -2.081795e-007 3.494562e-001
    outer loop
      vertex 1.385189e+000 9.985155e+000 9.026389e-001
      vertex 1.385185e+000 -9.985156e+000 9.026372e-001
      vertex 1.492935e+000 -9.985156e+000 6.137409e-001
    endloop
  endfacet
  facet normal 9.369535e-001 -1.748034e-007 3.494542e-001
    outer loop
      vertex 1.492935e+000 -9.985156e+000 6.137409e-001
      vertex 1.492939e+000 9.985155e+000 6.137407e-001
      vertex 1.385189e+000 9.985155e+000 9.026389e-001
    endloop
  endfacet
  facet normal 9.771426e-001 -1.841143e-007 2.125847e-001
    outer loop
      vertex 1.492939e+000 9.985155e+000 6.137407e-001
      vertex 1.492935e+000 -9.985156e+000 6.137409e-001
      vertex 1.558483e+000 -9.985156e+000 3.124506e-001
    endloop
  endfacet
  facet normal 9.771478e-001 1.917286e-007 2.125609e-001
    outer loop
      vertex 1.558483e+000 -9.985156e+000 3.124506e-001
      vertex 1.558479e+000 9.985155e+000 3.124502e-001
      vertex 1.492939e+000 9.985155e+000 6.137407e-001
    endloop
  endfacet
  facet normal 9.974940e-001 1.922291e-007 7.075155e-002
    outer loop
      vertex 1.558479e+000 9.985155e+000 3.124502e-001
      vertex 1.558483e+000 -9.985156e+000 3.124506e-001
      vertex 1.580475e+000 -9.985156e+000 2.399206e-003
    endloop
  endfacet
  facet normal 9.974914e-001 -3.810785e-007 7.078829e-002
    outer loop
      vertex 1.580475e+000 -9.985156e+000 2.399206e-003
      vertex 1.580482e+000 9.985154e+000 2.399206e-003
      vertex 1.558479e+000 9.985155e+000 3.124502e-001
    endloop
  endfacet
  facet normal 9.975675e-001 -3.811240e-007 -6.970664e-002
    outer loop
      vertex 1.558468e+000 9.985155e+000 -3.126507e-001
      vertex 1.580482e+000 9.985154e+000 2.399206e-003
      vertex 1.580475e+000 -9.985156e+000 2.399206e-003
    endloop
  endfacet
  facet normal 9.975718e-001 5.733119e-007 -6.964643e-002
    outer loop
      vertex 1.580475e+000 -9.985156e+000 2.399206e-003
      vertex 1.558479e+000 -9.985156e+000 -3.126512e-001
      vertex 1.558468e+000 9.985155e+000 -3.126507e-001
    endloop
  endfacet
  facet normal 9.771479e-001 5.650352e-007 -2.125606e-001
    outer loop
      vertex 1.558468e+000 9.985155e+000 -3.126507e-001
      vertex 1.558479e+000 -9.985156e+000 -3.126512e-001
      vertex 1.492939e+000 -9.985157e+000 -6.139421e-001
    endloop
  endfacet
  facet normal 9.771530e-001 1.942664e-007 -2.125371e-001
    outer loop
      vertex 1.492939e+000 -9.985157e+000 -6.139421e-001
      vertex 1.492935e+000 9.985156e+000 -6.139414e-001
      vertex 1.558468e+000 9.985155e+000 -3.126507e-001
    endloop
  endfacet
  facet normal 9.369492e-001 1.914910e-007 -3.494657e-001
    outer loop
      vertex 1.492935e+000 9.985156e+000 -6.139414e-001
      vertex 1.492939e+000 -9.985157e+000 -6.139421e-001
      vertex 1.385185e+000 -9.985156e+000 -9.028398e-001
    endloop
  endfacet
  facet normal 9.369538e-001 -1.251600e-008 -3.494532e-001
    outer loop
      vertex 1.385185e+000 -9.985156e+000 -9.028398e-001
      vertex 1.385185e+000 9.985155e+000 -9.028405e-001
      vertex 1.492935e+000 9.985156e+000 -6.139414e-001
    endloop
  endfacet
  facet normal 8.776742e-001 -1.716508e-008 -4.792578e-001
    outer loop
      vertex 1.385185e+000 9.985155e+000 -9.028405e-001
      vertex 1.385185e+000 -9.985156e+000 -9.028398e-001
      vertex 1.237411e+000 -9.985156e+000 -1.173461e+000
    endloop
  endfacet
  facet normal 8.776703e-001 1.087138e-007 -4.792650e-001
    outer loop
      vertex 1.237411e+000 -9.985156e+000 -1.173461e+000
      vertex 1.237411e+000 9.985155e+000 -1.173456e+000
      vertex 1.385185e+000 9.985155e+000 -9.028405e-001
    endloop
  endfacet
  facet normal 8.005457e-001 1.359354e-007 -5.992717e-001
    outer loop
      vertex 1.237411e+000 9.985155e+000 -1.173456e+000
      vertex 1.237411e+000 -9.985156e+000 -1.173461e+000
      vertex 1.052635e+000 -9.985157e+000 -1.420297e+000
    endloop
  endfacet
  facet normal 8.005510e-001 0.000000e+000 -5.992647e-001
    outer loop
      vertex 1.052635e+000 -9.985157e+000 -1.420297e+000
      vertex 1.052635e+000 9.985156e+000 -1.420297e+000
      vertex 1.237411e+000 9.985155e+000 -1.173456e+000
    endloop
  endfacet
  facet normal 7.071043e-001 0.000000e+000 -7.071093e-001
    outer loop
      vertex 1.052635e+000 9.985156e+000 -1.420297e+000
      vertex 1.052635e+000 -9.985157e+000 -1.420297e+000
      vertex 8.346062e-001 -9.985156e+000 -1.638324e+000
    endloop
  endfacet
  facet normal 7.070975e-001 1.477317e-007 -7.071161e-001
    outer loop
      vertex 8.346062e-001 -9.985156e+000 -1.638324e+000
      vertex 8.346024e-001 9.985155e+000 -1.638324e+000
      vertex 1.052635e+000 9.985156e+000 -1.420297e+000
    endloop
  endfacet
  facet normal 5.992846e-001 1.288104e-007 -8.005360e-001
    outer loop
      vertex 8.346024e-001 9.985155e+000 -1.638324e+000
      vertex 8.346062e-001 -9.985156e+000 -1.638324e+000
      vertex 5.877762e-001 -9.985157e+000 -1.823102e+000
    endloop
  endfacet
  facet normal 5.992943e-001 -5.734339e-008 -8.005288e-001
    outer loop
      vertex 5.877762e-001 -9.985157e+000 -1.823102e+000
      vertex 5.877762e-001 9.985156e+000 -1.823104e+000
      vertex 8.346024e-001 9.985155e+000 -1.638324e+000
    endloop
  endfacet
  facet normal 4.792444e-001 -6.286999e-008 -8.776815e-001
    outer loop
      vertex 5.877762e-001 9.985156e+000 -1.823104e+000
      vertex 5.877762e-001 -9.985157e+000 -1.823102e+000
      vertex 3.171463e-001 -9.985156e+000 -1.970876e+000
    endloop
  endfacet
  facet normal 4.792411e-001 -5.239178e-009 -8.776833e-001
    outer loop
      vertex 3.171463e-001 -9.985156e+000 -1.970876e+000
      vertex 3.171463e-001 9.985155e+000 -1.970876e+000
      vertex 5.877762e-001 9.985156e+000 -1.823104e+000
    endloop
  endfacet
  facet normal 3.494566e-001 -5.592975e-009 -9.369525e-001
    outer loop
      vertex 3.171463e-001 9.985155e+000 -1.970876e+000
      vertex 3.171463e-001 -9.985156e+000 -1.970876e+000
      vertex 2.824783e-002 -9.985156e+000 -2.078626e+000
    endloop
  endfacet
  facet normal 3.494630e-001 -1.114976e-007 -9.369501e-001
    outer loop
      vertex 2.824783e-002 -9.985156e+000 -2.078626e+000
      vertex 2.825165e-002 9.985155e+000 -2.078627e+000
      vertex 3.171463e-001 9.985155e+000 -1.970876e+000
    endloop
  endfacet
  facet normal 2.125692e-001 -8.726785e-008 -9.771460e-001
    outer loop
      vertex 2.825165e-002 9.985155e+000 -2.078627e+000
      vertex 2.824783e-002 -9.985156e+000 -2.078626e+000
      vertex -2.730370e-001 -9.985156e+000 -2.144168e+000
    endloop
  endfacet
  facet normal 2.125677e-001 -6.393596e-008 -9.771463e-001
    outer loop
      vertex -2.730370e-001 -9.985156e+000 -2.144168e+000
      vertex -2.730331e-001 9.985155e+000 -2.144169e+000
      vertex 2.825165e-002 9.985155e+000 -2.078627e+000
    endloop
  endfacet
  facet normal 7.134201e-002 -3.744410e-008 -9.974519e-001
    outer loop
      vertex -2.730331e-001 9.985155e+000 -2.144169e+000
      vertex -2.730370e-001 -9.985156e+000 -2.144168e+000
      vertex -5.805893e-001 -9.985156e+000 -2.166166e+000
    endloop
  endfacet
  facet normal 7.133981e-002 -3.437970e-009 -9.974521e-001
    outer loop
      vertex -5.805893e-001 -9.985156e+000 -2.166166e+000
      vertex -5.805817e-001 9.985155e+000 -2.166165e+000
      vertex -2.730331e-001 9.985155e+000 -2.144169e+000
    endloop
  endfacet
  facet normal 0.000000e+000 -1.000000e+000 0.000000e+000
    outer loop
      vertex -2.730370e-001 -9.985156e+000 -2.144168e+000
      vertex 2.824783e-002 -9.985156e+000 -2.078626e+000
      vertex 3.171463e-001 -9.985156e+000 -1.970876e+000
    endloop
  endfacet
  facet normal -2.343745e-005 -1.000000e+000 3.646939e-005
    outer loop
      vertex 3.171463e-001 -9.985156e+000 -1.970876e+000
      vertex 5.877762e-001 -9.985157e+000 -1.823102e+000
      vertex 8.346062e-001 -9.985156e+000 -1.638324e+000
    endloop
  endfacet
  facet normal 0.000000e+000 -1.000000e+000 0.000000e+000
    outer loop
      vertex -2.730370e-001 -9.985156e+000 -2.144168e+000
      vertex 3.171463e-001 -9.985156e+000 -1.970876e+000
      vertex 8.346062e-001 -9.985156e+000 -1.638324e+000
    endloop
  endfacet
  facet normal -3.276364e-005 -1.000000e+000 2.838977e-005
    outer loop
      vertex 8.346062e-001 -9.985156e+000 -1.638324e+000
      vertex 1.052635e+000 -9.985157e+000 -1.420297e+000
      vertex 1.237411e+000 -9.985156e+000 -1.173461e+000
    endloop
  endfacet
  facet normal 1.907346e-005 -1.000000e+000 -1.041514e-005
    outer loop
      vertex 1.237411e+000 -9.985156e+000 -1.173461e+000
      vertex 1.385185e+000 -9.985156e+000 -9.028398e-001
      vertex 1.492939e+000 -9.985157e+000 -6.139421e-001
    endloop
  endfacet
  facet normal 4.159129e-006 -1.000000e+000 -3.603895e-006
    outer loop
      vertex 8.346062e-001 -9.985156e+000 -1.638324e+000
      vertex 1.237411e+000 -9.985156e+000 -1.173461e+000
      vertex 1.492939e+000 -9.985157e+000 -6.139421e-001
    endloop
  endfacet
  facet normal 6.017821e-007 -1.000000e+000 -1.317719e-006
    outer loop
      vertex -2.730370e-001 -9.985156e+000 -2.144168e+000
      vertex 8.346062e-001 -9.985156e+000 -1.638324e+000
      vertex 1.492939e+000 -9.985157e+000 -6.139421e-001
    endloop
  endfacet
  facet normal 2.142829e-005 -1.000000e+000 -1.496037e-006
    outer loop
      vertex 1.492939e+000 -9.985157e+000 -6.139421e-001
      vertex 1.558479e+000 -9.985156e+000 -3.126512e-001
      vertex 1.580475e+000 -9.985156e+000 2.399206e-003
    endloop
  endfacet
  facet normal 0.000000e+000 -1.000000e+000 0.000000e+000
    outer loop
      vertex 1.580475e+000 -9.985156e+000 2.399206e-003
      vertex 1.558483e+000 -9.985156e+000 3.124506e-001
      vertex 1.492935e+000 -9.985156e+000 6.137409e-001
    endloop
  endfacet
  facet normal 5.425033e-006 -1.000000e+000 7.768251e-007
    outer loop
      vertex 1.492939e+000 -9.985157e+000 -6.139421e-001
      vertex 1.580475e+000 -9.985156e+000 2.399206e-003
      vertex 1.492935e+000 -9.985156e+000 6.137409e-001
    endloop
  endfacet
  facet normal 0.000000e+000 -1.000000e+000 0.000000e+000
    outer loop
      vertex 1.492935e+000 -9.985156e+000 6.137409e-001
      vertex 1.385185e+000 -9.985156e+000 9.026372e-001
      vertex 1.237411e+000 -9.985156e+000 1.173259e+000
    endloop
  endfacet
  facet normal -3.276016e-005 -1.000000e+000 -2.838675e-005
    outer loop
      vertex 1.237411e+000 -9.985156e+000 1.173259e+000
      vertex 1.052639e+000 -9.985157e+000 1.420094e+000
      vertex 8.346062e-001 -9.985156e+000 1.638123e+000
    endloop
  endfacet
  facet normal 0.000000e+000 -1.000000e+000 0.000000e+000
    outer loop
      vertex 1.492935e+000 -9.985156e+000 6.137409e-001
      vertex 1.237411e+000 -9.985156e+000 1.173259e+000
      vertex 8.346062e-001 -9.985156e+000 1.638123e+000
    endloop
  endfacet
  facet normal 1.208745e-006 -1.000000e+000 7.768120e-007
    outer loop
      vertex 1.492939e+000 -9.985157e+000 -6.139421e-001
      vertex 1.492935e+000 -9.985156e+000 6.137409e-001
      vertex 8.346062e-001 -9.985156e+000 1.638123e+000
    endloop
  endfacet
  facet normal -2.343865e-005 -1.000000e+000 -3.647109e-005
    outer loop
      vertex 8.346062e-001 -9.985156e+000 1.638123e+000
      vertex 5.877724e-001 -9.985157e+000 1.822902e+000
      vertex 3.171463e-001 -9.985156e+000 1.970675e+000
    endloop
  endfacet
  facet normal -1.221496e-005 -1.000000e+000 -4.160069e-005
    outer loop
      vertex 3.171463e-001 -9.985156e+000 1.970675e+000
      vertex 2.825165e-002 -9.985157e+000 2.078426e+000
      vertex -2.730408e-001 -9.985156e+000 2.143968e+000
    endloop
  endfacet
  facet normal 0.000000e+000 -1.000000e+000 0.000000e+000
    outer loop
      vertex 8.346062e-001 -9.985156e+000 1.638123e+000
      vertex 3.171463e-001 -9.985156e+000 1.970675e+000
      vertex -2.730408e-001 -9.985156e+000 2.143968e+000
    endloop
  endfacet
  facet normal 2.231863e-007 -1.000000e+000 4.887094e-007
    outer loop
      vertex 1.492939e+000 -9.985157e+000 -6.139421e-001
      vertex 8.346062e-001 -9.985156e+000 1.638123e+000
      vertex -2.730408e-001 -9.985156e+000 2.143968e+000
    endloop
  endfacet
  facet normal -5.400264e-007 -1.000000e+000 -4.804038e-013
    outer loop
      vertex -2.730370e-001 -9.985156e+000 -2.144168e+000
      vertex 1.492939e+000 -9.985157e+000 -6.139421e-001
      vertex -2.730408e-001 -9.985156e+000 2.143968e+000
    endloop
  endfacet
  facet normal 0.000000e+000 -1.000000e+000 -8.671146e-005
    outer loop
      vertex -2.730408e-001 -9.985156e+000 2.143968e+000
      vertex -5.805893e-001 -9.985158e+000 2.165965e+000
      vertex -8.430771e+000 -9.985158e+000 2.165965e+000
    endloop
  endfacet
  facet normal 2.338087e-007 -1.000000e+000 2.079947e-013
    outer loop
      vertex -2.730370e-001 -9.985156e+000 -2.144168e+000
      vertex -2.730408e-001 -9.985156e+000 2.143968e+000
      vertex -8.430771e+000 -9.985158e+000 2.165965e+000
    endloop
  endfacet
  facet normal 1.187220e-009 -1.000000e+000 -4.402796e-007
    outer loop
      vertex -2.730370e-001 -9.985156e+000 -2.144168e+000
      vertex -8.430771e+000 -9.985158e+000 2.165965e+000
      vertex -8.430771e+000 -9.985156e+000 -2.166166e+000
    endloop
  endfacet
  facet normal 0.000000e+000 -1.000000e+000 -0.000000e+000
    outer loop
      vertex -5.805893e-001 -9.985156e+000 -2.166166e+000
      vertex -2.730370e-001 -9.985156e+000 -2.144168e+000
      vertex -8.430771e+000 -9.985156e+000 -2.166166e+000
    endloop
  endfacet
  facet normal 0.000000e+000 0.000000e+000 1.000000e+000
    outer loop
      vertex -8.430771e+000 -9.985158e+000 2.165965e+000
      vertex -5.805893e-001 -9.985158e+000 2.165965e+000
      vertex -5.805855e-001 9.985156e+000 2.165965e+000
    endloop
  endfacet
  facet normal -0.000000e+000 0.000000e+000 1.000000e+000
    outer loop
      vertex -5.805855e-001 9.985156e+000 2.165965e+000
      vertex -8.430779e+000 9.985157e+000 2.165965e+000
      vertex -8.430771e+000 -9.985158e+000 2.165965e+000
    endloop
  endfacet
  facet normal 2.839124e-005 1.000000e+000 3.276546e-005
    outer loop
      vertex 5.877686e-001 9.985156e+000 1.822902e+000
      vertex 8.346100e-001 9.985155e+000 1.638120e+000
      vertex 1.052635e+000 9.985156e+000 1.420096e+000
    endloop
  endfacet
  facet normal 1.907953e-005 1.000000e+000 1.041883e-005
    outer loop
      vertex 1.052635e+000 9.985156e+000 1.420096e+000
      vertex 1.237411e+000 9.985155e+000 1.173257e+000
      vertex 1.385189e+000 9.985155e+000 9.026389e-001
    endloop
  endfacet
  facet normal 0.000000e+000 1.000000e+000 0.000000e+000
    outer loop
      vertex 1.385189e+000 9.985155e+000 9.026389e-001
      vertex 1.492939e+000 9.985155e+000 6.137407e-001
      vertex 1.558479e+000 9.985155e+000 3.124502e-001
    endloop
  endfacet
  facet normal 5.280031e-006 1.000000e+000 1.550314e-006
    outer loop
      vertex 1.052635e+000 9.985156e+000 1.420096e+000
      vertex 1.385189e+000 9.985155e+000 9.026389e-001
      vertex 1.558479e+000 9.985155e+000 3.124502e-001
    endloop
  endfacet
  facet normal 4.333140e-005 1.000000e+000 -7.932936e-010
    outer loop
      vertex 1.558479e+000 9.985155e+000 3.124502e-001
      vertex 1.580482e+000 9.985154e+000 2.399206e-003
      vertex 1.558468e+000 9.985155e+000 -3.126507e-001
    endloop
  endfacet
  facet normal -4.159475e-005 1.000000e+000 1.221242e-005
    outer loop
      vertex 1.558468e+000 9.985155e+000 -3.126507e-001
      vertex 1.492935e+000 9.985156e+000 -6.139414e-001
      vertex 1.385185e+000 9.985155e+000 -9.028405e-001
    endloop
  endfacet
  facet normal 0.000000e+000 1.000000e+000 0.000000e+000
    outer loop
      vertex 1.558479e+000 9.985155e+000 3.124502e-001
      vertex 1.558468e+000 9.985155e+000 -3.126507e-001
      vertex 1.385185e+000 9.985155e+000 -9.028405e-001
    endloop
  endfacet
  facet normal 1.907910e-005 1.000000e+000 -1.041843e-005
    outer loop
      vertex 1.385185e+000 9.985155e+000 -9.028405e-001
      vertex 1.237411e+000 9.985155e+000 -1.173456e+000
      vertex 1.052635e+000 9.985156e+000 -1.420297e+000
    endloop
  endfacet
  facet normal 2.839904e-005 1.000000e+000 -3.277389e-005
    outer loop
      vertex 1.052635e+000 9.985156e+000 -1.420297e+000
      vertex 8.346024e-001 9.985155e+000 -1.638324e+000
      vertex 5.877762e-001 9.985156e+000 -1.823104e+000
    endloop
  endfacet
  facet normal -3.603938e-006 1.000000e+000 4.159122e-006
    outer loop
      vertex 1.385185e+000 9.985155e+000 -9.028405e-001
      vertex 1.052635e+000 9.985156e+000 -1.420297e+000
      vertex 5.877762e-001 9.985156e+000 -1.823104e+000
    endloop
  endfacet
  facet normal 1.431547e-006 1.000000e+000 -2.041311e-007
    outer loop
      vertex 1.558479e+000 9.985155e+000 3.124502e-001
      vertex 1.385185e+000 9.985155e+000 -9.028405e-001
      vertex 5.877762e-001 9.985156e+000 -1.823104e+000
    endloop
  endfacet
  facet normal 7.595149e-006 1.000000e+000 -2.036346e-005
    outer loop
      vertex 5.877762e-001 9.985156e+000 -1.823104e+000
      vertex 3.171463e-001 9.985155e+000 -1.970876e+000
      vertex 2.825165e-002 9.985155e+000 -2.078627e+000
    endloop
  endfacet
  facet normal 0.000000e+000 1.000000e+000 0.000000e+000
    outer loop
      vertex 2.825165e-002 9.985155e+000 -2.078627e+000
      vertex -2.730331e-001 9.985155e+000 -2.144169e+000
      vertex -5.805817e-001 9.985155e+000 -2.166165e+000
    endloop
  endfacet
  facet normal 7.831983e-007 1.000000e+000 -5.447217e-006
    outer loop
      vertex 5.877762e-001 9.985156e+000 -1.823104e+000
      vertex 2.825165e-002 9.985155e+000 -2.078627e+000
      vertex -5.805817e-001 9.985155e+000 -2.166165e+000
    endloop
  endfacet
  facet normal -1.093295e-006 1.000000e+000 9.435207e-007
    outer loop
      vertex 1.558479e+000 9.985155e+000 3.124502e-001
      vertex 5.877762e-001 9.985156e+000 -1.823104e+000
      vertex -5.805817e-001 9.985155e+000 -2.166165e+000
    endloop
  endfacet
  facet normal 3.644527e-007 1.000000e+000 2.201404e-007
    outer loop
      vertex -5.805817e-001 9.985155e+000 -2.166165e+000
      vertex -8.430771e+000 9.985158e+000 -2.166165e+000
      vertex -8.430779e+000 9.985157e+000 2.165965e+000
    endloop
  endfacet
  facet normal 1.214842e-007 1.000000e+000 -4.165718e-005
    outer loop
      vertex -8.430779e+000 9.985157e+000 2.165965e+000
      vertex -5.805855e-001 9.985156e+000 2.165965e+000
      vertex -2.730370e-001 9.985155e+000 2.143968e+000
    endloop
  endfacet
  facet normal 2.764683e-007 1.000000e+000 1.582109e-005
    outer loop
      vertex -8.430779e+000 9.985157e+000 2.165965e+000
      vertex -2.730370e-001 9.985155e+000 2.143968e+000
      vertex 2.825546e-002 9.985156e+000 2.078425e+000
    endloop
  endfacet
  facet normal 1.102515e-007 1.000000e+000 -2.404943e-007
    outer loop
      vertex -5.805817e-001 9.985155e+000 -2.166165e+000
      vertex -8.430779e+000 9.985157e+000 2.165965e+000
      vertex 2.825546e-002 9.985156e+000 2.078425e+000
    endloop
  endfacet
  facet normal 3.122429e-007 1.000000e+000 -2.694676e-007
    outer loop
      vertex 1.558479e+000 9.985155e+000 3.124502e-001
      vertex -5.805817e-001 9.985155e+000 -2.166165e+000
      vertex 2.825546e-002 9.985156e+000 2.078425e+000
    endloop
  endfacet
  facet normal -7.831860e-007 1.000000e+000 -1.218661e-006
    outer loop
      vertex 1.052635e+000 9.985156e+000 1.420096e+000
      vertex 1.558479e+000 9.985155e+000 3.124502e-001
      vertex 2.825546e-002 9.985156e+000 2.078425e+000
    endloop
  endfacet
  facet normal -0.000000e+000 1.000000e+000 -0.000000e+000
    outer loop
      vertex 5.877686e-001 9.985156e+000 1.822902e+000
      vertex 1.052635e+000 9.985156e+000 1.420096e+000
      vertex 2.825546e-002 9.985156e+000 2.078425e+000
    endloop
  endfacet
  facet normal 1.800828e-005 1.000000e+000 3.943241e-005
    outer loop
      vertex 3.171501e-001 9.985155e+000 1.970675e+000
      vertex 5.877686e-001 9.985156e+000 1.822902e+000
      vertex 2.825546e-002 9.985156e+000 2.078425e+000
    endloop
  endfacet
  facet normal 1.160286e-014 2.387730e-008 -1.000000e+000
    outer loop
      vertex -8.430771e+000 -9.985156e+000 -2.166166e+000
      vertex -8.430771e+000 9.985158e+000 -2.166165e+000
      vertex -5.805817e-001 9.985155e+000 -2.166165e+000
    endloop
  endfacet
  facet normal 0.000000e+000 2.387731e-008 -1.000000e+000
    outer loop
      vertex -5.805817e-001 9.985155e+000 -2.166165e+000
      vertex -5.805893e-001 -9.985156e+000 -2.166166e+000
      vertex -8.430771e+000 -9.985156e+000 -2.166166e+000
    endloop
  endfacet
  facet normal -1.000000e+000 -3.820368e-007 -1.761119e-006
    outer loop
      vertex -8.430771e+000 -9.985158e+000 2.165965e+000
      vertex -8.430779e+000 9.985157e+000 2.165965e+000
      vertex -8.430771e+000 9.985158e+000 -2.166165e+000
    endloop
  endfacet
  facet normal -1.000000e+000 0.000000e+000 0.000000e+000
    outer loop
      vertex -8.430771e+000 9.985158e+000 -2.166165e+000
      vertex -8.430771e+000 -9.985156e+000 -2.166166e+000
      vertex -8.430771e+000 -9.985158e+000 2.165965e+000
    endloop
  endfacet
endsolid Object01
