solid Object01
  facet normal 0.000000e+000 0.000000e+000 1.000000e+000
    outer loop
      vertex -1.993398e+001 -9.971970e+000 4.337131e+000
      vertex 2.002478e+001 -9.971977e+000 4.337131e+000
      vertex 2.002478e+001 9.975882e+000 4.337131e+000
    endloop
  endfacet
  facet normal -0.000000e+000 0.000000e+000 1.000000e+000
    outer loop
      vertex 2.002478e+001 9.975882e+000 4.337131e+000
      vertex -1.993398e+001 9.975887e+000 4.337131e+000
      vertex -1.993398e+001 -9.971970e+000 4.337131e+000
    endloop
  endfacet
  facet normal -5.705083e-016 -2.988022e-009 -1.000000e+000
    outer loop
      vertex 2.002478e+001 -9.971977e+000 5.000000e-003
      vertex -1.993398e+001 -9.971970e+000 5.000000e-003
      vertex -1.993398e+001 9.975887e+000 4.999940e-003
    endloop
  endfacet
  facet normal -1.491655e-009 -5.976045e-009 -1.000000e+000
    outer loop
      vertex -1.993398e+001 9.975887e+000 4.999940e-003
      vertex 2.002478e+001 9.975882e+000 4.999881e-003
      vertex 2.002478e+001 -9.971977e+000 5.000000e-003
    endloop
  endfacet
  facet normal 1.431988e-007 1.000000e+000 -0.000000e+000
    outer loop
      vertex 2.002478e+001 9.975882e+000 4.337131e+000
      vertex 2.002478e+001 9.975882e+000 4.999881e-003
      vertex -1.993398e+001 9.975887e+000 4.999940e-003
    endloop
  endfacet
  facet normal 1.431988e-007 1.000000e+000 0.000000e+000
    outer loop
      vertex -1.993398e+001 9.975887e+000 4.999940e-003
      vertex -1.993398e+001 9.975887e+000 4.337131e+000
      vertex 2.002478e+001 9.975882e+000 4.337131e+000
    endloop
  endfacet
  facet normal 1.000000e+000 0.000000e+000 -0.000000e+000
    outer loop
      vertex 2.002478e+001 -9.971977e+000 4.337131e+000
      vertex 2.002478e+001 -9.971977e+000 5.000000e-003
      vertex 2.002478e+001 9.975882e+000 4.999881e-003
    endloop
  endfacet
  facet normal 1.000000e+000 0.000000e+000 0.000000e+000
    outer loop
      vertex 2.002478e+001 9.975882e+000 4.999881e-003
      vertex 2.002478e+001 9.975882e+000 4.337131e+000
      vertex 2.002478e+001 -9.971977e+000 4.337131e+000
    endloop
  endfacet
  facet normal -1.909317e-007 -1.000000e+000 -0.000000e+000
    outer loop
      vertex 2.002478e+001 -9.971977e+000 5.000000e-003
      vertex 2.002478e+001 -9.971977e+000 4.337131e+000
      vertex -1.993398e+001 -9.971970e+000 4.337131e+000
    endloop
  endfacet
  facet normal -1.909317e-007 -1.000000e+000 0.000000e+000
    outer loop
      vertex -1.993398e+001 -9.971970e+000 4.337131e+000
      vertex -1.993398e+001 -9.971970e+000 5.000000e-003
      vertex 2.002478e+001 -9.971977e+000 5.000000e-003
    endloop
  endfacet
  facet normal -1.000000e+000 0.000000e+000 0.000000e+000
    outer loop
      vertex -1.993398e+001 9.975887e+000 4.337131e+000
      vertex -1.993398e+001 9.975887e+000 4.999940e-003
      vertex -1.993398e+001 -9.971970e+000 5.000000e-003
    endloop
  endfacet
  facet normal -1.000000e+000 0.000000e+000 -0.000000e+000
    outer loop
      vertex -1.993398e+001 -9.971970e+000 5.000000e-003
      vertex -1.993398e+001 -9.971970e+000 4.337131e+000
      vertex -1.993398e+001 9.975887e+000 4.337131e+000
    endloop
  endfacet
endsolid Object01
