solid Панель левый верх
   facet normal -1.424946e-002 2.582428e-001 9.659750e-001
      outer loop
         vertex 1.000000e+000 0.000000e+000 1.000000e+000
         vertex 1.000000e+000 5.000000e-001 8.660254e-001
         vertex 9.587104e-001 4.982923e-001 8.660254e-001
      endloop
   endfacet
   facet normal -2.644197e-002 2.574413e-001 9.659321e-001
      outer loop
         vertex 9.440663e-001 4.964669e-001 8.660254e-001
         vertex 1.000000e+000 0.000000e+000 1.000000e+000
         vertex 9.587104e-001 4.982923e-001 8.660254e-001
      endloop
   endfacet
   facet normal -6.155639e-002 2.513769e-001 9.659299e-001
      outer loop
         vertex 1.000000e+000 0.000000e+000 1.000000e+000
         vertex 8.888111e-001 4.871227e-001 8.660254e-001
         vertex 8.772573e-001 4.847001e-001 8.660254e-001
      endloop
   endfacet
   facet normal -5.259862e-002 2.533224e-001 9.659509e-001
      outer loop
         vertex 9.177027e-001 4.931806e-001 8.660254e-001
         vertex 8.888111e-001 4.871227e-001 8.660254e-001
         vertex 1.000000e+000 0.000000e+000 1.000000e+000
      endloop
   endfacet
   facet normal -3.805966e-002 2.559287e-001 9.659461e-001
      outer loop
         vertex 9.440663e-001 4.964669e-001 8.660254e-001
         vertex 9.177027e-001 4.931806e-001 8.660254e-001
         vertex 1.000000e+000 0.000000e+000 1.000000e+000
      endloop
   endfacet
   facet normal -9.780875e-002 2.394554e-001 9.659682e-001
      outer loop
         vertex 1.000000e+000 0.000000e+000 1.000000e+000
         vertex 8.349017e-001 4.718361e-001 8.660254e-001
         vertex 7.991523e-001 4.578867e-001 8.660254e-001
      endloop
   endfacet
   facet normal -8.499985e-002 2.444624e-001 9.659261e-001
      outer loop
         vertex 8.376503e-001 4.729086e-001 8.660254e-001
         vertex 8.349017e-001 4.718361e-001 8.660254e-001
         vertex 1.000000e+000 0.000000e+000 1.000000e+000
      endloop
   endfacet
   facet normal -7.720830e-002 2.468426e-001 9.659750e-001
      outer loop
         vertex 8.772573e-001 4.847001e-001 8.660254e-001
         vertex 8.376503e-001 4.729086e-001 8.660254e-001
         vertex 1.000000e+000 0.000000e+000 1.000000e+000
      endloop
   endfacet
   facet normal -1.195569e-001 2.294830e-001 9.659419e-001
      outer loop
         vertex 1.000000e+000 0.000000e+000 1.000000e+000
         vertex 7.832419e-001 4.501086e-001 8.660254e-001
         vertex 7.620264e-001 4.397369e-001 8.660254e-001
      endloop
   endfacet
   facet normal -1.328676e-001 2.219795e-001 9.659562e-001
      outer loop
         vertex 7.341313e-001 4.231150e-001 8.660254e-001
         vertex 1.000000e+000 0.000000e+000 1.000000e+000
         vertex 7.620264e-001 4.397369e-001 8.660254e-001
      endloop
   endfacet
   facet normal -1.095206e-001 2.344677e-001 9.659349e-001
      outer loop
         vertex 7.991523e-001 4.578867e-001 8.660254e-001
         vertex 7.832419e-001 4.501086e-001 8.660254e-001
         vertex 1.000000e+000 0.000000e+000 1.000000e+000
      endloop
   endfacet
   facet normal -1.531746e-001 2.083985e-001 9.659749e-001
      outer loop
         vertex 1.000000e+000 0.000000e+000 1.000000e+000
         vertex 7.265260e-001 4.185832e-001 8.660254e-001
         vertex 6.928937e-001 3.945703e-001 8.660254e-001
      endloop
   endfacet
   facet normal -1.605692e-001 2.029850e-001 9.659268e-001
      outer loop
         vertex 6.883903e-001 3.907561e-001 8.660254e-001
         vertex 1.000000e+000 0.000000e+000 1.000000e+000
         vertex 6.928937e-001 3.945703e-001 8.660254e-001
      endloop
   endfacet
   facet normal -1.402751e-001 2.174991e-001 9.659281e-001
      outer loop
         vertex 7.341313e-001 4.231150e-001 8.660254e-001
         vertex 7.265260e-001 4.185832e-001 8.660254e-001
         vertex 1.000000e+000 0.000000e+000 1.000000e+000
      endloop
   endfacet
   facet normal -1.879529e-001 1.778687e-001 9.659382e-001
      outer loop
         vertex 1.000000e+000 0.000000e+000 1.000000e+000
         vertex 6.467487e-001 3.532514e-001 8.660254e-001
         vertex 6.321381e-001 3.386408e-001 8.660254e-001
      endloop
   endfacet
   facet normal -1.804419e-001 1.854839e-001 9.659382e-001
      outer loop
         vertex 6.613593e-001 3.678620e-001 8.660254e-001
         vertex 6.467487e-001 3.532514e-001 8.660254e-001
         vertex 1.000000e+000 0.000000e+000 1.000000e+000
      endloop
   endfacet
   facet normal -1.706581e-001 1.944051e-001 9.659620e-001
      outer loop
         vertex 6.883903e-001 3.907561e-001 8.660254e-001
         vertex 6.613593e-001 3.678620e-001 8.660254e-001
         vertex 1.000000e+000 0.000000e+000 1.000000e+000
      endloop
   endfacet
   facet normal -2.036149e-001 1.597696e-001 9.659268e-001
      outer loop
         vertex 1.000000e+000 0.000000e+000 1.000000e+000
         vertex 6.092439e-001 3.116097e-001 8.660254e-001
         vertex 6.054298e-001 3.071063e-001 8.660254e-001
      endloop
   endfacet
   facet normal -2.125421e-001 1.473712e-001 9.659750e-001
      outer loop
         vertex 5.814168e-001 2.734741e-001 8.660254e-001
         vertex 1.000000e+000 0.000000e+000 1.000000e+000
         vertex 6.054298e-001 3.071063e-001 8.660254e-001
      endloop
   endfacet
   facet normal -1.983838e-001 1.660163e-001 9.659620e-001
      outer loop
         vertex 6.321381e-001 3.386408e-001 8.660254e-001
         vertex 6.092439e-001 3.116097e-001 8.660254e-001
         vertex 1.000000e+000 0.000000e+000 1.000000e+000
      endloop
   endfacet
   facet normal -2.248056e-001 1.280279e-001 9.659562e-001
      outer loop
         vertex 1.000000e+000 0.000000e+000 1.000000e+000
         vertex 5.768850e-001 2.658688e-001 8.660254e-001
         vertex 5.602632e-001 2.379737e-001 8.660254e-001
      endloop
   endfacet
   facet normal -2.313376e-001 1.159275e-001 9.659419e-001
      outer loop
         vertex 5.498915e-001 2.167581e-001 8.660254e-001
         vertex 1.000000e+000 0.000000e+000 1.000000e+000
         vertex 5.602632e-001 2.379737e-001 8.660254e-001
      endloop
   endfacet
   facet normal -2.183230e-001 1.389892e-001 9.659281e-001
      outer loop
         vertex 5.814168e-001 2.734741e-001 8.660254e-001
         vertex 5.768850e-001 2.658688e-001 8.660254e-001
         vertex 1.000000e+000 0.000000e+000 1.000000e+000
      endloop
   endfacet
   facet normal -2.446290e-001 8.451914e-002 9.659261e-001
      outer loop
         vertex 1.000000e+000 0.000000e+000 1.000000e+000
         vertex 5.281640e-001 1.650983e-001 8.660254e-001
         vertex 5.270914e-001 1.623497e-001 8.660254e-001
      endloop
   endfacet
   facet normal -2.418809e-001 9.164652e-002 9.659682e-001
      outer loop
         vertex 5.421134e-001 2.008477e-001 8.660254e-001
         vertex 5.281640e-001 1.650983e-001 8.660254e-001
         vertex 1.000000e+000 0.000000e+000 1.000000e+000
      endloop
   endfacet
   facet normal -2.357447e-001 1.067440e-001 9.659349e-001
      outer loop
         vertex 5.498915e-001 2.167581e-001 8.660254e-001
         vertex 5.421134e-001 2.008477e-001 8.660254e-001
         vertex 1.000000e+000 0.000000e+000 1.000000e+000
      endloop
   endfacet
   facet normal -2.543091e-001 4.759997e-002 9.659509e-001
      outer loop
         vertex 1.000000e+000 0.000000e+000 1.000000e+000
         vertex 5.128773e-001 1.111889e-001 8.660254e-001
         vertex 5.068194e-001 8.229730e-002 8.660254e-001
      endloop
   endfacet
   facet normal -2.518536e-001 5.957620e-002 9.659299e-001
      outer loop
         vertex 5.152999e-001 1.227427e-001 8.660254e-001
         vertex 5.128773e-001 1.111889e-001 8.660254e-001
         vertex 1.000000e+000 0.000000e+000 1.000000e+000
      endloop
   endfacet
   facet normal -2.488773e-001 7.037392e-002 9.659750e-001
      outer loop
         vertex 5.270914e-001 1.623497e-001 8.660254e-001
         vertex 5.152999e-001 1.227427e-001 8.660254e-001
         vertex 1.000000e+000 0.000000e+000 1.000000e+000
      endloop
   endfacet
   facet normal -2.576890e-001 2.390761e-002 9.659321e-001
      outer loop
         vertex 1.000000e+000 0.000000e+000 1.000000e+000
         vertex 5.035332e-001 5.593372e-002 8.660254e-001
         vertex 5.017078e-001 4.128967e-002 8.660254e-001
      endloop
   endfacet
   facet normal -2.585375e-001 7.124732e-003 9.659750e-001
      outer loop
         vertex 5.000000e-001 0.000000e+000 8.660254e-001
         vertex 1.000000e+000 0.000000e+000 1.000000e+000
         vertex 5.017078e-001 4.128967e-002 8.660254e-001
      endloop
   endfacet
   facet normal -2.565630e-001 3.351821e-002 9.659461e-001
      outer loop
         vertex 5.068194e-001 8.229730e-002 8.660254e-001
         vertex 5.035332e-001 5.593372e-002 8.660254e-001
         vertex 1.000000e+000 0.000000e+000 1.000000e+000
      endloop
   endfacet
   facet normal -1.849933e-002 7.066223e-001 7.073491e-001
      outer loop
         vertex 1.000000e+000 5.000000e-001 8.660254e-001
         vertex 1.000000e+000 8.660254e-001 5.000000e-001
         vertex 9.320525e-001 8.633558e-001 5.000000e-001
      endloop
   endfacet
   facet normal -3.797086e-002 7.058304e-001 7.073625e-001
      outer loop
         vertex 1.000000e+000 5.000000e-001 8.660254e-001
         vertex 9.320525e-001 8.633558e-001 5.000000e-001
         vertex 9.587104e-001 4.982923e-001 8.660254e-001
      endloop
   endfacet
   facet normal -5.742006e-002 7.047709e-001 7.071075e-001
      outer loop
         vertex 9.587104e-001 4.982923e-001 8.660254e-001
         vertex 9.320525e-001 8.633558e-001 5.000000e-001
         vertex 9.284999e-001 8.629352e-001 5.000000e-001
      endloop
   endfacet
   facet normal -6.531829e-002 7.040491e-001 7.071410e-001
      outer loop
         vertex 9.587104e-001 4.982923e-001 8.660254e-001
         vertex 9.284999e-001 8.629352e-001 5.000000e-001
         vertex 9.440663e-001 4.964669e-001 8.660254e-001
      endloop
   endfacet
   facet normal -8.274228e-002 7.020824e-001 7.072722e-001
      outer loop
         vertex 9.440663e-001 4.964669e-001 8.660254e-001
         vertex 9.284999e-001 8.629352e-001 5.000000e-001
         vertex 8.645238e-001 8.553632e-001 5.000000e-001
      endloop
   endfacet
   facet normal -1.020693e-001 6.996038e-001 7.072031e-001
      outer loop
         vertex 9.440663e-001 4.964669e-001 8.660254e-001
         vertex 8.645238e-001 8.553632e-001 5.000000e-001
         vertex 9.177027e-001 4.931806e-001 8.660254e-001
      endloop
   endfacet
   facet normal -1.144609e-001 6.977786e-001 7.071095e-001
      outer loop
         vertex 9.177027e-001 4.931806e-001 8.660254e-001
         vertex 8.645238e-001 8.553632e-001 5.000000e-001
         vertex 8.575060e-001 8.539672e-001 5.000000e-001
      endloop
   endfacet
   facet normal -1.300653e-001 6.949022e-001 7.072439e-001
      outer loop
         vertex 9.177027e-001 4.931806e-001 8.660254e-001
         vertex 8.575060e-001 8.539672e-001 5.000000e-001
         vertex 8.888111e-001 4.871227e-001 8.660254e-001
      endloop
   endfacet
   facet normal -1.463031e-001 6.916341e-001 7.072747e-001
      outer loop
         vertex 8.888111e-001 4.871227e-001 8.660254e-001
         vertex 8.575060e-001 8.539672e-001 5.000000e-001
         vertex 7.978304e-001 8.420970e-001 5.000000e-001
      endloop
   endfacet
   facet normal -1.653405e-001 6.874877e-001 7.071232e-001
      outer loop
         vertex 8.888111e-001 4.871227e-001 8.660254e-001
         vertex 7.978304e-001 8.420970e-001 5.000000e-001
         vertex 8.772573e-001 4.847001e-001 8.660254e-001
      endloop
   endfacet
   facet normal -1.707455e-001 6.861760e-001 7.071128e-001
      outer loop
         vertex 7.978304e-001 8.420970e-001 5.000000e-001
         vertex 7.874998e-001 8.391835e-001 5.000000e-001
         vertex 8.772573e-001 4.847001e-001 8.660254e-001
      endloop
   endfacet
   facet normal -1.886023e-001 6.813120e-001 7.072787e-001
      outer loop
         vertex 8.772573e-001 4.847001e-001 8.660254e-001
         vertex 7.874998e-001 8.391835e-001 5.000000e-001
         vertex 7.323834e-001 8.236391e-001 5.000000e-001
      endloop
   endfacet
   facet normal -2.072960e-001 6.758028e-001 7.073323e-001
      outer loop
         vertex 8.772573e-001 4.847001e-001 8.660254e-001
         vertex 7.323834e-001 8.236391e-001 5.000000e-001
         vertex 8.376503e-001 4.729086e-001 8.660254e-001
      endloop
   endfacet
   facet normal -2.259016e-001 6.700398e-001 7.071175e-001
      outer loop
         vertex 8.376503e-001 4.729086e-001 8.660254e-001
         vertex 7.323834e-001 8.236391e-001 5.000000e-001
         vertex 7.189556e-001 8.186854e-001 5.000000e-001
      endloop
   endfacet
   facet normal -2.309084e-001 6.683408e-001 7.071081e-001
      outer loop
         vertex 8.376503e-001 4.729086e-001 8.660254e-001
         vertex 7.189556e-001 8.186854e-001 5.000000e-001
         vertex 8.349017e-001 4.718361e-001 8.660254e-001
      endloop
   endfacet
   facet normal -2.446226e-001 6.632982e-001 7.072448e-001
      outer loop
         vertex 8.349017e-001 4.718361e-001 8.660254e-001
         vertex 7.189556e-001 8.186854e-001 5.000000e-001
         vertex 6.685865e-001 8.001031e-001 5.000000e-001
      endloop
   endfacet
   facet normal -2.627947e-001 6.562590e-001 7.072928e-001
      outer loop
         vertex 8.349017e-001 4.718361e-001 8.660254e-001
         vertex 6.685865e-001 8.001031e-001 5.000000e-001
         vertex 7.991523e-001 4.578867e-001 8.660254e-001
      endloop
   endfacet
   facet normal -2.795646e-001 6.494766e-001 7.071235e-001
      outer loop
         vertex 7.991523e-001 4.578867e-001 8.660254e-001
         vertex 6.685865e-001 8.001031e-001 5.000000e-001
         vertex 6.523384e-001 7.926127e-001 5.000000e-001
      endloop
   endfacet
   facet normal -2.916453e-001 6.441066e-001 7.071561e-001
      outer loop
         vertex 7.991523e-001 4.578867e-001 8.660254e-001
         vertex 6.523384e-001 7.926127e-001 5.000000e-001
         vertex 7.832419e-001 4.501086e-001 8.660254e-001
      endloop
   endfacet
   facet normal -3.039942e-001 6.383147e-001 7.072071e-001
      outer loop
         vertex 7.832419e-001 4.501086e-001 8.660254e-001
         vertex 6.523384e-001 7.926127e-001 5.000000e-001
         vertex 6.068327e-001 7.716343e-001 5.000000e-001
      endloop
   endfacet
   facet normal -3.214847e-001 6.297258e-001 7.071726e-001
      outer loop
         vertex 7.832419e-001 4.501086e-001 8.660254e-001
         vertex 6.068327e-001 7.716343e-001 5.000000e-001
         vertex 7.620264e-001 4.397369e-001 8.660254e-001
      endloop
   endfacet
   facet normal -3.313797e-001 6.246226e-001 7.071310e-001
      outer loop
         vertex 7.620264e-001 4.397369e-001 8.660254e-001
         vertex 6.068327e-001 7.716343e-001 5.000000e-001
         vertex 5.880995e-001 7.611431e-001 5.000000e-001
      endloop
   endfacet
   facet normal -3.498476e-001 6.143062e-001 7.072726e-001
      outer loop
         vertex 7.620264e-001 4.397369e-001 8.660254e-001
         vertex 5.880995e-001 7.611431e-001 5.000000e-001
         vertex 7.341313e-001 4.231150e-001 8.660254e-001
      endloop
   endfacet
   facet normal -3.608103e-001 6.079596e-001 7.072489e-001
      outer loop
         vertex 7.341313e-001 4.231150e-001 8.660254e-001
         vertex 5.880995e-001 7.611431e-001 5.000000e-001
         vertex 5.475030e-001 7.384081e-001 5.000000e-001
      endloop
   endfacet
   facet normal -3.774883e-001 5.978856e-001 7.071319e-001
      outer loop
         vertex 7.341313e-001 4.231150e-001 8.660254e-001
         vertex 5.475030e-001 7.384081e-001 5.000000e-001
         vertex 7.265260e-001 4.185832e-001 8.660254e-001
      endloop
   endfacet
   facet normal -3.810042e-001 5.956420e-001 7.071397e-001
      outer loop
         vertex 5.475030e-001 7.384081e-001 5.000000e-001
         vertex 5.266743e-001 7.244908e-001 5.000000e-001
         vertex 7.265260e-001 4.185832e-001 8.660254e-001
      endloop
   endfacet
   facet normal -3.964289e-001 5.854121e-001 7.072034e-001
      outer loop
         vertex 7.265260e-001 4.185832e-001 8.660254e-001
         vertex 5.266743e-001 7.244908e-001 5.000000e-001
         vertex 4.909631e-001 7.006292e-001 5.000000e-001
      endloop
   endfacet
   facet normal -4.123496e-001 5.741770e-001 7.073109e-001
      outer loop
         vertex 7.265260e-001 4.185832e-001 8.660254e-001
         vertex 4.909631e-001 7.006292e-001 5.000000e-001
         vertex 6.928937e-001 3.945703e-001 8.660254e-001
      endloop
   endfacet
   facet normal -4.281101e-001 5.627264e-001 7.071497e-001
      outer loop
         vertex 6.928937e-001 3.945703e-001 8.660254e-001
         vertex 4.909631e-001 7.006292e-001 5.000000e-001
         vertex 4.684793e-001 6.829044e-001 5.000000e-001
      endloop
   endfacet
   facet normal -4.365008e-001 5.562906e-001 7.071123e-001
      outer loop
         vertex 6.928937e-001 3.945703e-001 8.660254e-001
         vertex 4.684793e-001 6.829044e-001 5.000000e-001
         vertex 6.883903e-001 3.907561e-001 8.660254e-001
      endloop
   endfacet
   facet normal -4.448438e-001 5.495646e-001 7.071724e-001
      outer loop
         vertex 6.883903e-001 3.907561e-001 8.660254e-001
         vertex 4.684793e-001 6.829044e-001 5.000000e-001
         vertex 4.375615e-001 6.585308e-001 5.000000e-001
      endloop
   endfacet
   facet normal -4.597651e-001 5.370349e-001 7.072549e-001
      outer loop
         vertex 6.883903e-001 3.907561e-001 8.660254e-001
         vertex 4.375615e-001 6.585308e-001 5.000000e-001
         vertex 6.613593e-001 3.678620e-001 8.660254e-001
      endloop
   endfacet
   facet normal -4.723860e-001 5.260937e-001 7.071611e-001
      outer loop
         vertex 6.613593e-001 3.678620e-001 8.660254e-001
         vertex 4.375615e-001 6.585308e-001 5.000000e-001
         vertex 4.139090e-001 6.366667e-001 5.000000e-001
      endloop
   endfacet
   facet normal -4.859861e-001 5.135393e-001 7.071739e-001
      outer loop
         vertex 6.613593e-001 3.678620e-001 8.660254e-001
         vertex 4.139090e-001 6.366667e-001 5.000000e-001
         vertex 6.467487e-001 3.532514e-001 8.660254e-001
      endloop
   endfacet
   facet normal -4.930167e-001 5.067935e-001 7.071739e-001
      outer loop
         vertex 6.467487e-001 3.532514e-001 8.660254e-001
         vertex 4.139090e-001 6.366667e-001 5.000000e-001
         vertex 3.876276e-001 6.123724e-001 5.000000e-001
      endloop
   endfacet
   facet normal -5.067932e-001 4.930170e-001 7.071739e-001
      outer loop
         vertex 6.467487e-001 3.532514e-001 8.660254e-001
         vertex 3.876276e-001 6.123724e-001 5.000000e-001
         vertex 6.321381e-001 3.386408e-001 8.660254e-001
      endloop
   endfacet
   facet normal -5.135393e-001 4.859861e-001 7.071739e-001
      outer loop
         vertex 6.321381e-001 3.386408e-001 8.660254e-001
         vertex 3.876276e-001 6.123724e-001 5.000000e-001
         vertex 3.633334e-001 5.860911e-001 5.000000e-001
      endloop
   endfacet
   facet normal -5.312533e-001 4.663591e-001 7.073041e-001
      outer loop
         vertex 6.321381e-001 3.386408e-001 8.660254e-001
         vertex 3.633334e-001 5.860911e-001 5.000000e-001
         vertex 6.092439e-001 3.116097e-001 8.660254e-001
      endloop
   endfacet
   facet normal -5.370352e-001 4.597648e-001 7.072549e-001
      outer loop
         vertex 6.092439e-001 3.116097e-001 8.660254e-001
         vertex 3.633334e-001 5.860911e-001 5.000000e-001
         vertex 3.414692e-001 5.624385e-001 5.000000e-001
      endloop
   endfacet
   facet normal -5.495639e-001 4.448447e-001 7.071724e-001
      outer loop
         vertex 6.092439e-001 3.116097e-001 8.660254e-001
         vertex 3.414692e-001 5.624385e-001 5.000000e-001
         vertex 6.054298e-001 3.071063e-001 8.660254e-001
      endloop
   endfacet
   facet normal -5.512978e-001 4.426690e-001 7.071880e-001
      outer loop
         vertex 3.414692e-001 5.624385e-001 5.000000e-001
         vertex 3.170956e-001 5.315207e-001 5.000000e-001
         vertex 6.054298e-001 3.071063e-001 8.660254e-001
      endloop
   endfacet
   facet normal -5.627264e-001 4.281101e-001 7.071497e-001
      outer loop
         vertex 6.054298e-001 3.071063e-001 8.660254e-001
         vertex 3.170956e-001 5.315207e-001 5.000000e-001
         vertex 2.993708e-001 5.090370e-001 5.000000e-001
      endloop
   endfacet
   facet normal -5.741770e-001 4.123496e-001 7.073108e-001
      outer loop
         vertex 6.054298e-001 3.071063e-001 8.660254e-001
         vertex 2.993708e-001 5.090370e-001 5.000000e-001
         vertex 5.814168e-001 2.734741e-001 8.660254e-001
      endloop
   endfacet
   facet normal -5.854121e-001 3.964289e-001 7.072034e-001
      outer loop
         vertex 5.814168e-001 2.734741e-001 8.660254e-001
         vertex 2.993708e-001 5.090370e-001 5.000000e-001
         vertex 2.755093e-001 4.733258e-001 5.000000e-001
      endloop
   endfacet
   facet normal -5.942284e-001 3.832430e-001 7.071191e-001
      outer loop
         vertex 5.814168e-001 2.734741e-001 8.660254e-001
         vertex 2.755093e-001 4.733258e-001 5.000000e-001
         vertex 5.768850e-001 2.658688e-001 8.660254e-001
      endloop
   endfacet
   facet normal -5.978865e-001 3.774868e-001 7.071319e-001
      outer loop
         vertex 5.768850e-001 2.658688e-001 8.660254e-001
         vertex 2.755093e-001 4.733258e-001 5.000000e-001
         vertex 2.615920e-001 4.524970e-001 5.000000e-001
      endloop
   endfacet
   facet normal -6.079584e-001 3.608123e-001 7.072489e-001
      outer loop
         vertex 5.768850e-001 2.658688e-001 8.660254e-001
         vertex 2.615920e-001 4.524970e-001 5.000000e-001
         vertex 5.602632e-001 2.379737e-001 8.660254e-001
      endloop
   endfacet
   facet normal -6.156570e-001 3.475716e-001 7.072203e-001
      outer loop
         vertex 5.602632e-001 2.379737e-001 8.660254e-001
         vertex 2.615920e-001 4.524970e-001 5.000000e-001
         vertex 2.388569e-001 4.119006e-001 5.000000e-001
      endloop
   endfacet
   facet normal -6.270276e-001 3.266686e-001 7.071944e-001
      outer loop
         vertex 5.602632e-001 2.379737e-001 8.660254e-001
         vertex 2.388569e-001 4.119006e-001 5.000000e-001
         vertex 5.498915e-001 2.167581e-001 8.660254e-001
      endloop
   endfacet
   facet normal -6.297268e-001 3.214827e-001 7.071726e-001
      outer loop
         vertex 5.498915e-001 2.167581e-001 8.660254e-001
         vertex 2.388569e-001 4.119006e-001 5.000000e-001
         vertex 2.283658e-001 3.931673e-001 5.000000e-001
      endloop
   endfacet
   facet normal -6.383135e-001 3.039966e-001 7.072071e-001
      outer loop
         vertex 5.498915e-001 2.167581e-001 8.660254e-001
         vertex 2.283658e-001 3.931673e-001 5.000000e-001
         vertex 5.421134e-001 2.008477e-001 8.660254e-001
      endloop
   endfacet
   facet normal -6.418324e-001 2.964204e-001 7.072384e-001
      outer loop
         vertex 2.283658e-001 3.931673e-001 5.000000e-001
         vertex 2.073874e-001 3.476616e-001 5.000000e-001
         vertex 5.421134e-001 2.008477e-001 8.660254e-001
      endloop
   endfacet
   facet normal -6.494766e-001 2.795646e-001 7.071236e-001
      outer loop
         vertex 5.421134e-001 2.008477e-001 8.660254e-001
         vertex 2.073874e-001 3.476616e-001 5.000000e-001
         vertex 1.998969e-001 3.314136e-001 5.000000e-001
      endloop
   endfacet
   facet normal -6.562590e-001 2.627947e-001 7.072928e-001
      outer loop
         vertex 5.421134e-001 2.008477e-001 8.660254e-001
         vertex 1.998969e-001 3.314136e-001 5.000000e-001
         vertex 5.281640e-001 1.650983e-001 8.660254e-001
      endloop
   endfacet
   facet normal -6.632982e-001 2.446226e-001 7.072448e-001
      outer loop
         vertex 5.281640e-001 1.650983e-001 8.660254e-001
         vertex 1.998969e-001 3.314136e-001 5.000000e-001
         vertex 1.813147e-001 2.810444e-001 5.000000e-001
      endloop
   endfacet
   facet normal -6.683408e-001 2.309084e-001 7.071081e-001
      outer loop
         vertex 5.281640e-001 1.650983e-001 8.660254e-001
         vertex 1.813147e-001 2.810444e-001 5.000000e-001
         vertex 5.270914e-001 1.623497e-001 8.660254e-001
      endloop
   endfacet
   facet normal -6.700398e-001 2.259016e-001 7.071175e-001
      outer loop
         vertex 5.270914e-001 1.623497e-001 8.660254e-001
         vertex 1.813147e-001 2.810444e-001 5.000000e-001
         vertex 1.763609e-001 2.676166e-001 5.000000e-001
      endloop
   endfacet
   facet normal -6.758028e-001 2.072960e-001 7.073323e-001
      outer loop
         vertex 5.270914e-001 1.623497e-001 8.660254e-001
         vertex 1.763609e-001 2.676166e-001 5.000000e-001
         vertex 5.152999e-001 1.227427e-001 8.660254e-001
      endloop
   endfacet
   facet normal -6.813120e-001 1.886023e-001 7.072787e-001
      outer loop
         vertex 5.152999e-001 1.227427e-001 8.660254e-001
         vertex 1.763609e-001 2.676166e-001 5.000000e-001
         vertex 1.608165e-001 2.125003e-001 5.000000e-001
      endloop
   endfacet
   facet normal -6.867936e-001 1.681772e-001 7.071287e-001
      outer loop
         vertex 5.152999e-001 1.227427e-001 8.660254e-001
         vertex 1.608165e-001 2.125003e-001 5.000000e-001
         vertex 5.128773e-001 1.111889e-001 8.660254e-001
      endloop
   endfacet
   facet normal -6.874883e-001 1.653379e-001 7.071232e-001
      outer loop
         vertex 5.128773e-001 1.111889e-001 8.660254e-001
         vertex 1.608165e-001 2.125003e-001 5.000000e-001
         vertex 1.579030e-001 2.021696e-001 5.000000e-001
      endloop
   endfacet
   facet normal -6.916337e-001 1.463052e-001 7.072747e-001
      outer loop
         vertex 5.128773e-001 1.111889e-001 8.660254e-001
         vertex 1.579030e-001 2.021696e-001 5.000000e-001
         vertex 5.068194e-001 8.229730e-002 8.660254e-001
      endloop
   endfacet
   facet normal -7.066223e-001 1.849933e-002 7.073491e-001
      outer loop
         vertex 1.339747e-001 0.000000e+000 5.000000e-001
         vertex 5.000000e-001 0.000000e+000 8.660254e-001
         vertex 1.366443e-001 6.794757e-002 5.000000e-001
      endloop
   endfacet
   facet normal -7.058304e-001 3.797086e-002 7.073625e-001
      outer loop
         vertex 1.366443e-001 6.794757e-002 5.000000e-001
         vertex 5.000000e-001 0.000000e+000 8.660254e-001
         vertex 5.017078e-001 4.128967e-002 8.660254e-001
      endloop
   endfacet
   facet normal -7.047709e-001 5.742006e-002 7.071075e-001
      outer loop
         vertex 1.366443e-001 6.794757e-002 5.000000e-001
         vertex 5.017078e-001 4.128967e-002 8.660254e-001
         vertex 1.370648e-001 7.150016e-002 5.000000e-001
      endloop
   endfacet
   facet normal -7.040491e-001 6.531829e-002 7.071410e-001
      outer loop
         vertex 1.370648e-001 7.150016e-002 5.000000e-001
         vertex 5.017078e-001 4.128967e-002 8.660254e-001
         vertex 5.035332e-001 5.593372e-002 8.660254e-001
      endloop
   endfacet
   facet normal -7.020824e-001 8.274228e-002 7.072722e-001
      outer loop
         vertex 1.370648e-001 7.150016e-002 5.000000e-001
         vertex 5.035332e-001 5.593372e-002 8.660254e-001
         vertex 1.446368e-001 1.354762e-001 5.000000e-001
      endloop
   endfacet
   facet normal -6.996038e-001 1.020693e-001 7.072031e-001
      outer loop
         vertex 1.446368e-001 1.354762e-001 5.000000e-001
         vertex 5.035332e-001 5.593372e-002 8.660254e-001
         vertex 5.068194e-001 8.229730e-002 8.660254e-001
      endloop
   endfacet
   facet normal -6.977786e-001 1.144609e-001 7.071095e-001
      outer loop
         vertex 1.446368e-001 1.354762e-001 5.000000e-001
         vertex 5.068194e-001 8.229730e-002 8.660254e-001
         vertex 1.460328e-001 1.424940e-001 5.000000e-001
      endloop
   endfacet
   facet normal -6.943558e-001 1.326485e-001 7.073008e-001
      outer loop
         vertex 1.460328e-001 1.424940e-001 5.000000e-001
         vertex 5.068194e-001 8.229730e-002 8.660254e-001
         vertex 1.579030e-001 2.021696e-001 5.000000e-001
      endloop
   endfacet
   facet normal -9.655505e-001 2.527805e-002 2.589846e-001
      outer loop
         vertex 3.082678e-003 7.845910e-002 3.385501e-016
         vertex 0.000000e+000 0.000000e+000 3.393051e-016
         vertex 1.339747e-001 0.000000e+000 5.000000e-001
      endloop
   endfacet
   facet normal -2.527805e-002 9.655505e-001 2.589846e-001
      outer loop
         vertex 1.000000e+000 8.660254e-001 5.000000e-001
         vertex 1.000000e+000 1.000000e+000 9.437575e-017
         vertex 9.320525e-001 8.633558e-001 5.000000e-001
      endloop
   endfacet
   facet normal -5.055610e-002 9.645575e-001 2.589846e-001
      outer loop
         vertex 9.320525e-001 8.633558e-001 5.000000e-001
         vertex 1.000000e+000 1.000000e+000 9.437575e-017
         vertex 9.215410e-001 9.969174e-001 1.135927e-016
      endloop
   endfacet
   facet normal -7.711069e-002 9.628429e-001 2.588195e-001
      outer loop
         vertex 9.320525e-001 8.633558e-001 5.000000e-001
         vertex 9.215410e-001 9.969174e-001 1.135927e-016
         vertex 9.284999e-001 8.629352e-001 5.000000e-001
      endloop
   endfacet
   facet normal -1.022788e-001 9.604532e-001 2.589764e-001
      outer loop
         vertex 9.284999e-001 8.629352e-001 5.000000e-001
         vertex 9.215410e-001 9.969174e-001 1.135927e-016
         vertex 8.435656e-001 9.876883e-001 1.326911e-016
      endloop
   endfacet
   facet normal -1.786277e-001 9.492245e-001 2.589690e-001
      outer loop
         vertex 7.665547e-001 9.723699e-001 1.515534e-016
         vertex 8.575060e-001 8.539672e-001 5.000000e-001
         vertex 8.435656e-001 9.876883e-001 1.326911e-016
      endloop
   endfacet
   facet normal -1.537297e-001 9.536136e-001 2.588209e-001
      outer loop
         vertex 8.435656e-001 9.876883e-001 1.326911e-016
         vertex 8.575060e-001 8.539672e-001 5.000000e-001
         vertex 8.645238e-001 8.553632e-001 5.000000e-001
      endloop
   endfacet
   facet normal -1.273960e-001 9.574476e-001 2.589677e-001
      outer loop
         vertex 8.435656e-001 9.876883e-001 1.326911e-016
         vertex 8.645238e-001 8.553632e-001 5.000000e-001
         vertex 9.284999e-001 8.629352e-001 5.000000e-001
      endloop
   endfacet
   facet normal -2.538370e-001 9.319363e-001 2.589626e-001
      outer loop
         vertex 6.909830e-001 9.510565e-001 1.700631e-016
         vertex 7.874998e-001 8.391835e-001 5.000000e-001
         vertex 7.665547e-001 9.723699e-001 1.515534e-016
      endloop
   endfacet
   facet normal -2.293677e-001 9.382969e-001 2.588232e-001
      outer loop
         vertex 7.665547e-001 9.723699e-001 1.515534e-016
         vertex 7.874998e-001 8.391835e-001 5.000000e-001
         vertex 7.978304e-001 8.420970e-001 5.000000e-001
      endloop
   endfacet
   facet normal -2.034240e-001 9.442260e-001 2.589516e-001
      outer loop
         vertex 7.665547e-001 9.723699e-001 1.515534e-016
         vertex 7.978304e-001 8.420970e-001 5.000000e-001
         vertex 8.575060e-001 8.539672e-001 5.000000e-001
      endloop
   endfacet
   facet normal -3.274267e-001 9.086985e-001 2.589571e-001
      outer loop
         vertex 6.173166e-001 9.238796e-001 1.881062e-016
         vertex 7.189556e-001 8.186854e-001 5.000000e-001
         vertex 6.909830e-001 9.510565e-001 1.700631e-016
      endloop
   endfacet
   facet normal -3.035419e-001 9.169903e-001 2.588264e-001
      outer loop
         vertex 6.909830e-001 9.510565e-001 1.700631e-016
         vertex 7.189556e-001 8.186854e-001 5.000000e-001
         vertex 7.323834e-001 8.236391e-001 5.000000e-001
      endloop
   endfacet
   facet normal -2.781546e-001 9.249767e-001 2.589365e-001
      outer loop
         vertex 6.909830e-001 9.510565e-001 1.700631e-016
         vertex 7.323834e-001 8.236391e-001 5.000000e-001
         vertex 7.874998e-001 8.391835e-001 5.000000e-001
      endloop
   endfacet
   facet normal -3.989267e-001 8.796597e-001 2.589525e-001
      outer loop
         vertex 5.460095e-001 8.910065e-001 2.055713e-016
         vertex 6.523384e-001 7.926127e-001 5.000000e-001
         vertex 6.173166e-001 9.238796e-001 1.881062e-016
      endloop
   endfacet
   facet normal -3.757785e-001 8.898299e-001 2.588305e-001
      outer loop
         vertex 6.173166e-001 9.238796e-001 1.881062e-016
         vertex 6.523384e-001 7.926127e-001 5.000000e-001
         vertex 6.685865e-001 8.001031e-001 5.000000e-001
      endloop
   endfacet
   facet normal -3.511108e-001 8.998224e-001 2.589223e-001
      outer loop
         vertex 6.173166e-001 9.238796e-001 1.881062e-016
         vertex 6.685865e-001 8.001031e-001 5.000000e-001
         vertex 7.189556e-001 8.186854e-001 5.000000e-001
      endloop
   endfacet
   facet normal -4.678804e-001 8.450050e-001 2.589489e-001
      outer loop
         vertex 4.775015e-001 8.526402e-001 2.223510e-016
         vertex 5.880995e-001 7.611431e-001 5.000000e-001
         vertex 5.460095e-001 8.910065e-001 2.055713e-016
      endloop
   endfacet
   facet normal -4.456164e-001 8.569890e-001 2.588356e-001
      outer loop
         vertex 5.460095e-001 8.910065e-001 2.055713e-016
         vertex 5.880995e-001 7.611431e-001 5.000000e-001
         vertex 6.068327e-001 7.716343e-001 5.000000e-001
      endloop
   endfacet
   facet normal -4.218267e-001 8.689237e-001 2.589090e-001
      outer loop
         vertex 5.460095e-001 8.910065e-001 2.055713e-016
         vertex 6.068327e-001 7.716343e-001 5.000000e-001
         vertex 6.523384e-001 7.926127e-001 5.000000e-001
      endloop
   endfacet
   facet normal -5.338477e-001 8.049557e-001 2.589461e-001
      outer loop
         vertex 4.122148e-001 8.090170e-001 2.383416e-016
         vertex 5.266743e-001 7.244908e-001 5.000000e-001
         vertex 4.775015e-001 8.526402e-001 2.223510e-016
      endloop
   endfacet
   facet normal -5.126095e-001 8.186773e-001 2.588415e-001
      outer loop
         vertex 4.775015e-001 8.526402e-001 2.223510e-016
         vertex 5.266743e-001 7.244908e-001 5.000000e-001
         vertex 5.475030e-001 7.384081e-001 5.000000e-001
      endloop
   endfacet
   facet normal -4.898505e-001 8.324777e-001 2.588966e-001
      outer loop
         vertex 4.775015e-001 8.526402e-001 2.223510e-016
         vertex 5.475030e-001 7.384081e-001 5.000000e-001
         vertex 5.880995e-001 7.611431e-001 5.000000e-001
      endloop
   endfacet
   facet normal -5.964070e-001 7.597674e-001 2.589442e-001
      outer loop
         vertex 3.505520e-001 7.604060e-001 2.534446e-016
         vertex 4.684793e-001 6.829044e-001 5.000000e-001
         vertex 4.122148e-001 8.090170e-001 2.383416e-016
      endloop
   endfacet
   facet normal -5.763301e-001 7.751395e-001 2.588484e-001
      outer loop
         vertex 4.122148e-001 8.090170e-001 2.383416e-016
         vertex 4.684793e-001 6.829044e-001 5.000000e-001
         vertex 4.909631e-001 7.006292e-001 5.000000e-001
      endloop
   endfacet
   facet normal -5.547480e-001 7.907169e-001 2.588851e-001
      outer loop
         vertex 4.122148e-001 8.090170e-001 2.383416e-016
         vertex 4.909631e-001 7.006292e-001 5.000000e-001
         vertex 5.266743e-001 7.244908e-001 5.000000e-001
      endloop
   endfacet
   facet normal -6.551591e-001 7.097287e-001 2.589433e-001
      outer loop
         vertex 2.928933e-001 7.071068e-001 2.675670e-016
         vertex 4.139090e-001 6.366667e-001 5.000000e-001
         vertex 3.505520e-001 7.604060e-001 2.534446e-016
      endloop
   endfacet
   facet normal -6.363713e-001 7.266533e-001 2.588562e-001
      outer loop
         vertex 3.505520e-001 7.604060e-001 2.534446e-016
         vertex 4.139090e-001 6.366667e-001 5.000000e-001
         vertex 4.375615e-001 6.585308e-001 5.000000e-001
      endloop
   endfacet
   facet normal -6.161046e-001 7.439080e-001 2.588745e-001
      outer loop
         vertex 3.505520e-001 7.604060e-001 2.534446e-016
         vertex 4.375615e-001 6.585308e-001 5.000000e-001
         vertex 4.684793e-001 6.829044e-001 5.000000e-001
      endloop
   endfacet
   facet normal -7.097287e-001 6.551591e-001 2.589433e-001
      outer loop
         vertex 2.395941e-001 6.494481e-001 2.806215e-016
         vertex 3.633334e-001 5.860911e-001 5.000000e-001
         vertex 2.928933e-001 7.071068e-001 2.675670e-016
      endloop
   endfacet
   facet normal -6.923497e-001 6.735287e-001 2.588649e-001
      outer loop
         vertex 2.928933e-001 7.071068e-001 2.675670e-016
         vertex 3.633334e-001 5.860911e-001 5.000000e-001
         vertex 3.876276e-001 6.123724e-001 5.000000e-001
      endloop
   endfacet
   facet normal -6.735287e-001 6.923497e-001 2.588649e-001
      outer loop
         vertex 2.928933e-001 7.071068e-001 2.675670e-016
         vertex 3.876276e-001 6.123724e-001 5.000000e-001
         vertex 4.139090e-001 6.366667e-001 5.000000e-001
      endloop
   endfacet
   facet normal -7.597674e-001 5.964070e-001 2.589442e-001
      outer loop
         vertex 1.909831e-001 5.877852e-001 2.925278e-016
         vertex 3.170956e-001 5.315207e-001 5.000000e-001
         vertex 2.395941e-001 6.494481e-001 2.806215e-016
      endloop
   endfacet
   facet normal -7.439080e-001 6.161046e-001 2.588745e-001
      outer loop
         vertex 2.395941e-001 6.494481e-001 2.806215e-016
         vertex 3.170956e-001 5.315207e-001 5.000000e-001
         vertex 3.414692e-001 5.624385e-001 5.000000e-001
      endloop
   endfacet
   facet normal -7.266533e-001 6.363713e-001 2.588562e-001
      outer loop
         vertex 2.395941e-001 6.494481e-001 2.806215e-016
         vertex 3.414692e-001 5.624385e-001 5.000000e-001
         vertex 3.633334e-001 5.860911e-001 5.000000e-001
      endloop
   endfacet
   facet normal -8.049557e-001 5.338477e-001 2.589461e-001
      outer loop
         vertex 1.473599e-001 5.224985e-001 3.032124e-016
         vertex 2.755093e-001 4.733258e-001 5.000000e-001
         vertex 1.909831e-001 5.877852e-001 2.925278e-016
      endloop
   endfacet
   facet normal -7.907169e-001 5.547480e-001 2.588851e-001
      outer loop
         vertex 1.909831e-001 5.877852e-001 2.925278e-016
         vertex 2.755093e-001 4.733258e-001 5.000000e-001
         vertex 2.993708e-001 5.090370e-001 5.000000e-001
      endloop
   endfacet
   facet normal -7.751395e-001 5.763301e-001 2.588484e-001
      outer loop
         vertex 1.909831e-001 5.877852e-001 2.925278e-016
         vertex 2.993708e-001 5.090370e-001 5.000000e-001
         vertex 3.170956e-001 5.315207e-001 5.000000e-001
      endloop
   endfacet
   facet normal -8.450050e-001 4.678804e-001 2.589489e-001
      outer loop
         vertex 1.089935e-001 4.539905e-001 3.126094e-016
         vertex 2.388569e-001 4.119006e-001 5.000000e-001
         vertex 1.473599e-001 5.224985e-001 3.032124e-016
      endloop
   endfacet
   facet normal -8.324777e-001 4.898505e-001 2.588966e-001
      outer loop
         vertex 1.473599e-001 5.224985e-001 3.032124e-016
         vertex 2.388569e-001 4.119006e-001 5.000000e-001
         vertex 2.615920e-001 4.524970e-001 5.000000e-001
      endloop
   endfacet
   facet normal -8.186773e-001 5.126095e-001 2.588415e-001
      outer loop
         vertex 1.473599e-001 5.224985e-001 3.032124e-016
         vertex 2.615920e-001 4.524970e-001 5.000000e-001
         vertex 2.755093e-001 4.733258e-001 5.000000e-001
      endloop
   endfacet
   facet normal -8.796597e-001 3.989266e-001 2.589525e-001
      outer loop
         vertex 7.612049e-002 3.826835e-001 3.206610e-016
         vertex 2.073874e-001 3.476616e-001 5.000000e-001
         vertex 1.089935e-001 4.539905e-001 3.126094e-016
      endloop
   endfacet
   facet normal -8.689237e-001 4.218267e-001 2.589090e-001
      outer loop
         vertex 1.089935e-001 4.539905e-001 3.126094e-016
         vertex 2.073874e-001 3.476616e-001 5.000000e-001
         vertex 2.283658e-001 3.931673e-001 5.000000e-001
      endloop
   endfacet
   facet normal -8.569890e-001 4.456164e-001 2.588356e-001
      outer loop
         vertex 1.089935e-001 4.539905e-001 3.126094e-016
         vertex 2.283658e-001 3.931673e-001 5.000000e-001
         vertex 2.388569e-001 4.119006e-001 5.000000e-001
      endloop
   endfacet
   facet normal -9.086985e-001 3.274266e-001 2.589571e-001
      outer loop
         vertex 4.894350e-002 3.090170e-001 3.273174e-016
         vertex 1.813147e-001 2.810444e-001 5.000000e-001
         vertex 7.612049e-002 3.826835e-001 3.206610e-016
      endloop
   endfacet
   facet normal -8.998224e-001 3.511108e-001 2.589223e-001
      outer loop
         vertex 7.612049e-002 3.826835e-001 3.206610e-016
         vertex 1.813147e-001 2.810444e-001 5.000000e-001
         vertex 1.998969e-001 3.314136e-001 5.000000e-001
      endloop
   endfacet
   facet normal -8.898299e-001 3.757785e-001 2.588305e-001
      outer loop
         vertex 7.612049e-002 3.826835e-001 3.206610e-016
         vertex 1.998969e-001 3.314136e-001 5.000000e-001
         vertex 2.073874e-001 3.476616e-001 5.000000e-001
      endloop
   endfacet
   facet normal -9.319363e-001 2.538370e-001 2.589626e-001
      outer loop
         vertex 2.763013e-002 2.334454e-001 3.325377e-016
         vertex 1.608165e-001 2.125003e-001 5.000000e-001
         vertex 4.894350e-002 3.090170e-001 3.273174e-016
      endloop
   endfacet
   facet normal -9.249767e-001 2.781546e-001 2.589365e-001
      outer loop
         vertex 4.894350e-002 3.090170e-001 3.273174e-016
         vertex 1.608165e-001 2.125003e-001 5.000000e-001
         vertex 1.763609e-001 2.676166e-001 5.000000e-001
      endloop
   endfacet
   facet normal -9.169903e-001 3.035419e-001 2.588264e-001
      outer loop
         vertex 4.894350e-002 3.090170e-001 3.273174e-016
         vertex 1.763609e-001 2.676166e-001 5.000000e-001
         vertex 1.813147e-001 2.810444e-001 5.000000e-001
      endloop
   endfacet
   facet normal -9.492245e-001 1.786277e-001 2.589690e-001
      outer loop
         vertex 1.231174e-002 1.564345e-001 3.362896e-016
         vertex 1.460328e-001 1.424940e-001 5.000000e-001
         vertex 2.763013e-002 2.334454e-001 3.325377e-016
      endloop
   endfacet
   facet normal -9.442260e-001 2.034240e-001 2.589516e-001
      outer loop
         vertex 2.763013e-002 2.334454e-001 3.325377e-016
         vertex 1.460328e-001 1.424940e-001 5.000000e-001
         vertex 1.579030e-001 2.021696e-001 5.000000e-001
      endloop
   endfacet
   facet normal -9.382969e-001 2.293677e-001 2.588232e-001
      outer loop
         vertex 2.763013e-002 2.334454e-001 3.325377e-016
         vertex 1.579030e-001 2.021696e-001 5.000000e-001
         vertex 1.608165e-001 2.125003e-001 5.000000e-001
      endloop
   endfacet
   facet normal -9.645575e-001 5.055610e-002 2.589846e-001
      outer loop
         vertex 1.339747e-001 0.000000e+000 5.000000e-001
         vertex 1.366443e-001 6.794757e-002 5.000000e-001
         vertex 3.082678e-003 7.845910e-002 3.385501e-016
      endloop
   endfacet
   facet normal -9.628429e-001 7.711069e-002 2.588195e-001
      outer loop
         vertex 3.082678e-003 7.845910e-002 3.385501e-016
         vertex 1.366443e-001 6.794757e-002 5.000000e-001
         vertex 1.370648e-001 7.150016e-002 5.000000e-001
      endloop
   endfacet
   facet normal -9.604532e-001 1.022788e-001 2.589764e-001
      outer loop
         vertex 3.082678e-003 7.845910e-002 3.385501e-016
         vertex 1.370648e-001 7.150016e-002 5.000000e-001
         vertex 1.231174e-002 1.564345e-001 3.362896e-016
      endloop
   endfacet
   facet normal -9.574476e-001 1.273960e-001 2.589677e-001
      outer loop
         vertex 1.231174e-002 1.564345e-001 3.362896e-016
         vertex 1.370648e-001 7.150016e-002 5.000000e-001
         vertex 1.446368e-001 1.354762e-001 5.000000e-001
      endloop
   endfacet
   facet normal -9.536136e-001 1.537297e-001 2.588209e-001
      outer loop
         vertex 1.231174e-002 1.564345e-001 3.362896e-016
         vertex 1.446368e-001 1.354762e-001 5.000000e-001
         vertex 1.460328e-001 1.424940e-001 5.000000e-001
      endloop
   endfacet
   facet normal -2.449294e-016 0.000000e+000 -1.000000e+000
      outer loop
         vertex 0.000000e+000 0.000000e+000 4.005374e-016
         vertex 3.082678e-003 7.845910e-002 3.997824e-016
         vertex 1.000000e+000 0.000000e+000 1.556081e-016
      endloop
   endfacet
   facet normal -2.449294e-016 0.000000e+000 -1.000000e+000
      outer loop
         vertex 1.000000e+000 0.000000e+000 1.556081e-016
         vertex 3.082678e-003 7.845910e-002 3.997824e-016
         vertex 1.231174e-002 1.564345e-001 3.975220e-016
      endloop
   endfacet
   facet normal -2.449294e-016 0.000000e+000 -1.000000e+000
      outer loop
         vertex 1.000000e+000 0.000000e+000 1.556081e-016
         vertex 1.231174e-002 1.564345e-001 3.975220e-016
         vertex 2.763013e-002 2.334454e-001 3.937700e-016
      endloop
   endfacet
   facet normal -2.449294e-016 0.000000e+000 -1.000000e+000
      outer loop
         vertex 2.763013e-002 2.334454e-001 3.937700e-016
         vertex 4.894350e-002 3.090170e-001 3.885497e-016
         vertex 1.000000e+000 0.000000e+000 1.556081e-016
      endloop
   endfacet
   facet normal -2.449294e-016 0.000000e+000 -1.000000e+000
      outer loop
         vertex 1.000000e+000 0.000000e+000 1.556081e-016
         vertex 4.894350e-002 3.090170e-001 3.885497e-016
         vertex 7.612049e-002 3.826835e-001 3.818933e-016
      endloop
   endfacet
   facet normal -2.449294e-016 0.000000e+000 -1.000000e+000
      outer loop
         vertex 1.000000e+000 0.000000e+000 1.556081e-016
         vertex 7.612049e-002 3.826835e-001 3.818933e-016
         vertex 1.089935e-001 4.539905e-001 3.738417e-016
      endloop
   endfacet
   facet normal -2.449294e-016 0.000000e+000 -1.000000e+000
      outer loop
         vertex 1.089935e-001 4.539905e-001 3.738417e-016
         vertex 1.473599e-001 5.224985e-001 3.644447e-016
         vertex 1.000000e+000 0.000000e+000 1.556081e-016
      endloop
   endfacet
   facet normal -2.449294e-016 0.000000e+000 -1.000000e+000
      outer loop
         vertex 1.000000e+000 0.000000e+000 1.556081e-016
         vertex 1.473599e-001 5.224985e-001 3.644447e-016
         vertex 1.909831e-001 5.877852e-001 3.537601e-016
      endloop
   endfacet
   facet normal -2.449294e-016 0.000000e+000 -1.000000e+000
      outer loop
         vertex 1.000000e+000 0.000000e+000 1.556081e-016
         vertex 1.909831e-001 5.877852e-001 3.537601e-016
         vertex 2.395941e-001 6.494481e-001 3.418538e-016
      endloop
   endfacet
   facet normal -2.449294e-016 0.000000e+000 -1.000000e+000
      outer loop
         vertex 1.000000e+000 1.000000e+000 1.556081e-016
         vertex 1.000000e+000 0.000000e+000 1.556081e-016
         vertex 9.215410e-001 9.969174e-001 1.748250e-016
      endloop
   endfacet
   facet normal -2.449294e-016 0.000000e+000 -1.000000e+000
      outer loop
         vertex 9.215410e-001 9.969174e-001 1.748250e-016
         vertex 1.000000e+000 0.000000e+000 1.556081e-016
         vertex 8.435656e-001 9.876883e-001 1.939235e-016
      endloop
   endfacet
   facet normal -2.449294e-016 0.000000e+000 -1.000000e+000
      outer loop
         vertex 2.395941e-001 6.494481e-001 3.418538e-016
         vertex 2.928933e-001 7.071068e-001 3.287993e-016
         vertex 1.000000e+000 0.000000e+000 1.556081e-016
      endloop
   endfacet
   facet normal -2.449294e-016 0.000000e+000 -1.000000e+000
      outer loop
         vertex 1.000000e+000 0.000000e+000 1.556081e-016
         vertex 2.928933e-001 7.071068e-001 3.287993e-016
         vertex 3.505520e-001 7.604060e-001 3.146770e-016
      endloop
   endfacet
   facet normal -2.449294e-016 0.000000e+000 -1.000000e+000
      outer loop
         vertex 1.000000e+000 0.000000e+000 1.556081e-016
         vertex 3.505520e-001 7.604060e-001 3.146770e-016
         vertex 4.122148e-001 8.090170e-001 2.995740e-016
      endloop
   endfacet
   facet normal -2.449294e-016 0.000000e+000 -1.000000e+000
      outer loop
         vertex 4.122148e-001 8.090170e-001 2.995740e-016
         vertex 4.775015e-001 8.526402e-001 2.835833e-016
         vertex 1.000000e+000 0.000000e+000 1.556081e-016
      endloop
   endfacet
   facet normal -2.449294e-016 0.000000e+000 -1.000000e+000
      outer loop
         vertex 1.000000e+000 0.000000e+000 1.556081e-016
         vertex 4.775015e-001 8.526402e-001 2.835833e-016
         vertex 5.460095e-001 8.910065e-001 2.668037e-016
      endloop
   endfacet
   facet normal -2.449294e-016 0.000000e+000 -1.000000e+000
      outer loop
         vertex 1.000000e+000 0.000000e+000 1.556081e-016
         vertex 5.460095e-001 8.910065e-001 2.668037e-016
         vertex 6.173166e-001 9.238796e-001 2.493385e-016
      endloop
   endfacet
   facet normal -2.449294e-016 0.000000e+000 -1.000000e+000
      outer loop
         vertex 6.173166e-001 9.238796e-001 2.493385e-016
         vertex 6.909830e-001 9.510565e-001 2.312954e-016
         vertex 1.000000e+000 0.000000e+000 1.556081e-016
      endloop
   endfacet
   facet normal -2.449294e-016 0.000000e+000 -1.000000e+000
      outer loop
         vertex 1.000000e+000 0.000000e+000 1.556081e-016
         vertex 6.909830e-001 9.510565e-001 2.312954e-016
         vertex 7.665547e-001 9.723699e-001 2.127857e-016
      endloop
   endfacet
   facet normal -2.449294e-016 0.000000e+000 -1.000000e+000
      outer loop
         vertex 1.000000e+000 0.000000e+000 1.556081e-016
         vertex 7.665547e-001 9.723699e-001 2.127857e-016
         vertex 8.435656e-001 9.876883e-001 1.939235e-016
      endloop
   endfacet
   facet normal 1.000000e+000 -3.491481e-015 -2.449294e-016
      outer loop
         vertex 1.000000e+000 5.000000e-001 8.660254e-001
         vertex 1.000000e+000 0.000000e+000 1.000000e+000
         vertex 1.000000e+000 8.660254e-001 5.000000e-001
      endloop
   endfacet
   facet normal 1.000000e+000 -3.491481e-015 -2.449294e-016
      outer loop
         vertex 1.000000e+000 8.660254e-001 5.000000e-001
         vertex 1.000000e+000 0.000000e+000 1.000000e+000
         vertex 1.000000e+000 0.000000e+000 2.168404e-016
      endloop
   endfacet
   facet normal 1.000000e+000 -3.491481e-015 -2.449294e-016
      outer loop
         vertex 1.000000e+000 8.660254e-001 5.000000e-001
         vertex 1.000000e+000 0.000000e+000 2.168404e-016
         vertex 1.000000e+000 1.000000e+000 9.437575e-017
      endloop
   endfacet
   facet normal 0.000000e+000 -1.000000e+000 0.000000e+000
      outer loop
         vertex 1.000000e+000 0.000000e+000 1.000000e+000
         vertex 5.000000e-001 0.000000e+000 8.660254e-001
         vertex 1.000000e+000 0.000000e+000 2.168404e-016
      endloop
   endfacet
   facet normal 0.000000e+000 -1.000000e+000 0.000000e+000
      outer loop
         vertex 1.000000e+000 0.000000e+000 2.168404e-016
         vertex 5.000000e-001 0.000000e+000 8.660254e-001
         vertex 1.339747e-001 0.000000e+000 5.000000e-001
      endloop
   endfacet
   facet normal 0.000000e+000 -1.000000e+000 0.000000e+000
      outer loop
         vertex 1.000000e+000 0.000000e+000 2.168404e-016
         vertex 1.339747e-001 0.000000e+000 5.000000e-001
         vertex 0.000000e+000 0.000000e+000 3.393051e-016
      endloop
   endfacet
endsolid