solid Панель левый нижний
   facet normal -2.029823e-001 -1.605726e-001 9.659268e-001
      outer loop
         vertex 6.056714e-001 6.930651e-001 8.660254e-001
         vertex 6.090842e-001 6.882552e-001 8.660254e-001
         vertex 1.000000e+000 1.000000e+000 1.000000e+000
      endloop
   endfacet
   facet normal -2.582424e-001 -1.425504e-002 9.659750e-001
      outer loop
         vertex 1.000000e+000 1.000000e+000 1.000000e+000
         vertex 5.000000e-001 1.000000e+000 8.660254e-001
         vertex 5.023169e-001 9.587445e-001 8.660254e-001
      endloop
   endfacet
   facet normal -2.574409e-001 -2.644636e-002 9.659321e-001
      outer loop
         vertex 5.031439e-001 9.440178e-001 8.660254e-001
         vertex 1.000000e+000 1.000000e+000 1.000000e+000
         vertex 5.023169e-001 9.587445e-001 8.660254e-001
      endloop
   endfacet
   facet normal -2.513786e-001 -6.154967e-002 9.659299e-001
      outer loop
         vertex 1.000000e+000 1.000000e+000 1.000000e+000
         vertex 5.125361e-001 8.887396e-001 8.660254e-001
         vertex 5.158024e-001 8.774020e-001 8.660254e-001
      endloop
   endfacet
   facet normal -2.533229e-001 -5.259614e-002 9.659509e-001
      outer loop
         vertex 5.075927e-001 9.178342e-001 8.660254e-001
         vertex 5.125361e-001 8.887396e-001 8.660254e-001
         vertex 1.000000e+000 1.000000e+000 1.000000e+000
      endloop
   endfacet
   facet normal -2.559288e-001 -3.805966e-002 9.659461e-001
      outer loop
         vertex 5.031439e-001 9.440178e-001 8.660254e-001
         vertex 5.075927e-001 9.178342e-001 8.660254e-001
         vertex 1.000000e+000 1.000000e+000 1.000000e+000
      endloop
   endfacet
   facet normal -2.394533e-001 -9.781385e-002 9.659683e-001
      outer loop
         vertex 1.000000e+000 1.000000e+000 1.000000e+000
         vertex 5.280584e-001 8.348605e-001 8.660254e-001
         vertex 5.427414e-001 7.994125e-001 8.660254e-001
      endloop
   endfacet
   facet normal -2.444615e-001 -8.500244e-002 9.659261e-001
      outer loop
         vertex 5.272421e-001 8.376938e-001 8.660254e-001
         vertex 5.280584e-001 8.348605e-001 8.660254e-001
         vertex 1.000000e+000 1.000000e+000 1.000000e+000
      endloop
   endfacet
   facet normal -2.468425e-001 -7.720803e-002 9.659750e-001
      outer loop
         vertex 5.158024e-001 8.774020e-001 8.660254e-001
         vertex 5.272421e-001 8.376938e-001 8.660254e-001
         vertex 1.000000e+000 1.000000e+000 1.000000e+000
      endloop
   endfacet
   facet normal -2.294839e-001 -1.195552e-001 9.659419e-001
      outer loop
         vertex 1.000000e+000 1.000000e+000 1.000000e+000
         vertex 5.495156e-001 7.830582e-001 8.660254e-001
         vertex 5.609344e-001 7.623973e-001 8.660254e-001
      endloop
   endfacet
   facet normal -2.219813e-001 -1.328646e-001 9.659562e-001
      outer loop
         vertex 5.766379e-001 7.339841e-001 8.660254e-001
         vertex 1.000000e+000 1.000000e+000 1.000000e+000
         vertex 5.609344e-001 7.623973e-001 8.660254e-001
      endloop
   endfacet
   facet normal -2.344663e-001 -1.095236e-001 9.659349e-001
      outer loop
         vertex 5.427414e-001 7.994125e-001 8.660254e-001
         vertex 5.495156e-001 7.830582e-001 8.660254e-001
         vertex 1.000000e+000 1.000000e+000 1.000000e+000
      endloop
   endfacet
   facet normal -2.083973e-001 -1.531759e-001 9.659750e-001
      outer loop
         vertex 6.056714e-001 6.930651e-001 8.660254e-001
         vertex 1.000000e+000 1.000000e+000 1.000000e+000
         vertex 5.817580e-001 7.267681e-001 8.660254e-001
      endloop
   endfacet
   facet normal -2.175027e-001 -1.402694e-001 9.659281e-001
      outer loop
         vertex 5.766379e-001 7.339841e-001 8.660254e-001
         vertex 5.817580e-001 7.267681e-001 8.660254e-001
         vertex 1.000000e+000 1.000000e+000 1.000000e+000
      endloop
   endfacet
   facet normal -1.778715e-001 -1.879503e-001 9.659382e-001
      outer loop
         vertex 1.000000e+000 1.000000e+000 1.000000e+000
         vertex 6.464466e-001 6.464466e-001 8.660254e-001
         vertex 6.618471e-001 6.326840e-001 8.660254e-001
      endloop
   endfacet
   facet normal -1.854827e-001 -1.804433e-001 9.659382e-001
      outer loop
         vertex 6.326840e-001 6.618471e-001 8.660254e-001
         vertex 6.464466e-001 6.464466e-001 8.660254e-001
         vertex 1.000000e+000 1.000000e+000 1.000000e+000
      endloop
   endfacet
   facet normal -1.944019e-001 -1.706617e-001 9.659620e-001
      outer loop
         vertex 6.090842e-001 6.882552e-001 8.660254e-001
         vertex 6.326840e-001 6.618471e-001 8.660254e-001
         vertex 1.000000e+000 1.000000e+000 1.000000e+000
      endloop
   endfacet
   facet normal -1.473684e-001 -2.125437e-001 9.659750e-001
      outer loop
         vertex 1.000000e+000 1.000000e+000 1.000000e+000
         vertex 6.930651e-001 6.056714e-001 8.660254e-001
         vertex 7.267681e-001 5.817580e-001 8.660254e-001
      endloop
   endfacet
   facet normal -1.597741e-001 -2.036115e-001 9.659268e-001
      outer loop
         vertex 6.882552e-001 6.090842e-001 8.660254e-001
         vertex 6.930651e-001 6.056714e-001 8.660254e-001
         vertex 1.000000e+000 1.000000e+000 1.000000e+000
      endloop
   endfacet
   facet normal -1.660194e-001 -1.983812e-001 9.659620e-001
      outer loop
         vertex 6.618471e-001 6.326840e-001 8.660254e-001
         vertex 6.882552e-001 6.090842e-001 8.660254e-001
         vertex 1.000000e+000 1.000000e+000 1.000000e+000
      endloop
   endfacet
   facet normal -1.280248e-001 -2.248073e-001 9.659562e-001
      outer loop
         vertex 1.000000e+000 1.000000e+000 1.000000e+000
         vertex 7.339841e-001 5.766379e-001 8.660254e-001
         vertex 7.623973e-001 5.609344e-001 8.660254e-001
      endloop
   endfacet
   facet normal -1.159272e-001 -2.313378e-001 9.659419e-001
      outer loop
         vertex 7.830582e-001 5.495156e-001 8.660254e-001
         vertex 1.000000e+000 1.000000e+000 1.000000e+000
         vertex 7.623973e-001 5.609344e-001 8.660254e-001
      endloop
   endfacet
   facet normal -1.389849e-001 -2.183258e-001 9.659281e-001
      outer loop
         vertex 7.267681e-001 5.817580e-001 8.660254e-001
         vertex 7.339841e-001 5.766379e-001 8.660254e-001
         vertex 1.000000e+000 1.000000e+000 1.000000e+000
      endloop
   endfacet
   facet normal -8.452236e-002 -2.446278e-001 9.659261e-001
      outer loop
         vertex 1.000000e+000 1.000000e+000 1.000000e+000
         vertex 8.348605e-001 5.280584e-001 8.660254e-001
         vertex 8.376938e-001 5.272421e-001 8.660254e-001
      endloop
   endfacet
   facet normal -9.165006e-002 -2.418795e-001 9.659683e-001
      outer loop
         vertex 7.994125e-001 5.427414e-001 8.660254e-001
         vertex 8.348605e-001 5.280584e-001 8.660254e-001
         vertex 1.000000e+000 1.000000e+000 1.000000e+000
      endloop
   endfacet
   facet normal -1.067488e-001 -2.357426e-001 9.659349e-001
      outer loop
         vertex 7.830582e-001 5.495156e-001 8.660254e-001
         vertex 7.994125e-001 5.427414e-001 8.660254e-001
         vertex 1.000000e+000 1.000000e+000 1.000000e+000
      endloop
   endfacet
   facet normal -4.759813e-002 -2.543094e-001 9.659509e-001
      outer loop
         vertex 1.000000e+000 1.000000e+000 1.000000e+000
         vertex 8.887396e-001 5.125361e-001 8.660254e-001
         vertex 9.178342e-001 5.075927e-001 8.660254e-001
      endloop
   endfacet
   facet normal -5.957128e-002 -2.518548e-001 9.659299e-001
      outer loop
         vertex 8.774020e-001 5.158024e-001 8.660254e-001
         vertex 8.887396e-001 5.125361e-001 8.660254e-001
         vertex 1.000000e+000 1.000000e+000 1.000000e+000
      endloop
   endfacet
   facet normal -7.036953e-002 -2.488783e-001 9.659750e-001
      outer loop
         vertex 8.376938e-001 5.272421e-001 8.660254e-001
         vertex 8.774020e-001 5.158024e-001 8.660254e-001
         vertex 1.000000e+000 1.000000e+000 1.000000e+000
      endloop
   endfacet
   facet normal -2.391399e-002 -2.576884e-001 9.659321e-001
      outer loop
         vertex 1.000000e+000 1.000000e+000 1.000000e+000
         vertex 9.440178e-001 5.031439e-001 8.660254e-001
         vertex 9.587445e-001 5.023169e-001 8.660254e-001
      endloop
   endfacet
   facet normal -7.127522e-003 -2.585373e-001 9.659750e-001
      outer loop
         vertex 1.000000e+000 5.000000e-001 8.660254e-001
         vertex 1.000000e+000 1.000000e+000 1.000000e+000
         vertex 9.587445e-001 5.023169e-001 8.660254e-001
      endloop
   endfacet
   facet normal -3.351941e-002 -2.565629e-001 9.659461e-001
      outer loop
         vertex 9.178342e-001 5.075927e-001 8.660254e-001
         vertex 9.440178e-001 5.031439e-001 8.660254e-001
         vertex 1.000000e+000 1.000000e+000 1.000000e+000
      endloop
   endfacet
   facet normal -7.066222e-001 -1.850075e-002 7.073492e-001
      outer loop
         vertex 5.000000e-001 1.000000e+000 8.660254e-001
         vertex 1.339747e-001 1.000000e+000 5.000000e-001
         vertex 1.367847e-001 9.320583e-001 5.000000e-001
      endloop
   endfacet
   facet normal -7.058297e-001 -3.797991e-002 7.073627e-001
      outer loop
         vertex 5.000000e-001 1.000000e+000 8.660254e-001
         vertex 1.367847e-001 9.320583e-001 5.000000e-001
         vertex 5.023169e-001 9.587445e-001 8.660254e-001
      endloop
   endfacet
   facet normal -7.047700e-001 -5.743036e-002 7.071074e-001
      outer loop
         vertex 5.023169e-001 9.587445e-001 8.660254e-001
         vertex 1.367847e-001 9.320583e-001 5.000000e-001
         vertex 1.369325e-001 9.284843e-001 5.000000e-001
      endloop
   endfacet
   facet normal -7.040481e-001 -6.532934e-002 7.071410e-001
      outer loop
         vertex 5.023169e-001 9.587445e-001 8.660254e-001
         vertex 1.369325e-001 9.284843e-001 5.000000e-001
         vertex 5.031439e-001 9.440178e-001 8.660254e-001
      endloop
   endfacet
   facet normal -7.020817e-001 -8.274810e-002 7.072722e-001
      outer loop
         vertex 5.031439e-001 9.440178e-001 8.660254e-001
         vertex 1.369325e-001 9.284843e-001 5.000000e-001
         vertex 1.449011e-001 8.645567e-001 5.000000e-001
      endloop
   endfacet
   facet normal -6.996033e-001 -1.020728e-001 7.072031e-001
      outer loop
         vertex 5.031439e-001 9.440178e-001 8.660254e-001
         vertex 1.449011e-001 8.645567e-001 5.000000e-001
         vertex 5.075927e-001 9.178342e-001 8.660254e-001
      endloop
   endfacet
   facet normal -6.977780e-001 -1.144643e-001 7.071095e-001
      outer loop
         vertex 5.075927e-001 9.178342e-001 8.660254e-001
         vertex 1.449011e-001 8.645567e-001 5.000000e-001
         vertex 1.457861e-001 8.574569e-001 5.000000e-001
      endloop
   endfacet
   facet normal -6.949027e-001 -1.300634e-001 7.072437e-001
      outer loop
         vertex 5.075927e-001 9.178342e-001 8.660254e-001
         vertex 1.457861e-001 8.574569e-001 5.000000e-001
         vertex 5.125361e-001 8.887396e-001 8.660254e-001
      endloop
   endfacet
   facet normal -6.916336e-001 -1.463052e-001 7.072747e-001
      outer loop
         vertex 5.125361e-001 8.887396e-001 8.660254e-001
         vertex 1.457861e-001 8.574569e-001 5.000000e-001
         vertex 1.582722e-001 7.979078e-001 5.000000e-001
      endloop
   endfacet
   facet normal -6.874896e-001 -1.653327e-001 7.071232e-001
      outer loop
         vertex 5.125361e-001 8.887396e-001 8.660254e-001
         vertex 1.582722e-001 7.979078e-001 5.000000e-001
         vertex 5.158024e-001 8.774020e-001 8.660254e-001
      endloop
   endfacet
   facet normal -6.861766e-001 -1.707432e-001 7.071128e-001
      outer loop
         vertex 1.582722e-001 7.979078e-001 5.000000e-001
         vertex 1.604748e-001 7.874034e-001 5.000000e-001
         vertex 5.158024e-001 8.774020e-001 8.660254e-001
      endloop
   endfacet
   facet normal -6.813125e-001 -1.886001e-001 7.072787e-001
      outer loop
         vertex 5.158024e-001 8.774020e-001 8.660254e-001
         vertex 1.604748e-001 7.874034e-001 5.000000e-001
         vertex 1.768147e-001 7.325186e-001 5.000000e-001
      endloop
   endfacet
   facet normal -6.758028e-001 -2.072949e-001 7.073326e-001
      outer loop
         vertex 5.158024e-001 8.774020e-001 8.660254e-001
         vertex 1.768147e-001 7.325186e-001 5.000000e-001
         vertex 5.272421e-001 8.376938e-001 8.660254e-001
      endloop
   endfacet
   facet normal -6.700367e-001 -2.259108e-001 7.071175e-001
      outer loop
         vertex 5.272421e-001 8.376938e-001 8.660254e-001
         vertex 1.768147e-001 7.325186e-001 5.000000e-001
         vertex 1.808983e-001 7.188021e-001 5.000000e-001
      endloop
   endfacet
   facet normal -6.683381e-001 -2.309163e-001 7.071081e-001
      outer loop
         vertex 5.272421e-001 8.376938e-001 8.660254e-001
         vertex 1.808983e-001 7.188021e-001 5.000000e-001
         vertex 5.280584e-001 8.348605e-001 8.660254e-001
      endloop
   endfacet
   facet normal -6.632955e-001 -2.446299e-001 7.072449e-001
      outer loop
         vertex 5.280584e-001 8.348605e-001 8.660254e-001
         vertex 1.808983e-001 7.188021e-001 5.000000e-001
         vertex 2.004137e-001 6.687881e-001 5.000000e-001
      endloop
   endfacet
   facet normal -6.562546e-001 -2.628055e-001 7.072929e-001
      outer loop
         vertex 5.280584e-001 8.348605e-001 8.660254e-001
         vertex 2.004137e-001 6.687881e-001 5.000000e-001
         vertex 5.427414e-001 7.994125e-001 8.660254e-001
      endloop
   endfacet
   facet normal -6.494717e-001 -2.795760e-001 7.071235e-001
      outer loop
         vertex 5.427414e-001 7.994125e-001 8.660254e-001
         vertex 2.004137e-001 6.687881e-001 5.000000e-001
         vertex 2.069171e-001 6.521216e-001 5.000000e-001
      endloop
   endfacet
   facet normal -6.441023e-001 -2.916548e-001 7.071561e-001
      outer loop
         vertex 5.427414e-001 7.994125e-001 8.660254e-001
         vertex 2.069171e-001 6.521216e-001 5.000000e-001
         vertex 5.495156e-001 7.830582e-001 8.660254e-001
      endloop
   endfacet
   facet normal -6.383119e-001 -3.040001e-001 7.072071e-001
      outer loop
         vertex 5.495156e-001 7.830582e-001 8.660254e-001
         vertex 2.069171e-001 6.521216e-001 5.000000e-001
         vertex 2.289240e-001 6.071057e-001 5.000000e-001
      endloop
   endfacet
   facet normal -6.297255e-001 -3.214854e-001 7.071726e-001
      outer loop
         vertex 5.495156e-001 7.830582e-001 8.660254e-001
         vertex 2.289240e-001 6.071057e-001 5.000000e-001
         vertex 5.609344e-001 7.623973e-001 8.660254e-001
      endloop
   endfacet
   facet normal -6.246217e-001 -3.313813e-001 7.071309e-001
      outer loop
         vertex 5.609344e-001 7.623973e-001 8.660254e-001
         vertex 2.289240e-001 6.071057e-001 5.000000e-001
         vertex 2.383534e-001 5.878175e-001 5.000000e-001
      endloop
   endfacet
   facet normal -6.143082e-001 -3.498441e-001 7.072726e-001
      outer loop
         vertex 5.609344e-001 7.623973e-001 8.660254e-001
         vertex 2.383534e-001 5.878175e-001 5.000000e-001
         vertex 5.766379e-001 7.339841e-001 8.660254e-001
      endloop
   endfacet
   facet normal -6.079589e-001 -3.608116e-001 7.072488e-001
      outer loop
         vertex 5.766379e-001 7.339841e-001 8.660254e-001
         vertex 2.383534e-001 5.878175e-001 5.000000e-001
         vertex 2.621703e-001 5.478476e-001 5.000000e-001
      endloop
   endfacet
   facet normal -5.978901e-001 -3.774811e-001 7.071318e-001
      outer loop
         vertex 5.766379e-001 7.339841e-001 8.660254e-001
         vertex 2.621703e-001 5.478476e-001 5.000000e-001
         vertex 5.817580e-001 7.267681e-001 8.660254e-001
      endloop
   endfacet
   facet normal -5.956439e-001 -3.810012e-001 7.071396e-001
      outer loop
         vertex 2.621703e-001 5.478476e-001 5.000000e-001
         vertex 2.749926e-001 5.263290e-001 5.000000e-001
         vertex 5.817580e-001 7.267681e-001 8.660254e-001
      endloop
   endfacet
   facet normal -5.854145e-001 -3.964254e-001 7.072035e-001
      outer loop
         vertex 5.817580e-001 7.267681e-001 8.660254e-001
         vertex 2.749926e-001 5.263290e-001 5.000000e-001
         vertex 2.999488e-001 4.913757e-001 5.000000e-001
      endloop
   endfacet
   facet normal -5.741767e-001 -4.123495e-001 7.073111e-001
      outer loop
         vertex 5.817580e-001 7.267681e-001 8.660254e-001
         vertex 2.999488e-001 4.913757e-001 5.000000e-001
         vertex 6.056714e-001 6.930651e-001 8.660254e-001
      endloop
   endfacet
   facet normal -5.627210e-001 -4.281172e-001 7.071498e-001
      outer loop
         vertex 6.056714e-001 6.930651e-001 8.660254e-001
         vertex 2.999488e-001 4.913757e-001 5.000000e-001
         vertex 3.165843e-001 4.680762e-001 5.000000e-001
      endloop
   endfacet
   facet normal -5.562844e-001 -4.365088e-001 7.071123e-001
      outer loop
         vertex 6.056714e-001 6.930651e-001 8.660254e-001
         vertex 3.165843e-001 4.680762e-001 5.000000e-001
         vertex 6.090842e-001 6.882552e-001 8.660254e-001
      endloop
   endfacet
   facet normal -5.495615e-001 -4.448476e-001 7.071724e-001
      outer loop
         vertex 6.090842e-001 6.882552e-001 8.660254e-001
         vertex 3.165843e-001 4.680762e-001 5.000000e-001
         vertex 3.420281e-001 4.380349e-001 5.000000e-001
      endloop
   endfacet
   facet normal -5.370291e-001 -4.597718e-001 7.072549e-001
      outer loop
         vertex 6.090842e-001 6.882552e-001 8.660254e-001
         vertex 3.420281e-001 4.380349e-001 5.000000e-001
         vertex 6.326840e-001 6.618471e-001 8.660254e-001
      endloop
   endfacet
   facet normal -5.260894e-001 -4.723907e-001 7.071612e-001
      outer loop
         vertex 6.326840e-001 6.618471e-001 8.660254e-001
         vertex 3.420281e-001 4.380349e-001 5.000000e-001
         vertex 3.628444e-001 4.134570e-001 5.000000e-001
      endloop
   endfacet
   facet normal -5.135356e-001 -4.859901e-001 7.071739e-001
      outer loop
         vertex 6.326840e-001 6.618471e-001 8.660254e-001
         vertex 3.628444e-001 4.134570e-001 5.000000e-001
         vertex 6.464466e-001 6.464466e-001 8.660254e-001
      endloop
   endfacet
   facet normal -5.067932e-001 -4.930170e-001 7.071739e-001
      outer loop
         vertex 6.464466e-001 6.464466e-001 8.660254e-001
         vertex 3.628444e-001 4.134570e-001 5.000000e-001
         vertex 3.881508e-001 3.881508e-001 5.000000e-001
      endloop
   endfacet
   facet normal -4.930207e-001 -5.067897e-001 7.071738e-001
      outer loop
         vertex 6.464466e-001 6.464466e-001 8.660254e-001
         vertex 3.881508e-001 3.881508e-001 5.000000e-001
         vertex 6.618471e-001 6.326840e-001 8.660254e-001
      endloop
   endfacet
   facet normal -4.859901e-001 -5.135356e-001 7.071739e-001
      outer loop
         vertex 3.881508e-001 3.881508e-001 5.000000e-001
         vertex 4.134570e-001 3.628444e-001 5.000000e-001
         vertex 6.618471e-001 6.326840e-001 8.660254e-001
      endloop
   endfacet
   facet normal -4.723907e-001 -5.260894e-001 7.071612e-001
      outer loop
         vertex 6.618471e-001 6.326840e-001 8.660254e-001
         vertex 4.134570e-001 3.628444e-001 5.000000e-001
         vertex 4.380349e-001 3.420281e-001 5.000000e-001
      endloop
   endfacet
   facet normal -4.597718e-001 -5.370291e-001 7.072549e-001
      outer loop
         vertex 6.618471e-001 6.326840e-001 8.660254e-001
         vertex 4.380349e-001 3.420281e-001 5.000000e-001
         vertex 6.882552e-001 6.090842e-001 8.660254e-001
      endloop
   endfacet
   facet normal -4.448476e-001 -5.495615e-001 7.071724e-001
      outer loop
         vertex 6.882552e-001 6.090842e-001 8.660254e-001
         vertex 4.380349e-001 3.420281e-001 5.000000e-001
         vertex 4.680762e-001 3.165843e-001 5.000000e-001
      endloop
   endfacet
   facet normal -4.365088e-001 -5.562843e-001 7.071123e-001
      outer loop
         vertex 6.882552e-001 6.090842e-001 8.660254e-001
         vertex 4.680762e-001 3.165843e-001 5.000000e-001
         vertex 6.930651e-001 6.056714e-001 8.660254e-001
      endloop
   endfacet
   facet normal -4.281172e-001 -5.627210e-001 7.071497e-001
      outer loop
         vertex 6.930651e-001 6.056714e-001 8.660254e-001
         vertex 4.680762e-001 3.165843e-001 5.000000e-001
         vertex 4.913757e-001 2.999488e-001 5.000000e-001
      endloop
   endfacet
   facet normal -4.123495e-001 -5.741767e-001 7.073111e-001
      outer loop
         vertex 6.930651e-001 6.056714e-001 8.660254e-001
         vertex 4.913757e-001 2.999488e-001 5.000000e-001
         vertex 7.267681e-001 5.817580e-001 8.660254e-001
      endloop
   endfacet
   facet normal -3.964254e-001 -5.854145e-001 7.072036e-001
      outer loop
         vertex 7.267681e-001 5.817580e-001 8.660254e-001
         vertex 4.913757e-001 2.999488e-001 5.000000e-001
         vertex 5.263290e-001 2.749926e-001 5.000000e-001
      endloop
   endfacet
   facet normal -3.832353e-001 -5.942334e-001 7.071190e-001
      outer loop
         vertex 7.267681e-001 5.817580e-001 8.660254e-001
         vertex 5.263290e-001 2.749926e-001 5.000000e-001
         vertex 7.339841e-001 5.766379e-001 8.660254e-001
      endloop
   endfacet
   facet normal -3.774875e-001 -5.978861e-001 7.071319e-001
      outer loop
         vertex 7.339841e-001 5.766379e-001 8.660254e-001
         vertex 5.263290e-001 2.749926e-001 5.000000e-001
         vertex 5.478476e-001 2.621703e-001 5.000000e-001
      endloop
   endfacet
   facet normal -3.608088e-001 -6.079605e-001 7.072489e-001
      outer loop
         vertex 7.339841e-001 5.766379e-001 8.660254e-001
         vertex 5.478476e-001 2.621703e-001 5.000000e-001
         vertex 7.623973e-001 5.609344e-001 8.660254e-001
      endloop
   endfacet
   facet normal -3.475727e-001 -6.156563e-001 7.072203e-001
      outer loop
         vertex 7.623973e-001 5.609344e-001 8.660254e-001
         vertex 5.478476e-001 2.621703e-001 5.000000e-001
         vertex 5.878175e-001 2.383534e-001 5.000000e-001
      endloop
   endfacet
   facet normal -3.266688e-001 -6.270275e-001 7.071944e-001
      outer loop
         vertex 7.623973e-001 5.609344e-001 8.660254e-001
         vertex 5.878175e-001 2.383534e-001 5.000000e-001
         vertex 7.830582e-001 5.495156e-001 8.660254e-001
      endloop
   endfacet
   facet normal -3.214883e-001 -6.297240e-001 7.071726e-001
      outer loop
         vertex 7.830582e-001 5.495156e-001 8.660254e-001
         vertex 5.878175e-001 2.383534e-001 5.000000e-001
         vertex 6.071057e-001 2.289240e-001 5.000000e-001
      endloop
   endfacet
   facet normal -3.040062e-001 -6.383091e-001 7.072070e-001
      outer loop
         vertex 7.830582e-001 5.495156e-001 8.660254e-001
         vertex 6.071057e-001 2.289240e-001 5.000000e-001
         vertex 7.994125e-001 5.427414e-001 8.660254e-001
      endloop
   endfacet
   facet normal -2.964313e-001 -6.418273e-001 7.072383e-001
      outer loop
         vertex 6.071057e-001 2.289240e-001 5.000000e-001
         vertex 6.521216e-001 2.069171e-001 5.000000e-001
         vertex 7.994125e-001 5.427414e-001 8.660254e-001
      endloop
   endfacet
   facet normal -2.795760e-001 -6.494717e-001 7.071235e-001
      outer loop
         vertex 7.994125e-001 5.427414e-001 8.660254e-001
         vertex 6.521216e-001 2.069171e-001 5.000000e-001
         vertex 6.687881e-001 2.004137e-001 5.000000e-001
      endloop
   endfacet
   facet normal -2.628055e-001 -6.562546e-001 7.072929e-001
      outer loop
         vertex 7.994125e-001 5.427414e-001 8.660254e-001
         vertex 6.687881e-001 2.004137e-001 5.000000e-001
         vertex 8.348605e-001 5.280584e-001 8.660254e-001
      endloop
   endfacet
   facet normal -2.446299e-001 -6.632955e-001 7.072449e-001
      outer loop
         vertex 8.348605e-001 5.280584e-001 8.660254e-001
         vertex 6.687881e-001 2.004137e-001 5.000000e-001
         vertex 7.188021e-001 1.808983e-001 5.000000e-001
      endloop
   endfacet
   facet normal -2.309163e-001 -6.683380e-001 7.071081e-001
      outer loop
         vertex 8.348605e-001 5.280584e-001 8.660254e-001
         vertex 7.188021e-001 1.808983e-001 5.000000e-001
         vertex 8.376938e-001 5.272421e-001 8.660254e-001
      endloop
   endfacet
   facet normal -2.259108e-001 -6.700367e-001 7.071175e-001
      outer loop
         vertex 8.376938e-001 5.272421e-001 8.660254e-001
         vertex 7.188021e-001 1.808983e-001 5.000000e-001
         vertex 7.325186e-001 1.768147e-001 5.000000e-001
      endloop
   endfacet
   facet normal -2.072949e-001 -6.758028e-001 7.073326e-001
      outer loop
         vertex 8.376938e-001 5.272421e-001 8.660254e-001
         vertex 7.325186e-001 1.768147e-001 5.000000e-001
         vertex 8.774020e-001 5.158024e-001 8.660254e-001
      endloop
   endfacet
   facet normal -1.886001e-001 -6.813125e-001 7.072788e-001
      outer loop
         vertex 8.774020e-001 5.158024e-001 8.660254e-001
         vertex 7.325186e-001 1.768147e-001 5.000000e-001
         vertex 7.874034e-001 1.604748e-001 5.000000e-001
      endloop
   endfacet
   facet normal -1.681691e-001 -6.867957e-001 7.071286e-001
      outer loop
         vertex 8.774020e-001 5.158024e-001 8.660254e-001
         vertex 7.874034e-001 1.604748e-001 5.000000e-001
         vertex 8.887396e-001 5.125361e-001 8.660254e-001
      endloop
   endfacet
   facet normal -1.653405e-001 -6.874877e-001 7.071232e-001
      outer loop
         vertex 8.887396e-001 5.125361e-001 8.660254e-001
         vertex 7.874034e-001 1.604748e-001 5.000000e-001
         vertex 7.979078e-001 1.582722e-001 5.000000e-001
      endloop
   endfacet
   facet normal -1.463042e-001 -6.916339e-001 7.072747e-001
      outer loop
         vertex 8.887396e-001 5.125361e-001 8.660254e-001
         vertex 7.979078e-001 1.582722e-001 5.000000e-001
         vertex 9.178342e-001 5.075927e-001 8.660254e-001
      endloop
   endfacet
   facet normal -1.850075e-002 -7.066222e-001 7.073492e-001
      outer loop
         vertex 1.000000e+000 1.339747e-001 5.000000e-001
         vertex 1.000000e+000 5.000000e-001 8.660254e-001
         vertex 9.320583e-001 1.367847e-001 5.000000e-001
      endloop
   endfacet
   facet normal -3.797991e-002 -7.058297e-001 7.073627e-001
      outer loop
         vertex 9.320583e-001 1.367847e-001 5.000000e-001
         vertex 1.000000e+000 5.000000e-001 8.660254e-001
         vertex 9.587445e-001 5.023169e-001 8.660254e-001
      endloop
   endfacet
   facet normal -5.743036e-002 -7.047700e-001 7.071074e-001
      outer loop
         vertex 9.320583e-001 1.367847e-001 5.000000e-001
         vertex 9.587445e-001 5.023169e-001 8.660254e-001
         vertex 9.284843e-001 1.369325e-001 5.000000e-001
      endloop
   endfacet
   facet normal -6.532934e-002 -7.040481e-001 7.071410e-001
      outer loop
         vertex 9.284843e-001 1.369325e-001 5.000000e-001
         vertex 9.587445e-001 5.023169e-001 8.660254e-001
         vertex 9.440178e-001 5.031439e-001 8.660254e-001
      endloop
   endfacet
   facet normal -8.274810e-002 -7.020817e-001 7.072722e-001
      outer loop
         vertex 9.284843e-001 1.369325e-001 5.000000e-001
         vertex 9.440178e-001 5.031439e-001 8.660254e-001
         vertex 8.645567e-001 1.449011e-001 5.000000e-001
      endloop
   endfacet
   facet normal -1.020728e-001 -6.996033e-001 7.072031e-001
      outer loop
         vertex 8.645567e-001 1.449011e-001 5.000000e-001
         vertex 9.440178e-001 5.031439e-001 8.660254e-001
         vertex 9.178342e-001 5.075927e-001 8.660254e-001
      endloop
   endfacet
   facet normal -1.144643e-001 -6.977780e-001 7.071095e-001
      outer loop
         vertex 8.645567e-001 1.449011e-001 5.000000e-001
         vertex 9.178342e-001 5.075927e-001 8.660254e-001
         vertex 8.574569e-001 1.457861e-001 5.000000e-001
      endloop
   endfacet
   facet normal -1.326524e-001 -6.943550e-001 7.073008e-001
      outer loop
         vertex 8.574569e-001 1.457861e-001 5.000000e-001
         vertex 9.178342e-001 5.075927e-001 8.660254e-001
         vertex 7.979078e-001 1.582722e-001 5.000000e-001
      endloop
   endfacet
   facet normal -2.527805e-002 -9.655505e-001 2.589846e-001
      outer loop
         vertex 9.215410e-001 3.082678e-003 1.135927e-016
         vertex 1.000000e+000 0.000000e+000 9.437575e-017
         vertex 1.000000e+000 1.339747e-001 5.000000e-001
      endloop
   endfacet
   facet normal -9.645573e-001 -5.055804e-002 2.589846e-001
      outer loop
         vertex 3.082678e-003 9.215410e-001 3.385501e-016
         vertex 1.367847e-001 9.320583e-001 5.000000e-001
         vertex 0.000000e+000 1.000000e+000 3.393051e-016
      endloop
   endfacet
   facet normal -9.655505e-001 -2.527999e-002 2.589847e-001
      outer loop
         vertex 0.000000e+000 1.000000e+000 3.393051e-016
         vertex 1.367847e-001 9.320583e-001 5.000000e-001
         vertex 1.339747e-001 1.000000e+000 5.000000e-001
      endloop
   endfacet
   facet normal -9.447725e-001 -2.008277e-001 2.589847e-001
      outer loop
         vertex 1.231174e-002 8.435656e-001 3.362896e-016
         vertex 2.763013e-002 7.665547e-001 3.325377e-016
         vertex 1.582722e-001 7.979078e-001 5.000000e-001
      endloop
   endfacet
   facet normal -9.492232e-001 -1.786345e-001 2.589691e-001
      outer loop
         vertex 1.582722e-001 7.979078e-001 5.000000e-001
         vertex 1.457861e-001 8.574569e-001 5.000000e-001
         vertex 1.231174e-002 8.435656e-001 3.362896e-016
      endloop
   endfacet
   facet normal -9.536126e-001 -1.537358e-001 2.588209e-001
      outer loop
         vertex 1.231174e-002 8.435656e-001 3.362896e-016
         vertex 1.457861e-001 8.574569e-001 5.000000e-001
         vertex 1.449011e-001 8.645567e-001 5.000000e-001
      endloop
   endfacet
   facet normal -9.576170e-001 -1.260818e-001 2.589846e-001
      outer loop
         vertex 1.231174e-002 8.435656e-001 3.362896e-016
         vertex 1.449011e-001 8.645567e-001 5.000000e-001
         vertex 3.082678e-003 9.215410e-001 3.385501e-016
      endloop
   endfacet
   facet normal -9.604526e-001 -1.022838e-001 2.589764e-001
      outer loop
         vertex 3.082678e-003 9.215410e-001 3.385501e-016
         vertex 1.449011e-001 8.645567e-001 5.000000e-001
         vertex 1.369325e-001 9.284843e-001 5.000000e-001
      endloop
   endfacet
   facet normal -9.628426e-001 -7.711437e-002 2.588195e-001
      outer loop
         vertex 3.082678e-003 9.215410e-001 3.385501e-016
         vertex 1.369325e-001 9.284843e-001 5.000000e-001
         vertex 1.367847e-001 9.320583e-001 5.000000e-001
      endloop
   endfacet
   facet normal -9.017244e-001 -3.461503e-001 2.589847e-001
      outer loop
         vertex 4.894350e-002 6.909830e-001 3.273174e-016
         vertex 7.612049e-002 6.173166e-001 3.206610e-016
         vertex 2.004137e-001 6.687881e-001 5.000000e-001
      endloop
   endfacet
   facet normal -9.086958e-001 -3.274342e-001 2.589571e-001
      outer loop
         vertex 2.004137e-001 6.687881e-001 5.000000e-001
         vertex 1.808983e-001 7.188021e-001 5.000000e-001
         vertex 4.894350e-002 6.909830e-001 3.273174e-016
      endloop
   endfacet
   facet normal -9.169878e-001 -3.035496e-001 2.588263e-001
      outer loop
         vertex 4.894350e-002 6.909830e-001 3.273174e-016
         vertex 1.808983e-001 7.188021e-001 5.000000e-001
         vertex 1.768147e-001 7.325186e-001 5.000000e-001
      endloop
   endfacet
   facet normal -9.261033e-001 -2.743349e-001 2.589847e-001
      outer loop
         vertex 4.894350e-002 6.909830e-001 3.273174e-016
         vertex 1.768147e-001 7.325186e-001 5.000000e-001
         vertex 2.763013e-002 7.665547e-001 3.325377e-016
      endloop
   endfacet
   facet normal -9.319342e-001 -2.538446e-001 2.589627e-001
      outer loop
         vertex 2.763013e-002 7.665547e-001 3.325377e-016
         vertex 1.768147e-001 7.325186e-001 5.000000e-001
         vertex 1.604748e-001 7.874034e-001 5.000000e-001
      endloop
   endfacet
   facet normal -9.382951e-001 -2.293751e-001 2.588232e-001
      outer loop
         vertex 2.763013e-002 7.665547e-001 3.325377e-016
         vertex 1.604748e-001 7.874034e-001 5.000000e-001
         vertex 1.582722e-001 7.979078e-001 5.000000e-001
      endloop
   endfacet
   facet normal -8.364734e-001 -4.829484e-001 2.589846e-001
      outer loop
         vertex 1.089935e-001 5.460095e-001 3.126094e-016
         vertex 1.473599e-001 4.775015e-001 3.032124e-016
         vertex 2.621703e-001 5.478476e-001 5.000000e-001
      endloop
   endfacet
   facet normal -8.450019e-001 -4.678859e-001 2.589489e-001
      outer loop
         vertex 2.621703e-001 5.478476e-001 5.000000e-001
         vertex 2.383534e-001 5.878175e-001 5.000000e-001
         vertex 1.089935e-001 5.460095e-001 3.126094e-016
      endloop
   endfacet
   facet normal -8.569859e-001 -4.456226e-001 2.588356e-001
      outer loop
         vertex 1.089935e-001 5.460095e-001 3.126094e-016
         vertex 2.383534e-001 5.878175e-001 5.000000e-001
         vertex 2.289240e-001 6.071057e-001 5.000000e-001
      endloop
   endfacet
   facet normal -8.717862e-001 -4.158314e-001 2.589847e-001
      outer loop
         vertex 1.089935e-001 5.460095e-001 3.126094e-016
         vertex 2.289240e-001 6.071057e-001 5.000000e-001
         vertex 7.612049e-002 6.173166e-001 3.206610e-016
      endloop
   endfacet
   facet normal -8.796566e-001 -3.989334e-001 2.589526e-001
      outer loop
         vertex 7.612049e-002 6.173166e-001 3.206610e-016
         vertex 2.289240e-001 6.071057e-001 5.000000e-001
         vertex 2.069171e-001 6.521216e-001 5.000000e-001
      endloop
   endfacet
   facet normal -8.898269e-001 -3.757858e-001 2.588305e-001
      outer loop
         vertex 7.612049e-002 6.173166e-001 3.206610e-016
         vertex 2.069171e-001 6.521216e-001 5.000000e-001
         vertex 2.004137e-001 6.687881e-001 5.000000e-001
      endloop
   endfacet
   facet normal -7.506265e-001 -6.078542e-001 2.589846e-001
      outer loop
         vertex 1.909831e-001 4.122148e-001 2.925278e-016
         vertex 2.395941e-001 3.505520e-001 2.806215e-016
         vertex 3.420281e-001 4.380349e-001 5.000000e-001
      endloop
   endfacet
   facet normal -7.597659e-001 -5.964091e-001 2.589443e-001
      outer loop
         vertex 3.420281e-001 4.380349e-001 5.000000e-001
         vertex 3.165843e-001 4.680762e-001 5.000000e-001
         vertex 1.909831e-001 4.122148e-001 2.925278e-016
      endloop
   endfacet
   facet normal -7.751372e-001 -5.763330e-001 2.588484e-001
      outer loop
         vertex 1.909831e-001 4.122148e-001 2.925278e-016
         vertex 3.165843e-001 4.680762e-001 5.000000e-001
         vertex 2.999488e-001 4.913757e-001 5.000000e-001
      endloop
   endfacet
   facet normal -7.960037e-001 -5.470879e-001 2.589846e-001
      outer loop
         vertex 1.909831e-001 4.122148e-001 2.925278e-016
         vertex 2.999488e-001 4.913757e-001 5.000000e-001
         vertex 1.473599e-001 4.775015e-001 3.032124e-016
      endloop
   endfacet
   facet normal -8.049532e-001 -5.338515e-001 2.589461e-001
      outer loop
         vertex 1.473599e-001 4.775015e-001 3.032124e-016
         vertex 2.999488e-001 4.913757e-001 5.000000e-001
         vertex 2.749926e-001 5.263290e-001 5.000000e-001
      endloop
   endfacet
   facet normal -8.186744e-001 -5.126142e-001 2.588415e-001
      outer loop
         vertex 1.473599e-001 4.775015e-001 3.032124e-016
         vertex 2.749926e-001 5.263290e-001 5.000000e-001
         vertex 2.621703e-001 5.478476e-001 5.000000e-001
      endloop
   endfacet
   facet normal -6.551595e-001 -7.097284e-001 2.589433e-001
      outer loop
         vertex 3.505520e-001 2.395941e-001 2.534446e-016
         vertex 4.134570e-001 3.628444e-001 5.000000e-001
         vertex 2.928933e-001 2.928933e-001 2.675670e-016
      endloop
   endfacet
   facet normal -6.735291e-001 -6.923494e-001 2.588649e-001
      outer loop
         vertex 2.928933e-001 2.928933e-001 2.675670e-016
         vertex 4.134570e-001 3.628444e-001 5.000000e-001
         vertex 3.881508e-001 3.881508e-001 5.000000e-001
      endloop
   endfacet
   facet normal -7.006217e-001 -6.648731e-001 2.589846e-001
      outer loop
         vertex 2.928933e-001 2.928933e-001 2.675670e-016
         vertex 3.881508e-001 3.881508e-001 5.000000e-001
         vertex 2.395941e-001 3.505520e-001 2.806215e-016
      endloop
   endfacet
   facet normal -7.097284e-001 -6.551595e-001 2.589433e-001
      outer loop
         vertex 2.395941e-001 3.505520e-001 2.806215e-016
         vertex 3.881508e-001 3.881508e-001 5.000000e-001
         vertex 3.628444e-001 4.134570e-001 5.000000e-001
      endloop
   endfacet
   facet normal -7.266523e-001 -6.363725e-001 2.588562e-001
      outer loop
         vertex 2.395941e-001 3.505520e-001 2.806215e-016
         vertex 3.628444e-001 4.134570e-001 5.000000e-001
         vertex 3.420281e-001 4.380349e-001 5.000000e-001
      endloop
   endfacet
   facet normal -5.964082e-001 -7.597665e-001 2.589442e-001
      outer loop
         vertex 4.122148e-001 1.909831e-001 2.383416e-016
         vertex 4.680762e-001 3.165843e-001 5.000000e-001
         vertex 3.505520e-001 2.395941e-001 2.534446e-016
      endloop
   endfacet
   facet normal -6.161067e-001 -7.439063e-001 2.588745e-001
      outer loop
         vertex 3.505520e-001 2.395941e-001 2.534446e-016
         vertex 4.680762e-001 3.165843e-001 5.000000e-001
         vertex 4.380349e-001 3.420281e-001 5.000000e-001
      endloop
   endfacet
   facet normal -6.363725e-001 -7.266523e-001 2.588562e-001
      outer loop
         vertex 3.505520e-001 2.395941e-001 2.534446e-016
         vertex 4.380349e-001 3.420281e-001 5.000000e-001
         vertex 4.134570e-001 3.628444e-001 5.000000e-001
      endloop
   endfacet
   facet normal -5.338497e-001 -8.049543e-001 2.589461e-001
      outer loop
         vertex 4.775015e-001 1.473599e-001 2.223510e-016
         vertex 5.263290e-001 2.749926e-001 5.000000e-001
         vertex 4.122148e-001 1.909831e-001 2.383416e-016
      endloop
   endfacet
   facet normal -5.547517e-001 -7.907143e-001 2.588851e-001
      outer loop
         vertex 4.122148e-001 1.909831e-001 2.383416e-016
         vertex 5.263290e-001 2.749926e-001 5.000000e-001
         vertex 4.913757e-001 2.999488e-001 5.000000e-001
      endloop
   endfacet
   facet normal -5.763330e-001 -7.751372e-001 2.588484e-001
      outer loop
         vertex 4.122148e-001 1.909831e-001 2.383416e-016
         vertex 4.913757e-001 2.999488e-001 5.000000e-001
         vertex 4.680762e-001 3.165843e-001 5.000000e-001
      endloop
   endfacet
   facet normal -4.678832e-001 -8.450035e-001 2.589488e-001
      outer loop
         vertex 5.460095e-001 1.089935e-001 2.055713e-016
         vertex 5.878175e-001 2.383534e-001 5.000000e-001
         vertex 4.775015e-001 1.473599e-001 2.223510e-016
      endloop
   endfacet
   facet normal -4.898558e-001 -8.324746e-001 2.588966e-001
      outer loop
         vertex 4.775015e-001 1.473599e-001 2.223510e-016
         vertex 5.878175e-001 2.383534e-001 5.000000e-001
         vertex 5.478476e-001 2.621703e-001 5.000000e-001
      endloop
   endfacet
   facet normal -5.126142e-001 -8.186744e-001 2.588415e-001
      outer loop
         vertex 4.775015e-001 1.473599e-001 2.223510e-016
         vertex 5.478476e-001 2.621703e-001 5.000000e-001
         vertex 5.263290e-001 2.749926e-001 5.000000e-001
      endloop
   endfacet
   facet normal -3.989299e-001 -8.796582e-001 2.589525e-001
      outer loop
         vertex 6.173166e-001 7.612049e-002 1.881062e-016
         vertex 6.521216e-001 2.069171e-001 5.000000e-001
         vertex 5.460095e-001 1.089935e-001 2.055713e-016
      endloop
   endfacet
   facet normal -4.218333e-001 -8.689205e-001 2.589090e-001
      outer loop
         vertex 5.460095e-001 1.089935e-001 2.055713e-016
         vertex 6.521216e-001 2.069171e-001 5.000000e-001
         vertex 6.071057e-001 2.289240e-001 5.000000e-001
      endloop
   endfacet
   facet normal -4.456226e-001 -8.569859e-001 2.588356e-001
      outer loop
         vertex 5.460095e-001 1.089935e-001 2.055713e-016
         vertex 6.071057e-001 2.289240e-001 5.000000e-001
         vertex 5.878175e-001 2.383534e-001 5.000000e-001
      endloop
   endfacet
   facet normal -3.274302e-001 -9.086972e-001 2.589571e-001
      outer loop
         vertex 6.909830e-001 4.894350e-002 1.700631e-016
         vertex 7.188021e-001 1.808983e-001 5.000000e-001
         vertex 6.173166e-001 7.612049e-002 1.881062e-016
      endloop
   endfacet
   facet normal -3.511183e-001 -8.998196e-001 2.589223e-001
      outer loop
         vertex 6.173166e-001 7.612049e-002 1.881062e-016
         vertex 7.188021e-001 1.808983e-001 5.000000e-001
         vertex 6.687881e-001 2.004137e-001 5.000000e-001
      endloop
   endfacet
   facet normal -3.757858e-001 -8.898268e-001 2.588305e-001
      outer loop
         vertex 6.173166e-001 7.612049e-002 1.881062e-016
         vertex 6.687881e-001 2.004137e-001 5.000000e-001
         vertex 6.521216e-001 2.069171e-001 5.000000e-001
      endloop
   endfacet
   facet normal -2.538404e-001 -9.319353e-001 2.589626e-001
      outer loop
         vertex 7.665547e-001 2.763013e-002 1.515534e-016
         vertex 7.874034e-001 1.604748e-001 5.000000e-001
         vertex 6.909830e-001 4.894350e-002 1.700631e-016
      endloop
   endfacet
   facet normal -2.781622e-001 -9.249744e-001 2.589365e-001
      outer loop
         vertex 6.909830e-001 4.894350e-002 1.700631e-016
         vertex 7.874034e-001 1.604748e-001 5.000000e-001
         vertex 7.325186e-001 1.768147e-001 5.000000e-001
      endloop
   endfacet
   facet normal -3.035496e-001 -9.169877e-001 2.588264e-001
      outer loop
         vertex 6.909830e-001 4.894350e-002 1.700631e-016
         vertex 7.325186e-001 1.768147e-001 5.000000e-001
         vertex 7.188021e-001 1.808983e-001 5.000000e-001
      endloop
   endfacet
   facet normal -1.786305e-001 -9.492240e-001 2.589690e-001
      outer loop
         vertex 8.435656e-001 1.231174e-002 1.326911e-016
         vertex 8.574569e-001 1.457861e-001 5.000000e-001
         vertex 7.665547e-001 2.763013e-002 1.515534e-016
      endloop
   endfacet
   facet normal -2.034307e-001 -9.442245e-001 2.589516e-001
      outer loop
         vertex 7.665547e-001 2.763013e-002 1.515534e-016
         vertex 8.574569e-001 1.457861e-001 5.000000e-001
         vertex 7.979078e-001 1.582722e-001 5.000000e-001
      endloop
   endfacet
   facet normal -2.293751e-001 -9.382951e-001 2.588232e-001
      outer loop
         vertex 7.665547e-001 2.763013e-002 1.515534e-016
         vertex 7.979078e-001 1.582722e-001 5.000000e-001
         vertex 7.874034e-001 1.604748e-001 5.000000e-001
      endloop
   endfacet
   facet normal -5.055804e-002 -9.645573e-001 2.589846e-001
      outer loop
         vertex 1.000000e+000 1.339747e-001 5.000000e-001
         vertex 9.320583e-001 1.367847e-001 5.000000e-001
         vertex 9.215410e-001 3.082678e-003 1.135927e-016
      endloop
   endfacet
   facet normal -7.711437e-002 -9.628426e-001 2.588195e-001
      outer loop
         vertex 9.215410e-001 3.082678e-003 1.135927e-016
         vertex 9.320583e-001 1.367847e-001 5.000000e-001
         vertex 9.284843e-001 1.369325e-001 5.000000e-001
      endloop
   endfacet
   facet normal -1.022806e-001 -9.604530e-001 2.589763e-001
      outer loop
         vertex 9.215410e-001 3.082678e-003 1.135927e-016
         vertex 9.284843e-001 1.369325e-001 5.000000e-001
         vertex 8.435656e-001 1.231174e-002 1.326911e-016
      endloop
   endfacet
   facet normal -1.274009e-001 -9.574470e-001 2.589677e-001
      outer loop
         vertex 8.435656e-001 1.231174e-002 1.326911e-016
         vertex 9.284843e-001 1.369325e-001 5.000000e-001
         vertex 8.645567e-001 1.449011e-001 5.000000e-001
      endloop
   endfacet
   facet normal -1.537358e-001 -9.536126e-001 2.588209e-001
      outer loop
         vertex 8.435656e-001 1.231174e-002 1.326911e-016
         vertex 8.645567e-001 1.449011e-001 5.000000e-001
         vertex 8.574569e-001 1.457861e-001 5.000000e-001
      endloop
   endfacet
   facet normal -2.449294e-016 0.000000e+000 -1.000000e+000
      outer loop
         vertex 6.909830e-001 4.894350e-002 2.312954e-016
         vertex 6.173166e-001 7.612049e-002 2.493385e-016
         vertex 1.000000e+000 1.000000e+000 1.556081e-016
      endloop
   endfacet
   facet normal -2.449294e-016 0.000000e+000 -1.000000e+000
      outer loop
         vertex 1.000000e+000 1.000000e+000 1.556081e-016
         vertex 1.000000e+000 0.000000e+000 1.556081e-016
         vertex 9.215410e-001 3.082678e-003 1.748250e-016
      endloop
   endfacet
   facet normal -2.449294e-016 0.000000e+000 -1.000000e+000
      outer loop
         vertex 4.894350e-002 6.909830e-001 3.885497e-016
         vertex 2.763013e-002 7.665547e-001 3.937700e-016
         vertex 1.000000e+000 1.000000e+000 1.556081e-016
      endloop
   endfacet
   facet normal -2.449294e-016 0.000000e+000 -1.000000e+000
      outer loop
         vertex 9.215410e-001 3.082678e-003 1.748250e-016
         vertex 8.435656e-001 1.231174e-002 1.939235e-016
         vertex 1.000000e+000 1.000000e+000 1.556081e-016
      endloop
   endfacet
   facet normal -2.449294e-016 0.000000e+000 -1.000000e+000
      outer loop
         vertex 1.000000e+000 1.000000e+000 1.556081e-016
         vertex 8.435656e-001 1.231174e-002 1.939235e-016
         vertex 7.665547e-001 2.763013e-002 2.127857e-016
      endloop
   endfacet
   facet normal -2.449294e-016 0.000000e+000 -1.000000e+000
      outer loop
         vertex 1.000000e+000 1.000000e+000 1.556081e-016
         vertex 7.665547e-001 2.763013e-002 2.127857e-016
         vertex 6.909830e-001 4.894350e-002 2.312954e-016
      endloop
   endfacet
   facet normal -2.449294e-016 0.000000e+000 -1.000000e+000
      outer loop
         vertex 2.763013e-002 7.665547e-001 3.937700e-016
         vertex 1.231174e-002 8.435656e-001 3.975220e-016
         vertex 1.000000e+000 1.000000e+000 1.556081e-016
      endloop
   endfacet
   facet normal -2.449294e-016 0.000000e+000 -1.000000e+000
      outer loop
         vertex 1.000000e+000 1.000000e+000 1.556081e-016
         vertex 1.231174e-002 8.435656e-001 3.975220e-016
         vertex 3.082678e-003 9.215410e-001 3.997824e-016
      endloop
   endfacet
   facet normal -2.449294e-016 0.000000e+000 -1.000000e+000
      outer loop
         vertex 1.000000e+000 1.000000e+000 1.556081e-016
         vertex 3.082678e-003 9.215410e-001 3.997824e-016
         vertex 0.000000e+000 1.000000e+000 4.005374e-016
      endloop
   endfacet
   facet normal -2.449294e-016 0.000000e+000 -1.000000e+000
      outer loop
         vertex 6.173166e-001 7.612049e-002 2.493385e-016
         vertex 5.460095e-001 1.089935e-001 2.668037e-016
         vertex 1.000000e+000 1.000000e+000 1.556081e-016
      endloop
   endfacet
   facet normal -2.449294e-016 0.000000e+000 -1.000000e+000
      outer loop
         vertex 1.000000e+000 1.000000e+000 1.556081e-016
         vertex 5.460095e-001 1.089935e-001 2.668037e-016
         vertex 4.775015e-001 1.473599e-001 2.835833e-016
      endloop
   endfacet
   facet normal -2.449294e-016 0.000000e+000 -1.000000e+000
      outer loop
         vertex 1.000000e+000 1.000000e+000 1.556081e-016
         vertex 4.775015e-001 1.473599e-001 2.835833e-016
         vertex 4.122148e-001 1.909831e-001 2.995740e-016
      endloop
   endfacet
   facet normal -2.449294e-016 0.000000e+000 -1.000000e+000
      outer loop
         vertex 2.395941e-001 3.505520e-001 3.418538e-016
         vertex 1.909831e-001 4.122148e-001 3.537601e-016
         vertex 1.000000e+000 1.000000e+000 1.556081e-016
      endloop
   endfacet
   facet normal -2.449294e-016 0.000000e+000 -1.000000e+000
      outer loop
         vertex 1.000000e+000 1.000000e+000 1.556081e-016
         vertex 1.909831e-001 4.122148e-001 3.537601e-016
         vertex 1.473599e-001 4.775015e-001 3.644447e-016
      endloop
   endfacet
   facet normal -2.449294e-016 0.000000e+000 -1.000000e+000
      outer loop
         vertex 1.473599e-001 4.775015e-001 3.644447e-016
         vertex 1.089935e-001 5.460095e-001 3.738417e-016
         vertex 1.000000e+000 1.000000e+000 1.556081e-016
      endloop
   endfacet
   facet normal -2.449294e-016 0.000000e+000 -1.000000e+000
      outer loop
         vertex 1.000000e+000 1.000000e+000 1.556081e-016
         vertex 1.089935e-001 5.460095e-001 3.738417e-016
         vertex 7.612049e-002 6.173166e-001 3.818933e-016
      endloop
   endfacet
   facet normal -2.449294e-016 0.000000e+000 -1.000000e+000
      outer loop
         vertex 1.000000e+000 1.000000e+000 1.556081e-016
         vertex 7.612049e-002 6.173166e-001 3.818933e-016
         vertex 4.894350e-002 6.909830e-001 3.885497e-016
      endloop
   endfacet
   facet normal -2.449294e-016 0.000000e+000 -1.000000e+000
      outer loop
         vertex 4.122148e-001 1.909831e-001 2.995740e-016
         vertex 3.505520e-001 2.395941e-001 3.146770e-016
         vertex 1.000000e+000 1.000000e+000 1.556081e-016
      endloop
   endfacet
   facet normal -2.449294e-016 0.000000e+000 -1.000000e+000
      outer loop
         vertex 1.000000e+000 1.000000e+000 1.556081e-016
         vertex 3.505520e-001 2.395941e-001 3.146770e-016
         vertex 2.928933e-001 2.928933e-001 3.287993e-016
      endloop
   endfacet
   facet normal -2.449294e-016 0.000000e+000 -1.000000e+000
      outer loop
         vertex 1.000000e+000 1.000000e+000 1.556081e-016
         vertex 2.928933e-001 2.928933e-001 3.287993e-016
         vertex 2.395941e-001 3.505520e-001 3.418538e-016
      endloop
   endfacet
   facet normal 1.000000e+000 3.491481e-015 -2.449294e-016
      outer loop
         vertex 1.000000e+000 1.000000e+000 1.000000e+000
         vertex 1.000000e+000 5.000000e-001 8.660254e-001
         vertex 1.000000e+000 1.000000e+000 2.168404e-016
      endloop
   endfacet
   facet normal 1.000000e+000 3.491481e-015 -2.449294e-016
      outer loop
         vertex 1.000000e+000 1.000000e+000 2.168404e-016
         vertex 1.000000e+000 5.000000e-001 8.660254e-001
         vertex 1.000000e+000 1.339747e-001 5.000000e-001
      endloop
   endfacet
   facet normal 1.000000e+000 3.491481e-015 -2.449294e-016
      outer loop
         vertex 1.000000e+000 1.000000e+000 2.168404e-016
         vertex 1.000000e+000 1.339747e-001 5.000000e-001
         vertex 1.000000e+000 0.000000e+000 9.437575e-017
      endloop
   endfacet
   facet normal 0.000000e+000 1.000000e+000 0.000000e+000
      outer loop
         vertex 5.000000e-001 1.000000e+000 8.660254e-001
         vertex 1.000000e+000 1.000000e+000 1.000000e+000
         vertex 1.339747e-001 1.000000e+000 5.000000e-001
      endloop
   endfacet
   facet normal 0.000000e+000 1.000000e+000 0.000000e+000
      outer loop
         vertex 1.339747e-001 1.000000e+000 5.000000e-001
         vertex 1.000000e+000 1.000000e+000 1.000000e+000
         vertex 1.000000e+000 1.000000e+000 2.168404e-016
      endloop
   endfacet
   facet normal 0.000000e+000 1.000000e+000 0.000000e+000
      outer loop
         vertex 1.339747e-001 1.000000e+000 5.000000e-001
         vertex 1.000000e+000 1.000000e+000 2.168404e-016
         vertex 0.000000e+000 1.000000e+000 3.393051e-016
      endloop
   endfacet
endsolid