solid Панель правый верхний
   facet normal 2.029823e-001 1.605726e-001 9.659268e-001
      outer loop
         vertex 3.943286e-001 3.069349e-001 8.660254e-001
         vertex 3.909158e-001 3.117449e-001 8.660254e-001
         vertex 3.736411e-015 0.000000e+000 1.000000e+000
      endloop
   endfacet
   facet normal 2.582424e-001 1.425504e-002 9.659750e-001
      outer loop
         vertex 3.736411e-015 0.000000e+000 1.000000e+000
         vertex 5.000000e-001 1.693941e-016 8.660254e-001
         vertex 4.976831e-001 4.125547e-002 8.660254e-001
      endloop
   endfacet
   facet normal 2.574409e-001 2.644636e-002 9.659321e-001
      outer loop
         vertex 4.968561e-001 5.598224e-002 8.660254e-001
         vertex 3.736411e-015 0.000000e+000 1.000000e+000
         vertex 4.976831e-001 4.125547e-002 8.660254e-001
      endloop
   endfacet
   facet normal 2.513786e-001 6.154967e-002 9.659299e-001
      outer loop
         vertex 3.736411e-015 0.000000e+000 1.000000e+000
         vertex 4.874640e-001 1.112605e-001 8.660254e-001
         vertex 4.841977e-001 1.225980e-001 8.660254e-001
      endloop
   endfacet
   facet normal 2.533229e-001 5.259614e-002 9.659509e-001
      outer loop
         vertex 4.924073e-001 8.216590e-002 8.660254e-001
         vertex 4.874640e-001 1.112605e-001 8.660254e-001
         vertex 3.736411e-015 0.000000e+000 1.000000e+000
      endloop
   endfacet
   facet normal 2.559288e-001 3.805966e-002 9.659461e-001
      outer loop
         vertex 4.968561e-001 5.598224e-002 8.660254e-001
         vertex 4.924073e-001 8.216590e-002 8.660254e-001
         vertex 3.736411e-015 0.000000e+000 1.000000e+000
      endloop
   endfacet
   facet normal 2.394533e-001 9.781385e-002 9.659683e-001
      outer loop
         vertex 3.736411e-015 0.000000e+000 1.000000e+000
         vertex 4.719416e-001 1.651395e-001 8.660254e-001
         vertex 4.572586e-001 2.005876e-001 8.660254e-001
      endloop
   endfacet
   facet normal 2.444615e-001 8.500244e-002 9.659261e-001
      outer loop
         vertex 4.727579e-001 1.623063e-001 8.660254e-001
         vertex 4.719416e-001 1.651395e-001 8.660254e-001
         vertex 3.736411e-015 0.000000e+000 1.000000e+000
      endloop
   endfacet
   facet normal 2.468425e-001 7.720803e-002 9.659750e-001
      outer loop
         vertex 4.841977e-001 1.225980e-001 8.660254e-001
         vertex 4.727579e-001 1.623063e-001 8.660254e-001
         vertex 3.736411e-015 0.000000e+000 1.000000e+000
      endloop
   endfacet
   facet normal 2.294839e-001 1.195552e-001 9.659419e-001
      outer loop
         vertex 3.736411e-015 0.000000e+000 1.000000e+000
         vertex 4.504844e-001 2.169419e-001 8.660254e-001
         vertex 4.390656e-001 2.376027e-001 8.660254e-001
      endloop
   endfacet
   facet normal 2.219813e-001 1.328646e-001 9.659562e-001
      outer loop
         vertex 4.233621e-001 2.660160e-001 8.660254e-001
         vertex 3.736411e-015 0.000000e+000 1.000000e+000
         vertex 4.390656e-001 2.376027e-001 8.660254e-001
      endloop
   endfacet
   facet normal 2.344663e-001 1.095236e-001 9.659349e-001
      outer loop
         vertex 4.572586e-001 2.005876e-001 8.660254e-001
         vertex 4.504844e-001 2.169419e-001 8.660254e-001
         vertex 3.736411e-015 0.000000e+000 1.000000e+000
      endloop
   endfacet
   facet normal 2.083973e-001 1.531759e-001 9.659750e-001
      outer loop
         vertex 3.943286e-001 3.069349e-001 8.660254e-001
         vertex 3.736411e-015 0.000000e+000 1.000000e+000
         vertex 4.182421e-001 2.732320e-001 8.660254e-001
      endloop
   endfacet
   facet normal 2.175027e-001 1.402694e-001 9.659281e-001
      outer loop
         vertex 4.233621e-001 2.660160e-001 8.660254e-001
         vertex 4.182421e-001 2.732320e-001 8.660254e-001
         vertex 3.736411e-015 0.000000e+000 1.000000e+000
      endloop
   endfacet
   facet normal 1.778715e-001 1.879503e-001 9.659382e-001
      outer loop
         vertex 3.736411e-015 0.000000e+000 1.000000e+000
         vertex 3.535534e-001 3.535534e-001 8.660254e-001
         vertex 3.381529e-001 3.673161e-001 8.660254e-001
      endloop
   endfacet
   facet normal 1.854827e-001 1.804433e-001 9.659382e-001
      outer loop
         vertex 3.673161e-001 3.381529e-001 8.660254e-001
         vertex 3.535534e-001 3.535534e-001 8.660254e-001
         vertex 3.736411e-015 0.000000e+000 1.000000e+000
      endloop
   endfacet
   facet normal 1.944019e-001 1.706617e-001 9.659620e-001
      outer loop
         vertex 3.909158e-001 3.117449e-001 8.660254e-001
         vertex 3.673161e-001 3.381529e-001 8.660254e-001
         vertex 3.736411e-015 0.000000e+000 1.000000e+000
      endloop
   endfacet
   facet normal 1.473684e-001 2.125437e-001 9.659750e-001
      outer loop
         vertex 3.736411e-015 0.000000e+000 1.000000e+000
         vertex 3.069349e-001 3.943286e-001 8.660254e-001
         vertex 2.732320e-001 4.182421e-001 8.660254e-001
      endloop
   endfacet
   facet normal 1.597741e-001 2.036115e-001 9.659268e-001
      outer loop
         vertex 3.117449e-001 3.909158e-001 8.660254e-001
         vertex 3.069349e-001 3.943286e-001 8.660254e-001
         vertex 3.736411e-015 0.000000e+000 1.000000e+000
      endloop
   endfacet
   facet normal 1.660194e-001 1.983812e-001 9.659620e-001
      outer loop
         vertex 3.381529e-001 3.673161e-001 8.660254e-001
         vertex 3.117449e-001 3.909158e-001 8.660254e-001
         vertex 3.736411e-015 0.000000e+000 1.000000e+000
      endloop
   endfacet
   facet normal 1.280248e-001 2.248073e-001 9.659562e-001
      outer loop
         vertex 3.736411e-015 0.000000e+000 1.000000e+000
         vertex 2.660160e-001 4.233621e-001 8.660254e-001
         vertex 2.376027e-001 4.390656e-001 8.660254e-001
      endloop
   endfacet
   facet normal 1.159272e-001 2.313378e-001 9.659419e-001
      outer loop
         vertex 2.169419e-001 4.504844e-001 8.660254e-001
         vertex 3.736411e-015 0.000000e+000 1.000000e+000
         vertex 2.376027e-001 4.390656e-001 8.660254e-001
      endloop
   endfacet
   facet normal 1.389849e-001 2.183258e-001 9.659281e-001
      outer loop
         vertex 2.732320e-001 4.182421e-001 8.660254e-001
         vertex 2.660160e-001 4.233621e-001 8.660254e-001
         vertex 3.736411e-015 0.000000e+000 1.000000e+000
      endloop
   endfacet
   facet normal 8.452236e-002 2.446278e-001 9.659261e-001
      outer loop
         vertex 3.736411e-015 0.000000e+000 1.000000e+000
         vertex 1.651395e-001 4.719416e-001 8.660254e-001
         vertex 1.623063e-001 4.727579e-001 8.660254e-001
      endloop
   endfacet
   facet normal 9.165006e-002 2.418795e-001 9.659683e-001
      outer loop
         vertex 2.005876e-001 4.572586e-001 8.660254e-001
         vertex 1.651395e-001 4.719416e-001 8.660254e-001
         vertex 3.736411e-015 0.000000e+000 1.000000e+000
      endloop
   endfacet
   facet normal 1.067488e-001 2.357426e-001 9.659349e-001
      outer loop
         vertex 2.169419e-001 4.504844e-001 8.660254e-001
         vertex 2.005876e-001 4.572586e-001 8.660254e-001
         vertex 3.736411e-015 0.000000e+000 1.000000e+000
      endloop
   endfacet
   facet normal 4.759813e-002 2.543094e-001 9.659509e-001
      outer loop
         vertex 3.736411e-015 0.000000e+000 1.000000e+000
         vertex 1.112605e-001 4.874640e-001 8.660254e-001
         vertex 8.216590e-002 4.924073e-001 8.660254e-001
      endloop
   endfacet
   facet normal 5.957128e-002 2.518548e-001 9.659299e-001
      outer loop
         vertex 1.225980e-001 4.841977e-001 8.660254e-001
         vertex 1.112605e-001 4.874640e-001 8.660254e-001
         vertex 3.736411e-015 0.000000e+000 1.000000e+000
      endloop
   endfacet
   facet normal 7.036953e-002 2.488783e-001 9.659750e-001
      outer loop
         vertex 1.623063e-001 4.727579e-001 8.660254e-001
         vertex 1.225980e-001 4.841977e-001 8.660254e-001
         vertex 3.736411e-015 0.000000e+000 1.000000e+000
      endloop
   endfacet
   facet normal 2.391399e-002 2.576884e-001 9.659321e-001
      outer loop
         vertex 3.736411e-015 0.000000e+000 1.000000e+000
         vertex 5.598224e-002 4.968561e-001 8.660254e-001
         vertex 4.125547e-002 4.976831e-001 8.660254e-001
      endloop
   endfacet
   facet normal 7.127522e-003 2.585373e-001 9.659750e-001
      outer loop
         vertex 2.007646e-015 5.000000e-001 8.660254e-001
         vertex 3.736411e-015 0.000000e+000 1.000000e+000
         vertex 4.125547e-002 4.976831e-001 8.660254e-001
      endloop
   endfacet
   facet normal 3.351941e-002 2.565629e-001 9.659461e-001
      outer loop
         vertex 8.216590e-002 4.924073e-001 8.660254e-001
         vertex 5.598224e-002 4.968561e-001 8.660254e-001
         vertex 3.736411e-015 0.000000e+000 1.000000e+000
      endloop
   endfacet
   facet normal 7.066222e-001 1.850075e-002 7.073492e-001
      outer loop
         vertex 5.000000e-001 -1.101719e-017 8.660254e-001
         vertex 8.660254e-001 -1.908234e-017 5.000000e-001
         vertex 8.632153e-001 6.794176e-002 5.000000e-001
      endloop
   endfacet
   facet normal 7.058297e-001 3.797991e-002 7.073627e-001
      outer loop
         vertex 5.000000e-001 -1.101719e-017 8.660254e-001
         vertex 8.632153e-001 6.794176e-002 5.000000e-001
         vertex 4.976831e-001 4.125547e-002 8.660254e-001
      endloop
   endfacet
   facet normal 7.047700e-001 5.743036e-002 7.071074e-001
      outer loop
         vertex 4.976831e-001 4.125547e-002 8.660254e-001
         vertex 8.632153e-001 6.794176e-002 5.000000e-001
         vertex 8.630675e-001 7.151581e-002 5.000000e-001
      endloop
   endfacet
   facet normal 7.040481e-001 6.532934e-002 7.071410e-001
      outer loop
         vertex 4.976831e-001 4.125547e-002 8.660254e-001
         vertex 8.630675e-001 7.151581e-002 5.000000e-001
         vertex 4.968561e-001 5.598224e-002 8.660254e-001
      endloop
   endfacet
   facet normal 7.020817e-001 8.274810e-002 7.072722e-001
      outer loop
         vertex 4.968561e-001 5.598224e-002 8.660254e-001
         vertex 8.630675e-001 7.151581e-002 5.000000e-001
         vertex 8.550990e-001 1.354433e-001 5.000000e-001
      endloop
   endfacet
   facet normal 6.996033e-001 1.020728e-001 7.072031e-001
      outer loop
         vertex 4.968561e-001 5.598224e-002 8.660254e-001
         vertex 8.550990e-001 1.354433e-001 5.000000e-001
         vertex 4.924073e-001 8.216590e-002 8.660254e-001
      endloop
   endfacet
   facet normal 6.977780e-001 1.144643e-001 7.071095e-001
      outer loop
         vertex 4.924073e-001 8.216590e-002 8.660254e-001
         vertex 8.550990e-001 1.354433e-001 5.000000e-001
         vertex 8.542140e-001 1.425431e-001 5.000000e-001
      endloop
   endfacet
   facet normal 6.949027e-001 1.300634e-001 7.072437e-001
      outer loop
         vertex 4.924073e-001 8.216590e-002 8.660254e-001
         vertex 8.542140e-001 1.425431e-001 5.000000e-001
         vertex 4.874640e-001 1.112605e-001 8.660254e-001
      endloop
   endfacet
   facet normal 6.916336e-001 1.463052e-001 7.072747e-001
      outer loop
         vertex 4.874640e-001 1.112605e-001 8.660254e-001
         vertex 8.542140e-001 1.425431e-001 5.000000e-001
         vertex 8.417279e-001 2.020922e-001 5.000000e-001
      endloop
   endfacet
   facet normal 6.874896e-001 1.653327e-001 7.071232e-001
      outer loop
         vertex 4.874640e-001 1.112605e-001 8.660254e-001
         vertex 8.417279e-001 2.020922e-001 5.000000e-001
         vertex 4.841977e-001 1.225980e-001 8.660254e-001
      endloop
   endfacet
   facet normal 6.861766e-001 1.707432e-001 7.071128e-001
      outer loop
         vertex 8.417279e-001 2.020922e-001 5.000000e-001
         vertex 8.395252e-001 2.125967e-001 5.000000e-001
         vertex 4.841977e-001 1.225980e-001 8.660254e-001
      endloop
   endfacet
   facet normal 6.813125e-001 1.886001e-001 7.072787e-001
      outer loop
         vertex 4.841977e-001 1.225980e-001 8.660254e-001
         vertex 8.395252e-001 2.125967e-001 5.000000e-001
         vertex 8.231853e-001 2.674815e-001 5.000000e-001
      endloop
   endfacet
   facet normal 6.758028e-001 2.072949e-001 7.073326e-001
      outer loop
         vertex 4.841977e-001 1.225980e-001 8.660254e-001
         vertex 8.231853e-001 2.674815e-001 5.000000e-001
         vertex 4.727579e-001 1.623063e-001 8.660254e-001
      endloop
   endfacet
   facet normal 6.700367e-001 2.259108e-001 7.071175e-001
      outer loop
         vertex 4.727579e-001 1.623063e-001 8.660254e-001
         vertex 8.231853e-001 2.674815e-001 5.000000e-001
         vertex 8.191018e-001 2.811980e-001 5.000000e-001
      endloop
   endfacet
   facet normal 6.683381e-001 2.309163e-001 7.071081e-001
      outer loop
         vertex 4.727579e-001 1.623063e-001 8.660254e-001
         vertex 8.191018e-001 2.811980e-001 5.000000e-001
         vertex 4.719416e-001 1.651395e-001 8.660254e-001
      endloop
   endfacet
   facet normal 6.632955e-001 2.446299e-001 7.072449e-001
      outer loop
         vertex 4.719416e-001 1.651395e-001 8.660254e-001
         vertex 8.191018e-001 2.811980e-001 5.000000e-001
         vertex 7.995863e-001 3.312119e-001 5.000000e-001
      endloop
   endfacet
   facet normal 6.562546e-001 2.628055e-001 7.072929e-001
      outer loop
         vertex 4.719416e-001 1.651395e-001 8.660254e-001
         vertex 7.995863e-001 3.312119e-001 5.000000e-001
         vertex 4.572586e-001 2.005876e-001 8.660254e-001
      endloop
   endfacet
   facet normal 6.494717e-001 2.795760e-001 7.071235e-001
      outer loop
         vertex 4.572586e-001 2.005876e-001 8.660254e-001
         vertex 7.995863e-001 3.312119e-001 5.000000e-001
         vertex 7.930830e-001 3.478784e-001 5.000000e-001
      endloop
   endfacet
   facet normal 6.441023e-001 2.916548e-001 7.071561e-001
      outer loop
         vertex 4.572586e-001 2.005876e-001 8.660254e-001
         vertex 7.930830e-001 3.478784e-001 5.000000e-001
         vertex 4.504844e-001 2.169419e-001 8.660254e-001
      endloop
   endfacet
   facet normal 6.383119e-001 3.040001e-001 7.072071e-001
      outer loop
         vertex 4.504844e-001 2.169419e-001 8.660254e-001
         vertex 7.930830e-001 3.478784e-001 5.000000e-001
         vertex 7.710760e-001 3.928944e-001 5.000000e-001
      endloop
   endfacet
   facet normal 6.297255e-001 3.214854e-001 7.071726e-001
      outer loop
         vertex 4.504844e-001 2.169419e-001 8.660254e-001
         vertex 7.710760e-001 3.928944e-001 5.000000e-001
         vertex 4.390656e-001 2.376027e-001 8.660254e-001
      endloop
   endfacet
   facet normal 6.246217e-001 3.313813e-001 7.071309e-001
      outer loop
         vertex 4.390656e-001 2.376027e-001 8.660254e-001
         vertex 7.710760e-001 3.928944e-001 5.000000e-001
         vertex 7.616466e-001 4.121825e-001 5.000000e-001
      endloop
   endfacet
   facet normal 6.143082e-001 3.498441e-001 7.072726e-001
      outer loop
         vertex 4.390656e-001 2.376027e-001 8.660254e-001
         vertex 7.616466e-001 4.121825e-001 5.000000e-001
         vertex 4.233621e-001 2.660160e-001 8.660254e-001
      endloop
   endfacet
   facet normal 6.079589e-001 3.608116e-001 7.072488e-001
      outer loop
         vertex 4.233621e-001 2.660160e-001 8.660254e-001
         vertex 7.616466e-001 4.121825e-001 5.000000e-001
         vertex 7.378297e-001 4.521524e-001 5.000000e-001
      endloop
   endfacet
   facet normal 5.978901e-001 3.774811e-001 7.071318e-001
      outer loop
         vertex 4.233621e-001 2.660160e-001 8.660254e-001
         vertex 7.378297e-001 4.521524e-001 5.000000e-001
         vertex 4.182421e-001 2.732320e-001 8.660254e-001
      endloop
   endfacet
   facet normal 5.956439e-001 3.810012e-001 7.071396e-001
      outer loop
         vertex 7.378297e-001 4.521524e-001 5.000000e-001
         vertex 7.250074e-001 4.736710e-001 5.000000e-001
         vertex 4.182421e-001 2.732320e-001 8.660254e-001
      endloop
   endfacet
   facet normal 5.854145e-001 3.964254e-001 7.072035e-001
      outer loop
         vertex 4.182421e-001 2.732320e-001 8.660254e-001
         vertex 7.250074e-001 4.736710e-001 5.000000e-001
         vertex 7.000512e-001 5.086243e-001 5.000000e-001
      endloop
   endfacet
   facet normal 5.741767e-001 4.123495e-001 7.073111e-001
      outer loop
         vertex 4.182421e-001 2.732320e-001 8.660254e-001
         vertex 7.000512e-001 5.086243e-001 5.000000e-001
         vertex 3.943286e-001 3.069349e-001 8.660254e-001
      endloop
   endfacet
   facet normal 5.627210e-001 4.281172e-001 7.071498e-001
      outer loop
         vertex 3.943286e-001 3.069349e-001 8.660254e-001
         vertex 7.000512e-001 5.086243e-001 5.000000e-001
         vertex 6.834157e-001 5.319238e-001 5.000000e-001
      endloop
   endfacet
   facet normal 5.562844e-001 4.365088e-001 7.071123e-001
      outer loop
         vertex 3.943286e-001 3.069349e-001 8.660254e-001
         vertex 6.834157e-001 5.319238e-001 5.000000e-001
         vertex 3.909158e-001 3.117449e-001 8.660254e-001
      endloop
   endfacet
   facet normal 5.495615e-001 4.448476e-001 7.071724e-001
      outer loop
         vertex 3.909158e-001 3.117449e-001 8.660254e-001
         vertex 6.834157e-001 5.319238e-001 5.000000e-001
         vertex 6.579720e-001 5.619652e-001 5.000000e-001
      endloop
   endfacet
   facet normal 5.370291e-001 4.597718e-001 7.072549e-001
      outer loop
         vertex 3.909158e-001 3.117449e-001 8.660254e-001
         vertex 6.579720e-001 5.619652e-001 5.000000e-001
         vertex 3.673161e-001 3.381529e-001 8.660254e-001
      endloop
   endfacet
   facet normal 5.260894e-001 4.723907e-001 7.071612e-001
      outer loop
         vertex 3.673161e-001 3.381529e-001 8.660254e-001
         vertex 6.579720e-001 5.619652e-001 5.000000e-001
         vertex 6.371556e-001 5.865431e-001 5.000000e-001
      endloop
   endfacet
   facet normal 5.135356e-001 4.859901e-001 7.071739e-001
      outer loop
         vertex 3.673161e-001 3.381529e-001 8.660254e-001
         vertex 6.371556e-001 5.865431e-001 5.000000e-001
         vertex 3.535534e-001 3.535534e-001 8.660254e-001
      endloop
   endfacet
   facet normal 5.067932e-001 4.930170e-001 7.071739e-001
      outer loop
         vertex 3.535534e-001 3.535534e-001 8.660254e-001
         vertex 6.371556e-001 5.865431e-001 5.000000e-001
         vertex 6.118493e-001 6.118493e-001 5.000000e-001
      endloop
   endfacet
   facet normal 4.930207e-001 5.067897e-001 7.071738e-001
      outer loop
         vertex 3.535534e-001 3.535534e-001 8.660254e-001
         vertex 6.118493e-001 6.118493e-001 5.000000e-001
         vertex 3.381529e-001 3.673161e-001 8.660254e-001
      endloop
   endfacet
   facet normal 4.859901e-001 5.135356e-001 7.071739e-001
      outer loop
         vertex 6.118493e-001 6.118493e-001 5.000000e-001
         vertex 5.865431e-001 6.371556e-001 5.000000e-001
         vertex 3.381529e-001 3.673161e-001 8.660254e-001
      endloop
   endfacet
   facet normal 4.723907e-001 5.260894e-001 7.071612e-001
      outer loop
         vertex 3.381529e-001 3.673161e-001 8.660254e-001
         vertex 5.865431e-001 6.371556e-001 5.000000e-001
         vertex 5.619652e-001 6.579720e-001 5.000000e-001
      endloop
   endfacet
   facet normal 4.597718e-001 5.370291e-001 7.072549e-001
      outer loop
         vertex 3.381529e-001 3.673161e-001 8.660254e-001
         vertex 5.619652e-001 6.579720e-001 5.000000e-001
         vertex 3.117449e-001 3.909158e-001 8.660254e-001
      endloop
   endfacet
   facet normal 4.448476e-001 5.495615e-001 7.071724e-001
      outer loop
         vertex 3.117449e-001 3.909158e-001 8.660254e-001
         vertex 5.619652e-001 6.579720e-001 5.000000e-001
         vertex 5.319238e-001 6.834157e-001 5.000000e-001
      endloop
   endfacet
   facet normal 4.365088e-001 5.562843e-001 7.071123e-001
      outer loop
         vertex 3.117449e-001 3.909158e-001 8.660254e-001
         vertex 5.319238e-001 6.834157e-001 5.000000e-001
         vertex 3.069349e-001 3.943286e-001 8.660254e-001
      endloop
   endfacet
   facet normal 4.281172e-001 5.627210e-001 7.071497e-001
      outer loop
         vertex 3.069349e-001 3.943286e-001 8.660254e-001
         vertex 5.319238e-001 6.834157e-001 5.000000e-001
         vertex 5.086243e-001 7.000512e-001 5.000000e-001
      endloop
   endfacet
   facet normal 4.123495e-001 5.741767e-001 7.073111e-001
      outer loop
         vertex 3.069349e-001 3.943286e-001 8.660254e-001
         vertex 5.086243e-001 7.000512e-001 5.000000e-001
         vertex 2.732320e-001 4.182421e-001 8.660254e-001
      endloop
   endfacet
   facet normal 3.964254e-001 5.854145e-001 7.072036e-001
      outer loop
         vertex 2.732320e-001 4.182421e-001 8.660254e-001
         vertex 5.086243e-001 7.000512e-001 5.000000e-001
         vertex 4.736710e-001 7.250074e-001 5.000000e-001
      endloop
   endfacet
   facet normal 3.832353e-001 5.942334e-001 7.071190e-001
      outer loop
         vertex 2.732320e-001 4.182421e-001 8.660254e-001
         vertex 4.736710e-001 7.250074e-001 5.000000e-001
         vertex 2.660160e-001 4.233621e-001 8.660254e-001
      endloop
   endfacet
   facet normal 3.774875e-001 5.978861e-001 7.071319e-001
      outer loop
         vertex 2.660160e-001 4.233621e-001 8.660254e-001
         vertex 4.736710e-001 7.250074e-001 5.000000e-001
         vertex 4.521524e-001 7.378297e-001 5.000000e-001
      endloop
   endfacet
   facet normal 3.608088e-001 6.079605e-001 7.072489e-001
      outer loop
         vertex 2.660160e-001 4.233621e-001 8.660254e-001
         vertex 4.521524e-001 7.378297e-001 5.000000e-001
         vertex 2.376027e-001 4.390656e-001 8.660254e-001
      endloop
   endfacet
   facet normal 3.475727e-001 6.156563e-001 7.072203e-001
      outer loop
         vertex 2.376027e-001 4.390656e-001 8.660254e-001
         vertex 4.521524e-001 7.378297e-001 5.000000e-001
         vertex 4.121825e-001 7.616466e-001 5.000000e-001
      endloop
   endfacet
   facet normal 3.266688e-001 6.270275e-001 7.071944e-001
      outer loop
         vertex 2.376027e-001 4.390656e-001 8.660254e-001
         vertex 4.121825e-001 7.616466e-001 5.000000e-001
         vertex 2.169419e-001 4.504844e-001 8.660254e-001
      endloop
   endfacet
   facet normal 3.214883e-001 6.297240e-001 7.071726e-001
      outer loop
         vertex 2.169419e-001 4.504844e-001 8.660254e-001
         vertex 4.121825e-001 7.616466e-001 5.000000e-001
         vertex 3.928944e-001 7.710760e-001 5.000000e-001
      endloop
   endfacet
   facet normal 3.040062e-001 6.383091e-001 7.072070e-001
      outer loop
         vertex 2.169419e-001 4.504844e-001 8.660254e-001
         vertex 3.928944e-001 7.710760e-001 5.000000e-001
         vertex 2.005876e-001 4.572586e-001 8.660254e-001
      endloop
   endfacet
   facet normal 2.964313e-001 6.418273e-001 7.072383e-001
      outer loop
         vertex 3.928944e-001 7.710760e-001 5.000000e-001
         vertex 3.478784e-001 7.930830e-001 5.000000e-001
         vertex 2.005876e-001 4.572586e-001 8.660254e-001
      endloop
   endfacet
   facet normal 2.795760e-001 6.494717e-001 7.071235e-001
      outer loop
         vertex 2.005876e-001 4.572586e-001 8.660254e-001
         vertex 3.478784e-001 7.930830e-001 5.000000e-001
         vertex 3.312119e-001 7.995863e-001 5.000000e-001
      endloop
   endfacet
   facet normal 2.628055e-001 6.562546e-001 7.072929e-001
      outer loop
         vertex 2.005876e-001 4.572586e-001 8.660254e-001
         vertex 3.312119e-001 7.995863e-001 5.000000e-001
         vertex 1.651395e-001 4.719416e-001 8.660254e-001
      endloop
   endfacet
   facet normal 2.446299e-001 6.632955e-001 7.072449e-001
      outer loop
         vertex 1.651395e-001 4.719416e-001 8.660254e-001
         vertex 3.312119e-001 7.995863e-001 5.000000e-001
         vertex 2.811980e-001 8.191018e-001 5.000000e-001
      endloop
   endfacet
   facet normal 2.309163e-001 6.683380e-001 7.071081e-001
      outer loop
         vertex 1.651395e-001 4.719416e-001 8.660254e-001
         vertex 2.811980e-001 8.191018e-001 5.000000e-001
         vertex 1.623063e-001 4.727579e-001 8.660254e-001
      endloop
   endfacet
   facet normal 2.259108e-001 6.700367e-001 7.071175e-001
      outer loop
         vertex 1.623063e-001 4.727579e-001 8.660254e-001
         vertex 2.811980e-001 8.191018e-001 5.000000e-001
         vertex 2.674815e-001 8.231853e-001 5.000000e-001
      endloop
   endfacet
   facet normal 2.072949e-001 6.758028e-001 7.073326e-001
      outer loop
         vertex 1.623063e-001 4.727579e-001 8.660254e-001
         vertex 2.674815e-001 8.231853e-001 5.000000e-001
         vertex 1.225980e-001 4.841977e-001 8.660254e-001
      endloop
   endfacet
   facet normal 1.886001e-001 6.813125e-001 7.072788e-001
      outer loop
         vertex 1.225980e-001 4.841977e-001 8.660254e-001
         vertex 2.674815e-001 8.231853e-001 5.000000e-001
         vertex 2.125967e-001 8.395252e-001 5.000000e-001
      endloop
   endfacet
   facet normal 1.681691e-001 6.867957e-001 7.071286e-001
      outer loop
         vertex 1.225980e-001 4.841977e-001 8.660254e-001
         vertex 2.125967e-001 8.395252e-001 5.000000e-001
         vertex 1.112605e-001 4.874640e-001 8.660254e-001
      endloop
   endfacet
   facet normal 1.653405e-001 6.874877e-001 7.071232e-001
      outer loop
         vertex 1.112605e-001 4.874640e-001 8.660254e-001
         vertex 2.125967e-001 8.395252e-001 5.000000e-001
         vertex 2.020922e-001 8.417279e-001 5.000000e-001
      endloop
   endfacet
   facet normal 1.463042e-001 6.916339e-001 7.072747e-001
      outer loop
         vertex 1.112605e-001 4.874640e-001 8.660254e-001
         vertex 2.020922e-001 8.417279e-001 5.000000e-001
         vertex 8.216590e-002 4.924073e-001 8.660254e-001
      endloop
   endfacet
   facet normal 1.850075e-002 7.066222e-001 7.073492e-001
      outer loop
         vertex 6.764733e-016 8.660254e-001 5.000000e-001
         vertex 2.007646e-015 5.000000e-001 8.660254e-001
         vertex 6.794176e-002 8.632153e-001 5.000000e-001
      endloop
   endfacet
   facet normal 3.797991e-002 7.058297e-001 7.073627e-001
      outer loop
         vertex 6.794176e-002 8.632153e-001 5.000000e-001
         vertex 2.007646e-015 5.000000e-001 8.660254e-001
         vertex 4.125547e-002 4.976831e-001 8.660254e-001
      endloop
   endfacet
   facet normal 5.743036e-002 7.047700e-001 7.071074e-001
      outer loop
         vertex 6.794176e-002 8.632153e-001 5.000000e-001
         vertex 4.125547e-002 4.976831e-001 8.660254e-001
         vertex 7.151581e-002 8.630675e-001 5.000000e-001
      endloop
   endfacet
   facet normal 6.532934e-002 7.040481e-001 7.071410e-001
      outer loop
         vertex 7.151581e-002 8.630675e-001 5.000000e-001
         vertex 4.125547e-002 4.976831e-001 8.660254e-001
         vertex 5.598224e-002 4.968561e-001 8.660254e-001
      endloop
   endfacet
   facet normal 8.274810e-002 7.020817e-001 7.072722e-001
      outer loop
         vertex 7.151581e-002 8.630675e-001 5.000000e-001
         vertex 5.598224e-002 4.968561e-001 8.660254e-001
         vertex 1.354433e-001 8.550990e-001 5.000000e-001
      endloop
   endfacet
   facet normal 1.020728e-001 6.996033e-001 7.072031e-001
      outer loop
         vertex 1.354433e-001 8.550990e-001 5.000000e-001
         vertex 5.598224e-002 4.968561e-001 8.660254e-001
         vertex 8.216590e-002 4.924073e-001 8.660254e-001
      endloop
   endfacet
   facet normal 1.144643e-001 6.977780e-001 7.071095e-001
      outer loop
         vertex 1.354433e-001 8.550990e-001 5.000000e-001
         vertex 8.216590e-002 4.924073e-001 8.660254e-001
         vertex 1.425431e-001 8.542140e-001 5.000000e-001
      endloop
   endfacet
   facet normal 1.326524e-001 6.943550e-001 7.073008e-001
      outer loop
         vertex 1.425431e-001 8.542140e-001 5.000000e-001
         vertex 8.216590e-002 4.924073e-001 8.660254e-001
         vertex 2.020922e-001 8.417279e-001 5.000000e-001
      endloop
   endfacet
   facet normal 2.527805e-002 9.655505e-001 2.589846e-001
      outer loop
         vertex 7.845910e-002 9.969174e-001 3.060437e-016
         vertex 9.957993e-017 1.000000e+000 3.252607e-016
         vertex 6.764733e-016 8.660254e-001 5.000000e-001
      endloop
   endfacet
   facet normal 9.645573e-001 5.055804e-002 2.589846e-001
      outer loop
         vertex 9.969174e-001 7.845910e-002 8.108632e-017
         vertex 8.632153e-001 6.794176e-002 5.000000e-001
         vertex 1.000000e+000 2.416436e-016 8.033128e-017
      endloop
   endfacet
   facet normal 9.655505e-001 2.527999e-002 2.589847e-001
      outer loop
         vertex 1.000000e+000 2.416436e-016 8.033128e-017
         vertex 8.632153e-001 6.794176e-002 5.000000e-001
         vertex 8.660254e-001 2.092695e-016 5.000000e-001
      endloop
   endfacet
   facet normal 9.447725e-001 2.008277e-001 2.589847e-001
      outer loop
         vertex 9.876883e-001 1.564345e-001 8.334677e-017
         vertex 9.723699e-001 2.334454e-001 8.709870e-017
         vertex 8.417279e-001 2.020922e-001 5.000000e-001
      endloop
   endfacet
   facet normal 9.492232e-001 1.786345e-001 2.589691e-001
      outer loop
         vertex 8.417279e-001 2.020922e-001 5.000000e-001
         vertex 8.542140e-001 1.425431e-001 5.000000e-001
         vertex 9.876883e-001 1.564345e-001 8.334677e-017
      endloop
   endfacet
   facet normal 9.536126e-001 1.537358e-001 2.588209e-001
      outer loop
         vertex 9.876883e-001 1.564345e-001 8.334677e-017
         vertex 8.542140e-001 1.425431e-001 5.000000e-001
         vertex 8.550990e-001 1.354433e-001 5.000000e-001
      endloop
   endfacet
   facet normal 9.576170e-001 1.260818e-001 2.589846e-001
      outer loop
         vertex 9.876883e-001 1.564345e-001 8.334677e-017
         vertex 8.550990e-001 1.354433e-001 5.000000e-001
         vertex 9.969174e-001 7.845910e-002 8.108632e-017
      endloop
   endfacet
   facet normal 9.604526e-001 1.022838e-001 2.589764e-001
      outer loop
         vertex 9.969174e-001 7.845910e-002 8.108632e-017
         vertex 8.550990e-001 1.354433e-001 5.000000e-001
         vertex 8.630675e-001 7.151581e-002 5.000000e-001
      endloop
   endfacet
   facet normal 9.628426e-001 7.711437e-002 2.588195e-001
      outer loop
         vertex 9.969174e-001 7.845910e-002 8.108632e-017
         vertex 8.630675e-001 7.151581e-002 5.000000e-001
         vertex 8.632153e-001 6.794176e-002 5.000000e-001
      endloop
   endfacet
   facet normal 9.017244e-001 3.461503e-001 2.589847e-001
      outer loop
         vertex 9.510565e-001 3.090170e-001 9.231899e-017
         vertex 9.238796e-001 3.826835e-001 9.897542e-017
         vertex 7.995863e-001 3.312119e-001 5.000000e-001
      endloop
   endfacet
   facet normal 9.086958e-001 3.274342e-001 2.589571e-001
      outer loop
         vertex 7.995863e-001 3.312119e-001 5.000000e-001
         vertex 8.191018e-001 2.811980e-001 5.000000e-001
         vertex 9.510565e-001 3.090170e-001 9.231899e-017
      endloop
   endfacet
   facet normal 9.169878e-001 3.035496e-001 2.588263e-001
      outer loop
         vertex 9.510565e-001 3.090170e-001 9.231899e-017
         vertex 8.191018e-001 2.811980e-001 5.000000e-001
         vertex 8.231853e-001 2.674815e-001 5.000000e-001
      endloop
   endfacet
   facet normal 9.261033e-001 2.743349e-001 2.589847e-001
      outer loop
         vertex 9.510565e-001 3.090170e-001 9.231899e-017
         vertex 8.231853e-001 2.674815e-001 5.000000e-001
         vertex 9.723699e-001 2.334454e-001 8.709870e-017
      endloop
   endfacet
   facet normal 9.319342e-001 2.538446e-001 2.589627e-001
      outer loop
         vertex 9.723699e-001 2.334454e-001 8.709870e-017
         vertex 8.231853e-001 2.674815e-001 5.000000e-001
         vertex 8.395252e-001 2.125967e-001 5.000000e-001
      endloop
   endfacet
   facet normal 9.382951e-001 2.293751e-001 2.588232e-001
      outer loop
         vertex 9.723699e-001 2.334454e-001 8.709870e-017
         vertex 8.395252e-001 2.125967e-001 5.000000e-001
         vertex 8.417279e-001 2.020922e-001 5.000000e-001
      endloop
   endfacet
   facet normal 8.364734e-001 4.829484e-001 2.589846e-001
      outer loop
         vertex 8.910065e-001 4.539905e-001 1.070270e-016
         vertex 8.526402e-001 5.224985e-001 1.164240e-016
         vertex 7.378297e-001 4.521524e-001 5.000000e-001
      endloop
   endfacet
   facet normal 8.450019e-001 4.678859e-001 2.589489e-001
      outer loop
         vertex 7.378297e-001 4.521524e-001 5.000000e-001
         vertex 7.616466e-001 4.121825e-001 5.000000e-001
         vertex 8.910065e-001 4.539905e-001 1.070270e-016
      endloop
   endfacet
   facet normal 8.569859e-001 4.456226e-001 2.588356e-001
      outer loop
         vertex 8.910065e-001 4.539905e-001 1.070270e-016
         vertex 7.616466e-001 4.121825e-001 5.000000e-001
         vertex 7.710760e-001 3.928944e-001 5.000000e-001
      endloop
   endfacet
   facet normal 8.717862e-001 4.158314e-001 2.589847e-001
      outer loop
         vertex 8.910065e-001 4.539905e-001 1.070270e-016
         vertex 7.710760e-001 3.928944e-001 5.000000e-001
         vertex 9.238796e-001 3.826835e-001 9.897542e-017
      endloop
   endfacet
   facet normal 8.796566e-001 3.989334e-001 2.589526e-001
      outer loop
         vertex 9.238796e-001 3.826835e-001 9.897542e-017
         vertex 7.710760e-001 3.928944e-001 5.000000e-001
         vertex 7.930830e-001 3.478784e-001 5.000000e-001
      endloop
   endfacet
   facet normal 8.898269e-001 3.757858e-001 2.588305e-001
      outer loop
         vertex 9.238796e-001 3.826835e-001 9.897542e-017
         vertex 7.930830e-001 3.478784e-001 5.000000e-001
         vertex 7.995863e-001 3.312119e-001 5.000000e-001
      endloop
   endfacet
   facet normal 7.506265e-001 6.078542e-001 2.589846e-001
      outer loop
         vertex 8.090170e-001 5.877852e-001 1.271086e-016
         vertex 7.604060e-001 6.494481e-001 1.390149e-016
         vertex 6.579720e-001 5.619652e-001 5.000000e-001
      endloop
   endfacet
   facet normal 7.597659e-001 5.964091e-001 2.589443e-001
      outer loop
         vertex 6.579720e-001 5.619652e-001 5.000000e-001
         vertex 6.834157e-001 5.319238e-001 5.000000e-001
         vertex 8.090170e-001 5.877852e-001 1.271086e-016
      endloop
   endfacet
   facet normal 7.751372e-001 5.763330e-001 2.588484e-001
      outer loop
         vertex 8.090170e-001 5.877852e-001 1.271086e-016
         vertex 6.834157e-001 5.319238e-001 5.000000e-001
         vertex 7.000512e-001 5.086243e-001 5.000000e-001
      endloop
   endfacet
   facet normal 7.960037e-001 5.470879e-001 2.589846e-001
      outer loop
         vertex 8.090170e-001 5.877852e-001 1.271086e-016
         vertex 7.000512e-001 5.086243e-001 5.000000e-001
         vertex 8.526402e-001 5.224985e-001 1.164240e-016
      endloop
   endfacet
   facet normal 8.049532e-001 5.338515e-001 2.589461e-001
      outer loop
         vertex 8.526402e-001 5.224985e-001 1.164240e-016
         vertex 7.000512e-001 5.086243e-001 5.000000e-001
         vertex 7.250074e-001 4.736710e-001 5.000000e-001
      endloop
   endfacet
   facet normal 8.186744e-001 5.126142e-001 2.588415e-001
      outer loop
         vertex 8.526402e-001 5.224985e-001 1.164240e-016
         vertex 7.250074e-001 4.736710e-001 5.000000e-001
         vertex 7.378297e-001 4.521524e-001 5.000000e-001
      endloop
   endfacet
   facet normal 6.551595e-001 7.097284e-001 2.589433e-001
      outer loop
         vertex 6.494481e-001 7.604060e-001 1.661918e-016
         vertex 5.865431e-001 6.371556e-001 5.000000e-001
         vertex 7.071068e-001 7.071068e-001 1.520695e-016
      endloop
   endfacet
   facet normal 6.735291e-001 6.923494e-001 2.588649e-001
      outer loop
         vertex 7.071068e-001 7.071068e-001 1.520695e-016
         vertex 5.865431e-001 6.371556e-001 5.000000e-001
         vertex 6.118493e-001 6.118493e-001 5.000000e-001
      endloop
   endfacet
   facet normal 7.006217e-001 6.648731e-001 2.589846e-001
      outer loop
         vertex 7.071068e-001 7.071068e-001 1.520695e-016
         vertex 6.118493e-001 6.118493e-001 5.000000e-001
         vertex 7.604060e-001 6.494481e-001 1.390149e-016
      endloop
   endfacet
   facet normal 7.097284e-001 6.551595e-001 2.589433e-001
      outer loop
         vertex 7.604060e-001 6.494481e-001 1.390149e-016
         vertex 6.118493e-001 6.118493e-001 5.000000e-001
         vertex 6.371556e-001 5.865431e-001 5.000000e-001
      endloop
   endfacet
   facet normal 7.266523e-001 6.363725e-001 2.588562e-001
      outer loop
         vertex 7.604060e-001 6.494481e-001 1.390149e-016
         vertex 6.371556e-001 5.865431e-001 5.000000e-001
         vertex 6.579720e-001 5.619652e-001 5.000000e-001
      endloop
   endfacet
   facet normal 5.964082e-001 7.597665e-001 2.589442e-001
      outer loop
         vertex 5.877852e-001 8.090170e-001 1.812948e-016
         vertex 5.319238e-001 6.834157e-001 5.000000e-001
         vertex 6.494481e-001 7.604060e-001 1.661918e-016
      endloop
   endfacet
   facet normal 6.161067e-001 7.439063e-001 2.588745e-001
      outer loop
         vertex 6.494481e-001 7.604060e-001 1.661918e-016
         vertex 5.319238e-001 6.834157e-001 5.000000e-001
         vertex 5.619652e-001 6.579720e-001 5.000000e-001
      endloop
   endfacet
   facet normal 6.363725e-001 7.266523e-001 2.588562e-001
      outer loop
         vertex 6.494481e-001 7.604060e-001 1.661918e-016
         vertex 5.619652e-001 6.579720e-001 5.000000e-001
         vertex 5.865431e-001 6.371556e-001 5.000000e-001
      endloop
   endfacet
   facet normal 5.338497e-001 8.049543e-001 2.589461e-001
      outer loop
         vertex 5.224985e-001 8.526402e-001 1.972854e-016
         vertex 4.736710e-001 7.250074e-001 5.000000e-001
         vertex 5.877852e-001 8.090170e-001 1.812948e-016
      endloop
   endfacet
   facet normal 5.547517e-001 7.907143e-001 2.588851e-001
      outer loop
         vertex 5.877852e-001 8.090170e-001 1.812948e-016
         vertex 4.736710e-001 7.250074e-001 5.000000e-001
         vertex 5.086243e-001 7.000512e-001 5.000000e-001
      endloop
   endfacet
   facet normal 5.763330e-001 7.751372e-001 2.588484e-001
      outer loop
         vertex 5.877852e-001 8.090170e-001 1.812948e-016
         vertex 5.086243e-001 7.000512e-001 5.000000e-001
         vertex 5.319238e-001 6.834157e-001 5.000000e-001
      endloop
   endfacet
   facet normal 4.678832e-001 8.450035e-001 2.589488e-001
      outer loop
         vertex 4.539905e-001 8.910065e-001 2.140650e-016
         vertex 4.121825e-001 7.616466e-001 5.000000e-001
         vertex 5.224985e-001 8.526402e-001 1.972854e-016
      endloop
   endfacet
   facet normal 4.898558e-001 8.324746e-001 2.588966e-001
      outer loop
         vertex 5.224985e-001 8.526402e-001 1.972854e-016
         vertex 4.121825e-001 7.616466e-001 5.000000e-001
         vertex 4.521524e-001 7.378297e-001 5.000000e-001
      endloop
   endfacet
   facet normal 5.126142e-001 8.186744e-001 2.588415e-001
      outer loop
         vertex 5.224985e-001 8.526402e-001 1.972854e-016
         vertex 4.521524e-001 7.378297e-001 5.000000e-001
         vertex 4.736710e-001 7.250074e-001 5.000000e-001
      endloop
   endfacet
   facet normal 3.989299e-001 8.796582e-001 2.589525e-001
      outer loop
         vertex 3.826835e-001 9.238796e-001 2.315302e-016
         vertex 3.478784e-001 7.930830e-001 5.000000e-001
         vertex 4.539905e-001 8.910065e-001 2.140650e-016
      endloop
   endfacet
   facet normal 4.218333e-001 8.689205e-001 2.589090e-001
      outer loop
         vertex 4.539905e-001 8.910065e-001 2.140650e-016
         vertex 3.478784e-001 7.930830e-001 5.000000e-001
         vertex 3.928944e-001 7.710760e-001 5.000000e-001
      endloop
   endfacet
   facet normal 4.456226e-001 8.569859e-001 2.588356e-001
      outer loop
         vertex 4.539905e-001 8.910065e-001 2.140650e-016
         vertex 3.928944e-001 7.710760e-001 5.000000e-001
         vertex 4.121825e-001 7.616466e-001 5.000000e-001
      endloop
   endfacet
   facet normal 3.274302e-001 9.086972e-001 2.589571e-001
      outer loop
         vertex 3.090170e-001 9.510565e-001 2.495733e-016
         vertex 2.811980e-001 8.191018e-001 5.000000e-001
         vertex 3.826835e-001 9.238796e-001 2.315302e-016
      endloop
   endfacet
   facet normal 3.511183e-001 8.998196e-001 2.589223e-001
      outer loop
         vertex 3.826835e-001 9.238796e-001 2.315302e-016
         vertex 2.811980e-001 8.191018e-001 5.000000e-001
         vertex 3.312119e-001 7.995863e-001 5.000000e-001
      endloop
   endfacet
   facet normal 3.757858e-001 8.898268e-001 2.588305e-001
      outer loop
         vertex 3.826835e-001 9.238796e-001 2.315302e-016
         vertex 3.312119e-001 7.995863e-001 5.000000e-001
         vertex 3.478784e-001 7.930830e-001 5.000000e-001
      endloop
   endfacet
   facet normal 2.538404e-001 9.319353e-001 2.589626e-001
      outer loop
         vertex 2.334454e-001 9.723699e-001 2.680830e-016
         vertex 2.125967e-001 8.395252e-001 5.000000e-001
         vertex 3.090170e-001 9.510565e-001 2.495733e-016
      endloop
   endfacet
   facet normal 2.781622e-001 9.249744e-001 2.589365e-001
      outer loop
         vertex 3.090170e-001 9.510565e-001 2.495733e-016
         vertex 2.125967e-001 8.395252e-001 5.000000e-001
         vertex 2.674815e-001 8.231853e-001 5.000000e-001
      endloop
   endfacet
   facet normal 3.035496e-001 9.169877e-001 2.588264e-001
      outer loop
         vertex 3.090170e-001 9.510565e-001 2.495733e-016
         vertex 2.674815e-001 8.231853e-001 5.000000e-001
         vertex 2.811980e-001 8.191018e-001 5.000000e-001
      endloop
   endfacet
   facet normal 1.786305e-001 9.492240e-001 2.589690e-001
      outer loop
         vertex 1.564345e-001 9.876883e-001 2.869452e-016
         vertex 1.425431e-001 8.542140e-001 5.000000e-001
         vertex 2.334454e-001 9.723699e-001 2.680830e-016
      endloop
   endfacet
   facet normal 2.034307e-001 9.442245e-001 2.589516e-001
      outer loop
         vertex 2.334454e-001 9.723699e-001 2.680830e-016
         vertex 1.425431e-001 8.542140e-001 5.000000e-001
         vertex 2.020922e-001 8.417279e-001 5.000000e-001
      endloop
   endfacet
   facet normal 2.293751e-001 9.382951e-001 2.588232e-001
      outer loop
         vertex 2.334454e-001 9.723699e-001 2.680830e-016
         vertex 2.020922e-001 8.417279e-001 5.000000e-001
         vertex 2.125967e-001 8.395252e-001 5.000000e-001
      endloop
   endfacet
   facet normal 5.055804e-002 9.645573e-001 2.589846e-001
      outer loop
         vertex 6.764733e-016 8.660254e-001 5.000000e-001
         vertex 6.794176e-002 8.632153e-001 5.000000e-001
         vertex 7.845910e-002 9.969174e-001 3.060437e-016
      endloop
   endfacet
   facet normal 7.711437e-002 9.628426e-001 2.588195e-001
      outer loop
         vertex 7.845910e-002 9.969174e-001 3.060437e-016
         vertex 6.794176e-002 8.632153e-001 5.000000e-001
         vertex 7.151581e-002 8.630675e-001 5.000000e-001
      endloop
   endfacet
   facet normal 1.022806e-001 9.604530e-001 2.589763e-001
      outer loop
         vertex 7.845910e-002 9.969174e-001 3.060437e-016
         vertex 7.151581e-002 8.630675e-001 5.000000e-001
         vertex 1.564345e-001 9.876883e-001 2.869452e-016
      endloop
   endfacet
   facet normal 1.274009e-001 9.574470e-001 2.589677e-001
      outer loop
         vertex 1.564345e-001 9.876883e-001 2.869452e-016
         vertex 7.151581e-002 8.630675e-001 5.000000e-001
         vertex 1.354433e-001 8.550990e-001 5.000000e-001
      endloop
   endfacet
   facet normal 1.537358e-001 9.536126e-001 2.588209e-001
      outer loop
         vertex 1.564345e-001 9.876883e-001 2.869452e-016
         vertex 1.354433e-001 8.550990e-001 5.000000e-001
         vertex 1.425431e-001 8.542140e-001 5.000000e-001
      endloop
   endfacet
   facet normal -2.449294e-016 0.000000e+000 -1.000000e+000
      outer loop
         vertex 8.910065e-001 4.539905e-001 1.542149e-016
         vertex 9.238796e-001 3.826835e-001 1.461633e-016
         vertex 3.491481e-015 0.000000e+000 3.724485e-016
      endloop
   endfacet
   facet normal -2.449294e-016 0.000000e+000 -1.000000e+000
      outer loop
         vertex 3.491481e-015 0.000000e+000 3.724485e-016
         vertex 9.238796e-001 3.826835e-001 1.461633e-016
         vertex 9.510565e-001 3.090170e-001 1.395069e-016
      endloop
   endfacet
   facet normal -2.449294e-016 0.000000e+000 -1.000000e+000
      outer loop
         vertex 3.491481e-015 0.000000e+000 3.724485e-016
         vertex 9.510565e-001 3.090170e-001 1.395069e-016
         vertex 9.723699e-001 2.334454e-001 1.342866e-016
      endloop
   endfacet
   facet normal -2.449294e-016 0.000000e+000 -1.000000e+000
      outer loop
         vertex 9.723699e-001 2.334454e-001 1.342866e-016
         vertex 9.876883e-001 1.564345e-001 1.305347e-016
         vertex 3.491481e-015 0.000000e+000 3.724485e-016
      endloop
   endfacet
   facet normal -2.449294e-016 0.000000e+000 -1.000000e+000
      outer loop
         vertex 3.491481e-015 0.000000e+000 3.724485e-016
         vertex 9.876883e-001 1.564345e-001 1.305347e-016
         vertex 9.969174e-001 7.845910e-002 1.282742e-016
      endloop
   endfacet
   facet normal -2.449294e-016 0.000000e+000 -1.000000e+000
      outer loop
         vertex 3.491481e-015 0.000000e+000 3.724485e-016
         vertex 9.969174e-001 7.845910e-002 1.282742e-016
         vertex 1.000000e+000 0.000000e+000 1.275192e-016
      endloop
   endfacet
   facet normal -2.449294e-016 0.000000e+000 -1.000000e+000
      outer loop
         vertex 1.564345e-001 9.876883e-001 3.341331e-016
         vertex 3.491481e-015 0.000000e+000 3.724485e-016
         vertex 7.845910e-002 9.969174e-001 3.532316e-016
      endloop
   endfacet
   facet normal -2.449294e-016 0.000000e+000 -1.000000e+000
      outer loop
         vertex 7.845910e-002 9.969174e-001 3.532316e-016
         vertex 3.491481e-015 0.000000e+000 3.724485e-016
         vertex 9.957993e-017 1.000000e+000 3.724485e-016
      endloop
   endfacet
   facet normal -2.449294e-016 0.000000e+000 -1.000000e+000
      outer loop
         vertex 1.564345e-001 9.876883e-001 3.341331e-016
         vertex 2.334454e-001 9.723699e-001 3.152709e-016
         vertex 3.491481e-015 0.000000e+000 3.724485e-016
      endloop
   endfacet
   facet normal -2.449294e-016 0.000000e+000 -1.000000e+000
      outer loop
         vertex 3.491481e-015 0.000000e+000 3.724485e-016
         vertex 2.334454e-001 9.723699e-001 3.152709e-016
         vertex 3.090170e-001 9.510565e-001 2.967612e-016
      endloop
   endfacet
   facet normal -2.449294e-016 0.000000e+000 -1.000000e+000
      outer loop
         vertex 3.491481e-015 0.000000e+000 3.724485e-016
         vertex 3.090170e-001 9.510565e-001 2.967612e-016
         vertex 3.826835e-001 9.238796e-001 2.787181e-016
      endloop
   endfacet
   facet normal -2.449294e-016 0.000000e+000 -1.000000e+000
      outer loop
         vertex 3.826835e-001 9.238796e-001 2.787181e-016
         vertex 4.539905e-001 8.910065e-001 2.612529e-016
         vertex 3.491481e-015 0.000000e+000 3.724485e-016
      endloop
   endfacet
   facet normal -2.449294e-016 0.000000e+000 -1.000000e+000
      outer loop
         vertex 3.491481e-015 0.000000e+000 3.724485e-016
         vertex 4.539905e-001 8.910065e-001 2.612529e-016
         vertex 5.224985e-001 8.526402e-001 2.444733e-016
      endloop
   endfacet
   facet normal -2.449294e-016 0.000000e+000 -1.000000e+000
      outer loop
         vertex 3.491481e-015 0.000000e+000 3.724485e-016
         vertex 5.224985e-001 8.526402e-001 2.444733e-016
         vertex 5.877852e-001 8.090170e-001 2.284827e-016
      endloop
   endfacet
   facet normal -2.449294e-016 0.000000e+000 -1.000000e+000
      outer loop
         vertex 5.877852e-001 8.090170e-001 2.284827e-016
         vertex 6.494481e-001 7.604060e-001 2.133796e-016
         vertex 3.491481e-015 0.000000e+000 3.724485e-016
      endloop
   endfacet
   facet normal -2.449294e-016 0.000000e+000 -1.000000e+000
      outer loop
         vertex 3.491481e-015 0.000000e+000 3.724485e-016
         vertex 6.494481e-001 7.604060e-001 2.133796e-016
         vertex 7.071068e-001 7.071068e-001 1.992573e-016
      endloop
   endfacet
   facet normal -2.449294e-016 0.000000e+000 -1.000000e+000
      outer loop
         vertex 3.491481e-015 0.000000e+000 3.724485e-016
         vertex 7.071068e-001 7.071068e-001 1.992573e-016
         vertex 7.604060e-001 6.494481e-001 1.862028e-016
      endloop
   endfacet
   facet normal -2.449294e-016 0.000000e+000 -1.000000e+000
      outer loop
         vertex 7.604060e-001 6.494481e-001 1.862028e-016
         vertex 8.090170e-001 5.877852e-001 1.742965e-016
         vertex 3.491481e-015 0.000000e+000 3.724485e-016
      endloop
   endfacet
   facet normal -2.449294e-016 0.000000e+000 -1.000000e+000
      outer loop
         vertex 3.491481e-015 0.000000e+000 3.724485e-016
         vertex 8.090170e-001 5.877852e-001 1.742965e-016
         vertex 8.526402e-001 5.224985e-001 1.636119e-016
      endloop
   endfacet
   facet normal -2.449294e-016 0.000000e+000 -1.000000e+000
      outer loop
         vertex 3.491481e-015 0.000000e+000 3.724485e-016
         vertex 8.526402e-001 5.224985e-001 1.636119e-016
         vertex 8.910065e-001 4.539905e-001 1.542149e-016
      endloop
   endfacet
   facet normal -1.000000e+000 -3.491481e-015 2.449294e-016
      outer loop
         vertex 3.736411e-015 4.814825e-032 1.000000e+000
         vertex 1.957856e-015 5.000000e-001 8.660254e-001
         vertex 3.491481e-015 0.000000e+000 4.336809e-016
      endloop
   endfacet
   facet normal -1.000000e+000 -3.491481e-015 2.449294e-016
      outer loop
         vertex 3.491481e-015 0.000000e+000 4.336809e-016
         vertex 1.957856e-015 5.000000e-001 8.660254e-001
         vertex 5.902345e-016 8.660254e-001 5.000000e-001
      endloop
   endfacet
   facet normal -1.000000e+000 -3.491481e-015 2.449294e-016
      outer loop
         vertex 3.491481e-015 0.000000e+000 4.336809e-016
         vertex 5.902345e-016 8.660254e-001 5.000000e-001
         vertex 0.000000e+000 1.000000e+000 3.112162e-016
      endloop
   endfacet
   facet normal 0.000000e+000 -1.000000e+000 0.000000e+000
      outer loop
         vertex 5.000000e-001 0.000000e+000 8.660254e-001
         vertex 3.736411e-015 0.000000e+000 1.000000e+000
         vertex 8.660254e-001 0.000000e+000 5.000000e-001
      endloop
   endfacet
   facet normal 0.000000e+000 -1.000000e+000 0.000000e+000
      outer loop
         vertex 8.660254e-001 0.000000e+000 5.000000e-001
         vertex 3.736411e-015 0.000000e+000 1.000000e+000
         vertex 3.491481e-015 0.000000e+000 4.336809e-016
      endloop
   endfacet
   facet normal 0.000000e+000 -1.000000e+000 0.000000e+000
      outer loop
         vertex 8.660254e-001 0.000000e+000 5.000000e-001
         vertex 3.491481e-015 0.000000e+000 4.336809e-016
         vertex 1.000000e+000 0.000000e+000 8.033128e-017
      endloop
   endfacet
endsolid