solid Панель левый
   facet normal 1.000000e+000 0.000000e+000 -2.449294e-016
      outer loop
         vertex 1.000000e+000 1.000000e+000 0.000000e+000
         vertex 1.000000e+000 1.000000e+000 1.000000e+000
         vertex 1.000000e+000 0.000000e+000 0.000000e+000
      endloop
   endfacet
   facet normal 1.000000e+000 0.000000e+000 -2.449294e-016
      outer loop
         vertex 1.000000e+000 0.000000e+000 0.000000e+000
         vertex 1.000000e+000 1.000000e+000 1.000000e+000
         vertex 1.000000e+000 0.000000e+000 1.000000e+000
      endloop
   endfacet
   facet normal -1.224647e-016 0.000000e+000 -1.000000e+000
      outer loop
         vertex 0.000000e+000 1.000000e+000 1.224647e-016
         vertex 1.000000e+000 1.000000e+000 0.000000e+000
         vertex 0.000000e+000 0.000000e+000 1.224647e-016
      endloop
   endfacet
   facet normal -1.224647e-016 0.000000e+000 -1.000000e+000
      outer loop
         vertex 0.000000e+000 0.000000e+000 1.224647e-016
         vertex 1.000000e+000 1.000000e+000 0.000000e+000
         vertex 1.000000e+000 0.000000e+000 0.000000e+000
      endloop
   endfacet
   facet normal -9.659259e-001 0.000000e+000 2.588190e-001
      outer loop
         vertex 1.339747e-001 1.000000e+000 5.000000e-001
         vertex 0.000000e+000 1.000000e+000 1.224647e-016
         vertex 1.339747e-001 0.000000e+000 5.000000e-001
      endloop
   endfacet
   facet normal -9.659259e-001 0.000000e+000 2.588190e-001
      outer loop
         vertex 1.339747e-001 0.000000e+000 5.000000e-001
         vertex 0.000000e+000 1.000000e+000 1.224647e-016
         vertex 0.000000e+000 0.000000e+000 1.224647e-016
      endloop
   endfacet
   facet normal -7.071068e-001 0.000000e+000 7.071068e-001
      outer loop
         vertex 5.000000e-001 1.000000e+000 8.660254e-001
         vertex 1.339747e-001 1.000000e+000 5.000000e-001
         vertex 5.000000e-001 0.000000e+000 8.660254e-001
      endloop
   endfacet
   facet normal -7.071068e-001 0.000000e+000 7.071068e-001
      outer loop
         vertex 5.000000e-001 0.000000e+000 8.660254e-001
         vertex 1.339747e-001 1.000000e+000 5.000000e-001
         vertex 1.339747e-001 0.000000e+000 5.000000e-001
      endloop
   endfacet
   facet normal -2.588190e-001 0.000000e+000 9.659259e-001
      outer loop
         vertex 1.000000e+000 1.000000e+000 1.000000e+000
         vertex 5.000000e-001 1.000000e+000 8.660254e-001
         vertex 1.000000e+000 -4.336809e-016 1.000000e+000
      endloop
   endfacet
   facet normal -2.588190e-001 0.000000e+000 9.659259e-001
      outer loop
         vertex 1.000000e+000 -4.336809e-016 1.000000e+000
         vertex 5.000000e-001 1.000000e+000 8.660254e-001
         vertex 5.000000e-001 -4.336809e-016 8.660254e-001
      endloop
   endfacet
   facet normal 0.000000e+000 1.000000e+000 0.000000e+000
      outer loop
         vertex 5.000000e-001 1.000000e+000 8.660254e-001
         vertex 1.000000e+000 1.000000e+000 1.000000e+000
         vertex 1.339747e-001 1.000000e+000 5.000000e-001
      endloop
   endfacet
   facet normal 0.000000e+000 1.000000e+000 0.000000e+000
      outer loop
         vertex 1.339747e-001 1.000000e+000 5.000000e-001
         vertex 1.000000e+000 1.000000e+000 1.000000e+000
         vertex 1.000000e+000 1.000000e+000 0.000000e+000
      endloop
   endfacet
   facet normal 0.000000e+000 1.000000e+000 0.000000e+000
      outer loop
         vertex 1.339747e-001 1.000000e+000 5.000000e-001
         vertex 1.000000e+000 1.000000e+000 0.000000e+000
         vertex 0.000000e+000 1.000000e+000 1.224647e-016
      endloop
   endfacet
   facet normal 0.000000e+000 -1.000000e+000 0.000000e+000
      outer loop
         vertex 1.000000e+000 0.000000e+000 1.000000e+000
         vertex 5.000000e-001 0.000000e+000 8.660254e-001
         vertex 1.000000e+000 0.000000e+000 0.000000e+000
      endloop
   endfacet
   facet normal 0.000000e+000 -1.000000e+000 0.000000e+000
      outer loop
         vertex 1.000000e+000 0.000000e+000 0.000000e+000
         vertex 5.000000e-001 0.000000e+000 8.660254e-001
         vertex 1.339747e-001 0.000000e+000 5.000000e-001
      endloop
   endfacet
   facet normal 0.000000e+000 -1.000000e+000 0.000000e+000
      outer loop
         vertex 1.000000e+000 0.000000e+000 0.000000e+000
         vertex 1.339747e-001 0.000000e+000 5.000000e-001
         vertex 0.000000e+000 0.000000e+000 1.224647e-016
      endloop
   endfacet
endsolid