solid Панель верхний
   facet normal 0.000000e+000 9.659259e-001 2.588190e-001
      outer loop
         vertex 1.000000e+000 8.660254e-001 5.000000e-001
         vertex 1.000000e+000 1.000000e+000 0.000000e+000
         vertex -4.336809e-016 8.660254e-001 5.000000e-001
      endloop
   endfacet
   facet normal 0.000000e+000 9.659259e-001 2.588190e-001
      outer loop
         vertex -4.336809e-016 8.660254e-001 5.000000e-001
         vertex 1.000000e+000 1.000000e+000 0.000000e+000
         vertex -4.336809e-016 1.000000e+000 0.000000e+000
      endloop
   endfacet
   facet normal 0.000000e+000 7.071068e-001 7.071068e-001
      outer loop
         vertex 1.000000e+000 5.000000e-001 8.660254e-001
         vertex 1.000000e+000 8.660254e-001 5.000000e-001
         vertex 0.000000e+000 5.000000e-001 8.660254e-001
      endloop
   endfacet
   facet normal 0.000000e+000 7.071068e-001 7.071068e-001
      outer loop
         vertex 0.000000e+000 5.000000e-001 8.660254e-001
         vertex 1.000000e+000 8.660254e-001 5.000000e-001
         vertex 0.000000e+000 8.660254e-001 5.000000e-001
      endloop
   endfacet
   facet normal 0.000000e+000 2.588190e-001 9.659259e-001
      outer loop
         vertex 1.000000e+000 1.084202e-016 1.000000e+000
         vertex 1.000000e+000 5.000000e-001 8.660254e-001
         vertex 0.000000e+000 1.084202e-016 1.000000e+000
      endloop
   endfacet
   facet normal 0.000000e+000 2.588190e-001 9.659259e-001
      outer loop
         vertex 0.000000e+000 1.084202e-016 1.000000e+000
         vertex 1.000000e+000 5.000000e-001 8.660254e-001
         vertex 0.000000e+000 5.000000e-001 8.660254e-001
      endloop
   endfacet
   facet normal 0.000000e+000 -1.000000e+000 -1.224647e-016
      outer loop
         vertex 1.000000e+000 2.168404e-016 0.000000e+000
         vertex 1.000000e+000 9.437575e-017 1.000000e+000
         vertex 0.000000e+000 2.168404e-016 0.000000e+000
      endloop
   endfacet
   facet normal 0.000000e+000 -1.000000e+000 -1.224647e-016
      outer loop
         vertex 0.000000e+000 2.168404e-016 0.000000e+000
         vertex 1.000000e+000 9.437575e-017 1.000000e+000
         vertex 0.000000e+000 9.437575e-017 1.000000e+000
      endloop
   endfacet
   facet normal 0.000000e+000 0.000000e+000 -1.000000e+000
      outer loop
         vertex 1.000000e+000 1.000000e+000 0.000000e+000
         vertex 1.000000e+000 2.168404e-016 0.000000e+000
         vertex 0.000000e+000 1.000000e+000 0.000000e+000
      endloop
   endfacet
   facet normal 0.000000e+000 0.000000e+000 -1.000000e+000
      outer loop
         vertex 0.000000e+000 1.000000e+000 0.000000e+000
         vertex 1.000000e+000 2.168404e-016 0.000000e+000
         vertex 0.000000e+000 2.168404e-016 0.000000e+000
      endloop
   endfacet
   facet normal 1.000000e+000 0.000000e+000 0.000000e+000
      outer loop
         vertex 1.000000e+000 1.000000e+000 0.000000e+000
         vertex 1.000000e+000 8.660254e-001 5.000000e-001
         vertex 1.000000e+000 2.168404e-016 0.000000e+000
      endloop
   endfacet
   facet normal 1.000000e+000 0.000000e+000 0.000000e+000
      outer loop
         vertex 1.000000e+000 2.168404e-016 0.000000e+000
         vertex 1.000000e+000 8.660254e-001 5.000000e-001
         vertex 1.000000e+000 5.000000e-001 8.660254e-001
      endloop
   endfacet
   facet normal 1.000000e+000 0.000000e+000 0.000000e+000
      outer loop
         vertex 1.000000e+000 2.168404e-016 0.000000e+000
         vertex 1.000000e+000 5.000000e-001 8.660254e-001
         vertex 1.000000e+000 9.437575e-017 1.000000e+000
      endloop
   endfacet
   facet normal -1.000000e+000 0.000000e+000 0.000000e+000
      outer loop
         vertex 0.000000e+000 8.660254e-001 5.000000e-001
         vertex 0.000000e+000 1.000000e+000 0.000000e+000
         vertex 0.000000e+000 5.000000e-001 8.660254e-001
      endloop
   endfacet
   facet normal -1.000000e+000 0.000000e+000 0.000000e+000
      outer loop
         vertex 0.000000e+000 5.000000e-001 8.660254e-001
         vertex 0.000000e+000 1.000000e+000 0.000000e+000
         vertex 0.000000e+000 2.168404e-016 0.000000e+000
      endloop
   endfacet
   facet normal -1.000000e+000 0.000000e+000 0.000000e+000
      outer loop
         vertex 0.000000e+000 5.000000e-001 8.660254e-001
         vertex 0.000000e+000 2.168404e-016 0.000000e+000
         vertex 0.000000e+000 9.437575e-017 1.000000e+000
      endloop
   endfacet
endsolid