solid ascii
  facet normal 7.498379e-001 6.616216e-001 0.000000e+000
    outer loop
      vertex   1.160883e+000 -5.985238e-001 0.000000e+000
      vertex   -4.994699e-001 1.283210e+000 0.000000e+000
      vertex   1.160883e+000 -5.985238e-001 3.000000e-001
    endloop
  endfacet
  facet normal 7.498379e-001 6.616216e-001 -0.000000e+000
    outer loop
      vertex   1.160883e+000 -5.985238e-001 3.000000e-001
      vertex   -4.994699e-001 1.283210e+000 0.000000e+000
      vertex   -4.994699e-001 1.283210e+000 3.000000e-001
    endloop
  endfacet
  facet normal 6.905142e-001 -7.233188e-001 0.000000e+000
    outer loop
      vertex   3.307068e-001 -1.391050e+000 0.000000e+000
      vertex   1.160883e+000 -5.985238e-001 0.000000e+000
      vertex   3.307068e-001 -1.391050e+000 3.000000e-001
    endloop
  endfacet
  facet normal 6.905142e-001 -7.233188e-001 0.000000e+000
    outer loop
      vertex   3.307068e-001 -1.391050e+000 3.000000e-001
      vertex   1.160883e+000 -5.985238e-001 0.000000e+000
      vertex   1.160883e+000 -5.985238e-001 3.000000e-001
    endloop
  endfacet
  facet normal -8.955193e-001 -4.450228e-001 0.000000e+000
    outer loop
      vertex   -5.306920e-001 3.423432e-001 0.000000e+000
      vertex   3.307068e-001 -1.391050e+000 0.000000e+000
      vertex   -5.306920e-001 3.423432e-001 3.000000e-001
    endloop
  endfacet
  facet normal -8.955193e-001 -4.450228e-001 0.000000e+000
    outer loop
      vertex   -5.306920e-001 3.423432e-001 3.000000e-001
      vertex   3.307068e-001 -1.391050e+000 0.000000e+000
      vertex   3.307068e-001 -1.391050e+000 3.000000e-001
    endloop
  endfacet
  facet normal 8.008973e-001 -5.988017e-001 0.000000e+000
    outer loop
      vertex   -1.210563e+000 -5.669848e-001 0.000000e+000
      vertex   -5.306920e-001 3.423432e-001 0.000000e+000
      vertex   -1.210563e+000 -5.669848e-001 3.000000e-001
    endloop
  endfacet
  facet normal 8.008973e-001 -5.988017e-001 0.000000e+000
    outer loop
      vertex   -1.210563e+000 -5.669848e-001 3.000000e-001
      vertex   -5.306920e-001 3.423432e-001 0.000000e+000
      vertex   -5.306920e-001 3.423432e-001 3.000000e-001
    endloop
  endfacet
  facet normal -5.988017e-001 -8.008973e-001 0.000000e+000
    outer loop
      vertex   -1.960715e+000 -6.123737e-003 0.000000e+000
      vertex   -1.210563e+000 -5.669848e-001 0.000000e+000
      vertex   -1.960715e+000 -6.123737e-003 3.000000e-001
    endloop
  endfacet
  facet normal -5.988017e-001 -8.008973e-001 0.000000e+000
    outer loop
      vertex   -1.960715e+000 -6.123737e-003 3.000000e-001
      vertex   -1.210563e+000 -5.669848e-001 0.000000e+000
      vertex   -1.210563e+000 -5.669848e-001 3.000000e-001
    endloop
  endfacet
  facet normal -6.616216e-001 7.498379e-001 0.000000e+000
    outer loop
      vertex   -4.994699e-001 1.283210e+000 0.000000e+000
      vertex   -1.960715e+000 -6.123737e-003 0.000000e+000
      vertex   -4.994699e-001 1.283210e+000 3.000000e-001
    endloop
  endfacet
  facet normal -6.616216e-001 7.498379e-001 0.000000e+000
    outer loop
      vertex   -4.994699e-001 1.283210e+000 3.000000e-001
      vertex   -1.960715e+000 -6.123737e-003 0.000000e+000
      vertex   -1.960715e+000 -6.123737e-003 3.000000e-001
    endloop
  endfacet
  facet normal 0.000000e+000 0.000000e+000 1.000000e+000
    outer loop
      vertex   1.160883e+000 -5.985238e-001 3.000000e-001
      vertex   -4.994699e-001 1.283210e+000 3.000000e-001
      vertex   -5.306920e-001 3.423432e-001 3.000000e-001
    endloop
  endfacet
  facet normal 0.000000e+000 -0.000000e+000 1.000000e+000
    outer loop
      vertex   3.307068e-001 -1.391050e+000 3.000000e-001
      vertex   1.160883e+000 -5.985238e-001 3.000000e-001
      vertex   -5.306920e-001 3.423432e-001 3.000000e-001
    endloop
  endfacet
  facet normal 0.000000e+000 -0.000000e+000 1.000000e+000
    outer loop
      vertex   -1.210563e+000 -5.669848e-001 3.000000e-001
      vertex   -5.306920e-001 3.423432e-001 3.000000e-001
      vertex   -1.960715e+000 -6.123737e-003 3.000000e-001
    endloop
  endfacet
  facet normal 0.000000e+000 0.000000e+000 1.000000e+000
    outer loop
      vertex   -1.960715e+000 -6.123737e-003 3.000000e-001
      vertex   -5.306920e-001 3.423432e-001 3.000000e-001
      vertex   -4.994699e-001 1.283210e+000 3.000000e-001
    endloop
  endfacet
  facet normal 0.000000e+000 0.000000e+000 -1.000000e+000
    outer loop
      vertex   -1.210563e+000 -5.669848e-001 0.000000e+000
      vertex   -1.960715e+000 -6.123737e-003 0.000000e+000
      vertex   -5.306920e-001 3.423432e-001 0.000000e+000
    endloop
  endfacet
  facet normal -0.000000e+000 0.000000e+000 -1.000000e+000
    outer loop
      vertex   -5.306920e-001 3.423432e-001 0.000000e+000
      vertex   -1.960715e+000 -6.123737e-003 0.000000e+000
      vertex   -4.994699e-001 1.283210e+000 0.000000e+000
    endloop
  endfacet
  facet normal 0.000000e+000 0.000000e+000 -1.000000e+000
    outer loop
      vertex   1.160883e+000 -5.985238e-001 0.000000e+000
      vertex   -5.306920e-001 3.423432e-001 0.000000e+000
      vertex   -4.994699e-001 1.283210e+000 0.000000e+000
    endloop
  endfacet
  facet normal -0.000000e+000 0.000000e+000 -1.000000e+000
    outer loop
      vertex   1.160883e+000 -5.985238e-001 0.000000e+000
      vertex   3.307068e-001 -1.391050e+000 0.000000e+000
      vertex   -5.306920e-001 3.423432e-001 0.000000e+000
    endloop
  endfacet
endsolid
