solid Кнопка HMME
   facet normal 9.659259e-001 0.000000e+000 2.588190e-001
      outer loop
         vertex 8.660254e-001 8.660254e-001 5.000000e-001
         vertex 8.660254e-001 3.054941e-001 5.000000e-001
         vertex 1.000000e+000 9.999999e-001 0.000000e+000
      endloop
   endfacet
   facet normal 9.659259e-001 0.000000e+000 2.588190e-001
      outer loop
         vertex 1.000000e+000 9.999999e-001 0.000000e+000
         vertex 8.660254e-001 3.054941e-001 5.000000e-001
         vertex 1.000000e+000 2.500000e-001 0.000000e+000
      endloop
   endfacet
   facet normal 0.000000e+000 9.659259e-001 2.588190e-001
      outer loop
         vertex 1.339746e-001 8.660254e-001 5.000000e-001
         vertex 8.660254e-001 8.660254e-001 5.000000e-001
         vertex 0.000000e+000 9.999999e-001 0.000000e+000
      endloop
   endfacet
   facet normal 0.000000e+000 9.659259e-001 2.588190e-001
      outer loop
         vertex 0.000000e+000 9.999999e-001 0.000000e+000
         vertex 8.660254e-001 8.660254e-001 5.000000e-001
         vertex 1.000000e+000 9.999999e-001 0.000000e+000
      endloop
   endfacet
   facet normal -9.659259e-001 0.000000e+000 2.588190e-001
      outer loop
         vertex 1.339746e-001 3.054941e-001 5.000000e-001
         vertex 1.339746e-001 8.660254e-001 5.000000e-001
         vertex 0.000000e+000 2.500000e-001 0.000000e+000
      endloop
   endfacet
   facet normal -9.659259e-001 0.000000e+000 2.588190e-001
      outer loop
         vertex 0.000000e+000 2.500000e-001 0.000000e+000
         vertex 1.339746e-001 8.660254e-001 5.000000e-001
         vertex 0.000000e+000 9.999999e-001 0.000000e+000
      endloop
   endfacet
   facet normal -6.830127e-001 -6.830127e-001 2.588190e-001
      outer loop
         vertex 3.054941e-001 1.339746e-001 5.000000e-001
         vertex 1.339746e-001 3.054941e-001 5.000000e-001
         vertex 2.500000e-001 0.000000e+000 0.000000e+000
      endloop
   endfacet
   facet normal -6.830127e-001 -6.830127e-001 2.588190e-001
      outer loop
         vertex 2.500000e-001 0.000000e+000 0.000000e+000
         vertex 1.339746e-001 3.054941e-001 5.000000e-001
         vertex 0.000000e+000 2.500000e-001 0.000000e+000
      endloop
   endfacet
   facet normal 0.000000e+000 -9.659259e-001 2.588190e-001
      outer loop
         vertex 6.945059e-001 1.339746e-001 5.000000e-001
         vertex 3.054941e-001 1.339746e-001 5.000000e-001
         vertex 7.500000e-001 0.000000e+000 0.000000e+000
      endloop
   endfacet
   facet normal 0.000000e+000 -9.659259e-001 2.588190e-001
      outer loop
         vertex 7.500000e-001 0.000000e+000 0.000000e+000
         vertex 3.054941e-001 1.339746e-001 5.000000e-001
         vertex 2.500000e-001 0.000000e+000 0.000000e+000
      endloop
   endfacet
   facet normal 6.830127e-001 -6.830127e-001 2.588190e-001
      outer loop
         vertex 8.660254e-001 3.054941e-001 5.000000e-001
         vertex 6.945059e-001 1.339746e-001 5.000000e-001
         vertex 1.000000e+000 2.500000e-001 6.545368e-018
      endloop
   endfacet
   facet normal 6.830127e-001 -6.830127e-001 2.588190e-001
      outer loop
         vertex 1.000000e+000 2.500000e-001 6.545368e-018
         vertex 6.945059e-001 1.339746e-001 5.000000e-001
         vertex 7.500000e-001 0.000000e+000 0.000000e+000
      endloop
   endfacet
   facet normal 0.000000e+000 0.000000e+000 1.000000e+000
      outer loop
         vertex 3.054941e-001 1.339746e-001 5.000000e-001
         vertex 6.945059e-001 1.339746e-001 5.000000e-001
         vertex 1.339746e-001 3.054941e-001 5.000000e-001
      endloop
   endfacet
   facet normal 0.000000e+000 0.000000e+000 1.000000e+000
      outer loop
         vertex 1.339746e-001 3.054941e-001 5.000000e-001
         vertex 6.945059e-001 1.339746e-001 5.000000e-001
         vertex 8.660254e-001 3.054941e-001 5.000000e-001
      endloop
   endfacet
   facet normal 0.000000e+000 0.000000e+000 1.000000e+000
      outer loop
         vertex 1.339746e-001 3.054941e-001 5.000000e-001
         vertex 8.660254e-001 3.054941e-001 5.000000e-001
         vertex 1.339746e-001 8.660254e-001 5.000000e-001
      endloop
   endfacet
   facet normal 0.000000e+000 0.000000e+000 1.000000e+000
      outer loop
         vertex 1.339746e-001 8.660254e-001 5.000000e-001
         vertex 8.660254e-001 3.054941e-001 5.000000e-001
         vertex 8.660254e-001 8.660254e-001 5.000000e-001
      endloop
   endfacet
   facet normal 0.000000e+000 0.000000e+000 -1.000000e+000
      outer loop
         vertex 2.500000e-001 0.000000e+000 0.000000e+000
         vertex 0.000000e+000 2.500000e-001 0.000000e+000
         vertex 7.500000e-001 0.000000e+000 0.000000e+000
      endloop
   endfacet
   facet normal 0.000000e+000 0.000000e+000 -1.000000e+000
      outer loop
         vertex 7.500000e-001 0.000000e+000 0.000000e+000
         vertex 0.000000e+000 2.500000e-001 0.000000e+000
         vertex 0.000000e+000 9.999999e-001 0.000000e+000
      endloop
   endfacet
   facet normal 0.000000e+000 0.000000e+000 -1.000000e+000
      outer loop
         vertex 7.500000e-001 0.000000e+000 0.000000e+000
         vertex 0.000000e+000 9.999999e-001 0.000000e+000
         vertex 1.000000e+000 2.500000e-001 0.000000e+000
      endloop
   endfacet
   facet normal 0.000000e+000 0.000000e+000 -1.000000e+000
      outer loop
         vertex 1.000000e+000 2.500000e-001 0.000000e+000
         vertex 0.000000e+000 9.999999e-001 0.000000e+000
         vertex 1.000000e+000 9.999999e-001 0.000000e+000
      endloop
   endfacet
endsolid