solid Поддон правый верхний
   facet normal 0.000000e+000 0.000000e+000 1.000000e+000
      outer loop
         vertex 6.249846e-017 1.100000e+000 1.100000e+000
         vertex 4.116464e-016 1.000000e+000 1.100000e+000
         vertex 8.630501e-002 1.096609e+000 1.100000e+000
      endloop
   endfacet
   facet normal 0.000000e+000 0.000000e+000 1.000000e+000
      outer loop
         vertex 8.630501e-002 1.096609e+000 1.100000e+000
         vertex 4.116464e-016 1.000000e+000 1.100000e+000
         vertex 8.257934e-002 9.965845e-001 1.100000e+000
      endloop
   endfacet
   facet normal 0.000000e+000 0.000000e+000 1.000000e+000
      outer loop
         vertex 8.630501e-002 1.096609e+000 1.100000e+000
         vertex 8.257934e-002 9.965845e-001 1.100000e+000
         vertex 1.720779e-001 1.086457e+000 1.100000e+000
      endloop
   endfacet
   facet normal 0.000000e+000 0.000000e+000 1.000000e+000
      outer loop
         vertex 1.720779e-001 1.086457e+000 1.100000e+000
         vertex 8.257934e-002 9.965845e-001 1.100000e+000
         vertex 1.645946e-001 9.863613e-001 1.100000e+000
      endloop
   endfacet
   facet normal 0.000000e+000 0.000000e+000 1.000000e+000
      outer loop
         vertex 1.720779e-001 1.086457e+000 1.100000e+000
         vertex 1.645946e-001 9.863613e-001 1.100000e+000
         vertex 2.567899e-001 1.069607e+000 1.100000e+000
      endloop
   endfacet
   facet normal 0.000000e+000 0.000000e+000 1.000000e+000
      outer loop
         vertex 2.567899e-001 1.069607e+000 1.100000e+000
         vertex 1.645946e-001 9.863613e-001 1.100000e+000
         vertex 2.454855e-001 9.694003e-001 1.100000e+000
      endloop
   endfacet
   facet normal 0.000000e+000 0.000000e+000 1.000000e+000
      outer loop
         vertex 2.567899e-001 1.069607e+000 1.100000e+000
         vertex 2.454855e-001 9.694003e-001 1.100000e+000
         vertex 3.399187e-001 1.046162e+000 1.100000e+000
      endloop
   endfacet
   facet normal 0.000000e+000 0.000000e+000 1.000000e+000
      outer loop
         vertex 3.399187e-001 1.046162e+000 1.100000e+000
         vertex 2.454855e-001 9.694003e-001 1.100000e+000
         vertex 3.246995e-001 9.458172e-001 1.100000e+000
      endloop
   endfacet
   facet normal 0.000000e+000 0.000000e+000 1.000000e+000
      outer loop
         vertex 3.399187e-001 1.046162e+000 1.100000e+000
         vertex 3.246995e-001 9.458172e-001 1.100000e+000
         vertex 4.209518e-001 1.016267e+000 1.100000e+000
      endloop
   endfacet
   facet normal 0.000000e+000 0.000000e+000 1.000000e+000
      outer loop
         vertex 4.209518e-001 1.016267e+000 1.100000e+000
         vertex 3.246995e-001 9.458172e-001 1.100000e+000
         vertex 4.016954e-001 9.157733e-001 1.100000e+000
      endloop
   endfacet
   facet normal 0.000000e+000 0.000000e+000 1.000000e+000
      outer loop
         vertex 4.209518e-001 1.016267e+000 1.100000e+000
         vertex 4.016954e-001 9.157733e-001 1.100000e+000
         vertex 4.993895e-001 9.801072e-001 1.100000e+000
      endloop
   endfacet
   facet normal 0.000000e+000 0.000000e+000 1.000000e+000
      outer loop
         vertex 4.993895e-001 9.801072e-001 1.100000e+000
         vertex 4.016954e-001 9.157733e-001 1.100000e+000
         vertex 4.759474e-001 8.794737e-001 1.100000e+000
      endloop
   endfacet
   facet normal 0.000000e+000 0.000000e+000 1.000000e+000
      outer loop
         vertex 4.993895e-001 9.801072e-001 1.100000e+000
         vertex 4.759474e-001 8.794737e-001 1.100000e+000
         vertex 5.747485e-001 9.379042e-001 1.100000e+000
      endloop
   endfacet
   facet normal 0.000000e+000 0.000000e+000 1.000000e+000
      outer loop
         vertex 5.747485e-001 9.379042e-001 1.100000e+000
         vertex 4.759474e-001 8.794737e-001 1.100000e+000
         vertex 5.469482e-001 8.371665e-001 1.100000e+000
      endloop
   endfacet
   facet normal 0.000000e+000 0.000000e+000 1.000000e+000
      outer loop
         vertex 5.747485e-001 9.379042e-001 1.100000e+000
         vertex 5.469482e-001 8.371665e-001 1.100000e+000
         vertex 6.465638e-001 8.899187e-001 1.100000e+000
      endloop
   endfacet
   facet normal 0.000000e+000 0.000000e+000 1.000000e+000
      outer loop
         vertex 6.465638e-001 8.899187e-001 1.100000e+000
         vertex 5.469482e-001 8.371665e-001 1.100000e+000
         vertex 6.142127e-001 7.891405e-001 1.100000e+000
      endloop
   endfacet
   facet normal 0.000000e+000 0.000000e+000 1.000000e+000
      outer loop
         vertex 6.465638e-001 8.899187e-001 1.100000e+000
         vertex 6.142127e-001 7.891405e-001 1.100000e+000
         vertex 7.143928e-001 8.364466e-001 1.100000e+000
      endloop
   endfacet
   facet normal 0.000000e+000 0.000000e+000 1.000000e+000
      outer loop
         vertex 7.143928e-001 8.364466e-001 1.100000e+000
         vertex 6.142127e-001 7.891405e-001 1.100000e+000
         vertex 6.772816e-001 7.357239e-001 1.100000e+000
      endloop
   endfacet
   facet normal 0.000000e+000 0.000000e+000 1.000000e+000
      outer loop
         vertex 7.143928e-001 8.364466e-001 1.100000e+000
         vertex 6.772816e-001 7.357239e-001 1.100000e+000
         vertex 7.778174e-001 7.778174e-001 1.100000e+000
      endloop
   endfacet
   facet normal 0.000000e+000 0.000000e+000 1.000000e+000
      outer loop
         vertex 7.778174e-001 7.778174e-001 1.100000e+000
         vertex 6.772816e-001 7.357239e-001 1.100000e+000
         vertex 7.357239e-001 6.772816e-001 1.100000e+000
      endloop
   endfacet
   facet normal 0.000000e+000 0.000000e+000 1.000000e+000
      outer loop
         vertex 1.000000e+000 0.000000e+000 1.100000e+000
         vertex 1.100000e+000 0.000000e+000 1.100000e+000
         vertex 9.965845e-001 8.257934e-002 1.100000e+000
      endloop
   endfacet
   facet normal 0.000000e+000 0.000000e+000 1.000000e+000
      outer loop
         vertex 9.965845e-001 8.257934e-002 1.100000e+000
         vertex 1.100000e+000 0.000000e+000 1.100000e+000
         vertex 1.096609e+000 8.630501e-002 1.100000e+000
      endloop
   endfacet
   facet normal 0.000000e+000 0.000000e+000 1.000000e+000
      outer loop
         vertex 9.965845e-001 8.257934e-002 1.100000e+000
         vertex 1.096609e+000 8.630501e-002 1.100000e+000
         vertex 9.863613e-001 1.645946e-001 1.100000e+000
      endloop
   endfacet
   facet normal 0.000000e+000 0.000000e+000 1.000000e+000
      outer loop
         vertex 9.863613e-001 1.645946e-001 1.100000e+000
         vertex 1.096609e+000 8.630501e-002 1.100000e+000
         vertex 1.086457e+000 1.720779e-001 1.100000e+000
      endloop
   endfacet
   facet normal 0.000000e+000 0.000000e+000 1.000000e+000
      outer loop
         vertex 9.863613e-001 1.645946e-001 1.100000e+000
         vertex 1.086457e+000 1.720779e-001 1.100000e+000
         vertex 9.694003e-001 2.454855e-001 1.100000e+000
      endloop
   endfacet
   facet normal 0.000000e+000 0.000000e+000 1.000000e+000
      outer loop
         vertex 9.694003e-001 2.454855e-001 1.100000e+000
         vertex 1.086457e+000 1.720779e-001 1.100000e+000
         vertex 1.069607e+000 2.567899e-001 1.100000e+000
      endloop
   endfacet
   facet normal 0.000000e+000 0.000000e+000 1.000000e+000
      outer loop
         vertex 9.694003e-001 2.454855e-001 1.100000e+000
         vertex 1.069607e+000 2.567899e-001 1.100000e+000
         vertex 9.458172e-001 3.246995e-001 1.100000e+000
      endloop
   endfacet
   facet normal 0.000000e+000 0.000000e+000 1.000000e+000
      outer loop
         vertex 9.458172e-001 3.246995e-001 1.100000e+000
         vertex 1.069607e+000 2.567899e-001 1.100000e+000
         vertex 1.046162e+000 3.399187e-001 1.100000e+000
      endloop
   endfacet
   facet normal 0.000000e+000 0.000000e+000 1.000000e+000
      outer loop
         vertex 9.458172e-001 3.246995e-001 1.100000e+000
         vertex 1.046162e+000 3.399187e-001 1.100000e+000
         vertex 9.157733e-001 4.016954e-001 1.100000e+000
      endloop
   endfacet
   facet normal 0.000000e+000 0.000000e+000 1.000000e+000
      outer loop
         vertex 9.157733e-001 4.016954e-001 1.100000e+000
         vertex 1.046162e+000 3.399187e-001 1.100000e+000
         vertex 1.016267e+000 4.209518e-001 1.100000e+000
      endloop
   endfacet
   facet normal 0.000000e+000 0.000000e+000 1.000000e+000
      outer loop
         vertex 9.157733e-001 4.016954e-001 1.100000e+000
         vertex 1.016267e+000 4.209518e-001 1.100000e+000
         vertex 8.794737e-001 4.759474e-001 1.100000e+000
      endloop
   endfacet
   facet normal 0.000000e+000 0.000000e+000 1.000000e+000
      outer loop
         vertex 8.794737e-001 4.759474e-001 1.100000e+000
         vertex 1.016267e+000 4.209518e-001 1.100000e+000
         vertex 9.801072e-001 4.993895e-001 1.100000e+000
      endloop
   endfacet
   facet normal 0.000000e+000 0.000000e+000 1.000000e+000
      outer loop
         vertex 8.794737e-001 4.759474e-001 1.100000e+000
         vertex 9.801072e-001 4.993895e-001 1.100000e+000
         vertex 8.371665e-001 5.469482e-001 1.100000e+000
      endloop
   endfacet
   facet normal 0.000000e+000 0.000000e+000 1.000000e+000
      outer loop
         vertex 8.371665e-001 5.469482e-001 1.100000e+000
         vertex 9.801072e-001 4.993895e-001 1.100000e+000
         vertex 9.379042e-001 5.747485e-001 1.100000e+000
      endloop
   endfacet
   facet normal 0.000000e+000 0.000000e+000 1.000000e+000
      outer loop
         vertex 8.371665e-001 5.469482e-001 1.100000e+000
         vertex 9.379042e-001 5.747485e-001 1.100000e+000
         vertex 7.891405e-001 6.142127e-001 1.100000e+000
      endloop
   endfacet
   facet normal 0.000000e+000 0.000000e+000 1.000000e+000
      outer loop
         vertex 7.891405e-001 6.142127e-001 1.100000e+000
         vertex 9.379042e-001 5.747485e-001 1.100000e+000
         vertex 8.899187e-001 6.465638e-001 1.100000e+000
      endloop
   endfacet
   facet normal 0.000000e+000 0.000000e+000 1.000000e+000
      outer loop
         vertex 7.891405e-001 6.142127e-001 1.100000e+000
         vertex 8.899187e-001 6.465638e-001 1.100000e+000
         vertex 7.357239e-001 6.772816e-001 1.100000e+000
      endloop
   endfacet
   facet normal 0.000000e+000 0.000000e+000 1.000000e+000
      outer loop
         vertex 7.357239e-001 6.772816e-001 1.100000e+000
         vertex 8.899187e-001 6.465638e-001 1.100000e+000
         vertex 8.364466e-001 7.143928e-001 1.100000e+000
      endloop
   endfacet
   facet normal 0.000000e+000 0.000000e+000 1.000000e+000
      outer loop
         vertex 7.357239e-001 6.772816e-001 1.100000e+000
         vertex 8.364466e-001 7.143928e-001 1.100000e+000
         vertex 7.778174e-001 7.778174e-001 1.100000e+000
      endloop
   endfacet
   facet normal 9.996575e-001 2.617097e-002 0.000000e+000
      outer loop
         vertex 1.100000e+000 1.347111e-016 1.100000e+000
         vertex 1.100000e+000 1.347111e-016 0.000000e+000
         vertex 1.096609e+000 8.630501e-002 0.000000e+000
      endloop
   endfacet
   facet normal 9.986292e-001 5.234194e-002 0.000000e+000
      outer loop
         vertex 1.100000e+000 1.347111e-016 1.100000e+000
         vertex 1.096609e+000 8.630501e-002 0.000000e+000
         vertex 1.096609e+000 8.630501e-002 1.100000e+000
      endloop
   endfacet
   facet normal 9.945225e-001 1.045225e-001 0.000000e+000
      outer loop
         vertex 1.096609e+000 8.630501e-002 1.100000e+000
         vertex 1.096609e+000 8.630501e-002 0.000000e+000
         vertex 1.086457e+000 1.720779e-001 0.000000e+000
      endloop
   endfacet
   facet normal 9.914441e-001 1.305321e-001 0.000000e+000
      outer loop
         vertex 1.096609e+000 8.630501e-002 1.100000e+000
         vertex 1.086457e+000 1.720779e-001 0.000000e+000
         vertex 1.086457e+000 1.720779e-001 1.100000e+000
      endloop
   endfacet
   facet normal 9.832560e-001 1.822296e-001 0.000000e+000
      outer loop
         vertex 1.086457e+000 1.720779e-001 1.100000e+000
         vertex 1.086457e+000 1.720779e-001 0.000000e+000
         vertex 1.069607e+000 2.567899e-001 0.000000e+000
      endloop
   endfacet
   facet normal 9.781464e-001 2.079175e-001 0.000000e+000
      outer loop
         vertex 1.086457e+000 1.720779e-001 1.100000e+000
         vertex 1.069607e+000 2.567899e-001 0.000000e+000
         vertex 1.069607e+000 2.567899e-001 1.100000e+000
      endloop
   endfacet
   facet normal 9.659274e-001 2.588133e-001 0.000000e+000
      outer loop
         vertex 1.069607e+000 2.567899e-001 1.100000e+000
         vertex 1.069607e+000 2.567899e-001 0.000000e+000
         vertex 1.046162e+000 3.399187e-001 0.000000e+000
      endloop
   endfacet
   facet normal 9.588180e-001 2.840211e-001 0.000000e+000
      outer loop
         vertex 1.069607e+000 2.567899e-001 1.100000e+000
         vertex 1.046162e+000 3.399187e-001 0.000000e+000
         vertex 1.046162e+000 3.399187e-001 1.100000e+000
      endloop
   endfacet
   facet normal 9.426435e-001 3.338012e-001 0.000000e+000
      outer loop
         vertex 1.046162e+000 3.399187e-001 1.100000e+000
         vertex 1.046162e+000 3.399187e-001 0.000000e+000
         vertex 1.016267e+000 4.209518e-001 0.000000e+000
      endloop
   endfacet
   facet normal 9.335783e-001 3.583735e-001 0.000000e+000
      outer loop
         vertex 1.046162e+000 3.399187e-001 1.100000e+000
         vertex 1.016267e+000 4.209518e-001 0.000000e+000
         vertex 1.016267e+000 4.209518e-001 1.100000e+000
      endloop
   endfacet
   facet normal 9.135479e-001 4.067312e-001 0.000000e+000
      outer loop
         vertex 1.016267e+000 4.209518e-001 1.100000e+000
         vertex 1.016267e+000 4.209518e-001 0.000000e+000
         vertex 9.801072e-001 4.993895e-001 0.000000e+000
      endloop
   endfacet
   facet normal 9.025827e-001 4.305165e-001 0.000000e+000
      outer loop
         vertex 1.016267e+000 4.209518e-001 1.100000e+000
         vertex 9.801072e-001 4.993895e-001 0.000000e+000
         vertex 9.801072e-001 4.993895e-001 1.100000e+000
      endloop
   endfacet
   facet normal 8.788199e-001 4.771535e-001 0.000000e+000
      outer loop
         vertex 9.801072e-001 4.993895e-001 1.100000e+000
         vertex 9.801072e-001 4.993895e-001 0.000000e+000
         vertex 9.379042e-001 5.747485e-001 0.000000e+000
      endloop
   endfacet
   facet normal 8.660224e-001 5.000052e-001 0.000000e+000
      outer loop
         vertex 9.801072e-001 4.993895e-001 1.100000e+000
         vertex 9.379042e-001 5.747485e-001 0.000000e+000
         vertex 9.379042e-001 5.747485e-001 1.100000e+000
      endloop
   endfacet
   facet normal 8.386738e-001 5.446340e-001 0.000000e+000
      outer loop
         vertex 9.379042e-001 5.747485e-001 1.100000e+000
         vertex 9.379042e-001 5.747485e-001 0.000000e+000
         vertex 8.899187e-001 6.465638e-001 0.000000e+000
      endloop
   endfacet
   facet normal 8.241228e-001 5.664112e-001 0.000000e+000
      outer loop
         vertex 9.379042e-001 5.747485e-001 1.100000e+000
         vertex 8.899187e-001 6.465638e-001 0.000000e+000
         vertex 8.899187e-001 6.465638e-001 1.100000e+000
      endloop
   endfacet
   facet normal 7.933570e-001 6.087567e-001 0.000000e+000
      outer loop
         vertex 8.899187e-001 6.465638e-001 1.100000e+000
         vertex 8.899187e-001 6.465638e-001 0.000000e+000
         vertex 8.364466e-001 7.143928e-001 0.000000e+000
      endloop
   endfacet
   facet normal 7.771422e-001 6.293250e-001 0.000000e+000
      outer loop
         vertex 8.899187e-001 6.465638e-001 1.100000e+000
         vertex 8.364466e-001 7.143928e-001 0.000000e+000
         vertex 8.364466e-001 7.143928e-001 1.100000e+000
      endloop
   endfacet
   facet normal 7.431488e-001 6.691262e-001 0.000000e+000
      outer loop
         vertex 8.364466e-001 7.143928e-001 1.100000e+000
         vertex 8.364466e-001 7.143928e-001 0.000000e+000
         vertex 7.778174e-001 7.778174e-001 0.000000e+000
      endloop
   endfacet
   facet normal 7.253702e-001 6.883590e-001 0.000000e+000
      outer loop
         vertex 8.364466e-001 7.143928e-001 1.100000e+000
         vertex 7.778174e-001 7.778174e-001 0.000000e+000
         vertex 7.778174e-001 7.778174e-001 1.100000e+000
      endloop
   endfacet
   facet normal 6.883590e-001 7.253702e-001 0.000000e+000
      outer loop
         vertex 7.778174e-001 7.778174e-001 1.100000e+000
         vertex 7.778174e-001 7.778174e-001 0.000000e+000
         vertex 7.143928e-001 8.364466e-001 0.000000e+000
      endloop
   endfacet
   facet normal 6.691262e-001 7.431488e-001 0.000000e+000
      outer loop
         vertex 7.778174e-001 7.778174e-001 1.100000e+000
         vertex 7.143928e-001 8.364466e-001 0.000000e+000
         vertex 7.143928e-001 8.364466e-001 1.100000e+000
      endloop
   endfacet
   facet normal 6.293250e-001 7.771422e-001 0.000000e+000
      outer loop
         vertex 7.143928e-001 8.364466e-001 1.100000e+000
         vertex 7.143928e-001 8.364466e-001 0.000000e+000
         vertex 6.465638e-001 8.899187e-001 0.000000e+000
      endloop
   endfacet
   facet normal 6.087567e-001 7.933570e-001 0.000000e+000
      outer loop
         vertex 7.143928e-001 8.364466e-001 1.100000e+000
         vertex 6.465638e-001 8.899187e-001 0.000000e+000
         vertex 6.465638e-001 8.899187e-001 1.100000e+000
      endloop
   endfacet
   facet normal 5.664112e-001 8.241228e-001 0.000000e+000
      outer loop
         vertex 6.465638e-001 8.899187e-001 1.100000e+000
         vertex 6.465638e-001 8.899187e-001 0.000000e+000
         vertex 5.747485e-001 9.379042e-001 0.000000e+000
      endloop
   endfacet
   facet normal 5.446340e-001 8.386738e-001 0.000000e+000
      outer loop
         vertex 6.465638e-001 8.899187e-001 1.100000e+000
         vertex 5.747485e-001 9.379042e-001 0.000000e+000
         vertex 5.747485e-001 9.379042e-001 1.100000e+000
      endloop
   endfacet
   facet normal 5.000052e-001 8.660224e-001 0.000000e+000
      outer loop
         vertex 5.747485e-001 9.379042e-001 1.100000e+000
         vertex 5.747485e-001 9.379042e-001 0.000000e+000
         vertex 4.993895e-001 9.801072e-001 0.000000e+000
      endloop
   endfacet
   facet normal 4.771535e-001 8.788199e-001 0.000000e+000
      outer loop
         vertex 5.747485e-001 9.379042e-001 1.100000e+000
         vertex 4.993895e-001 9.801072e-001 0.000000e+000
         vertex 4.993895e-001 9.801072e-001 1.100000e+000
      endloop
   endfacet
   facet normal 4.305165e-001 9.025827e-001 0.000000e+000
      outer loop
         vertex 4.993895e-001 9.801072e-001 1.100000e+000
         vertex 4.993895e-001 9.801072e-001 0.000000e+000
         vertex 4.209518e-001 1.016267e+000 0.000000e+000
      endloop
   endfacet
   facet normal 4.067312e-001 9.135479e-001 0.000000e+000
      outer loop
         vertex 4.993895e-001 9.801072e-001 1.100000e+000
         vertex 4.209518e-001 1.016267e+000 0.000000e+000
         vertex 4.209518e-001 1.016267e+000 1.100000e+000
      endloop
   endfacet
   facet normal 3.583735e-001 9.335783e-001 0.000000e+000
      outer loop
         vertex 4.209518e-001 1.016267e+000 1.100000e+000
         vertex 4.209518e-001 1.016267e+000 0.000000e+000
         vertex 3.399187e-001 1.046162e+000 0.000000e+000
      endloop
   endfacet
   facet normal 3.338012e-001 9.426435e-001 0.000000e+000
      outer loop
         vertex 4.209518e-001 1.016267e+000 1.100000e+000
         vertex 3.399187e-001 1.046162e+000 0.000000e+000
         vertex 3.399187e-001 1.046162e+000 1.100000e+000
      endloop
   endfacet
   facet normal 2.840210e-001 9.588181e-001 0.000000e+000
      outer loop
         vertex 3.399187e-001 1.046162e+000 1.100000e+000
         vertex 3.399187e-001 1.046162e+000 0.000000e+000
         vertex 2.567899e-001 1.069607e+000 0.000000e+000
      endloop
   endfacet
   facet normal 2.588133e-001 9.659274e-001 0.000000e+000
      outer loop
         vertex 3.399187e-001 1.046162e+000 1.100000e+000
         vertex 2.567899e-001 1.069607e+000 0.000000e+000
         vertex 2.567899e-001 1.069607e+000 1.100000e+000
      endloop
   endfacet
   facet normal 2.079175e-001 9.781464e-001 0.000000e+000
      outer loop
         vertex 2.567899e-001 1.069607e+000 1.100000e+000
         vertex 2.567899e-001 1.069607e+000 0.000000e+000
         vertex 1.720779e-001 1.086457e+000 0.000000e+000
      endloop
   endfacet
   facet normal 1.822297e-001 9.832560e-001 0.000000e+000
      outer loop
         vertex 2.567899e-001 1.069607e+000 1.100000e+000
         vertex 1.720779e-001 1.086457e+000 0.000000e+000
         vertex 1.720779e-001 1.086457e+000 1.100000e+000
      endloop
   endfacet
   facet normal 1.305321e-001 9.914441e-001 0.000000e+000
      outer loop
         vertex 1.720779e-001 1.086457e+000 1.100000e+000
         vertex 1.720779e-001 1.086457e+000 0.000000e+000
         vertex 8.630501e-002 1.096609e+000 0.000000e+000
      endloop
   endfacet
   facet normal 1.045225e-001 9.945225e-001 0.000000e+000
      outer loop
         vertex 1.720779e-001 1.086457e+000 1.100000e+000
         vertex 8.630501e-002 1.096609e+000 0.000000e+000
         vertex 8.630501e-002 1.096609e+000 1.100000e+000
      endloop
   endfacet
   facet normal 5.234194e-002 9.986292e-001 0.000000e+000
      outer loop
         vertex 8.630501e-002 1.096609e+000 1.100000e+000
         vertex 8.630501e-002 1.096609e+000 0.000000e+000
         vertex 1.720362e-016 1.100000e+000 0.000000e+000
      endloop
   endfacet
   facet normal 2.617097e-002 9.996575e-001 0.000000e+000
      outer loop
         vertex 8.630501e-002 1.096609e+000 1.100000e+000
         vertex 1.720362e-016 1.100000e+000 0.000000e+000
         vertex 1.720362e-016 1.100000e+000 1.100000e+000
      endloop
   endfacet
   facet normal 0.000000e+000 0.000000e+000 -1.000000e+000
      outer loop
         vertex 3.903128e-015 0.000000e+000 0.000000e+000
         vertex 1.720362e-016 1.100000e+000 0.000000e+000
         vertex 8.630501e-002 1.096609e+000 0.000000e+000
      endloop
   endfacet
   facet normal 0.000000e+000 0.000000e+000 -1.000000e+000
      outer loop
         vertex 8.630501e-002 1.096609e+000 0.000000e+000
         vertex 1.720779e-001 1.086457e+000 0.000000e+000
         vertex 3.903128e-015 0.000000e+000 0.000000e+000
      endloop
   endfacet
   facet normal 0.000000e+000 0.000000e+000 -1.000000e+000
      outer loop
         vertex 3.903128e-015 0.000000e+000 0.000000e+000
         vertex 1.720779e-001 1.086457e+000 0.000000e+000
         vertex 2.567899e-001 1.069607e+000 0.000000e+000
      endloop
   endfacet
   facet normal 0.000000e+000 0.000000e+000 -1.000000e+000
      outer loop
         vertex 3.903128e-015 0.000000e+000 0.000000e+000
         vertex 2.567899e-001 1.069607e+000 0.000000e+000
         vertex 3.399187e-001 1.046162e+000 0.000000e+000
      endloop
   endfacet
   facet normal 0.000000e+000 0.000000e+000 -1.000000e+000
      outer loop
         vertex 1.069607e+000 2.567899e-001 0.000000e+000
         vertex 3.903128e-015 0.000000e+000 0.000000e+000
         vertex 1.046162e+000 3.399187e-001 0.000000e+000
      endloop
   endfacet
   facet normal 0.000000e+000 0.000000e+000 -1.000000e+000
      outer loop
         vertex 1.046162e+000 3.399187e-001 0.000000e+000
         vertex 3.903128e-015 0.000000e+000 0.000000e+000
         vertex 1.016267e+000 4.209518e-001 0.000000e+000
      endloop
   endfacet
   facet normal 0.000000e+000 0.000000e+000 -1.000000e+000
      outer loop
         vertex 1.069607e+000 2.567899e-001 0.000000e+000
         vertex 1.086457e+000 1.720779e-001 0.000000e+000
         vertex 3.903128e-015 0.000000e+000 0.000000e+000
      endloop
   endfacet
   facet normal 0.000000e+000 0.000000e+000 -1.000000e+000
      outer loop
         vertex 3.903128e-015 0.000000e+000 0.000000e+000
         vertex 1.086457e+000 1.720779e-001 0.000000e+000
         vertex 1.096609e+000 8.630501e-002 0.000000e+000
      endloop
   endfacet
   facet normal 0.000000e+000 0.000000e+000 -1.000000e+000
      outer loop
         vertex 3.903128e-015 0.000000e+000 0.000000e+000
         vertex 1.096609e+000 8.630501e-002 0.000000e+000
         vertex 1.100000e+000 1.347111e-016 0.000000e+000
      endloop
   endfacet
   facet normal 0.000000e+000 0.000000e+000 -1.000000e+000
      outer loop
         vertex 7.143928e-001 8.364466e-001 0.000000e+000
         vertex 3.903128e-015 0.000000e+000 0.000000e+000
         vertex 6.465638e-001 8.899187e-001 0.000000e+000
      endloop
   endfacet
   facet normal 0.000000e+000 0.000000e+000 -1.000000e+000
      outer loop
         vertex 6.465638e-001 8.899187e-001 0.000000e+000
         vertex 3.903128e-015 0.000000e+000 0.000000e+000
         vertex 5.747485e-001 9.379042e-001 0.000000e+000
      endloop
   endfacet
   facet normal 0.000000e+000 0.000000e+000 -1.000000e+000
      outer loop
         vertex 3.399187e-001 1.046162e+000 0.000000e+000
         vertex 4.209518e-001 1.016267e+000 0.000000e+000
         vertex 3.903128e-015 0.000000e+000 0.000000e+000
      endloop
   endfacet
   facet normal 0.000000e+000 0.000000e+000 -1.000000e+000
      outer loop
         vertex 3.903128e-015 0.000000e+000 0.000000e+000
         vertex 4.209518e-001 1.016267e+000 0.000000e+000
         vertex 4.993895e-001 9.801072e-001 0.000000e+000
      endloop
   endfacet
   facet normal 0.000000e+000 0.000000e+000 -1.000000e+000
      outer loop
         vertex 3.903128e-015 0.000000e+000 0.000000e+000
         vertex 4.993895e-001 9.801072e-001 0.000000e+000
         vertex 5.747485e-001 9.379042e-001 0.000000e+000
      endloop
   endfacet
   facet normal 0.000000e+000 0.000000e+000 -1.000000e+000
      outer loop
         vertex 7.143928e-001 8.364466e-001 0.000000e+000
         vertex 7.778174e-001 7.778174e-001 0.000000e+000
         vertex 3.903128e-015 0.000000e+000 0.000000e+000
      endloop
   endfacet
   facet normal 0.000000e+000 0.000000e+000 -1.000000e+000
      outer loop
         vertex 3.903128e-015 0.000000e+000 0.000000e+000
         vertex 7.778174e-001 7.778174e-001 0.000000e+000
         vertex 8.364466e-001 7.143928e-001 0.000000e+000
      endloop
   endfacet
   facet normal 0.000000e+000 0.000000e+000 -1.000000e+000
      outer loop
         vertex 3.903128e-015 0.000000e+000 0.000000e+000
         vertex 8.364466e-001 7.143928e-001 0.000000e+000
         vertex 8.899187e-001 6.465638e-001 0.000000e+000
      endloop
   endfacet
   facet normal 0.000000e+000 0.000000e+000 -1.000000e+000
      outer loop
         vertex 8.899187e-001 6.465638e-001 0.000000e+000
         vertex 9.379042e-001 5.747485e-001 0.000000e+000
         vertex 3.903128e-015 0.000000e+000 0.000000e+000
      endloop
   endfacet
   facet normal 0.000000e+000 0.000000e+000 -1.000000e+000
      outer loop
         vertex 3.903128e-015 0.000000e+000 0.000000e+000
         vertex 9.379042e-001 5.747485e-001 0.000000e+000
         vertex 9.801072e-001 4.993895e-001 0.000000e+000
      endloop
   endfacet
   facet normal 0.000000e+000 0.000000e+000 -1.000000e+000
      outer loop
         vertex 3.903128e-015 0.000000e+000 0.000000e+000
         vertex 9.801072e-001 4.993895e-001 0.000000e+000
         vertex 1.016267e+000 4.209518e-001 0.000000e+000
      endloop
   endfacet
   facet normal -2.573666e-001 -2.728223e-002 9.659286e-001
      outer loop
         vertex 4.974106e-001 4.610854e-002 2.339746e-001
         vertex 4.968561e-001 5.598224e-002 2.339746e-001
         vertex 3.903128e-015 0.000000e+000 9.999999e-002
      endloop
   endfacet
   facet normal -2.530266e-001 -5.425037e-002 9.659371e-001
      outer loop
         vertex 4.907782e-001 9.175440e-002 2.339746e-001
         vertex 4.874640e-001 1.112605e-001 2.339746e-001
         vertex 3.903128e-015 0.000000e+000 9.999999e-002
      endloop
   endfacet
   facet normal -2.458495e-001 -8.059976e-002 9.659512e-001
      outer loop
         vertex 4.801596e-001 1.366145e-001 2.339746e-001
         vertex 4.719416e-001 1.651395e-001 2.339746e-001
         vertex 3.903128e-015 0.000000e+000 9.999999e-002
      endloop
   endfacet
   facet normal -2.359177e-001 -1.060328e-001 9.659709e-001
      outer loop
         vertex 4.656326e-001 1.803709e-001 2.339746e-001
         vertex 4.504844e-001 2.169419e-001 2.339746e-001
         vertex 3.903128e-015 0.000000e+000 9.999999e-002
      endloop
   endfacet
   facet normal -2.194490e-001 -1.372182e-001 9.659262e-001
      outer loop
         vertex 4.249561e-001 2.631318e-001 2.339746e-001
         vertex 4.233621e-001 2.660160e-001 2.339746e-001
         vertex 3.903128e-015 0.000000e+000 9.999999e-002
      endloop
   endfacet
   facet normal -2.037486e-001 -1.595749e-001 9.659308e-001
      outer loop
         vertex 3.985469e-001 3.009897e-001 2.339746e-001
         vertex 3.909158e-001 3.117449e-001 2.339746e-001
         vertex 3.903128e-015 0.000000e+000 9.999999e-002
      endloop
   endfacet
   facet normal -1.857671e-001 -1.801341e-001 9.659412e-001
      outer loop
         vertex 3.689362e-001 3.363400e-001 2.339746e-001
         vertex 3.535534e-001 3.535534e-001 2.339746e-001
         vertex 3.903128e-015 0.000000e+000 9.999999e-002
      endloop
   endfacet
   facet normal -1.657088e-001 -1.986640e-001 9.659572e-001
      outer loop
         vertex 3.363400e-001 3.689362e-001 2.339746e-001
         vertex 3.117449e-001 3.909158e-001 2.339746e-001
         vertex 3.903128e-015 0.000000e+000 9.999999e-002
      endloop
   endfacet
   facet normal -1.133181e-001 -2.326884e-001 9.659271e-001
      outer loop
         vertex 2.227112e-001 4.472958e-001 2.339746e-001
         vertex 2.169419e-001 4.504844e-001 2.339746e-001
         vertex 3.903128e-015 0.000000e+000 9.999999e-002
      endloop
   endfacet
   facet normal -8.815202e-002 -2.433134e-001 9.659336e-001
      outer loop
         vertex 1.803709e-001 4.656326e-001 2.339746e-001
         vertex 1.651395e-001 4.719416e-001 2.339746e-001
         vertex 3.903128e-015 0.000000e+000 9.999999e-002
      endloop
   endfacet
   facet normal -6.200569e-002 -2.512049e-001 9.659458e-001
      outer loop
         vertex 1.366145e-001 4.801596e-001 2.339746e-001
         vertex 1.112605e-001 4.874640e-001 2.339746e-001
         vertex 3.903128e-015 0.000000e+000 9.999999e-002
      endloop
   endfacet
   facet normal -2.558583e-002 -2.575407e-001 9.659286e-001
      outer loop
         vertex 3.903128e-015 0.000000e+000 9.999999e-002
         vertex 5.598224e-002 4.968561e-001 2.339746e-001
         vertex 4.610854e-002 4.974106e-001 2.339746e-001
      endloop
   endfacet
   facet normal -7.963629e-003 -2.584672e-001 9.659873e-001
      outer loop
         vertex 2.203099e-015 5.000000e-001 2.339746e-001
         vertex 3.903128e-015 0.000000e+000 9.999999e-002
         vertex 4.610854e-002 4.974106e-001 2.339746e-001
      endloop
   endfacet
   facet normal -3.517504e-002 -2.562748e-001 9.659638e-001
      outer loop
         vertex 9.175440e-002 4.907782e-001 2.339746e-001
         vertex 5.598224e-002 4.968561e-001 2.339746e-001
         vertex 3.903128e-015 0.000000e+000 9.999999e-002
      endloop
   endfacet
   facet normal -5.090742e-002 -2.537203e-001 9.659371e-001
      outer loop
         vertex 1.112605e-001 4.874640e-001 2.339746e-001
         vertex 9.175440e-002 4.907782e-001 2.339746e-001
         vertex 3.903128e-015 0.000000e+000 9.999999e-002
      endloop
   endfacet
   facet normal -7.571476e-002 -2.473976e-001 9.659512e-001
      outer loop
         vertex 1.651395e-001 4.719416e-001 2.339746e-001
         vertex 1.366145e-001 4.801596e-001 2.339746e-001
         vertex 3.903128e-015 0.000000e+000 9.999999e-002
      endloop
   endfacet
   facet normal -9.976307e-002 -2.386367e-001 9.659709e-001
      outer loop
         vertex 2.169419e-001 4.504844e-001 2.339746e-001
         vertex 1.803709e-001 4.656326e-001 2.339746e-001
         vertex 3.903128e-015 0.000000e+000 9.999999e-002
      endloop
   endfacet
   facet normal -1.367364e-001 -2.197495e-001 9.659262e-001
      outer loop
         vertex 3.903128e-015 0.000000e+000 9.999999e-002
         vertex 2.660160e-001 4.233621e-001 2.339746e-001
         vertex 2.631318e-001 4.249561e-001 2.339746e-001
      endloop
   endfacet
   facet normal -1.438013e-001 -2.149563e-001 9.659788e-001
      outer loop
         vertex 3.009897e-001 3.985469e-001 2.339746e-001
         vertex 2.660160e-001 4.233621e-001 2.339746e-001
         vertex 3.903128e-015 0.000000e+000 9.999999e-002
      endloop
   endfacet
   facet normal -1.223320e-001 -2.278235e-001 9.659873e-001
      outer loop
         vertex 2.631318e-001 4.249561e-001 2.339746e-001
         vertex 2.227112e-001 4.472958e-001 2.339746e-001
         vertex 3.903128e-015 0.000000e+000 9.999999e-002
      endloop
   endfacet
   facet normal -1.577780e-001 -2.051432e-001 9.659308e-001
      outer loop
         vertex 3.117449e-001 3.909158e-001 2.339746e-001
         vertex 3.009897e-001 3.985469e-001 2.339746e-001
         vertex 3.903128e-015 0.000000e+000 9.999999e-002
      endloop
   endfacet
   facet normal -1.772525e-001 -1.885185e-001 9.659412e-001
      outer loop
         vertex 3.535534e-001 3.535534e-001 2.339746e-001
         vertex 3.363400e-001 3.689362e-001 2.339746e-001
         vertex 3.903128e-015 0.000000e+000 9.999999e-002
      endloop
   endfacet
   facet normal -1.949686e-001 -1.700413e-001 9.659572e-001
      outer loop
         vertex 3.909158e-001 3.117449e-001 2.339746e-001
         vertex 3.689362e-001 3.363400e-001 2.339746e-001
         vertex 3.903128e-015 0.000000e+000 9.999999e-002
      endloop
   endfacet
   facet normal -2.107522e-001 -1.498951e-001 9.659788e-001
      outer loop
         vertex 4.233621e-001 2.660160e-001 2.339746e-001
         vertex 3.985469e-001 3.009897e-001 2.339746e-001
         vertex 3.903128e-015 0.000000e+000 9.999999e-002
      endloop
   endfacet
   facet normal -2.239438e-001 -1.292976e-001 9.659873e-001
      outer loop
         vertex 4.472958e-001 2.227112e-001 2.339746e-001
         vertex 4.249561e-001 2.631318e-001 2.339746e-001
         vertex 3.903128e-015 0.000000e+000 9.999999e-002
      endloop
   endfacet
   facet normal -2.321886e-001 -1.143387e-001 9.659271e-001
      outer loop
         vertex 4.504844e-001 2.169419e-001 2.339746e-001
         vertex 4.472958e-001 2.227112e-001 2.339746e-001
         vertex 3.903128e-015 0.000000e+000 9.999999e-002
      endloop
   endfacet
   facet normal -2.423299e-001 -9.082086e-002 9.659336e-001
      outer loop
         vertex 4.719416e-001 1.651395e-001 2.339746e-001
         vertex 4.656326e-001 1.803709e-001 2.339746e-001
         vertex 3.903128e-015 0.000000e+000 9.999999e-002
      endloop
   endfacet
   facet normal -2.500746e-001 -6.641752e-002 9.659458e-001
      outer loop
         vertex 4.874640e-001 1.112605e-001 2.339746e-001
         vertex 4.801596e-001 1.366145e-001 2.339746e-001
         vertex 3.903128e-015 0.000000e+000 9.999999e-002
      endloop
   endfacet
   facet normal -2.553479e-001 -4.137041e-002 9.659638e-001
      outer loop
         vertex 4.968561e-001 5.598224e-002 2.339746e-001
         vertex 4.907782e-001 9.175440e-002 2.339746e-001
         vertex 3.903128e-015 0.000000e+000 9.999999e-002
      endloop
   endfacet
   facet normal -2.580989e-001 -1.592726e-002 9.659873e-001
      outer loop
         vertex 5.000000e-001 0.000000e+000 2.339746e-001
         vertex 4.974106e-001 4.610854e-002 2.339746e-001
         vertex 3.903128e-015 0.000000e+000 9.999999e-002
      endloop
   endfacet
   facet normal -1.811809e-002 -6.573406e-001 7.533757e-001
      outer loop
         vertex 1.150291e-015 7.809559e-001 4.793957e-001
         vertex 2.140649e-015 5.000000e-001 2.339746e-001
         vertex 6.447632e-002 7.779749e-001 4.793957e-001
      endloop
   endfacet
   facet normal -3.836731e-002 -6.564326e-001 7.534083e-001
      outer loop
         vertex 6.447632e-002 7.779749e-001 4.793957e-001
         vertex 2.140649e-015 5.000000e-001 2.339746e-001
         vertex 4.610854e-002 4.974106e-001 2.339746e-001
      endloop
   endfacet
   facet normal -5.858695e-002 -6.552560e-001 7.531316e-001
      outer loop
         vertex 6.447632e-002 7.779749e-001 4.793957e-001
         vertex 4.610854e-002 4.974106e-001 2.339746e-001
         vertex 7.205752e-002 7.776244e-001 4.793957e-001
      endloop
   endfacet
   facet normal -6.502861e-002 -6.546358e-001 7.531423e-001
      outer loop
         vertex 7.205752e-002 7.776244e-001 4.793957e-001
         vertex 4.610854e-002 4.974106e-001 2.339746e-001
         vertex 5.598224e-002 4.968561e-001 2.339746e-001
      endloop
   endfacet
   facet normal -8.090136e-002 -6.527021e-001 7.532828e-001
      outer loop
         vertex 7.205752e-002 7.776244e-001 4.793957e-001
         vertex 5.598224e-002 4.968561e-001 2.339746e-001
         vertex 1.284646e-001 7.697560e-001 4.793957e-001
      endloop
   endfacet
   facet normal -1.009715e-001 -6.499012e-001 7.532817e-001
      outer loop
         vertex 1.284646e-001 7.697560e-001 4.793957e-001
         vertex 5.598224e-002 4.968561e-001 2.339746e-001
         vertex 9.175440e-002 4.907782e-001 2.339746e-001
      endloop
   endfacet
   facet normal -1.166948e-001 -6.474254e-001 7.531418e-001
      outer loop
         vertex 1.284646e-001 7.697560e-001 4.793957e-001
         vertex 9.175440e-002 4.907782e-001 2.339746e-001
         vertex 1.435003e-001 7.676586e-001 4.793957e-001
      endloop
   endfacet
   facet normal -1.344565e-001 -6.438178e-001 7.532729e-001
      outer loop
         vertex 1.435003e-001 7.676586e-001 4.793957e-001
         vertex 9.175440e-002 4.907782e-001 2.339746e-001
         vertex 1.915484e-001 7.563577e-001 4.793957e-001
      endloop
   endfacet
   facet normal -1.429539e-001 -6.420243e-001 7.532390e-001
      outer loop
         vertex 1.915484e-001 7.563577e-001 4.793957e-001
         vertex 9.175440e-002 4.907782e-001 2.339746e-001
         vertex 1.112605e-001 4.874640e-001 2.339746e-001
      endloop
   endfacet
   facet normal -1.626614e-001 -6.373577e-001 7.532041e-001
      outer loop
         vertex 1.915484e-001 7.563577e-001 4.793957e-001
         vertex 1.112605e-001 4.874640e-001 2.339746e-001
         vertex 2.137187e-001 7.511433e-001 4.793957e-001
      endloop
   endfacet
   facet normal -1.688423e-001 -6.357187e-001 7.532291e-001
      outer loop
         vertex 2.137187e-001 7.511433e-001 4.793957e-001
         vertex 1.112605e-001 4.874640e-001 2.339746e-001
         vertex 1.366145e-001 4.801596e-001 2.339746e-001
      endloop
   endfacet
   facet normal -1.912544e-001 -6.293358e-001 7.532318e-001
      outer loop
         vertex 2.137187e-001 7.511433e-001 4.793957e-001
         vertex 1.366145e-001 4.801596e-001 2.339746e-001
         vertex 2.533177e-001 7.378711e-001 4.793957e-001
      endloop
   endfacet
   facet normal -2.036750e-001 -6.254113e-001 7.532445e-001
      outer loop
         vertex 2.533177e-001 7.378711e-001 4.793957e-001
         vertex 1.366145e-001 4.801596e-001 2.339746e-001
         vertex 1.651395e-001 4.719416e-001 2.339746e-001
      endloop
   endfacet
   facet normal -2.228640e-001 -6.189166e-001 7.531759e-001
      outer loop
         vertex 2.533177e-001 7.378711e-001 4.793957e-001
         vertex 1.651395e-001 4.719416e-001 2.339746e-001
         vertex 2.821138e-001 7.282196e-001 4.793957e-001
      endloop
   endfacet
   facet normal -2.308675e-001 -6.159861e-001 7.531675e-001
      outer loop
         vertex 2.821138e-001 7.282196e-001 4.793957e-001
         vertex 1.651395e-001 4.719416e-001 2.339746e-001
         vertex 1.803709e-001 4.656326e-001 2.339746e-001
      endloop
   endfacet
   facet normal -2.465387e-001 -6.098460e-001 7.531976e-001
      outer loop
         vertex 2.821138e-001 7.282196e-001 4.793957e-001
         vertex 1.803709e-001 4.656326e-001 2.339746e-001
         vertex 3.133707e-001 7.144183e-001 4.793957e-001
      endloop
   endfacet
   facet normal -2.625053e-001 -6.030184e-001 7.532993e-001
      outer loop
         vertex 3.133707e-001 7.144183e-001 4.793957e-001
         vertex 1.803709e-001 4.656326e-001 2.339746e-001
         vertex 2.169419e-001 4.504844e-001 2.339746e-001
      endloop
   endfacet
   facet normal -2.810069e-001 -5.947518e-001 7.531968e-001
      outer loop
         vertex 3.133707e-001 7.144183e-001 4.793957e-001
         vertex 2.169419e-001 4.504844e-001 2.339746e-001
         vertex 3.481019e-001 6.990830e-001 4.793957e-001
      endloop
   endfacet
   facet normal -2.906369e-001 -5.901853e-001 7.531344e-001
      outer loop
         vertex 3.481019e-001 6.990830e-001 4.793957e-001
         vertex 2.169419e-001 4.504844e-001 2.339746e-001
         vertex 2.227112e-001 4.472958e-001 2.339746e-001
      endloop
   endfacet
   facet normal -2.998731e-001 -5.855006e-001 7.531701e-001
      outer loop
         vertex 3.481019e-001 6.990830e-001 4.793957e-001
         vertex 2.227112e-001 4.472958e-001 2.339746e-001
         vertex 3.713165e-001 6.861526e-001 4.793957e-001
      endloop
   endfacet
   facet normal -3.176552e-001 -5.757912e-001 7.533656e-001
      outer loop
         vertex 3.713165e-001 6.861526e-001 4.793957e-001
         vertex 2.227112e-001 4.472958e-001 2.339746e-001
         vertex 2.631318e-001 4.249561e-001 2.339746e-001
      endloop
   endfacet
   facet normal -3.353109e-001 -5.658434e-001 7.532516e-001
      outer loop
         vertex 3.713165e-001 6.861526e-001 4.793957e-001
         vertex 2.631318e-001 4.249561e-001 2.339746e-001
         vertex 4.111203e-001 6.639820e-001 4.793957e-001
      endloop
   endfacet
   facet normal -3.475579e-001 -5.585689e-001 7.531297e-001
      outer loop
         vertex 4.111203e-001 6.639820e-001 4.793957e-001
         vertex 2.631318e-001 4.249561e-001 2.339746e-001
         vertex 2.660160e-001 4.233621e-001 2.339746e-001
      endloop
   endfacet
   facet normal -3.520577e-001 -5.557226e-001 7.531453e-001
      outer loop
         vertex 4.111203e-001 6.639820e-001 4.793957e-001
         vertex 2.660160e-001 4.233621e-001 2.339746e-001
         vertex 4.267771e-001 6.532568e-001 4.793957e-001
      endloop
   endfacet
   facet normal -3.688753e-001 -5.444198e-001 7.533512e-001
      outer loop
         vertex 4.267771e-001 6.532568e-001 4.793957e-001
         vertex 2.660160e-001 4.233621e-001 2.339746e-001
         vertex 3.009897e-001 3.985469e-001 2.339746e-001
      endloop
   endfacet
   facet normal -3.843343e-001 -5.336965e-001 7.532962e-001
      outer loop
         vertex 4.267771e-001 6.532568e-001 4.793957e-001
         vertex 3.009897e-001 3.985469e-001 2.339746e-001
         vertex 4.706310e-001 6.232162e-001 4.793957e-001
      endloop
   endfacet
   facet normal -3.990034e-001 -5.230514e-001 7.531358e-001
      outer loop
         vertex 4.706310e-001 6.232162e-001 4.793957e-001
         vertex 3.009897e-001 3.985469e-001 2.339746e-001
         vertex 4.793899e-001 6.159430e-001 4.793957e-001
      endloop
   endfacet
   facet normal -4.035829e-001 -5.195097e-001 7.531471e-001
      outer loop
         vertex 4.793899e-001 6.159430e-001 4.793957e-001
         vertex 3.009897e-001 3.985469e-001 2.339746e-001
         vertex 3.117449e-001 3.909158e-001 2.339746e-001
      endloop
   endfacet
   facet normal -4.192562e-001 -5.066896e-001 7.533192e-001
      outer loop
         vertex 4.793899e-001 6.159430e-001 4.793957e-001
         vertex 3.117449e-001 3.909158e-001 2.339746e-001
         vertex 5.261265e-001 5.771333e-001 4.793957e-001
      endloop
   endfacet
   facet normal -4.322900e-001 -4.956669e-001 7.532859e-001
      outer loop
         vertex 5.261265e-001 5.771333e-001 4.793957e-001
         vertex 3.117449e-001 3.909158e-001 2.339746e-001
         vertex 3.363400e-001 3.689362e-001 2.339746e-001
      endloop
   endfacet
   facet normal -4.439946e-001 -4.854539e-001 7.531289e-001
      outer loop
         vertex 5.261265e-001 5.771333e-001 4.793957e-001
         vertex 3.363400e-001 3.689362e-001 2.339746e-001
         vertex 5.288095e-001 5.744504e-001 4.793957e-001
      endloop
   endfacet
   facet normal -4.513629e-001 -4.785020e-001 7.531981e-001
      outer loop
         vertex 5.288095e-001 5.744504e-001 4.793957e-001
         vertex 3.363400e-001 3.689362e-001 2.339746e-001
         vertex 3.535534e-001 3.535534e-001 2.339746e-001
      endloop
   endfacet
   facet normal -4.650367e-001 -4.650367e-001 7.533138e-001
      outer loop
         vertex 5.288095e-001 5.744504e-001 4.793957e-001
         vertex 3.535534e-001 3.535534e-001 2.339746e-001
         vertex 5.744504e-001 5.288095e-001 4.793957e-001
      endloop
   endfacet
   facet normal -4.785042e-001 -4.513604e-001 7.531981e-001
      outer loop
         vertex 5.744504e-001 5.288095e-001 4.793957e-001
         vertex 3.535534e-001 3.535534e-001 2.339746e-001
         vertex 5.771333e-001 5.261265e-001 4.793957e-001
      endloop
   endfacet
   facet normal -4.792257e-001 -4.505822e-001 7.532054e-001
      outer loop
         vertex 5.771333e-001 5.261265e-001 4.793957e-001
         vertex 3.535534e-001 3.535534e-001 2.339746e-001
         vertex 3.689362e-001 3.363400e-001 2.339746e-001
      endloop
   endfacet
   facet normal -4.973131e-001 -4.302873e-001 7.533475e-001
      outer loop
         vertex 5.771333e-001 5.261265e-001 4.793957e-001
         vertex 3.689362e-001 3.363400e-001 2.339746e-001
         vertex 6.159430e-001 4.793899e-001 4.793957e-001
      endloop
   endfacet
   facet normal -5.066874e-001 -4.192587e-001 7.533193e-001
      outer loop
         vertex 6.159430e-001 4.793899e-001 4.793957e-001
         vertex 3.689362e-001 3.363400e-001 2.339746e-001
         vertex 3.909158e-001 3.117449e-001 2.339746e-001
      endloop
   endfacet
   facet normal -5.195143e-001 -4.035770e-001 7.531471e-001
      outer loop
         vertex 6.159430e-001 4.793899e-001 4.793957e-001
         vertex 3.909158e-001 3.117449e-001 2.339746e-001
         vertex 6.232162e-001 4.706310e-001 4.793957e-001
      endloop
   endfacet
   facet normal -5.214583e-001 -4.010503e-001 7.531533e-001
      outer loop
         vertex 6.232162e-001 4.706310e-001 4.793957e-001
         vertex 3.909158e-001 3.117449e-001 2.339746e-001
         vertex 3.985469e-001 3.009897e-001 2.339746e-001
      endloop
   endfacet
   facet normal -5.336965e-001 -3.843343e-001 7.532961e-001
      outer loop
         vertex 6.232162e-001 4.706310e-001 4.793957e-001
         vertex 3.985469e-001 3.009897e-001 2.339746e-001
         vertex 6.532568e-001 4.267771e-001 4.793957e-001
      endloop
   endfacet
   facet normal -5.444198e-001 -3.688754e-001 7.533513e-001
      outer loop
         vertex 6.532568e-001 4.267771e-001 4.793957e-001
         vertex 3.985469e-001 3.009897e-001 2.339746e-001
         vertex 4.233621e-001 2.660160e-001 2.339746e-001
      endloop
   endfacet
   facet normal -5.557226e-001 -3.520577e-001 7.531453e-001
      outer loop
         vertex 6.532568e-001 4.267771e-001 4.793957e-001
         vertex 4.233621e-001 2.660160e-001 2.339746e-001
         vertex 6.639820e-001 4.111203e-001 4.793957e-001
      endloop
   endfacet
   facet normal -5.585689e-001 -3.475579e-001 7.531297e-001
      outer loop
         vertex 6.639820e-001 4.111203e-001 4.793957e-001
         vertex 4.233621e-001 2.660160e-001 2.339746e-001
         vertex 4.249561e-001 2.631318e-001 2.339746e-001
      endloop
   endfacet
   facet normal -5.658434e-001 -3.353109e-001 7.532516e-001
      outer loop
         vertex 6.639820e-001 4.111203e-001 4.793957e-001
         vertex 4.249561e-001 2.631318e-001 2.339746e-001
         vertex 6.861526e-001 3.713165e-001 4.793957e-001
      endloop
   endfacet
   facet normal -5.757912e-001 -3.176552e-001 7.533656e-001
      outer loop
         vertex 6.861526e-001 3.713165e-001 4.793957e-001
         vertex 4.249561e-001 2.631318e-001 2.339746e-001
         vertex 4.472958e-001 2.227112e-001 2.339746e-001
      endloop
   endfacet
   facet normal -5.855006e-001 -2.998731e-001 7.531701e-001
      outer loop
         vertex 6.861526e-001 3.713165e-001 4.793957e-001
         vertex 4.472958e-001 2.227112e-001 2.339746e-001
         vertex 6.990830e-001 3.481019e-001 4.793957e-001
      endloop
   endfacet
   facet normal -5.901853e-001 -2.906369e-001 7.531344e-001
      outer loop
         vertex 6.990830e-001 3.481019e-001 4.793957e-001
         vertex 4.472958e-001 2.227112e-001 2.339746e-001
         vertex 4.504844e-001 2.169419e-001 2.339746e-001
      endloop
   endfacet
   facet normal -5.947518e-001 -2.810069e-001 7.531968e-001
      outer loop
         vertex 6.990830e-001 3.481019e-001 4.793957e-001
         vertex 4.504844e-001 2.169419e-001 2.339746e-001
         vertex 7.144183e-001 3.133707e-001 4.793957e-001
      endloop
   endfacet
   facet normal -6.030184e-001 -2.625053e-001 7.532993e-001
      outer loop
         vertex 7.144183e-001 3.133707e-001 4.793957e-001
         vertex 4.504844e-001 2.169419e-001 2.339746e-001
         vertex 4.656326e-001 1.803709e-001 2.339746e-001
      endloop
   endfacet
   facet normal -6.098460e-001 -2.465387e-001 7.531976e-001
      outer loop
         vertex 7.144183e-001 3.133707e-001 4.793957e-001
         vertex 4.656326e-001 1.803709e-001 2.339746e-001
         vertex 7.282196e-001 2.821138e-001 4.793957e-001
      endloop
   endfacet
   facet normal -6.164222e-001 -2.296502e-001 7.531829e-001
      outer loop
         vertex 7.282196e-001 2.821138e-001 4.793957e-001
         vertex 4.656326e-001 1.803709e-001 2.339746e-001
         vertex 7.378711e-001 2.533177e-001 4.793957e-001
      endloop
   endfacet
   facet normal -6.189190e-001 -2.228578e-001 7.531758e-001
      outer loop
         vertex 7.378711e-001 2.533177e-001 4.793957e-001
         vertex 4.656326e-001 1.803709e-001 2.339746e-001
         vertex 4.719416e-001 1.651395e-001 2.339746e-001
      endloop
   endfacet
   facet normal -6.254109e-001 -2.036760e-001 7.532445e-001
      outer loop
         vertex 7.378711e-001 2.533177e-001 4.793957e-001
         vertex 4.719416e-001 1.651395e-001 2.339746e-001
         vertex 7.511433e-001 2.137187e-001 4.793957e-001
      endloop
   endfacet
   facet normal -6.289324e-001 -1.924827e-001 7.532559e-001
      outer loop
         vertex 7.511433e-001 2.137187e-001 4.793957e-001
         vertex 4.719416e-001 1.651395e-001 2.339746e-001
         vertex 4.801596e-001 1.366145e-001 2.339746e-001
      endloop
   endfacet
   facet normal -6.344464e-001 -1.738660e-001 7.531589e-001
      outer loop
         vertex 7.511433e-001 2.137187e-001 4.793957e-001
         vertex 4.801596e-001 1.366145e-001 2.339746e-001
         vertex 7.563577e-001 1.915484e-001 4.793957e-001
      endloop
   endfacet
   facet normal -6.373580e-001 -1.626603e-001 7.532041e-001
      outer loop
         vertex 7.563577e-001 1.915484e-001 4.793957e-001
         vertex 4.801596e-001 1.366145e-001 2.339746e-001
         vertex 4.874640e-001 1.112605e-001 2.339746e-001
      endloop
   endfacet
   facet normal -6.420254e-001 -1.429488e-001 7.532390e-001
      outer loop
         vertex 7.563577e-001 1.915484e-001 4.793957e-001
         vertex 4.874640e-001 1.112605e-001 2.339746e-001
         vertex 7.676586e-001 1.435003e-001 4.793957e-001
      endloop
   endfacet
   facet normal -6.449557e-001 -1.294011e-001 7.531849e-001
      outer loop
         vertex 7.676586e-001 1.435003e-001 4.793957e-001
         vertex 4.874640e-001 1.112605e-001 2.339746e-001
         vertex 4.907782e-001 9.175440e-002 2.339746e-001
      endloop
   endfacet
   facet normal -6.474254e-001 -1.166948e-001 7.531418e-001
      outer loop
         vertex 7.676586e-001 1.435003e-001 4.793957e-001
         vertex 4.907782e-001 9.175440e-002 2.339746e-001
         vertex 7.697560e-001 1.284646e-001 4.793957e-001
      endloop
   endfacet
   facet normal -6.499012e-001 -1.009715e-001 7.532817e-001
      outer loop
         vertex 7.697560e-001 1.284646e-001 4.793957e-001
         vertex 4.907782e-001 9.175440e-002 2.339746e-001
         vertex 4.968561e-001 5.598224e-002 2.339746e-001
      endloop
   endfacet
   facet normal -6.527021e-001 -8.090136e-002 7.532828e-001
      outer loop
         vertex 7.697560e-001 1.284646e-001 4.793957e-001
         vertex 4.968561e-001 5.598224e-002 2.339746e-001
         vertex 7.776244e-001 7.205752e-002 4.793957e-001
      endloop
   endfacet
   facet normal -6.546358e-001 -6.502861e-002 7.531423e-001
      outer loop
         vertex 7.776244e-001 7.205752e-002 4.793957e-001
         vertex 4.968561e-001 5.598224e-002 2.339746e-001
         vertex 4.974106e-001 4.610854e-002 2.339746e-001
      endloop
   endfacet
   facet normal -6.552560e-001 -5.858696e-002 7.531316e-001
      outer loop
         vertex 7.776244e-001 7.205752e-002 4.793957e-001
         vertex 4.974106e-001 4.610854e-002 2.339746e-001
         vertex 7.779749e-001 6.447632e-002 4.793957e-001
      endloop
   endfacet
   facet normal -6.564326e-001 -3.836731e-002 7.534083e-001
      outer loop
         vertex 7.779749e-001 6.447632e-002 4.793957e-001
         vertex 4.974106e-001 4.610854e-002 2.339746e-001
         vertex 5.000000e-001 0.000000e+000 2.339746e-001
      endloop
   endfacet
   facet normal -6.573406e-001 -1.811809e-002 7.533757e-001
      outer loop
         vertex 7.779749e-001 6.447632e-002 4.793957e-001
         vertex 5.000000e-001 0.000000e+000 2.339746e-001
         vertex 7.809559e-001 0.000000e+000 4.793957e-001
      endloop
   endfacet
   facet normal -2.597461e-002 -9.425496e-001 3.330549e-001
      outer loop
         vertex 8.257934e-002 9.965845e-001 1.100000e+000
         vertex 3.226588e-016 1.000000e+000 1.100000e+000
         vertex 1.106940e-015 7.809559e-001 4.793957e-001
      endloop
   endfacet
   facet normal -5.195383e-002 -9.414750e-001 3.330549e-001
      outer loop
         vertex 1.106940e-015 7.809559e-001 4.793957e-001
         vertex 6.447632e-002 7.779749e-001 4.793957e-001
         vertex 8.257934e-002 9.965845e-001 1.100000e+000
      endloop
   endfacet
   facet normal -8.092213e-002 -9.395072e-001 3.328332e-001
      outer loop
         vertex 8.257934e-002 9.965845e-001 1.100000e+000
         vertex 6.447632e-002 7.779749e-001 4.793957e-001
         vertex 7.205752e-002 7.776244e-001 4.793957e-001
      endloop
   endfacet
   facet normal -1.067611e-001 -9.368522e-001 3.330316e-001
      outer loop
         vertex 8.257934e-002 9.965845e-001 1.100000e+000
         vertex 7.205752e-002 7.776244e-001 4.793957e-001
         vertex 1.645946e-001 9.863613e-001 1.100000e+000
      endloop
   endfacet
   facet normal -1.325519e-001 -9.335617e-001 3.330051e-001
      outer loop
         vertex 7.205752e-002 7.776244e-001 4.793957e-001
         vertex 1.284646e-001 7.697560e-001 4.793957e-001
         vertex 1.645946e-001 9.863613e-001 1.100000e+000
      endloop
   endfacet
   facet normal -1.612434e-001 -9.290945e-001 3.328425e-001
      outer loop
         vertex 1.645946e-001 9.863613e-001 1.100000e+000
         vertex 1.284646e-001 7.697560e-001 4.793957e-001
         vertex 1.435003e-001 7.676586e-001 4.793957e-001
      endloop
   endfacet
   facet normal -1.867612e-001 -9.242411e-001 3.330144e-001
      outer loop
         vertex 1.645946e-001 9.863613e-001 1.100000e+000
         vertex 1.435003e-001 7.676586e-001 4.793957e-001
         vertex 2.454855e-001 9.694003e-001 1.100000e+000
      endloop
   endfacet
   facet normal -2.121728e-001 -9.187597e-001 3.329616e-001
      outer loop
         vertex 1.435003e-001 7.676586e-001 4.793957e-001
         vertex 1.915484e-001 7.563577e-001 4.793957e-001
         vertex 2.454855e-001 9.694003e-001 1.100000e+000
      endloop
   endfacet
   facet normal -2.403716e-001 -9.118263e-001 3.328580e-001
      outer loop
         vertex 2.454855e-001 9.694003e-001 1.100000e+000
         vertex 1.915484e-001 7.563577e-001 4.793957e-001
         vertex 2.137187e-001 7.511433e-001 4.793957e-001
      endloop
   endfacet
   facet normal -2.653841e-001 -9.048094e-001 3.330036e-001
      outer loop
         vertex 2.454855e-001 9.694003e-001 1.100000e+000
         vertex 2.137187e-001 7.511433e-001 4.793957e-001
         vertex 3.246995e-001 9.458172e-001 1.100000e+000
      endloop
   endfacet
   facet normal -2.902294e-001 -8.971780e-001 3.329242e-001
      outer loop
         vertex 2.137187e-001 7.511433e-001 4.793957e-001
         vertex 2.533177e-001 7.378711e-001 4.793957e-001
         vertex 3.246995e-001 9.458172e-001 1.100000e+000
      endloop
   endfacet
   facet normal -3.177234e-001 -8.878305e-001 3.328798e-001
      outer loop
         vertex 3.246995e-001 9.458172e-001 1.100000e+000
         vertex 2.533177e-001 7.378711e-001 4.793957e-001
         vertex 2.821138e-001 7.282196e-001 4.793957e-001
      endloop
   endfacet
   facet normal -3.420491e-001 -8.787003e-001 3.329988e-001
      outer loop
         vertex 3.246995e-001 9.458172e-001 1.100000e+000
         vertex 2.821138e-001 7.282196e-001 4.793957e-001
         vertex 4.016954e-001 9.157733e-001 1.100000e+000
      endloop
   endfacet
   facet normal -3.661463e-001 -8.689759e-001 3.328931e-001
      outer loop
         vertex 4.016954e-001 9.157733e-001 1.100000e+000
         vertex 2.821138e-001 7.282196e-001 4.793957e-001
         vertex 3.133707e-001 7.144183e-001 4.793957e-001
      endloop
   endfacet
   facet normal -4.024040e-001 -8.527282e-001 3.330549e-001
      outer loop
         vertex 4.016954e-001 9.157733e-001 1.100000e+000
         vertex 3.133707e-001 7.144183e-001 4.793957e-001
         vertex 4.759474e-001 8.794737e-001 1.100000e+000
      endloop
   endfacet
   facet normal -4.161892e-001 -8.461071e-001 3.330004e-001
      outer loop
         vertex 3.133707e-001 7.144183e-001 4.793957e-001
         vertex 3.481019e-001 6.990830e-001 4.793957e-001
         vertex 4.759474e-001 8.794737e-001 1.100000e+000
      endloop
   endfacet
   facet normal -4.393635e-001 -8.343612e-001 3.328682e-001
      outer loop
         vertex 4.759474e-001 8.794737e-001 1.100000e+000
         vertex 3.481019e-001 6.990830e-001 4.793957e-001
         vertex 3.713165e-001 6.861526e-001 4.793957e-001
      endloop
   endfacet
   facet normal -4.714448e-001 -8.165870e-001 3.330549e-001
      outer loop
         vertex 4.759474e-001 8.794737e-001 1.100000e+000
         vertex 3.713165e-001 6.861526e-001 4.793957e-001
         vertex 5.469482e-001 8.371665e-001 1.100000e+000
      endloop
   endfacet
   facet normal -4.872560e-001 -8.072713e-001 3.330083e-001
      outer loop
         vertex 3.713165e-001 6.861526e-001 4.793957e-001
         vertex 4.111203e-001 6.639820e-001 4.793957e-001
         vertex 5.469482e-001 8.371665e-001 1.100000e+000
      endloop
   endfacet
   facet normal -5.093411e-001 -7.935886e-001 3.328495e-001
      outer loop
         vertex 5.469482e-001 8.371665e-001 1.100000e+000
         vertex 4.111203e-001 6.639820e-001 4.793957e-001
         vertex 4.267771e-001 6.532568e-001 4.793957e-001
      endloop
   endfacet
   facet normal -5.372661e-001 -7.748674e-001 3.330550e-001
      outer loop
         vertex 5.469482e-001 8.371665e-001 1.100000e+000
         vertex 4.267771e-001 6.532568e-001 4.793957e-001
         vertex 6.142127e-001 7.891405e-001 1.100000e+000
      endloop
   endfacet
   facet normal -5.547274e-001 -7.624786e-001 3.330223e-001
      outer loop
         vertex 4.267771e-001 6.532568e-001 4.793957e-001
         vertex 4.706310e-001 6.232162e-001 4.793957e-001
         vertex 6.142127e-001 7.891405e-001 1.100000e+000
      endloop
   endfacet
   facet normal -5.755628e-001 -7.469585e-001 3.328370e-001
      outer loop
         vertex 6.142127e-001 7.891405e-001 1.100000e+000
         vertex 4.706310e-001 6.232162e-001 4.793957e-001
         vertex 4.793899e-001 6.159430e-001 4.793957e-001
      endloop
   endfacet
   facet normal -5.994192e-001 -7.278538e-001 3.330550e-001
      outer loop
         vertex 6.142127e-001 7.891405e-001 1.100000e+000
         vertex 4.793899e-001 6.159430e-001 4.793957e-001
         vertex 6.772816e-001 7.357239e-001 1.100000e+000
      endloop
   endfacet
   facet normal -6.181059e-001 -7.120587e-001 3.330425e-001
      outer loop
         vertex 4.793899e-001 6.159430e-001 4.793957e-001
         vertex 5.261265e-001 5.771333e-001 4.793957e-001
         vertex 6.772816e-001 7.357239e-001 1.100000e+000
      endloop
   endfacet
   facet normal -6.375399e-001 -6.948140e-001 3.328308e-001
      outer loop
         vertex 6.772816e-001 7.357239e-001 1.100000e+000
         vertex 5.261265e-001 5.771333e-001 4.793957e-001
         vertex 5.288095e-001 5.744504e-001 4.793957e-001
      endloop
   endfacet
   facet normal -6.574796e-001 -6.758661e-001 3.330549e-001
      outer loop
         vertex 6.772816e-001 7.357239e-001 1.100000e+000
         vertex 5.288095e-001 5.744504e-001 4.793957e-001
         vertex 7.357239e-001 6.772816e-001 1.100000e+000
      endloop
   endfacet
   facet normal -6.758642e-001 -6.574816e-001 3.330550e-001
      outer loop
         vertex 5.288095e-001 5.744504e-001 4.793957e-001
         vertex 5.744504e-001 5.288095e-001 4.793957e-001
         vertex 7.357239e-001 6.772816e-001 1.100000e+000
      endloop
   endfacet
   facet normal -6.948141e-001 -6.375399e-001 3.328308e-001
      outer loop
         vertex 7.357239e-001 6.772816e-001 1.100000e+000
         vertex 5.744504e-001 5.288095e-001 4.793957e-001
         vertex 5.771333e-001 5.261265e-001 4.793957e-001
      endloop
   endfacet
   facet normal -7.120551e-001 -6.181103e-001 3.330424e-001
      outer loop
         vertex 7.357239e-001 6.772816e-001 1.100000e+000
         vertex 5.771333e-001 5.261265e-001 4.793957e-001
         vertex 7.891405e-001 6.142127e-001 1.100000e+000
      endloop
   endfacet
   facet normal -7.288308e-001 -5.982451e-001 3.330293e-001
      outer loop
         vertex 5.771333e-001 5.261265e-001 4.793957e-001
         vertex 6.159430e-001 4.793899e-001 4.793957e-001
         vertex 7.891405e-001 6.142127e-001 1.100000e+000
      endloop
   endfacet
   facet normal -7.469585e-001 -5.755628e-001 3.328370e-001
      outer loop
         vertex 7.891405e-001 6.142127e-001 1.100000e+000
         vertex 6.159430e-001 4.793899e-001 4.793957e-001
         vertex 6.232162e-001 4.706310e-001 4.793957e-001
      endloop
   endfacet
   facet normal -7.624753e-001 -5.547321e-001 3.330222e-001
      outer loop
         vertex 7.891405e-001 6.142127e-001 1.100000e+000
         vertex 6.232162e-001 4.706310e-001 4.793957e-001
         vertex 8.371665e-001 5.469482e-001 1.100000e+000
      endloop
   endfacet
   facet normal -7.774904e-001 -5.335084e-001 3.329826e-001
      outer loop
         vertex 6.232162e-001 4.706310e-001 4.793957e-001
         vertex 6.532568e-001 4.267771e-001 4.793957e-001
         vertex 8.371665e-001 5.469482e-001 1.100000e+000
      endloop
   endfacet
   facet normal -7.935886e-001 -5.093411e-001 3.328495e-001
      outer loop
         vertex 8.371665e-001 5.469482e-001 1.100000e+000
         vertex 6.532568e-001 4.267771e-001 4.793957e-001
         vertex 6.639820e-001 4.111203e-001 4.793957e-001
      endloop
   endfacet
   facet normal -8.072695e-001 -4.872592e-001 3.330082e-001
      outer loop
         vertex 8.371665e-001 5.469482e-001 1.100000e+000
         vertex 6.639820e-001 4.111203e-001 4.793957e-001
         vertex 8.794737e-001 4.759474e-001 1.100000e+000
      endloop
   endfacet
   facet normal -8.204138e-001 -4.648340e-001 3.329421e-001
      outer loop
         vertex 6.639820e-001 4.111203e-001 4.793957e-001
         vertex 6.861526e-001 3.713165e-001 4.793957e-001
         vertex 8.794737e-001 4.759474e-001 1.100000e+000
      endloop
   endfacet
   facet normal -8.343612e-001 -4.393635e-001 3.328682e-001
      outer loop
         vertex 8.794737e-001 4.759474e-001 1.100000e+000
         vertex 6.861526e-001 3.713165e-001 4.793957e-001
         vertex 6.990830e-001 3.481019e-001 4.793957e-001
      endloop
   endfacet
   facet normal -8.461068e-001 -4.161900e-001 3.330005e-001
      outer loop
         vertex 8.794737e-001 4.759474e-001 1.100000e+000
         vertex 6.990830e-001 3.481019e-001 4.793957e-001
         vertex 9.157733e-001 4.016954e-001 1.100000e+000
      endloop
   endfacet
   facet normal -8.572844e-001 -3.927285e-001 3.329079e-001
      outer loop
         vertex 9.157733e-001 4.016954e-001 1.100000e+000
         vertex 6.990830e-001 3.481019e-001 4.793957e-001
         vertex 7.144183e-001 3.133707e-001 4.793957e-001
      endloop
   endfacet
   facet normal -8.735960e-001 -3.548303e-001 3.330549e-001
      outer loop
         vertex 9.157733e-001 4.016954e-001 1.100000e+000
         vertex 7.144183e-001 3.133707e-001 4.793957e-001
         vertex 9.458172e-001 3.246995e-001 1.100000e+000
      endloop
   endfacet
   facet normal -8.787006e-001 -3.420483e-001 3.329988e-001
      outer loop
         vertex 7.144183e-001 3.133707e-001 4.793957e-001
         vertex 7.282196e-001 2.821138e-001 4.793957e-001
         vertex 9.458172e-001 3.246995e-001 1.100000e+000
      endloop
   endfacet
   facet normal -8.878305e-001 -3.177234e-001 3.328798e-001
      outer loop
         vertex 9.458172e-001 3.246995e-001 1.100000e+000
         vertex 7.282196e-001 2.821138e-001 4.793957e-001
         vertex 7.378711e-001 2.533177e-001 4.793957e-001
      endloop
   endfacet
   facet normal -8.999129e-001 -2.814804e-001 3.330549e-001
      outer loop
         vertex 9.458172e-001 3.246995e-001 1.100000e+000
         vertex 7.378711e-001 2.533177e-001 4.793957e-001
         vertex 9.694003e-001 2.454855e-001 1.100000e+000
      endloop
   endfacet
   facet normal -9.048086e-001 -2.653864e-001 3.330036e-001
      outer loop
         vertex 7.378711e-001 2.533177e-001 4.793957e-001
         vertex 7.511433e-001 2.137187e-001 4.793957e-001
         vertex 9.694003e-001 2.454855e-001 1.100000e+000
      endloop
   endfacet
   facet normal -9.118263e-001 -2.403716e-001 3.328580e-001
      outer loop
         vertex 9.694003e-001 2.454855e-001 1.100000e+000
         vertex 7.511433e-001 2.137187e-001 4.793957e-001
         vertex 7.563577e-001 1.915484e-001 4.793957e-001
      endloop
   endfacet
   facet normal -9.200832e-001 -2.062073e-001 3.330550e-001
      outer loop
         vertex 9.694003e-001 2.454855e-001 1.100000e+000
         vertex 7.563577e-001 1.915484e-001 4.793957e-001
         vertex 9.863613e-001 1.645946e-001 1.100000e+000
      endloop
   endfacet
   facet normal -9.242401e-001 -1.867661e-001 3.330145e-001
      outer loop
         vertex 7.563577e-001 1.915484e-001 4.793957e-001
         vertex 7.676586e-001 1.435003e-001 4.793957e-001
         vertex 9.863613e-001 1.645946e-001 1.100000e+000
      endloop
   endfacet
   facet normal -9.290945e-001 -1.612434e-001 3.328425e-001
      outer loop
         vertex 9.863613e-001 1.645946e-001 1.100000e+000
         vertex 7.676586e-001 1.435003e-001 4.793957e-001
         vertex 7.697560e-001 1.284646e-001 4.793957e-001
      endloop
   endfacet
   facet normal -9.339689e-001 -1.295241e-001 3.330550e-001
      outer loop
         vertex 9.863613e-001 1.645946e-001 1.100000e+000
         vertex 7.697560e-001 1.284646e-001 4.793957e-001
         vertex 9.965845e-001 8.257934e-002 1.100000e+000
      endloop
   endfacet
   facet normal -9.425495e-001 -2.597922e-002 3.330550e-001
      outer loop
         vertex 7.809559e-001 0.000000e+000 4.793957e-001
         vertex 1.000000e+000 0.000000e+000 1.100000e+000
         vertex 7.779749e-001 6.447632e-002 4.793957e-001
      endloop
   endfacet
   facet normal -9.414750e-001 -5.195383e-002 3.330549e-001
      outer loop
         vertex 7.779749e-001 6.447632e-002 4.793957e-001
         vertex 1.000000e+000 0.000000e+000 1.100000e+000
         vertex 9.965845e-001 8.257934e-002 1.100000e+000
      endloop
   endfacet
   facet normal -9.395072e-001 -8.092213e-002 3.328332e-001
      outer loop
         vertex 7.779749e-001 6.447632e-002 4.793957e-001
         vertex 9.965845e-001 8.257934e-002 1.100000e+000
         vertex 7.776244e-001 7.205752e-002 4.793957e-001
      endloop
   endfacet
   facet normal -9.368516e-001 -1.067671e-001 3.330317e-001
      outer loop
         vertex 7.776244e-001 7.205752e-002 4.793957e-001
         vertex 9.965845e-001 8.257934e-002 1.100000e+000
         vertex 7.697560e-001 1.284646e-001 4.793957e-001
      endloop
   endfacet
   facet normal -1.000000e+000 -3.491481e-015 0.000000e+000
      outer loop
         vertex 6.249846e-017 1.100000e+000 0.000000e+000
         vertex 3.903128e-015 0.000000e+000 0.000000e+000
         vertex 3.903128e-015 0.000000e+000 9.999999e-002
      endloop
   endfacet
   facet normal -1.000000e+000 -3.491481e-015 0.000000e+000
      outer loop
         vertex 4.116464e-016 1.000000e+000 1.100000e+000
         vertex 6.249846e-017 1.100000e+000 1.100000e+000
         vertex 1.176435e-015 7.809559e-001 4.793957e-001
      endloop
   endfacet
   facet normal -1.000000e+000 -3.491481e-015 0.000000e+000
      outer loop
         vertex 1.176435e-015 7.809559e-001 4.793957e-001
         vertex 6.249846e-017 1.100000e+000 1.100000e+000
         vertex 6.249846e-017 1.100000e+000 0.000000e+000
      endloop
   endfacet
   facet normal -1.000000e+000 -3.491481e-015 0.000000e+000
      outer loop
         vertex 1.176435e-015 7.809559e-001 4.793957e-001
         vertex 6.249846e-017 1.100000e+000 0.000000e+000
         vertex 2.157387e-015 5.000000e-001 2.339746e-001
      endloop
   endfacet
   facet normal -1.000000e+000 -3.491481e-015 0.000000e+000
      outer loop
         vertex 2.157387e-015 5.000000e-001 2.339746e-001
         vertex 6.249846e-017 1.100000e+000 0.000000e+000
         vertex 3.903128e-015 0.000000e+000 9.999999e-002
      endloop
   endfacet
   facet normal 0.000000e+000 -1.000000e+000 0.000000e+000
      outer loop
         vertex 1.100000e+000 0.000000e+000 0.000000e+000
         vertex 1.100000e+000 0.000000e+000 1.100000e+000
         vertex 1.000000e+000 0.000000e+000 1.100000e+000
      endloop
   endfacet
   facet normal 0.000000e+000 -1.000000e+000 0.000000e+000
      outer loop
         vertex 3.903128e-015 0.000000e+000 9.999999e-002
         vertex 3.903128e-015 0.000000e+000 0.000000e+000
         vertex 5.000000e-001 0.000000e+000 2.339746e-001
      endloop
   endfacet
   facet normal 0.000000e+000 -1.000000e+000 0.000000e+000
      outer loop
         vertex 5.000000e-001 0.000000e+000 2.339746e-001
         vertex 3.903128e-015 0.000000e+000 0.000000e+000
         vertex 1.100000e+000 0.000000e+000 0.000000e+000
      endloop
   endfacet
   facet normal 0.000000e+000 -1.000000e+000 0.000000e+000
      outer loop
         vertex 5.000000e-001 0.000000e+000 2.339746e-001
         vertex 1.100000e+000 0.000000e+000 0.000000e+000
         vertex 7.809559e-001 0.000000e+000 4.793957e-001
      endloop
   endfacet
   facet normal 0.000000e+000 -1.000000e+000 0.000000e+000
      outer loop
         vertex 7.809559e-001 0.000000e+000 4.793957e-001
         vertex 1.100000e+000 0.000000e+000 0.000000e+000
         vertex 1.000000e+000 0.000000e+000 1.100000e+000
      endloop
   endfacet
endsolid