solid Поддон верхний
   facet normal 0.000000e+000 -9.440047e-001 3.299320e-001
      outer loop
         vertex 1.000000e+000 7.822898e-001 4.770853e-001
         vertex 1.000000e+000 1.000000e+000 1.100000e+000
         vertex 0.000000e+000 7.822898e-001 4.770853e-001
      endloop
   endfacet
   facet normal 0.000000e+000 -9.440047e-001 3.299320e-001
      outer loop
         vertex 0.000000e+000 7.822898e-001 4.770853e-001
         vertex 1.000000e+000 1.000000e+000 1.100000e+000
         vertex 0.000000e+000 1.000000e+000 1.100000e+000
      endloop
   endfacet
   facet normal 0.000000e+000 -6.525661e-001 7.577319e-001
      outer loop
         vertex 1.000000e+000 5.000000e-001 2.339746e-001
         vertex 1.000000e+000 7.822898e-001 4.770853e-001
         vertex -4.336809e-016 5.000000e-001 2.339746e-001
      endloop
   endfacet
   facet normal 0.000000e+000 -6.525661e-001 7.577319e-001
      outer loop
         vertex -4.336809e-016 5.000000e-001 2.339746e-001
         vertex 1.000000e+000 7.822898e-001 4.770853e-001
         vertex -4.336809e-016 7.822898e-001 4.770853e-001
      endloop
   endfacet
   facet normal 0.000000e+000 -2.588190e-001 9.659259e-001
      outer loop
         vertex 1.000000e+000 0.000000e+000 9.999999e-002
         vertex 1.000000e+000 5.000000e-001 2.339746e-001
         vertex -4.336809e-016 0.000000e+000 9.999999e-002
      endloop
   endfacet
   facet normal 0.000000e+000 -2.588190e-001 9.659259e-001
      outer loop
         vertex -4.336809e-016 0.000000e+000 9.999999e-002
         vertex 1.000000e+000 5.000000e-001 2.339746e-001
         vertex -4.336809e-016 5.000000e-001 2.339746e-001
      endloop
   endfacet
   facet normal 0.000000e+000 -1.000000e+000 0.000000e+000
      outer loop
         vertex 1.000000e+000 0.000000e+000 0.000000e+000
         vertex 1.000000e+000 0.000000e+000 9.999999e-002
         vertex 0.000000e+000 0.000000e+000 0.000000e+000
      endloop
   endfacet
   facet normal 0.000000e+000 -1.000000e+000 0.000000e+000
      outer loop
         vertex 0.000000e+000 0.000000e+000 0.000000e+000
         vertex 1.000000e+000 0.000000e+000 9.999999e-002
         vertex 0.000000e+000 0.000000e+000 9.999999e-002
      endloop
   endfacet
   facet normal 0.000000e+000 0.000000e+000 -1.000000e+000
      outer loop
         vertex 1.000000e+000 1.100000e+000 0.000000e+000
         vertex 1.000000e+000 0.000000e+000 0.000000e+000
         vertex 0.000000e+000 1.100000e+000 0.000000e+000
      endloop
   endfacet
   facet normal 0.000000e+000 0.000000e+000 -1.000000e+000
      outer loop
         vertex 0.000000e+000 1.100000e+000 0.000000e+000
         vertex 1.000000e+000 0.000000e+000 0.000000e+000
         vertex 0.000000e+000 0.000000e+000 0.000000e+000
      endloop
   endfacet
   facet normal 0.000000e+000 1.000000e+000 1.232048e-017
      outer loop
         vertex 1.000000e+000 1.100000e+000 1.100000e+000
         vertex 1.000000e+000 1.100000e+000 0.000000e+000
         vertex 0.000000e+000 1.100000e+000 1.100000e+000
      endloop
   endfacet
   facet normal 0.000000e+000 1.000000e+000 1.232048e-017
      outer loop
         vertex 0.000000e+000 1.100000e+000 1.100000e+000
         vertex 1.000000e+000 1.100000e+000 0.000000e+000
         vertex 0.000000e+000 1.100000e+000 0.000000e+000
      endloop
   endfacet
   facet normal 0.000000e+000 0.000000e+000 1.000000e+000
      outer loop
         vertex 1.000000e+000 1.000000e+000 1.100000e+000
         vertex 1.000000e+000 1.100000e+000 1.100000e+000
         vertex 0.000000e+000 1.000000e+000 1.100000e+000
      endloop
   endfacet
   facet normal 0.000000e+000 0.000000e+000 1.000000e+000
      outer loop
         vertex 0.000000e+000 1.000000e+000 1.100000e+000
         vertex 1.000000e+000 1.100000e+000 1.100000e+000
         vertex 0.000000e+000 1.100000e+000 1.100000e+000
      endloop
   endfacet
   facet normal 1.000000e+000 0.000000e+000 0.000000e+000
      outer loop
         vertex 1.000000e+000 1.100000e+000 0.000000e+000
         vertex 1.000000e+000 1.100000e+000 1.100000e+000
         vertex 1.000000e+000 1.000000e+000 1.100000e+000
      endloop
   endfacet
   facet normal 1.000000e+000 0.000000e+000 0.000000e+000
      outer loop
         vertex 1.000000e+000 0.000000e+000 9.999999e-002
         vertex 1.000000e+000 0.000000e+000 0.000000e+000
         vertex 1.000000e+000 5.000000e-001 2.339746e-001
      endloop
   endfacet
   facet normal 1.000000e+000 0.000000e+000 0.000000e+000
      outer loop
         vertex 1.000000e+000 5.000000e-001 2.339746e-001
         vertex 1.000000e+000 0.000000e+000 0.000000e+000
         vertex 1.000000e+000 1.100000e+000 0.000000e+000
      endloop
   endfacet
   facet normal 1.000000e+000 0.000000e+000 0.000000e+000
      outer loop
         vertex 1.000000e+000 5.000000e-001 2.339746e-001
         vertex 1.000000e+000 1.100000e+000 0.000000e+000
         vertex 1.000000e+000 7.822898e-001 4.770853e-001
      endloop
   endfacet
   facet normal 1.000000e+000 0.000000e+000 0.000000e+000
      outer loop
         vertex 1.000000e+000 7.822898e-001 4.770853e-001
         vertex 1.000000e+000 1.100000e+000 0.000000e+000
         vertex 1.000000e+000 1.000000e+000 1.100000e+000
      endloop
   endfacet
   facet normal -1.000000e+000 0.000000e+000 0.000000e+000
      outer loop
         vertex 0.000000e+000 1.100000e+000 0.000000e+000
         vertex 0.000000e+000 0.000000e+000 0.000000e+000
         vertex 0.000000e+000 0.000000e+000 9.999999e-002
      endloop
   endfacet
   facet normal -1.000000e+000 0.000000e+000 0.000000e+000
      outer loop
         vertex 0.000000e+000 1.000000e+000 1.100000e+000
         vertex 0.000000e+000 1.100000e+000 1.100000e+000
         vertex 0.000000e+000 7.822898e-001 4.770853e-001
      endloop
   endfacet
   facet normal -1.000000e+000 0.000000e+000 0.000000e+000
      outer loop
         vertex 0.000000e+000 7.822898e-001 4.770853e-001
         vertex 0.000000e+000 1.100000e+000 1.100000e+000
         vertex 0.000000e+000 1.100000e+000 0.000000e+000
      endloop
   endfacet
   facet normal -1.000000e+000 0.000000e+000 0.000000e+000
      outer loop
         vertex 0.000000e+000 7.822898e-001 4.770853e-001
         vertex 0.000000e+000 1.100000e+000 0.000000e+000
         vertex 0.000000e+000 5.000000e-001 2.339746e-001
      endloop
   endfacet
   facet normal -1.000000e+000 0.000000e+000 0.000000e+000
      outer loop
         vertex 0.000000e+000 5.000000e-001 2.339746e-001
         vertex 0.000000e+000 1.100000e+000 0.000000e+000
         vertex 0.000000e+000 0.000000e+000 9.999999e-002
      endloop
   endfacet
endsolid