solid Поддон левый верхний
   facet normal 2.727612e-002 -2.573672e-001 9.659286e-001
      outer loop
         vertex 1.053866e+000 4.978670e-001 2.339746e-001
         vertex 1.044067e+000 4.965003e-001 2.339746e-001
         vertex 1.100000e+000 0.000000e+000 9.999999e-002
      endloop
   endfacet
   facet normal 5.424720e-002 -2.530272e-001 9.659371e-001
      outer loop
         vertex 1.008125e+000 4.914866e-001 2.339746e-001
         vertex 9.888592e-001 4.869552e-001 2.339746e-001
         vertex 1.100000e+000 0.000000e+000 9.999999e-002
      endloop
   endfacet
   facet normal 8.060230e-002 -2.458486e-001 9.659512e-001
      outer loop
         vertex 9.631685e-001 4.809128e-001 2.339746e-001
         vertex 9.350162e-001 4.714771e-001 2.339746e-001
         vertex 1.100000e+000 0.000000e+000 9.999999e-002
      endloop
   endfacet
   facet normal 1.372153e-001 -2.194508e-001 9.659262e-001
      outer loop
         vertex 8.367839e-001 4.251086e-001 2.339746e-001
         vertex 8.340639e-001 4.232453e-001 2.339746e-001
         vertex 1.100000e+000 0.000000e+000 9.999999e-002
      endloop
   endfacet
   facet normal 1.595703e-001 -2.037522e-001 9.659308e-001
      outer loop
         vertex 7.986827e-001 3.990086e-001 2.339746e-001
         vertex 7.885333e-001 3.905807e-001 2.339746e-001
         vertex 1.100000e+000 0.000000e+000 9.999999e-002
      endloop
   endfacet
   facet normal 1.801331e-001 -1.857680e-001 9.659412e-001
      outer loop
         vertex 7.631521e-001 3.695045e-001 2.339746e-001
         vertex 7.468238e-001 3.531761e-001 2.339746e-001
         vertex 1.100000e+000 0.000000e+000 9.999999e-002
      endloop
   endfacet
   facet normal 1.986668e-001 -1.657055e-001 9.659572e-001
      outer loop
         vertex 7.304956e-001 3.368478e-001 2.339746e-001
         vertex 7.094193e-001 3.114667e-001 2.339746e-001
         vertex 1.100000e+000 0.000000e+000 9.999999e-002
      endloop
   endfacet
   facet normal 2.149590e-001 -1.437974e-001 9.659787e-001
      outer loop
         vertex 7.009914e-001 3.013173e-001 2.339746e-001
         vertex 6.767547e-001 2.659360e-001 2.339746e-001
         vertex 1.100000e+000 0.000000e+000 9.999999e-002
      endloop
   endfacet
   facet normal 2.326860e-001 -1.133229e-001 9.659271e-001
      outer loop
         vertex 6.524184e-001 2.228692e-001 2.339746e-001
         vertex 6.497546e-001 2.168363e-001 2.339746e-001
         vertex 1.100000e+000 0.000000e+000 9.999999e-002
      endloop
   endfacet
   facet normal 2.433117e-001 -8.815657e-002 9.659336e-001
      outer loop
         vertex 6.337638e-001 1.806208e-001 2.339746e-001
         vertex 6.285229e-001 1.649838e-001 2.339746e-001
         vertex 1.100000e+000 0.000000e+000 9.999999e-002
      endloop
   endfacet
   facet normal 2.512050e-001 -6.200496e-002 9.659459e-001
      outer loop
         vertex 6.190872e-001 1.368315e-001 2.339746e-001
         vertex 6.130448e-001 1.111408e-001 2.339746e-001
         vertex 1.100000e+000 0.000000e+000 9.999999e-002
      endloop
   endfacet
   facet normal 2.575414e-001 -2.557850e-002 9.659286e-001
      outer loop
         vertex 1.100000e+000 0.000000e+000 9.999999e-002
         vertex 6.034997e-001 5.593260e-002 2.339746e-001
         vertex 6.021329e-001 4.613418e-002 2.339746e-001
      endloop
   endfacet
   facet normal 2.584674e-001 -7.960776e-003 9.659872e-001
      outer loop
         vertex 6.000000e-001 1.693941e-016 2.339746e-001
         vertex 1.100000e+000 0.000000e+000 9.999999e-002
         vertex 6.021329e-001 4.613418e-002 2.339746e-001
      endloop
   endfacet
   facet normal 2.562755e-001 -3.516977e-002 9.659638e-001
      outer loop
         vertex 6.085134e-001 9.187476e-002 2.339746e-001
         vertex 6.034997e-001 5.593260e-002 2.339746e-001
         vertex 1.100000e+000 0.000000e+000 9.999999e-002
      endloop
   endfacet
   facet normal 2.537212e-001 -5.090281e-002 9.659371e-001
      outer loop
         vertex 6.130448e-001 1.111408e-001 2.339746e-001
         vertex 6.085134e-001 9.187476e-002 2.339746e-001
         vertex 1.100000e+000 0.000000e+000 9.999999e-002
      endloop
   endfacet
   facet normal 2.473970e-001 -7.571667e-002 9.659512e-001
      outer loop
         vertex 6.285229e-001 1.649838e-001 2.339746e-001
         vertex 6.190872e-001 1.368315e-001 2.339746e-001
         vertex 1.100000e+000 0.000000e+000 9.999999e-002
      endloop
   endfacet
   facet normal 2.386342e-001 -9.976927e-002 9.659709e-001
      outer loop
         vertex 6.497546e-001 2.168363e-001 2.339746e-001
         vertex 6.337638e-001 1.806208e-001 2.339746e-001
         vertex 1.100000e+000 0.000000e+000 9.999999e-002
      endloop
   endfacet
   facet normal 2.278222e-001 -1.223350e-001 9.659872e-001
      outer loop
         vertex 6.748914e-001 2.632161e-001 2.339746e-001
         vertex 6.524184e-001 2.228692e-001 2.339746e-001
         vertex 1.100000e+000 0.000000e+000 9.999999e-002
      endloop
   endfacet
   facet normal 2.197516e-001 -1.367330e-001 9.659262e-001
      outer loop
         vertex 6.767547e-001 2.659360e-001 2.339746e-001
         vertex 6.748914e-001 2.632161e-001 2.339746e-001
         vertex 1.100000e+000 0.000000e+000 9.999999e-002
      endloop
   endfacet
   facet normal 2.051477e-001 -1.577722e-001 9.659308e-001
      outer loop
         vertex 7.094193e-001 3.114667e-001 2.339746e-001
         vertex 7.009914e-001 3.013173e-001 2.339746e-001
         vertex 1.100000e+000 0.000000e+000 9.999999e-002
      endloop
   endfacet
   facet normal 1.885203e-001 -1.772506e-001 9.659412e-001
      outer loop
         vertex 7.468238e-001 3.531761e-001 2.339746e-001
         vertex 7.304956e-001 3.368478e-001 2.339746e-001
         vertex 1.100000e+000 0.000000e+000 9.999999e-002
      endloop
   endfacet
   facet normal 1.700382e-001 -1.949713e-001 9.659572e-001
      outer loop
         vertex 7.885333e-001 3.905807e-001 2.339746e-001
         vertex 7.631521e-001 3.695045e-001 2.339746e-001
         vertex 1.100000e+000 0.000000e+000 9.999999e-002
      endloop
   endfacet
   facet normal 1.498896e-001 -2.107562e-001 9.659787e-001
      outer loop
         vertex 8.340639e-001 4.232453e-001 2.339746e-001
         vertex 7.986827e-001 3.990086e-001 2.339746e-001
         vertex 1.100000e+000 0.000000e+000 9.999999e-002
      endloop
   endfacet
   facet normal 1.143443e-001 -2.321858e-001 9.659271e-001
      outer loop
         vertex 1.100000e+000 0.000000e+000 9.999999e-002
         vertex 8.831636e-001 4.502454e-001 2.339746e-001
         vertex 8.771308e-001 4.475816e-001 2.339746e-001
      endloop
   endfacet
   facet normal 1.060380e-001 -2.359155e-001 9.659709e-001
      outer loop
         vertex 9.193792e-001 4.662361e-001 2.339746e-001
         vertex 8.831636e-001 4.502454e-001 2.339746e-001
         vertex 1.100000e+000 0.000000e+000 9.999999e-002
      endloop
   endfacet
   facet normal 1.292972e-001 -2.239443e-001 9.659872e-001
      outer loop
         vertex 8.771308e-001 4.475816e-001 2.339746e-001
         vertex 8.367839e-001 4.251086e-001 2.339746e-001
         vertex 1.100000e+000 0.000000e+000 9.999999e-002
      endloop
   endfacet
   facet normal 9.082677e-002 -2.423276e-001 9.659336e-001
      outer loop
         vertex 9.350162e-001 4.714771e-001 2.339746e-001
         vertex 9.193792e-001 4.662361e-001 2.339746e-001
         vertex 1.100000e+000 0.000000e+000 9.999999e-002
      endloop
   endfacet
   facet normal 6.641781e-002 -2.500745e-001 9.659459e-001
      outer loop
         vertex 9.888592e-001 4.869552e-001 2.339746e-001
         vertex 9.631685e-001 4.809128e-001 2.339746e-001
         vertex 1.100000e+000 0.000000e+000 9.999999e-002
      endloop
   endfacet
   facet normal 4.136476e-002 -2.553488e-001 9.659638e-001
      outer loop
         vertex 1.044067e+000 4.965003e-001 2.339746e-001
         vertex 1.008125e+000 4.914866e-001 2.339746e-001
         vertex 1.100000e+000 0.000000e+000 9.999999e-002
      endloop
   endfacet
   facet normal 1.592155e-002 -2.580994e-001 9.659872e-001
      outer loop
         vertex 1.100000e+000 5.000000e-001 2.339746e-001
         vertex 1.053866e+000 4.978670e-001 2.339746e-001
         vertex 1.100000e+000 0.000000e+000 9.999999e-002
      endloop
   endfacet
   facet normal 0.000000e+000 0.000000e+000 -1.000000e+000
      outer loop
         vertex 8.432101e-001 1.069607e+000 0.000000e+000
         vertex 9.279221e-001 1.086457e+000 0.000000e+000
         vertex 1.100000e+000 0.000000e+000 0.000000e+000
      endloop
   endfacet
   facet normal 0.000000e+000 0.000000e+000 -1.000000e+000
      outer loop
         vertex 1.100000e+000 0.000000e+000 0.000000e+000
         vertex 9.279221e-001 1.086457e+000 0.000000e+000
         vertex 1.013695e+000 1.096609e+000 0.000000e+000
      endloop
   endfacet
   facet normal 0.000000e+000 0.000000e+000 -1.000000e+000
      outer loop
         vertex 1.100000e+000 0.000000e+000 0.000000e+000
         vertex 1.013695e+000 1.096609e+000 0.000000e+000
         vertex 1.100000e+000 1.100000e+000 0.000000e+000
      endloop
   endfacet
   facet normal 0.000000e+000 0.000000e+000 -1.000000e+000
      outer loop
         vertex 0.000000e+000 0.000000e+000 0.000000e+000
         vertex 3.390945e-003 8.630501e-002 0.000000e+000
         vertex 1.100000e+000 0.000000e+000 0.000000e+000
      endloop
   endfacet
   facet normal 0.000000e+000 0.000000e+000 -1.000000e+000
      outer loop
         vertex 1.100000e+000 0.000000e+000 0.000000e+000
         vertex 3.390945e-003 8.630501e-002 0.000000e+000
         vertex 1.354283e-002 1.720779e-001 0.000000e+000
      endloop
   endfacet
   facet normal 0.000000e+000 0.000000e+000 -1.000000e+000
      outer loop
         vertex 1.100000e+000 0.000000e+000 0.000000e+000
         vertex 1.354283e-002 1.720779e-001 0.000000e+000
         vertex 3.039313e-002 2.567899e-001 0.000000e+000
      endloop
   endfacet
   facet normal 0.000000e+000 0.000000e+000 -1.000000e+000
      outer loop
         vertex 3.039313e-002 2.567899e-001 0.000000e+000
         vertex 5.383778e-002 3.399187e-001 0.000000e+000
         vertex 1.100000e+000 0.000000e+000 0.000000e+000
      endloop
   endfacet
   facet normal 0.000000e+000 0.000000e+000 -1.000000e+000
      outer loop
         vertex 1.100000e+000 0.000000e+000 0.000000e+000
         vertex 5.383778e-002 3.399187e-001 0.000000e+000
         vertex 8.373254e-002 4.209518e-001 0.000000e+000
      endloop
   endfacet
   facet normal 0.000000e+000 0.000000e+000 -1.000000e+000
      outer loop
         vertex 1.100000e+000 0.000000e+000 0.000000e+000
         vertex 8.373254e-002 4.209518e-001 0.000000e+000
         vertex 1.198928e-001 4.993895e-001 0.000000e+000
      endloop
   endfacet
   facet normal 0.000000e+000 0.000000e+000 -1.000000e+000
      outer loop
         vertex 3.856071e-001 8.364466e-001 0.000000e+000
         vertex 1.100000e+000 0.000000e+000 0.000000e+000
         vertex 3.221825e-001 7.778174e-001 0.000000e+000
      endloop
   endfacet
   facet normal 0.000000e+000 0.000000e+000 -1.000000e+000
      outer loop
         vertex 3.221825e-001 7.778174e-001 0.000000e+000
         vertex 1.100000e+000 0.000000e+000 0.000000e+000
         vertex 2.635534e-001 7.143928e-001 0.000000e+000
      endloop
   endfacet
   facet normal 0.000000e+000 0.000000e+000 -1.000000e+000
      outer loop
         vertex 1.198928e-001 4.993895e-001 0.000000e+000
         vertex 1.620958e-001 5.747485e-001 0.000000e+000
         vertex 1.100000e+000 0.000000e+000 0.000000e+000
      endloop
   endfacet
   facet normal 0.000000e+000 0.000000e+000 -1.000000e+000
      outer loop
         vertex 1.100000e+000 0.000000e+000 0.000000e+000
         vertex 1.620958e-001 5.747485e-001 0.000000e+000
         vertex 2.100813e-001 6.465638e-001 0.000000e+000
      endloop
   endfacet
   facet normal 0.000000e+000 0.000000e+000 -1.000000e+000
      outer loop
         vertex 1.100000e+000 0.000000e+000 0.000000e+000
         vertex 2.100813e-001 6.465638e-001 0.000000e+000
         vertex 2.635534e-001 7.143928e-001 0.000000e+000
      endloop
   endfacet
   facet normal 0.000000e+000 0.000000e+000 -1.000000e+000
      outer loop
         vertex 3.856071e-001 8.364466e-001 0.000000e+000
         vertex 4.534362e-001 8.899187e-001 0.000000e+000
         vertex 1.100000e+000 0.000000e+000 0.000000e+000
      endloop
   endfacet
   facet normal 0.000000e+000 0.000000e+000 -1.000000e+000
      outer loop
         vertex 1.100000e+000 0.000000e+000 0.000000e+000
         vertex 4.534362e-001 8.899187e-001 0.000000e+000
         vertex 5.252516e-001 9.379042e-001 0.000000e+000
      endloop
   endfacet
   facet normal 0.000000e+000 0.000000e+000 -1.000000e+000
      outer loop
         vertex 1.100000e+000 0.000000e+000 0.000000e+000
         vertex 5.252516e-001 9.379042e-001 0.000000e+000
         vertex 6.006104e-001 9.801072e-001 0.000000e+000
      endloop
   endfacet
   facet normal 0.000000e+000 0.000000e+000 -1.000000e+000
      outer loop
         vertex 6.006104e-001 9.801072e-001 0.000000e+000
         vertex 6.790482e-001 1.016267e+000 0.000000e+000
         vertex 1.100000e+000 0.000000e+000 0.000000e+000
      endloop
   endfacet
   facet normal 0.000000e+000 0.000000e+000 -1.000000e+000
      outer loop
         vertex 1.100000e+000 0.000000e+000 0.000000e+000
         vertex 6.790482e-001 1.016267e+000 0.000000e+000
         vertex 7.600814e-001 1.046162e+000 0.000000e+000
      endloop
   endfacet
   facet normal 0.000000e+000 0.000000e+000 -1.000000e+000
      outer loop
         vertex 1.100000e+000 0.000000e+000 0.000000e+000
         vertex 7.600814e-001 1.046162e+000 0.000000e+000
         vertex 8.432101e-001 1.069607e+000 0.000000e+000
      endloop
   endfacet
   facet normal -9.996575e-001 2.617097e-002 0.000000e+000
      outer loop
         vertex 0.000000e+000 1.347111e-016 0.000000e+000
         vertex 0.000000e+000 1.347111e-016 1.100000e+000
         vertex 3.390945e-003 8.630501e-002 1.100000e+000
      endloop
   endfacet
   facet normal -9.986292e-001 5.234194e-002 0.000000e+000
      outer loop
         vertex 0.000000e+000 1.347111e-016 0.000000e+000
         vertex 3.390945e-003 8.630501e-002 1.100000e+000
         vertex 3.390945e-003 8.630501e-002 0.000000e+000
      endloop
   endfacet
   facet normal -9.945225e-001 1.045225e-001 0.000000e+000
      outer loop
         vertex 3.390945e-003 8.630501e-002 0.000000e+000
         vertex 3.390945e-003 8.630501e-002 1.100000e+000
         vertex 1.354283e-002 1.720779e-001 1.100000e+000
      endloop
   endfacet
   facet normal -9.914441e-001 1.305321e-001 0.000000e+000
      outer loop
         vertex 3.390945e-003 8.630501e-002 0.000000e+000
         vertex 1.354283e-002 1.720779e-001 1.100000e+000
         vertex 1.354283e-002 1.720779e-001 0.000000e+000
      endloop
   endfacet
   facet normal -9.832560e-001 1.822296e-001 0.000000e+000
      outer loop
         vertex 1.354283e-002 1.720779e-001 0.000000e+000
         vertex 1.354283e-002 1.720779e-001 1.100000e+000
         vertex 3.039313e-002 2.567899e-001 1.100000e+000
      endloop
   endfacet
   facet normal -9.781464e-001 2.079175e-001 0.000000e+000
      outer loop
         vertex 1.354283e-002 1.720779e-001 0.000000e+000
         vertex 3.039313e-002 2.567899e-001 1.100000e+000
         vertex 3.039313e-002 2.567899e-001 0.000000e+000
      endloop
   endfacet
   facet normal -9.659274e-001 2.588133e-001 0.000000e+000
      outer loop
         vertex 3.039313e-002 2.567899e-001 0.000000e+000
         vertex 3.039313e-002 2.567899e-001 1.100000e+000
         vertex 5.383778e-002 3.399187e-001 1.100000e+000
      endloop
   endfacet
   facet normal -9.588180e-001 2.840211e-001 0.000000e+000
      outer loop
         vertex 3.039313e-002 2.567899e-001 0.000000e+000
         vertex 5.383778e-002 3.399187e-001 1.100000e+000
         vertex 5.383778e-002 3.399187e-001 0.000000e+000
      endloop
   endfacet
   facet normal -9.426435e-001 3.338012e-001 0.000000e+000
      outer loop
         vertex 5.383778e-002 3.399187e-001 0.000000e+000
         vertex 5.383778e-002 3.399187e-001 1.100000e+000
         vertex 8.373254e-002 4.209518e-001 1.100000e+000
      endloop
   endfacet
   facet normal -9.335783e-001 3.583735e-001 0.000000e+000
      outer loop
         vertex 5.383778e-002 3.399187e-001 0.000000e+000
         vertex 8.373254e-002 4.209518e-001 1.100000e+000
         vertex 8.373254e-002 4.209518e-001 0.000000e+000
      endloop
   endfacet
   facet normal -9.135479e-001 4.067312e-001 0.000000e+000
      outer loop
         vertex 8.373254e-002 4.209518e-001 0.000000e+000
         vertex 8.373254e-002 4.209518e-001 1.100000e+000
         vertex 1.198928e-001 4.993895e-001 1.100000e+000
      endloop
   endfacet
   facet normal -9.025827e-001 4.305165e-001 0.000000e+000
      outer loop
         vertex 8.373254e-002 4.209518e-001 0.000000e+000
         vertex 1.198928e-001 4.993895e-001 1.100000e+000
         vertex 1.198928e-001 4.993895e-001 0.000000e+000
      endloop
   endfacet
   facet normal -8.788199e-001 4.771535e-001 0.000000e+000
      outer loop
         vertex 1.198928e-001 4.993895e-001 0.000000e+000
         vertex 1.198928e-001 4.993895e-001 1.100000e+000
         vertex 1.620958e-001 5.747485e-001 1.100000e+000
      endloop
   endfacet
   facet normal -8.660224e-001 5.000052e-001 0.000000e+000
      outer loop
         vertex 1.198928e-001 4.993895e-001 0.000000e+000
         vertex 1.620958e-001 5.747485e-001 1.100000e+000
         vertex 1.620958e-001 5.747485e-001 0.000000e+000
      endloop
   endfacet
   facet normal -8.386738e-001 5.446340e-001 0.000000e+000
      outer loop
         vertex 1.620958e-001 5.747485e-001 0.000000e+000
         vertex 1.620958e-001 5.747485e-001 1.100000e+000
         vertex 2.100813e-001 6.465638e-001 1.100000e+000
      endloop
   endfacet
   facet normal -8.241228e-001 5.664112e-001 0.000000e+000
      outer loop
         vertex 1.620958e-001 5.747485e-001 0.000000e+000
         vertex 2.100813e-001 6.465638e-001 1.100000e+000
         vertex 2.100813e-001 6.465638e-001 0.000000e+000
      endloop
   endfacet
   facet normal -7.933570e-001 6.087567e-001 0.000000e+000
      outer loop
         vertex 2.100813e-001 6.465638e-001 0.000000e+000
         vertex 2.100813e-001 6.465638e-001 1.100000e+000
         vertex 2.635534e-001 7.143928e-001 1.100000e+000
      endloop
   endfacet
   facet normal -7.771422e-001 6.293250e-001 0.000000e+000
      outer loop
         vertex 2.100813e-001 6.465638e-001 0.000000e+000
         vertex 2.635534e-001 7.143928e-001 1.100000e+000
         vertex 2.635534e-001 7.143928e-001 0.000000e+000
      endloop
   endfacet
   facet normal -7.431488e-001 6.691262e-001 0.000000e+000
      outer loop
         vertex 2.635534e-001 7.143928e-001 0.000000e+000
         vertex 2.635534e-001 7.143928e-001 1.100000e+000
         vertex 3.221825e-001 7.778174e-001 1.100000e+000
      endloop
   endfacet
   facet normal -7.253702e-001 6.883590e-001 0.000000e+000
      outer loop
         vertex 2.635534e-001 7.143928e-001 0.000000e+000
         vertex 3.221825e-001 7.778174e-001 1.100000e+000
         vertex 3.221825e-001 7.778174e-001 0.000000e+000
      endloop
   endfacet
   facet normal -6.883590e-001 7.253702e-001 0.000000e+000
      outer loop
         vertex 3.221825e-001 7.778174e-001 0.000000e+000
         vertex 3.221825e-001 7.778174e-001 1.100000e+000
         vertex 3.856071e-001 8.364466e-001 1.100000e+000
      endloop
   endfacet
   facet normal -6.691262e-001 7.431488e-001 0.000000e+000
      outer loop
         vertex 3.221825e-001 7.778174e-001 0.000000e+000
         vertex 3.856071e-001 8.364466e-001 1.100000e+000
         vertex 3.856071e-001 8.364466e-001 0.000000e+000
      endloop
   endfacet
   facet normal -6.293250e-001 7.771422e-001 0.000000e+000
      outer loop
         vertex 3.856071e-001 8.364466e-001 0.000000e+000
         vertex 3.856071e-001 8.364466e-001 1.100000e+000
         vertex 4.534362e-001 8.899187e-001 1.100000e+000
      endloop
   endfacet
   facet normal -6.087567e-001 7.933570e-001 0.000000e+000
      outer loop
         vertex 3.856071e-001 8.364466e-001 0.000000e+000
         vertex 4.534362e-001 8.899187e-001 1.100000e+000
         vertex 4.534362e-001 8.899187e-001 0.000000e+000
      endloop
   endfacet
   facet normal -5.664112e-001 8.241228e-001 0.000000e+000
      outer loop
         vertex 4.534362e-001 8.899187e-001 0.000000e+000
         vertex 4.534362e-001 8.899187e-001 1.100000e+000
         vertex 5.252516e-001 9.379042e-001 1.100000e+000
      endloop
   endfacet
   facet normal -5.446340e-001 8.386738e-001 0.000000e+000
      outer loop
         vertex 4.534362e-001 8.899187e-001 0.000000e+000
         vertex 5.252516e-001 9.379042e-001 1.100000e+000
         vertex 5.252516e-001 9.379042e-001 0.000000e+000
      endloop
   endfacet
   facet normal -5.000052e-001 8.660224e-001 0.000000e+000
      outer loop
         vertex 5.252516e-001 9.379042e-001 0.000000e+000
         vertex 5.252516e-001 9.379042e-001 1.100000e+000
         vertex 6.006104e-001 9.801072e-001 1.100000e+000
      endloop
   endfacet
   facet normal -4.771535e-001 8.788199e-001 0.000000e+000
      outer loop
         vertex 5.252516e-001 9.379042e-001 0.000000e+000
         vertex 6.006104e-001 9.801072e-001 1.100000e+000
         vertex 6.006104e-001 9.801072e-001 0.000000e+000
      endloop
   endfacet
   facet normal -4.305165e-001 9.025827e-001 0.000000e+000
      outer loop
         vertex 6.006104e-001 9.801072e-001 0.000000e+000
         vertex 6.006104e-001 9.801072e-001 1.100000e+000
         vertex 6.790482e-001 1.016267e+000 1.100000e+000
      endloop
   endfacet
   facet normal -4.067312e-001 9.135479e-001 0.000000e+000
      outer loop
         vertex 6.006104e-001 9.801072e-001 0.000000e+000
         vertex 6.790482e-001 1.016267e+000 1.100000e+000
         vertex 6.790482e-001 1.016267e+000 0.000000e+000
      endloop
   endfacet
   facet normal -3.583735e-001 9.335783e-001 0.000000e+000
      outer loop
         vertex 6.790482e-001 1.016267e+000 0.000000e+000
         vertex 6.790482e-001 1.016267e+000 1.100000e+000
         vertex 7.600814e-001 1.046162e+000 1.100000e+000
      endloop
   endfacet
   facet normal -3.338012e-001 9.426435e-001 0.000000e+000
      outer loop
         vertex 6.790482e-001 1.016267e+000 0.000000e+000
         vertex 7.600814e-001 1.046162e+000 1.100000e+000
         vertex 7.600814e-001 1.046162e+000 0.000000e+000
      endloop
   endfacet
   facet normal -2.840210e-001 9.588181e-001 0.000000e+000
      outer loop
         vertex 7.600814e-001 1.046162e+000 0.000000e+000
         vertex 7.600814e-001 1.046162e+000 1.100000e+000
         vertex 8.432101e-001 1.069607e+000 1.100000e+000
      endloop
   endfacet
   facet normal -2.588133e-001 9.659274e-001 0.000000e+000
      outer loop
         vertex 7.600814e-001 1.046162e+000 0.000000e+000
         vertex 8.432101e-001 1.069607e+000 1.100000e+000
         vertex 8.432101e-001 1.069607e+000 0.000000e+000
      endloop
   endfacet
   facet normal -2.079175e-001 9.781464e-001 0.000000e+000
      outer loop
         vertex 8.432101e-001 1.069607e+000 0.000000e+000
         vertex 8.432101e-001 1.069607e+000 1.100000e+000
         vertex 9.279221e-001 1.086457e+000 1.100000e+000
      endloop
   endfacet
   facet normal -1.822297e-001 9.832560e-001 0.000000e+000
      outer loop
         vertex 8.432101e-001 1.069607e+000 0.000000e+000
         vertex 9.279221e-001 1.086457e+000 1.100000e+000
         vertex 9.279221e-001 1.086457e+000 0.000000e+000
      endloop
   endfacet
   facet normal -1.305321e-001 9.914441e-001 0.000000e+000
      outer loop
         vertex 9.279221e-001 1.086457e+000 0.000000e+000
         vertex 9.279221e-001 1.086457e+000 1.100000e+000
         vertex 1.013695e+000 1.096609e+000 1.100000e+000
      endloop
   endfacet
   facet normal -1.045225e-001 9.945225e-001 0.000000e+000
      outer loop
         vertex 9.279221e-001 1.086457e+000 0.000000e+000
         vertex 1.013695e+000 1.096609e+000 1.100000e+000
         vertex 1.013695e+000 1.096609e+000 0.000000e+000
      endloop
   endfacet
   facet normal -5.234194e-002 9.986292e-001 0.000000e+000
      outer loop
         vertex 1.013695e+000 1.096609e+000 0.000000e+000
         vertex 1.013695e+000 1.096609e+000 1.100000e+000
         vertex 1.100000e+000 1.100000e+000 1.100000e+000
      endloop
   endfacet
   facet normal -2.617097e-002 9.996575e-001 0.000000e+000
      outer loop
         vertex 1.013695e+000 1.096609e+000 0.000000e+000
         vertex 1.100000e+000 1.100000e+000 1.100000e+000
         vertex 1.100000e+000 1.100000e+000 0.000000e+000
      endloop
   endfacet
   facet normal 0.000000e+000 0.000000e+000 1.000000e+000
      outer loop
         vertex 0.000000e+000 0.000000e+000 1.100000e+000
         vertex 9.999995e-002 0.000000e+000 1.100000e+000
         vertex 3.390945e-003 8.630501e-002 1.100000e+000
      endloop
   endfacet
   facet normal 0.000000e+000 0.000000e+000 1.000000e+000
      outer loop
         vertex 3.390945e-003 8.630501e-002 1.100000e+000
         vertex 9.999995e-002 0.000000e+000 1.100000e+000
         vertex 1.034155e-001 8.257934e-002 1.100000e+000
      endloop
   endfacet
   facet normal 0.000000e+000 0.000000e+000 1.000000e+000
      outer loop
         vertex 3.390945e-003 8.630501e-002 1.100000e+000
         vertex 1.034155e-001 8.257934e-002 1.100000e+000
         vertex 1.354283e-002 1.720779e-001 1.100000e+000
      endloop
   endfacet
   facet normal 0.000000e+000 0.000000e+000 1.000000e+000
      outer loop
         vertex 1.354283e-002 1.720779e-001 1.100000e+000
         vertex 1.034155e-001 8.257934e-002 1.100000e+000
         vertex 1.136387e-001 1.645946e-001 1.100000e+000
      endloop
   endfacet
   facet normal 0.000000e+000 0.000000e+000 1.000000e+000
      outer loop
         vertex 1.354283e-002 1.720779e-001 1.100000e+000
         vertex 1.136387e-001 1.645946e-001 1.100000e+000
         vertex 3.039313e-002 2.567899e-001 1.100000e+000
      endloop
   endfacet
   facet normal 0.000000e+000 0.000000e+000 1.000000e+000
      outer loop
         vertex 3.039313e-002 2.567899e-001 1.100000e+000
         vertex 1.136387e-001 1.645946e-001 1.100000e+000
         vertex 1.305997e-001 2.454855e-001 1.100000e+000
      endloop
   endfacet
   facet normal 0.000000e+000 0.000000e+000 1.000000e+000
      outer loop
         vertex 3.039313e-002 2.567899e-001 1.100000e+000
         vertex 1.305997e-001 2.454855e-001 1.100000e+000
         vertex 5.383778e-002 3.399187e-001 1.100000e+000
      endloop
   endfacet
   facet normal 0.000000e+000 0.000000e+000 1.000000e+000
      outer loop
         vertex 5.383778e-002 3.399187e-001 1.100000e+000
         vertex 1.305997e-001 2.454855e-001 1.100000e+000
         vertex 1.541828e-001 3.246995e-001 1.100000e+000
      endloop
   endfacet
   facet normal 0.000000e+000 0.000000e+000 1.000000e+000
      outer loop
         vertex 5.383778e-002 3.399187e-001 1.100000e+000
         vertex 1.541828e-001 3.246995e-001 1.100000e+000
         vertex 8.373254e-002 4.209518e-001 1.100000e+000
      endloop
   endfacet
   facet normal 0.000000e+000 0.000000e+000 1.000000e+000
      outer loop
         vertex 8.373254e-002 4.209518e-001 1.100000e+000
         vertex 1.541828e-001 3.246995e-001 1.100000e+000
         vertex 1.842267e-001 4.016954e-001 1.100000e+000
      endloop
   endfacet
   facet normal 0.000000e+000 0.000000e+000 1.000000e+000
      outer loop
         vertex 8.373254e-002 4.209518e-001 1.100000e+000
         vertex 1.842267e-001 4.016954e-001 1.100000e+000
         vertex 1.198928e-001 4.993895e-001 1.100000e+000
      endloop
   endfacet
   facet normal 0.000000e+000 0.000000e+000 1.000000e+000
      outer loop
         vertex 1.198928e-001 4.993895e-001 1.100000e+000
         vertex 1.842267e-001 4.016954e-001 1.100000e+000
         vertex 2.205262e-001 4.759474e-001 1.100000e+000
      endloop
   endfacet
   facet normal 0.000000e+000 0.000000e+000 1.000000e+000
      outer loop
         vertex 1.198928e-001 4.993895e-001 1.100000e+000
         vertex 2.205262e-001 4.759474e-001 1.100000e+000
         vertex 1.620958e-001 5.747485e-001 1.100000e+000
      endloop
   endfacet
   facet normal 0.000000e+000 0.000000e+000 1.000000e+000
      outer loop
         vertex 1.620958e-001 5.747485e-001 1.100000e+000
         vertex 2.205262e-001 4.759474e-001 1.100000e+000
         vertex 2.628335e-001 5.469482e-001 1.100000e+000
      endloop
   endfacet
   facet normal 0.000000e+000 0.000000e+000 1.000000e+000
      outer loop
         vertex 1.620958e-001 5.747485e-001 1.100000e+000
         vertex 2.628335e-001 5.469482e-001 1.100000e+000
         vertex 2.100813e-001 6.465638e-001 1.100000e+000
      endloop
   endfacet
   facet normal 0.000000e+000 0.000000e+000 1.000000e+000
      outer loop
         vertex 2.100813e-001 6.465638e-001 1.100000e+000
         vertex 2.628335e-001 5.469482e-001 1.100000e+000
         vertex 3.108595e-001 6.142127e-001 1.100000e+000
      endloop
   endfacet
   facet normal 0.000000e+000 0.000000e+000 1.000000e+000
      outer loop
         vertex 2.100813e-001 6.465638e-001 1.100000e+000
         vertex 3.108595e-001 6.142127e-001 1.100000e+000
         vertex 2.635534e-001 7.143928e-001 1.100000e+000
      endloop
   endfacet
   facet normal 0.000000e+000 0.000000e+000 1.000000e+000
      outer loop
         vertex 2.635534e-001 7.143928e-001 1.100000e+000
         vertex 3.108595e-001 6.142127e-001 1.100000e+000
         vertex 3.642761e-001 6.772816e-001 1.100000e+000
      endloop
   endfacet
   facet normal 0.000000e+000 0.000000e+000 1.000000e+000
      outer loop
         vertex 2.635534e-001 7.143928e-001 1.100000e+000
         vertex 3.642761e-001 6.772816e-001 1.100000e+000
         vertex 3.221825e-001 7.778174e-001 1.100000e+000
      endloop
   endfacet
   facet normal 0.000000e+000 0.000000e+000 1.000000e+000
      outer loop
         vertex 3.221825e-001 7.778174e-001 1.100000e+000
         vertex 3.642761e-001 6.772816e-001 1.100000e+000
         vertex 4.227184e-001 7.357239e-001 1.100000e+000
      endloop
   endfacet
   facet normal 0.000000e+000 0.000000e+000 1.000000e+000
      outer loop
         vertex 1.100000e+000 1.000000e+000 1.100000e+000
         vertex 1.100000e+000 1.100000e+000 1.100000e+000
         vertex 1.017421e+000 9.965845e-001 1.100000e+000
      endloop
   endfacet
   facet normal 0.000000e+000 0.000000e+000 1.000000e+000
      outer loop
         vertex 1.017421e+000 9.965845e-001 1.100000e+000
         vertex 1.100000e+000 1.100000e+000 1.100000e+000
         vertex 1.013695e+000 1.096609e+000 1.100000e+000
      endloop
   endfacet
   facet normal 0.000000e+000 0.000000e+000 1.000000e+000
      outer loop
         vertex 1.017421e+000 9.965845e-001 1.100000e+000
         vertex 1.013695e+000 1.096609e+000 1.100000e+000
         vertex 9.354054e-001 9.863613e-001 1.100000e+000
      endloop
   endfacet
   facet normal 0.000000e+000 0.000000e+000 1.000000e+000
      outer loop
         vertex 9.354054e-001 9.863613e-001 1.100000e+000
         vertex 1.013695e+000 1.096609e+000 1.100000e+000
         vertex 9.279221e-001 1.086457e+000 1.100000e+000
      endloop
   endfacet
   facet normal 0.000000e+000 0.000000e+000 1.000000e+000
      outer loop
         vertex 9.354054e-001 9.863613e-001 1.100000e+000
         vertex 9.279221e-001 1.086457e+000 1.100000e+000
         vertex 8.545145e-001 9.694003e-001 1.100000e+000
      endloop
   endfacet
   facet normal 0.000000e+000 0.000000e+000 1.000000e+000
      outer loop
         vertex 8.545145e-001 9.694003e-001 1.100000e+000
         vertex 9.279221e-001 1.086457e+000 1.100000e+000
         vertex 8.432101e-001 1.069607e+000 1.100000e+000
      endloop
   endfacet
   facet normal 0.000000e+000 0.000000e+000 1.000000e+000
      outer loop
         vertex 8.545145e-001 9.694003e-001 1.100000e+000
         vertex 8.432101e-001 1.069607e+000 1.100000e+000
         vertex 7.753006e-001 9.458172e-001 1.100000e+000
      endloop
   endfacet
   facet normal 0.000000e+000 0.000000e+000 1.000000e+000
      outer loop
         vertex 7.753006e-001 9.458172e-001 1.100000e+000
         vertex 8.432101e-001 1.069607e+000 1.100000e+000
         vertex 7.600814e-001 1.046162e+000 1.100000e+000
      endloop
   endfacet
   facet normal 0.000000e+000 0.000000e+000 1.000000e+000
      outer loop
         vertex 7.753006e-001 9.458172e-001 1.100000e+000
         vertex 7.600814e-001 1.046162e+000 1.100000e+000
         vertex 6.983045e-001 9.157733e-001 1.100000e+000
      endloop
   endfacet
   facet normal 0.000000e+000 0.000000e+000 1.000000e+000
      outer loop
         vertex 6.983045e-001 9.157733e-001 1.100000e+000
         vertex 7.600814e-001 1.046162e+000 1.100000e+000
         vertex 6.790482e-001 1.016267e+000 1.100000e+000
      endloop
   endfacet
   facet normal 0.000000e+000 0.000000e+000 1.000000e+000
      outer loop
         vertex 6.983045e-001 9.157733e-001 1.100000e+000
         vertex 6.790482e-001 1.016267e+000 1.100000e+000
         vertex 6.240526e-001 8.794737e-001 1.100000e+000
      endloop
   endfacet
   facet normal 0.000000e+000 0.000000e+000 1.000000e+000
      outer loop
         vertex 6.240526e-001 8.794737e-001 1.100000e+000
         vertex 6.790482e-001 1.016267e+000 1.100000e+000
         vertex 6.006104e-001 9.801072e-001 1.100000e+000
      endloop
   endfacet
   facet normal 0.000000e+000 0.000000e+000 1.000000e+000
      outer loop
         vertex 6.240526e-001 8.794737e-001 1.100000e+000
         vertex 6.006104e-001 9.801072e-001 1.100000e+000
         vertex 5.530518e-001 8.371665e-001 1.100000e+000
      endloop
   endfacet
   facet normal 0.000000e+000 0.000000e+000 1.000000e+000
      outer loop
         vertex 5.530518e-001 8.371665e-001 1.100000e+000
         vertex 6.006104e-001 9.801072e-001 1.100000e+000
         vertex 5.252516e-001 9.379042e-001 1.100000e+000
      endloop
   endfacet
   facet normal 0.000000e+000 0.000000e+000 1.000000e+000
      outer loop
         vertex 5.530518e-001 8.371665e-001 1.100000e+000
         vertex 5.252516e-001 9.379042e-001 1.100000e+000
         vertex 4.857873e-001 7.891405e-001 1.100000e+000
      endloop
   endfacet
   facet normal 0.000000e+000 0.000000e+000 1.000000e+000
      outer loop
         vertex 4.857873e-001 7.891405e-001 1.100000e+000
         vertex 5.252516e-001 9.379042e-001 1.100000e+000
         vertex 4.534362e-001 8.899187e-001 1.100000e+000
      endloop
   endfacet
   facet normal 0.000000e+000 0.000000e+000 1.000000e+000
      outer loop
         vertex 4.857873e-001 7.891405e-001 1.100000e+000
         vertex 4.534362e-001 8.899187e-001 1.100000e+000
         vertex 4.227184e-001 7.357239e-001 1.100000e+000
      endloop
   endfacet
   facet normal 0.000000e+000 0.000000e+000 1.000000e+000
      outer loop
         vertex 4.227184e-001 7.357239e-001 1.100000e+000
         vertex 4.534362e-001 8.899187e-001 1.100000e+000
         vertex 3.856071e-001 8.364466e-001 1.100000e+000
      endloop
   endfacet
   facet normal 0.000000e+000 0.000000e+000 1.000000e+000
      outer loop
         vertex 4.227184e-001 7.357239e-001 1.100000e+000
         vertex 3.856071e-001 8.364466e-001 1.100000e+000
         vertex 3.221825e-001 7.778174e-001 1.100000e+000
      endloop
   endfacet
   facet normal 9.425496e-001 -2.597461e-002 3.330549e-001
      outer loop
         vertex 1.034155e-001 8.257934e-002 1.100000e+000
         vertex 9.999995e-002 -2.203439e-017 1.100000e+000
         vertex 3.190442e-001 -1.720788e-017 4.793957e-001
      endloop
   endfacet
   facet normal 9.414753e-001 -5.194923e-002 3.330549e-001
      outer loop
         vertex 3.190442e-001 -1.720788e-017 4.793957e-001
         vertex 3.217115e-001 6.449082e-002 4.793957e-001
         vertex 1.034155e-001 8.257934e-002 1.100000e+000
      endloop
   endfacet
   facet normal 9.395079e-001 -8.091402e-002 3.328332e-001
      outer loop
         vertex 1.034155e-001 8.257934e-002 1.100000e+000
         vertex 3.217115e-001 6.449082e-002 4.793957e-001
         vertex 3.226504e-001 7.202325e-002 4.793957e-001
      endloop
   endfacet
   facet normal 9.368526e-001 -1.067576e-001 3.330316e-001
      outer loop
         vertex 1.034155e-001 8.257934e-002 1.100000e+000
         vertex 3.226504e-001 7.202325e-002 4.793957e-001
         vertex 1.136387e-001 1.645946e-001 1.100000e+000
      endloop
   endfacet
   facet normal 9.335631e-001 -1.325425e-001 3.330051e-001
      outer loop
         vertex 3.226504e-001 7.202325e-002 4.793957e-001
         vertex 3.296954e-001 1.285411e-001 4.793957e-001
         vertex 1.136387e-001 1.645946e-001 1.100000e+000
      endloop
   endfacet
   facet normal 9.290962e-001 -1.612333e-001 3.328425e-001
      outer loop
         vertex 1.136387e-001 1.645946e-001 1.100000e+000
         vertex 3.296954e-001 1.285411e-001 4.793957e-001
         vertex 3.328113e-001 1.434017e-001 4.793957e-001
      endloop
   endfacet
   facet normal 9.242420e-001 -1.867571e-001 3.330145e-001
      outer loop
         vertex 1.136387e-001 1.645946e-001 1.100000e+000
         vertex 3.328113e-001 1.434017e-001 4.793957e-001
         vertex 1.305997e-001 2.454855e-001 1.100000e+000
      endloop
   endfacet
   facet normal 9.187617e-001 -2.121638e-001 3.329616e-001
      outer loop
         vertex 3.328113e-001 1.434017e-001 4.793957e-001
         vertex 3.429412e-001 1.917133e-001 4.793957e-001
         vertex 1.305997e-001 2.454855e-001 1.100000e+000
      endloop
   endfacet
   facet normal 9.118283e-001 -2.403640e-001 3.328580e-001
      outer loop
         vertex 1.305997e-001 2.454855e-001 1.100000e+000
         vertex 3.429412e-001 1.917133e-001 4.793957e-001
         vertex 3.494407e-001 2.135448e-001 4.793957e-001
      endloop
   endfacet
   facet normal 9.048102e-001 -2.653812e-001 3.330036e-001
      outer loop
         vertex 1.305997e-001 2.454855e-001 1.100000e+000
         vertex 3.494407e-001 2.135448e-001 4.793957e-001
         vertex 1.541828e-001 3.246995e-001 1.100000e+000
      endloop
   endfacet
   facet normal 8.971797e-001 -2.902243e-001 3.329242e-001
      outer loop
         vertex 3.494407e-001 2.135448e-001 4.793957e-001
         vertex 3.613585e-001 2.535760e-001 4.793957e-001
         vertex 1.541828e-001 3.246995e-001 1.100000e+000
      endloop
   endfacet
   facet normal 8.878315e-001 -3.177205e-001 3.328798e-001
      outer loop
         vertex 1.541828e-001 3.246995e-001 1.100000e+000
         vertex 3.613585e-001 2.535760e-001 4.793957e-001
         vertex 3.723997e-001 2.818721e-001 4.793957e-001
      endloop
   endfacet
   facet normal 8.787005e-001 -3.420484e-001 3.329988e-001
      outer loop
         vertex 1.541828e-001 3.246995e-001 1.100000e+000
         vertex 3.723997e-001 2.818721e-001 4.793957e-001
         vertex 1.842267e-001 4.016954e-001 1.100000e+000
      endloop
   endfacet
   facet normal 8.689758e-001 -3.661464e-001 3.328930e-001
      outer loop
         vertex 3.723997e-001 2.818721e-001 4.793957e-001
         vertex 3.848215e-001 3.137064e-001 4.793957e-001
         vertex 1.842267e-001 4.016954e-001 1.100000e+000
      endloop
   endfacet
   facet normal 8.572834e-001 -3.927310e-001 3.329079e-001
      outer loop
         vertex 1.842267e-001 4.016954e-001 1.100000e+000
         vertex 3.848215e-001 3.137064e-001 4.793957e-001
         vertex 4.014977e-001 3.478181e-001 4.793957e-001
      endloop
   endfacet
   facet normal 8.461059e-001 -4.161916e-001 3.330004e-001
      outer loop
         vertex 1.842267e-001 4.016954e-001 1.100000e+000
         vertex 4.014977e-001 3.478181e-001 4.793957e-001
         vertex 2.205262e-001 4.759474e-001 1.100000e+000
      endloop
   endfacet
   facet normal 8.343585e-001 -4.393685e-001 3.328681e-001
      outer loop
         vertex 4.014977e-001 3.478181e-001 4.793957e-001
         vertex 4.131699e-001 3.716939e-001 4.793957e-001
         vertex 2.205262e-001 4.759474e-001 1.100000e+000
      endloop
   endfacet
   facet normal 8.204101e-001 -4.648406e-001 3.329421e-001
      outer loop
         vertex 2.205262e-001 4.759474e-001 1.100000e+000
         vertex 4.131699e-001 3.716939e-001 4.793957e-001
         vertex 4.364939e-001 4.108367e-001 4.793957e-001
      endloop
   endfacet
   facet normal 8.072675e-001 -4.872625e-001 3.330082e-001
      outer loop
         vertex 2.205262e-001 4.759474e-001 1.100000e+000
         vertex 4.364939e-001 4.108367e-001 4.793957e-001
         vertex 2.628335e-001 5.469482e-001 1.100000e+000
      endloop
   endfacet
   facet normal 7.935835e-001 -5.093491e-001 3.328495e-001
      outer loop
         vertex 4.364939e-001 4.108367e-001 4.793957e-001
         vertex 4.462100e-001 4.271424e-001 4.793957e-001
         vertex 2.628335e-001 5.469482e-001 1.100000e+000
      endloop
   endfacet
   facet normal 7.774849e-001 -5.335165e-001 3.329826e-001
      outer loop
         vertex 2.628335e-001 5.469482e-001 1.100000e+000
         vertex 4.462100e-001 4.271424e-001 4.793957e-001
         vertex 4.770994e-001 4.704057e-001 4.793957e-001
      endloop
   endfacet
   facet normal 7.624728e-001 -5.547355e-001 3.330223e-001
      outer loop
         vertex 2.628335e-001 5.469482e-001 1.100000e+000
         vertex 4.770994e-001 4.704057e-001 4.793957e-001
         vertex 3.108595e-001 6.142127e-001 1.100000e+000
      endloop
   endfacet
   facet normal 7.469525e-001 -5.755706e-001 3.328370e-001
      outer loop
         vertex 4.770994e-001 4.704057e-001 4.793957e-001
         vertex 4.837161e-001 4.796730e-001 4.793957e-001
         vertex 3.108595e-001 6.142127e-001 1.100000e+000
      endloop
   endfacet
   facet normal 7.288258e-001 -5.982512e-001 3.330293e-001
      outer loop
         vertex 3.108595e-001 6.142127e-001 1.100000e+000
         vertex 4.837161e-001 4.796730e-001 4.793957e-001
         vertex 5.229794e-001 5.260311e-001 4.793957e-001
      endloop
   endfacet
   facet normal 7.120536e-001 -6.181119e-001 3.330425e-001
      outer loop
         vertex 3.108595e-001 6.142127e-001 1.100000e+000
         vertex 5.229794e-001 5.260311e-001 4.793957e-001
         vertex 3.642761e-001 6.772816e-001 1.100000e+000
      endloop
   endfacet
   facet normal 6.948107e-001 -6.375435e-001 3.328308e-001
      outer loop
         vertex 3.642761e-001 6.772816e-001 1.100000e+000
         vertex 5.229794e-001 5.260311e-001 4.793957e-001
         vertex 5.254321e-001 5.289270e-001 4.793957e-001
      endloop
   endfacet
   facet normal 6.758642e-001 -6.574816e-001 3.330549e-001
      outer loop
         vertex 3.642761e-001 6.772816e-001 1.100000e+000
         vertex 5.254321e-001 5.289270e-001 4.793957e-001
         vertex 4.227184e-001 7.357239e-001 1.100000e+000
      endloop
   endfacet
   facet normal 6.574816e-001 -6.758642e-001 3.330549e-001
      outer loop
         vertex 5.254321e-001 5.289270e-001 4.793957e-001
         vertex 5.710731e-001 5.745679e-001 4.793957e-001
         vertex 4.227184e-001 7.357239e-001 1.100000e+000
      endloop
   endfacet
   facet normal 6.375435e-001 -6.948107e-001 3.328308e-001
      outer loop
         vertex 4.227184e-001 7.357239e-001 1.100000e+000
         vertex 5.710731e-001 5.745679e-001 4.793957e-001
         vertex 5.739689e-001 5.770206e-001 4.793957e-001
      endloop
   endfacet
   facet normal 6.181119e-001 -7.120537e-001 3.330424e-001
      outer loop
         vertex 4.227184e-001 7.357239e-001 1.100000e+000
         vertex 5.739689e-001 5.770206e-001 4.793957e-001
         vertex 4.857873e-001 7.891405e-001 1.100000e+000
      endloop
   endfacet
   facet normal 5.982512e-001 -7.288258e-001 3.330293e-001
      outer loop
         vertex 5.739689e-001 5.770206e-001 4.793957e-001
         vertex 6.203269e-001 6.162838e-001 4.793957e-001
         vertex 4.857873e-001 7.891405e-001 1.100000e+000
      endloop
   endfacet
   facet normal 5.755706e-001 -7.469525e-001 3.328370e-001
      outer loop
         vertex 4.857873e-001 7.891405e-001 1.100000e+000
         vertex 6.203269e-001 6.162838e-001 4.793957e-001
         vertex 6.295943e-001 6.229006e-001 4.793957e-001
      endloop
   endfacet
   facet normal 5.547355e-001 -7.624728e-001 3.330223e-001
      outer loop
         vertex 4.857873e-001 7.891405e-001 1.100000e+000
         vertex 6.295943e-001 6.229006e-001 4.793957e-001
         vertex 5.530518e-001 8.371665e-001 1.100000e+000
      endloop
   endfacet
   facet normal 5.335165e-001 -7.774849e-001 3.329826e-001
      outer loop
         vertex 6.295943e-001 6.229006e-001 4.793957e-001
         vertex 6.728576e-001 6.537900e-001 4.793957e-001
         vertex 5.530518e-001 8.371665e-001 1.100000e+000
      endloop
   endfacet
   facet normal 5.093491e-001 -7.935835e-001 3.328495e-001
      outer loop
         vertex 5.530518e-001 8.371665e-001 1.100000e+000
         vertex 6.728576e-001 6.537900e-001 4.793957e-001
         vertex 6.891633e-001 6.635061e-001 4.793957e-001
      endloop
   endfacet
   facet normal 4.872625e-001 -8.072675e-001 3.330082e-001
      outer loop
         vertex 5.530518e-001 8.371665e-001 1.100000e+000
         vertex 6.891633e-001 6.635061e-001 4.793957e-001
         vertex 6.240526e-001 8.794737e-001 1.100000e+000
      endloop
   endfacet
   facet normal 4.648407e-001 -8.204101e-001 3.329421e-001
      outer loop
         vertex 6.891633e-001 6.635061e-001 4.793957e-001
         vertex 7.283061e-001 6.868302e-001 4.793957e-001
         vertex 6.240526e-001 8.794737e-001 1.100000e+000
      endloop
   endfacet
   facet normal 4.393685e-001 -8.343585e-001 3.328681e-001
      outer loop
         vertex 6.240526e-001 8.794737e-001 1.100000e+000
         vertex 7.283061e-001 6.868302e-001 4.793957e-001
         vertex 7.521819e-001 6.985023e-001 4.793957e-001
      endloop
   endfacet
   facet normal 4.161916e-001 -8.461059e-001 3.330004e-001
      outer loop
         vertex 6.240526e-001 8.794737e-001 1.100000e+000
         vertex 7.521819e-001 6.985023e-001 4.793957e-001
         vertex 6.983045e-001 9.157733e-001 1.100000e+000
      endloop
   endfacet
   facet normal 3.927310e-001 -8.572834e-001 3.329079e-001
      outer loop
         vertex 7.521819e-001 6.985023e-001 4.793957e-001
         vertex 7.862936e-001 7.151785e-001 4.793957e-001
         vertex 6.983045e-001 9.157733e-001 1.100000e+000
      endloop
   endfacet
   facet normal 3.661464e-001 -8.689758e-001 3.328930e-001
      outer loop
         vertex 6.983045e-001 9.157733e-001 1.100000e+000
         vertex 7.862936e-001 7.151785e-001 4.793957e-001
         vertex 8.181279e-001 7.276003e-001 4.793957e-001
      endloop
   endfacet
   facet normal 3.420485e-001 -8.787005e-001 3.329988e-001
      outer loop
         vertex 6.983045e-001 9.157733e-001 1.100000e+000
         vertex 8.181279e-001 7.276003e-001 4.793957e-001
         vertex 7.753006e-001 9.458172e-001 1.100000e+000
      endloop
   endfacet
   facet normal 3.177205e-001 -8.878315e-001 3.328798e-001
      outer loop
         vertex 8.181279e-001 7.276003e-001 4.793957e-001
         vertex 8.464240e-001 7.386415e-001 4.793957e-001
         vertex 7.753006e-001 9.458172e-001 1.100000e+000
      endloop
   endfacet
   facet normal 2.902243e-001 -8.971797e-001 3.329242e-001
      outer loop
         vertex 7.753006e-001 9.458172e-001 1.100000e+000
         vertex 8.464240e-001 7.386415e-001 4.793957e-001
         vertex 8.864552e-001 7.505593e-001 4.793957e-001
      endloop
   endfacet
   facet normal 2.653812e-001 -9.048102e-001 3.330036e-001
      outer loop
         vertex 7.753006e-001 9.458172e-001 1.100000e+000
         vertex 8.864552e-001 7.505593e-001 4.793957e-001
         vertex 8.545145e-001 9.694003e-001 1.100000e+000
      endloop
   endfacet
   facet normal 2.403640e-001 -9.118283e-001 3.328580e-001
      outer loop
         vertex 8.864552e-001 7.505593e-001 4.793957e-001
         vertex 9.082866e-001 7.570588e-001 4.793957e-001
         vertex 8.545145e-001 9.694003e-001 1.100000e+000
      endloop
   endfacet
   facet normal 2.121638e-001 -9.187617e-001 3.329615e-001
      outer loop
         vertex 8.545145e-001 9.694003e-001 1.100000e+000
         vertex 9.082866e-001 7.570588e-001 4.793957e-001
         vertex 9.565983e-001 7.671887e-001 4.793957e-001
      endloop
   endfacet
   facet normal 1.867571e-001 -9.242420e-001 3.330145e-001
      outer loop
         vertex 8.545145e-001 9.694003e-001 1.100000e+000
         vertex 9.565983e-001 7.671887e-001 4.793957e-001
         vertex 9.354054e-001 9.863613e-001 1.100000e+000
      endloop
   endfacet
   facet normal 2.597461e-002 -9.425496e-001 3.330549e-001
      outer loop
         vertex 1.100000e+000 7.809559e-001 4.793957e-001
         vertex 1.100000e+000 1.000000e+000 1.100000e+000
         vertex 1.035509e+000 7.782885e-001 4.793957e-001
      endloop
   endfacet
   facet normal 5.194923e-002 -9.414753e-001 3.330549e-001
      outer loop
         vertex 1.035509e+000 7.782885e-001 4.793957e-001
         vertex 1.100000e+000 1.000000e+000 1.100000e+000
         vertex 1.017421e+000 9.965845e-001 1.100000e+000
      endloop
   endfacet
   facet normal 8.091402e-002 -9.395079e-001 3.328332e-001
      outer loop
         vertex 1.035509e+000 7.782885e-001 4.793957e-001
         vertex 1.017421e+000 9.965845e-001 1.100000e+000
         vertex 1.027977e+000 7.773496e-001 4.793957e-001
      endloop
   endfacet
   facet normal 1.067576e-001 -9.368526e-001 3.330316e-001
      outer loop
         vertex 1.027977e+000 7.773496e-001 4.793957e-001
         vertex 1.017421e+000 9.965845e-001 1.100000e+000
         vertex 9.354054e-001 9.863613e-001 1.100000e+000
      endloop
   endfacet
   facet normal 1.325425e-001 -9.335631e-001 3.330051e-001
      outer loop
         vertex 1.027977e+000 7.773496e-001 4.793957e-001
         vertex 9.354054e-001 9.863613e-001 1.100000e+000
         vertex 9.714589e-001 7.703046e-001 4.793957e-001
      endloop
   endfacet
   facet normal 1.612333e-001 -9.290962e-001 3.328425e-001
      outer loop
         vertex 9.714589e-001 7.703046e-001 4.793957e-001
         vertex 9.354054e-001 9.863613e-001 1.100000e+000
         vertex 9.565983e-001 7.671887e-001 4.793957e-001
      endloop
   endfacet
   facet normal 6.573408e-001 -1.811488e-002 7.533756e-001
      outer loop
         vertex 3.190442e-001 4.781975e-017 4.793957e-001
         vertex 6.000000e-001 3.061617e-017 2.339746e-001
         vertex 3.217115e-001 6.449082e-002 4.793957e-001
      endloop
   endfacet
   facet normal 6.564335e-001 -3.835684e-002 7.534081e-001
      outer loop
         vertex 3.217115e-001 6.449082e-002 4.793957e-001
         vertex 6.000000e-001 3.061617e-017 2.339746e-001
         vertex 6.021329e-001 4.613418e-002 2.339746e-001
      endloop
   endfacet
   facet normal 6.552572e-001 -5.857405e-002 7.531316e-001
      outer loop
         vertex 3.217115e-001 6.449082e-002 4.793957e-001
         vertex 6.021329e-001 4.613418e-002 2.339746e-001
         vertex 3.226504e-001 7.202325e-002 4.793957e-001
      endloop
   endfacet
   facet normal 6.546371e-001 -6.501476e-002 7.531423e-001
      outer loop
         vertex 3.226504e-001 7.202325e-002 4.793957e-001
         vertex 6.021329e-001 4.613418e-002 2.339746e-001
         vertex 6.034997e-001 5.593260e-002 2.339746e-001
      endloop
   endfacet
   facet normal 6.527034e-001 -8.089066e-002 7.532827e-001
      outer loop
         vertex 3.226504e-001 7.202325e-002 4.793957e-001
         vertex 6.034997e-001 5.593260e-002 2.339746e-001
         vertex 3.296954e-001 1.285411e-001 4.793957e-001
      endloop
   endfacet
   facet normal 6.499032e-001 -1.009581e-001 7.532817e-001
      outer loop
         vertex 3.296954e-001 1.285411e-001 4.793957e-001
         vertex 6.034997e-001 5.593260e-002 2.339746e-001
         vertex 6.085134e-001 9.187476e-002 2.339746e-001
      endloop
   endfacet
   facet normal 6.474276e-001 -1.166827e-001 7.531418e-001
      outer loop
         vertex 3.296954e-001 1.285411e-001 4.793957e-001
         vertex 6.085134e-001 9.187476e-002 2.339746e-001
         vertex 3.328113e-001 1.434017e-001 4.793957e-001
      endloop
   endfacet
   facet normal 6.438202e-001 -1.344451e-001 7.532729e-001
      outer loop
         vertex 3.328113e-001 1.434017e-001 4.793957e-001
         vertex 6.085134e-001 9.187476e-002 2.339746e-001
         vertex 3.429412e-001 1.917133e-001 4.793957e-001
      endloop
   endfacet
   facet normal 6.420265e-001 -1.429440e-001 7.532390e-001
      outer loop
         vertex 3.429412e-001 1.917133e-001 4.793957e-001
         vertex 6.085134e-001 9.187476e-002 2.339746e-001
         vertex 6.130448e-001 1.111408e-001 2.339746e-001
      endloop
   endfacet
   facet normal 6.373594e-001 -1.626546e-001 7.532040e-001
      outer loop
         vertex 3.429412e-001 1.917133e-001 4.793957e-001
         vertex 6.130448e-001 1.111408e-001 2.339746e-001
         vertex 3.494407e-001 2.135448e-001 4.793957e-001
      endloop
   endfacet
   facet normal 6.357193e-001 -1.688399e-001 7.532291e-001
      outer loop
         vertex 3.494407e-001 2.135448e-001 4.793957e-001
         vertex 6.130448e-001 1.111408e-001 2.339746e-001
         vertex 6.190872e-001 1.368315e-001 2.339746e-001
      endloop
   endfacet
   facet normal 6.293366e-001 -1.912519e-001 7.532318e-001
      outer loop
         vertex 3.494407e-001 2.135448e-001 4.793957e-001
         vertex 6.190872e-001 1.368315e-001 2.339746e-001
         vertex 3.613585e-001 2.535760e-001 4.793957e-001
      endloop
   endfacet
   facet normal 6.254106e-001 -2.036771e-001 7.532445e-001
      outer loop
         vertex 3.613585e-001 2.535760e-001 4.793957e-001
         vertex 6.190872e-001 1.368315e-001 2.339746e-001
         vertex 6.285229e-001 1.649838e-001 2.339746e-001
      endloop
   endfacet
   facet normal 6.189164e-001 -2.228646e-001 7.531759e-001
      outer loop
         vertex 3.613585e-001 2.535760e-001 4.793957e-001
         vertex 6.285229e-001 1.649838e-001 2.339746e-001
         vertex 3.723997e-001 2.818721e-001 4.793957e-001
      endloop
   endfacet
   facet normal 6.159829e-001 -2.308760e-001 7.531675e-001
      outer loop
         vertex 3.723997e-001 2.818721e-001 4.793957e-001
         vertex 6.285229e-001 1.649838e-001 2.339746e-001
         vertex 6.337638e-001 1.806208e-001 2.339746e-001
      endloop
   endfacet
   facet normal 6.098436e-001 -2.465449e-001 7.531975e-001
      outer loop
         vertex 3.723997e-001 2.818721e-001 4.793957e-001
         vertex 6.337638e-001 1.806208e-001 2.339746e-001
         vertex 3.848215e-001 3.137064e-001 4.793957e-001
      endloop
   endfacet
   facet normal 6.030141e-001 -2.625154e-001 7.532992e-001
      outer loop
         vertex 3.848215e-001 3.137064e-001 4.793957e-001
         vertex 6.337638e-001 1.806208e-001 2.339746e-001
         vertex 6.497546e-001 2.168363e-001 2.339746e-001
      endloop
   endfacet
   facet normal 5.947493e-001 -2.810120e-001 7.531968e-001
      outer loop
         vertex 3.848215e-001 3.137064e-001 4.793957e-001
         vertex 6.497546e-001 2.168363e-001 2.339746e-001
         vertex 4.014977e-001 3.478181e-001 4.793957e-001
      endloop
   endfacet
   facet normal 5.901804e-001 -2.906470e-001 7.531344e-001
      outer loop
         vertex 4.014977e-001 3.478181e-001 4.793957e-001
         vertex 6.497546e-001 2.168363e-001 2.339746e-001
         vertex 6.524184e-001 2.228692e-001 2.339746e-001
      endloop
   endfacet
   facet normal 5.854959e-001 -2.998821e-001 7.531701e-001
      outer loop
         vertex 4.014977e-001 3.478181e-001 4.793957e-001
         vertex 6.524184e-001 2.228692e-001 2.339746e-001
         vertex 4.131699e-001 3.716939e-001 4.793957e-001
      endloop
   endfacet
   facet normal 5.757890e-001 -3.176596e-001 7.533653e-001
      outer loop
         vertex 4.131699e-001 3.716939e-001 4.793957e-001
         vertex 6.524184e-001 2.228692e-001 2.339746e-001
         vertex 6.748914e-001 2.632161e-001 2.339746e-001
      endloop
   endfacet
   facet normal 5.658426e-001 -3.353123e-001 7.532514e-001
      outer loop
         vertex 4.131699e-001 3.716939e-001 4.793957e-001
         vertex 6.748914e-001 2.632161e-001 2.339746e-001
         vertex 4.364939e-001 4.108367e-001 4.793957e-001
      endloop
   endfacet
   facet normal 5.564882e-001 -3.508372e-001 7.531495e-001
      outer loop
         vertex 4.364939e-001 4.108367e-001 4.793957e-001
         vertex 6.748914e-001 2.632161e-001 2.339746e-001
         vertex 4.462100e-001 4.271424e-001 4.793957e-001
      endloop
   endfacet
   facet normal 5.557218e-001 -3.520589e-001 7.531453e-001
      outer loop
         vertex 4.462100e-001 4.271424e-001 4.793957e-001
         vertex 6.748914e-001 2.632161e-001 2.339746e-001
         vertex 6.767547e-001 2.659360e-001 2.339746e-001
      endloop
   endfacet
   facet normal 5.444215e-001 -3.688729e-001 7.533512e-001
      outer loop
         vertex 4.462100e-001 4.271424e-001 4.793957e-001
         vertex 6.767547e-001 2.659360e-001 2.339746e-001
         vertex 4.770994e-001 4.704057e-001 4.793957e-001
      endloop
   endfacet
   facet normal 5.358649e-001 -3.811102e-001 7.533948e-001
      outer loop
         vertex 4.770994e-001 4.704057e-001 4.793957e-001
         vertex 6.767547e-001 2.659360e-001 2.339746e-001
         vertex 7.009914e-001 3.013173e-001 2.339746e-001
      endloop
   endfacet
   facet normal 5.230517e-001 -3.990030e-001 7.531359e-001
      outer loop
         vertex 4.770994e-001 4.704057e-001 4.793957e-001
         vertex 7.009914e-001 3.013173e-001 2.339746e-001
         vertex 4.837161e-001 4.796730e-001 4.793957e-001
      endloop
   endfacet
   facet normal 5.195141e-001 -4.035771e-001 7.531471e-001
      outer loop
         vertex 4.837161e-001 4.796730e-001 4.793957e-001
         vertex 7.009914e-001 3.013173e-001 2.339746e-001
         vertex 7.094193e-001 3.114667e-001 2.339746e-001
      endloop
   endfacet
   facet normal 5.066885e-001 -4.192575e-001 7.533192e-001
      outer loop
         vertex 4.837161e-001 4.796730e-001 4.793957e-001
         vertex 7.094193e-001 3.114667e-001 2.339746e-001
         vertex 5.229794e-001 5.260311e-001 4.793957e-001
      endloop
   endfacet
   facet normal 4.956705e-001 -4.322858e-001 7.532860e-001
      outer loop
         vertex 5.229794e-001 5.260311e-001 4.793957e-001
         vertex 7.094193e-001 3.114667e-001 2.339746e-001
         vertex 7.304956e-001 3.368478e-001 2.339746e-001
      endloop
   endfacet
   facet normal 4.854538e-001 -4.439948e-001 7.531289e-001
      outer loop
         vertex 5.229794e-001 5.260311e-001 4.793957e-001
         vertex 7.304956e-001 3.368478e-001 2.339746e-001
         vertex 5.254321e-001 5.289270e-001 4.793957e-001
      endloop
   endfacet
   facet normal 4.785029e-001 -4.513619e-001 7.531981e-001
      outer loop
         vertex 5.254321e-001 5.289270e-001 4.793957e-001
         vertex 7.304956e-001 3.368478e-001 2.339746e-001
         vertex 7.468238e-001 3.531761e-001 2.339746e-001
      endloop
   endfacet
   facet normal 4.650368e-001 -4.650368e-001 7.533138e-001
      outer loop
         vertex 5.254321e-001 5.289270e-001 4.793957e-001
         vertex 7.468238e-001 3.531761e-001 2.339746e-001
         vertex 5.710731e-001 5.745679e-001 4.793957e-001
      endloop
   endfacet
   facet normal 4.513629e-001 -4.785019e-001 7.531981e-001
      outer loop
         vertex 5.710731e-001 5.745679e-001 4.793957e-001
         vertex 7.468238e-001 3.531761e-001 2.339746e-001
         vertex 5.739689e-001 5.770206e-001 4.793957e-001
      endloop
   endfacet
   facet normal 4.505809e-001 -4.792269e-001 7.532054e-001
      outer loop
         vertex 5.739689e-001 5.770206e-001 4.793957e-001
         vertex 7.468238e-001 3.531761e-001 2.339746e-001
         vertex 7.631521e-001 3.695045e-001 2.339746e-001
      endloop
   endfacet
   facet normal 4.302890e-001 -4.973118e-001 7.533474e-001
      outer loop
         vertex 5.739689e-001 5.770206e-001 4.793957e-001
         vertex 7.631521e-001 3.695045e-001 2.339746e-001
         vertex 6.203269e-001 6.162838e-001 4.793957e-001
      endloop
   endfacet
   facet normal 4.192564e-001 -5.066895e-001 7.533192e-001
      outer loop
         vertex 6.203269e-001 6.162838e-001 4.793957e-001
         vertex 7.631521e-001 3.695045e-001 2.339746e-001
         vertex 7.885333e-001 3.905807e-001 2.339746e-001
      endloop
   endfacet
   facet normal 4.035794e-001 -5.195124e-001 7.531471e-001
      outer loop
         vertex 6.203269e-001 6.162838e-001 4.793957e-001
         vertex 7.885333e-001 3.905807e-001 2.339746e-001
         vertex 6.295943e-001 6.229006e-001 4.793957e-001
      endloop
   endfacet
   facet normal 4.010437e-001 -5.214634e-001 7.531533e-001
      outer loop
         vertex 6.295943e-001 6.229006e-001 4.793957e-001
         vertex 7.885333e-001 3.905807e-001 2.339746e-001
         vertex 7.986827e-001 3.990086e-001 2.339746e-001
      endloop
   endfacet
   facet normal 3.843340e-001 -5.336969e-001 7.532960e-001
      outer loop
         vertex 6.295943e-001 6.229006e-001 4.793957e-001
         vertex 7.986827e-001 3.990086e-001 2.339746e-001
         vertex 6.728576e-001 6.537900e-001 4.793957e-001
      endloop
   endfacet
   facet normal 3.688706e-001 -5.444232e-001 7.533510e-001
      outer loop
         vertex 6.728576e-001 6.537900e-001 4.793957e-001
         vertex 7.986827e-001 3.990086e-001 2.339746e-001
         vertex 8.340639e-001 4.232453e-001 2.339746e-001
      endloop
   endfacet
   facet normal 3.520612e-001 -5.557204e-001 7.531453e-001
      outer loop
         vertex 6.728576e-001 6.537900e-001 4.793957e-001
         vertex 8.340639e-001 4.232453e-001 2.339746e-001
         vertex 6.891633e-001 6.635061e-001 4.793957e-001
      endloop
   endfacet
   facet normal 3.475549e-001 -5.585708e-001 7.531297e-001
      outer loop
         vertex 6.891633e-001 6.635061e-001 4.793957e-001
         vertex 8.340639e-001 4.232453e-001 2.339746e-001
         vertex 8.367839e-001 4.251086e-001 2.339746e-001
      endloop
   endfacet
   facet normal 3.353122e-001 -5.658426e-001 7.532515e-001
      outer loop
         vertex 6.891633e-001 6.635061e-001 4.793957e-001
         vertex 8.367839e-001 4.251086e-001 2.339746e-001
         vertex 7.283061e-001 6.868302e-001 4.793957e-001
      endloop
   endfacet
   facet normal 3.176596e-001 -5.757890e-001 7.533653e-001
      outer loop
         vertex 7.283061e-001 6.868302e-001 4.793957e-001
         vertex 8.367839e-001 4.251086e-001 2.339746e-001
         vertex 8.771308e-001 4.475816e-001 2.339746e-001
      endloop
   endfacet
   facet normal 2.998821e-001 -5.854959e-001 7.531701e-001
      outer loop
         vertex 7.283061e-001 6.868302e-001 4.793957e-001
         vertex 8.771308e-001 4.475816e-001 2.339746e-001
         vertex 7.521819e-001 6.985023e-001 4.793957e-001
      endloop
   endfacet
   facet normal 2.836148e-001 -5.934910e-001 7.532138e-001
      outer loop
         vertex 7.521819e-001 6.985023e-001 4.793957e-001
         vertex 8.771308e-001 4.475816e-001 2.339746e-001
         vertex 7.862936e-001 7.151785e-001 4.793957e-001
      endloop
   endfacet
   facet normal 2.810108e-001 -5.947499e-001 7.531968e-001
      outer loop
         vertex 7.862936e-001 7.151785e-001 4.793957e-001
         vertex 8.771308e-001 4.475816e-001 2.339746e-001
         vertex 8.831636e-001 4.502454e-001 2.339746e-001
      endloop
   endfacet
   facet normal 2.625149e-001 -6.030142e-001 7.532992e-001
      outer loop
         vertex 7.862936e-001 7.151785e-001 4.793957e-001
         vertex 8.831636e-001 4.502454e-001 2.339746e-001
         vertex 8.181279e-001 7.276003e-001 4.793957e-001
      endloop
   endfacet
   facet normal 2.536608e-001 -6.067222e-001 7.533554e-001
      outer loop
         vertex 8.181279e-001 7.276003e-001 4.793957e-001
         vertex 8.831636e-001 4.502454e-001 2.339746e-001
         vertex 9.193792e-001 4.662361e-001 2.339746e-001
      endloop
   endfacet
   facet normal 2.296544e-001 -6.164206e-001 7.531829e-001
      outer loop
         vertex 8.181279e-001 7.276003e-001 4.793957e-001
         vertex 9.193792e-001 4.662361e-001 2.339746e-001
         vertex 8.464240e-001 7.386415e-001 4.793957e-001
      endloop
   endfacet
   facet normal 2.228651e-001 -6.189162e-001 7.531759e-001
      outer loop
         vertex 8.464240e-001 7.386415e-001 4.793957e-001
         vertex 9.193792e-001 4.662361e-001 2.339746e-001
         vertex 9.350162e-001 4.714771e-001 2.339746e-001
      endloop
   endfacet
   facet normal 2.036752e-001 -6.254112e-001 7.532445e-001
      outer loop
         vertex 8.464240e-001 7.386415e-001 4.793957e-001
         vertex 9.350162e-001 4.714771e-001 2.339746e-001
         vertex 8.864552e-001 7.505593e-001 4.793957e-001
      endloop
   endfacet
   facet normal 1.924845e-001 -6.289318e-001 7.532560e-001
      outer loop
         vertex 8.864552e-001 7.505593e-001 4.793957e-001
         vertex 9.350162e-001 4.714771e-001 2.339746e-001
         vertex 9.631685e-001 4.809128e-001 2.339746e-001
      endloop
   endfacet
   facet normal 1.738618e-001 -6.344475e-001 7.531589e-001
      outer loop
         vertex 8.864552e-001 7.505593e-001 4.793957e-001
         vertex 9.631685e-001 4.809128e-001 2.339746e-001
         vertex 9.082866e-001 7.570588e-001 4.793957e-001
      endloop
   endfacet
   facet normal 1.626566e-001 -6.373589e-001 7.532042e-001
      outer loop
         vertex 9.082866e-001 7.570588e-001 4.793957e-001
         vertex 9.631685e-001 4.809128e-001 2.339746e-001
         vertex 9.888592e-001 4.869552e-001 2.339746e-001
      endloop
   endfacet
   facet normal 1.429411e-001 -6.420271e-001 7.532390e-001
      outer loop
         vertex 9.082866e-001 7.570588e-001 4.793957e-001
         vertex 9.888592e-001 4.869552e-001 2.339746e-001
         vertex 9.565983e-001 7.671887e-001 4.793957e-001
      endloop
   endfacet
   facet normal 1.293916e-001 -6.449576e-001 7.531850e-001
      outer loop
         vertex 9.565983e-001 7.671887e-001 4.793957e-001
         vertex 9.888592e-001 4.869552e-001 2.339746e-001
         vertex 1.008125e+000 4.914866e-001 2.339746e-001
      endloop
   endfacet
   facet normal 1.166827e-001 -6.474276e-001 7.531418e-001
      outer loop
         vertex 9.565983e-001 7.671887e-001 4.793957e-001
         vertex 1.008125e+000 4.914866e-001 2.339746e-001
         vertex 9.714589e-001 7.703046e-001 4.793957e-001
      endloop
   endfacet
   facet normal 1.009581e-001 -6.499032e-001 7.532816e-001
      outer loop
         vertex 9.714589e-001 7.703046e-001 4.793957e-001
         vertex 1.008125e+000 4.914866e-001 2.339746e-001
         vertex 1.044067e+000 4.965003e-001 2.339746e-001
      endloop
   endfacet
   facet normal 8.089066e-002 -6.527034e-001 7.532828e-001
      outer loop
         vertex 9.714589e-001 7.703046e-001 4.793957e-001
         vertex 1.044067e+000 4.965003e-001 2.339746e-001
         vertex 1.027977e+000 7.773496e-001 4.793957e-001
      endloop
   endfacet
   facet normal 6.501476e-002 -6.546371e-001 7.531423e-001
      outer loop
         vertex 1.027977e+000 7.773496e-001 4.793957e-001
         vertex 1.044067e+000 4.965003e-001 2.339746e-001
         vertex 1.053866e+000 4.978670e-001 2.339746e-001
      endloop
   endfacet
   facet normal 5.857405e-002 -6.552572e-001 7.531316e-001
      outer loop
         vertex 1.027977e+000 7.773496e-001 4.793957e-001
         vertex 1.053866e+000 4.978670e-001 2.339746e-001
         vertex 1.035509e+000 7.782885e-001 4.793957e-001
      endloop
   endfacet
   facet normal 3.835684e-002 -6.564335e-001 7.534081e-001
      outer loop
         vertex 1.035509e+000 7.782885e-001 4.793957e-001
         vertex 1.053866e+000 4.978670e-001 2.339746e-001
         vertex 1.100000e+000 5.000000e-001 2.339746e-001
      endloop
   endfacet
   facet normal 1.811488e-002 -6.573408e-001 7.533756e-001
      outer loop
         vertex 1.035509e+000 7.782885e-001 4.793957e-001
         vertex 1.100000e+000 5.000000e-001 2.339746e-001
         vertex 1.100000e+000 7.809559e-001 4.793957e-001
      endloop
   endfacet
   facet normal 1.000000e+000 -3.491481e-015 0.000000e+000
      outer loop
         vertex 1.100000e+000 1.100000e+000 0.000000e+000
         vertex 1.100000e+000 1.100000e+000 1.100000e+000
         vertex 1.100000e+000 1.000000e+000 1.100000e+000
      endloop
   endfacet
   facet normal 1.000000e+000 -3.491481e-015 0.000000e+000
      outer loop
         vertex 1.100000e+000 0.000000e+000 9.999999e-002
         vertex 1.100000e+000 0.000000e+000 0.000000e+000
         vertex 1.100000e+000 5.000000e-001 2.339746e-001
      endloop
   endfacet
   facet normal 1.000000e+000 -3.491481e-015 0.000000e+000
      outer loop
         vertex 1.100000e+000 5.000000e-001 2.339746e-001
         vertex 1.100000e+000 0.000000e+000 0.000000e+000
         vertex 1.100000e+000 1.100000e+000 0.000000e+000
      endloop
   endfacet
   facet normal 1.000000e+000 -3.491481e-015 0.000000e+000
      outer loop
         vertex 1.100000e+000 5.000000e-001 2.339746e-001
         vertex 1.100000e+000 1.100000e+000 0.000000e+000
         vertex 1.100000e+000 7.809559e-001 4.793957e-001
      endloop
   endfacet
   facet normal 1.000000e+000 -3.491481e-015 0.000000e+000
      outer loop
         vertex 1.100000e+000 7.809559e-001 4.793957e-001
         vertex 1.100000e+000 1.100000e+000 0.000000e+000
         vertex 1.100000e+000 1.000000e+000 1.100000e+000
      endloop
   endfacet
   facet normal 0.000000e+000 -1.000000e+000 0.000000e+000
      outer loop
         vertex 0.000000e+000 0.000000e+000 0.000000e+000
         vertex 1.100000e+000 0.000000e+000 0.000000e+000
         vertex 1.100000e+000 0.000000e+000 9.999999e-002
      endloop
   endfacet
   facet normal 0.000000e+000 -1.000000e+000 0.000000e+000
      outer loop
         vertex 9.999995e-002 0.000000e+000 1.100000e+000
         vertex 0.000000e+000 0.000000e+000 1.100000e+000
         vertex 3.190442e-001 0.000000e+000 4.793957e-001
      endloop
   endfacet
   facet normal 0.000000e+000 -1.000000e+000 0.000000e+000
      outer loop
         vertex 3.190442e-001 0.000000e+000 4.793957e-001
         vertex 0.000000e+000 0.000000e+000 1.100000e+000
         vertex 0.000000e+000 0.000000e+000 0.000000e+000
      endloop
   endfacet
   facet normal 0.000000e+000 -1.000000e+000 0.000000e+000
      outer loop
         vertex 3.190442e-001 0.000000e+000 4.793957e-001
         vertex 0.000000e+000 0.000000e+000 0.000000e+000
         vertex 6.000000e-001 0.000000e+000 2.339746e-001
      endloop
   endfacet
   facet normal 0.000000e+000 -1.000000e+000 0.000000e+000
      outer loop
         vertex 6.000000e-001 0.000000e+000 2.339746e-001
         vertex 0.000000e+000 0.000000e+000 0.000000e+000
         vertex 1.100000e+000 0.000000e+000 9.999999e-002
      endloop
   endfacet
endsolid