solid Поддон левый
   facet normal 1.000000e+000 0.000000e+000 0.000000e+000
      outer loop
         vertex 1.100000e+000 1.000000e+000 0.000000e+000
         vertex 1.100000e+000 1.000000e+000 9.999999e-002
         vertex 1.100000e+000 0.000000e+000 0.000000e+000
      endloop
   endfacet
   facet normal 1.000000e+000 0.000000e+000 0.000000e+000
      outer loop
         vertex 1.100000e+000 0.000000e+000 0.000000e+000
         vertex 1.100000e+000 1.000000e+000 9.999999e-002
         vertex 1.100000e+000 0.000000e+000 9.999999e-002
      endloop
   endfacet
   facet normal 0.000000e+000 0.000000e+000 -1.000000e+000
      outer loop
         vertex 0.000000e+000 1.000000e+000 0.000000e+000
         vertex 1.100000e+000 1.000000e+000 0.000000e+000
         vertex 0.000000e+000 0.000000e+000 0.000000e+000
      endloop
   endfacet
   facet normal 0.000000e+000 0.000000e+000 -1.000000e+000
      outer loop
         vertex 0.000000e+000 0.000000e+000 0.000000e+000
         vertex 1.100000e+000 1.000000e+000 0.000000e+000
         vertex 1.100000e+000 0.000000e+000 0.000000e+000
      endloop
   endfacet
   facet normal -1.000000e+000 0.000000e+000 1.971277e-016
      outer loop
         vertex 0.000000e+000 1.000000e+000 1.100000e+000
         vertex 0.000000e+000 1.000000e+000 0.000000e+000
         vertex 0.000000e+000 0.000000e+000 1.100000e+000
      endloop
   endfacet
   facet normal -1.000000e+000 0.000000e+000 1.971277e-016
      outer loop
         vertex 0.000000e+000 0.000000e+000 1.100000e+000
         vertex 0.000000e+000 1.000000e+000 0.000000e+000
         vertex 0.000000e+000 0.000000e+000 0.000000e+000
      endloop
   endfacet
   facet normal -4.336809e-015 0.000000e+000 1.000000e+000
      outer loop
         vertex 9.999995e-002 1.000000e+000 1.100000e+000
         vertex 0.000000e+000 1.000000e+000 1.100000e+000
         vertex 9.999995e-002 0.000000e+000 1.100000e+000
      endloop
   endfacet
   facet normal -4.336809e-015 0.000000e+000 1.000000e+000
      outer loop
         vertex 9.999995e-002 0.000000e+000 1.100000e+000
         vertex 0.000000e+000 1.000000e+000 1.100000e+000
         vertex 0.000000e+000 0.000000e+000 1.100000e+000
      endloop
   endfacet
   facet normal 9.429868e-001 0.000000e+000 3.328301e-001
      outer loop
         vertex 3.190442e-001 1.000000e+000 4.793957e-001
         vertex 9.999995e-002 1.000000e+000 1.100000e+000
         vertex 3.190442e-001 0.000000e+000 4.793957e-001
      endloop
   endfacet
   facet normal 9.429868e-001 0.000000e+000 3.328301e-001
      outer loop
         vertex 3.190442e-001 0.000000e+000 4.793957e-001
         vertex 9.999995e-002 1.000000e+000 1.100000e+000
         vertex 9.999995e-002 0.000000e+000 1.100000e+000
      endloop
   endfacet
   facet normal 6.578739e-001 0.000000e+000 7.531281e-001
      outer loop
         vertex 6.000000e-001 1.000000e+000 2.339746e-001
         vertex 3.190442e-001 1.000000e+000 4.793957e-001
         vertex 6.000000e-001 0.000000e+000 2.339746e-001
      endloop
   endfacet
   facet normal 6.578739e-001 0.000000e+000 7.531281e-001
      outer loop
         vertex 6.000000e-001 0.000000e+000 2.339746e-001
         vertex 3.190442e-001 1.000000e+000 4.793957e-001
         vertex 3.190442e-001 0.000000e+000 4.793957e-001
      endloop
   endfacet
   facet normal 2.588190e-001 0.000000e+000 9.659259e-001
      outer loop
         vertex 1.100000e+000 1.000000e+000 9.999999e-002
         vertex 6.000000e-001 1.000000e+000 2.339746e-001
         vertex 1.100000e+000 -4.336809e-016 9.999999e-002
      endloop
   endfacet
   facet normal 2.588190e-001 0.000000e+000 9.659259e-001
      outer loop
         vertex 1.100000e+000 -4.336809e-016 9.999999e-002
         vertex 6.000000e-001 1.000000e+000 2.339746e-001
         vertex 6.000000e-001 -4.336809e-016 2.339746e-001
      endloop
   endfacet
   facet normal 0.000000e+000 1.000000e+000 0.000000e+000
      outer loop
         vertex 0.000000e+000 1.000000e+000 0.000000e+000
         vertex 0.000000e+000 1.000000e+000 1.100000e+000
         vertex 9.999995e-002 1.000000e+000 1.100000e+000
      endloop
   endfacet
   facet normal 0.000000e+000 1.000000e+000 0.000000e+000
      outer loop
         vertex 1.100000e+000 1.000000e+000 9.999999e-002
         vertex 1.100000e+000 1.000000e+000 0.000000e+000
         vertex 6.000000e-001 1.000000e+000 2.339746e-001
      endloop
   endfacet
   facet normal 0.000000e+000 1.000000e+000 0.000000e+000
      outer loop
         vertex 6.000000e-001 1.000000e+000 2.339746e-001
         vertex 1.100000e+000 1.000000e+000 0.000000e+000
         vertex 0.000000e+000 1.000000e+000 0.000000e+000
      endloop
   endfacet
   facet normal 0.000000e+000 1.000000e+000 0.000000e+000
      outer loop
         vertex 6.000000e-001 1.000000e+000 2.339746e-001
         vertex 0.000000e+000 1.000000e+000 0.000000e+000
         vertex 3.190442e-001 1.000000e+000 4.793957e-001
      endloop
   endfacet
   facet normal 0.000000e+000 1.000000e+000 0.000000e+000
      outer loop
         vertex 3.190442e-001 1.000000e+000 4.793957e-001
         vertex 0.000000e+000 1.000000e+000 0.000000e+000
         vertex 9.999995e-002 1.000000e+000 1.100000e+000
      endloop
   endfacet
   facet normal 0.000000e+000 -1.000000e+000 0.000000e+000
      outer loop
         vertex 0.000000e+000 0.000000e+000 0.000000e+000
         vertex 1.100000e+000 0.000000e+000 0.000000e+000
         vertex 1.100000e+000 0.000000e+000 9.999999e-002
      endloop
   endfacet
   facet normal 0.000000e+000 -1.000000e+000 0.000000e+000
      outer loop
         vertex 9.999995e-002 0.000000e+000 1.100000e+000
         vertex 0.000000e+000 0.000000e+000 1.100000e+000
         vertex 3.190442e-001 0.000000e+000 4.793957e-001
      endloop
   endfacet
   facet normal 0.000000e+000 -1.000000e+000 0.000000e+000
      outer loop
         vertex 3.190442e-001 0.000000e+000 4.793957e-001
         vertex 0.000000e+000 0.000000e+000 1.100000e+000
         vertex 0.000000e+000 0.000000e+000 0.000000e+000
      endloop
   endfacet
   facet normal 0.000000e+000 -1.000000e+000 0.000000e+000
      outer loop
         vertex 3.190442e-001 0.000000e+000 4.793957e-001
         vertex 0.000000e+000 0.000000e+000 0.000000e+000
         vertex 6.000000e-001 0.000000e+000 2.339746e-001
      endloop
   endfacet
   facet normal 0.000000e+000 -1.000000e+000 0.000000e+000
      outer loop
         vertex 6.000000e-001 0.000000e+000 2.339746e-001
         vertex 0.000000e+000 0.000000e+000 0.000000e+000
         vertex 1.100000e+000 0.000000e+000 9.999999e-002
      endloop
   endfacet
endsolid