solid Поддон левый нижний
   facet normal 2.573666e-001 2.728223e-002 9.659286e-001
      outer loop
         vertex 6.025894e-001 1.053892e+000 2.339746e-001
         vertex 6.031439e-001 1.044018e+000 2.339746e-001
         vertex 1.100000e+000 1.100000e+000 9.999999e-002
      endloop
   endfacet
   facet normal 2.530266e-001 5.425037e-002 9.659371e-001
      outer loop
         vertex 6.092218e-001 1.008246e+000 2.339746e-001
         vertex 6.125360e-001 9.887396e-001 2.339746e-001
         vertex 1.100000e+000 1.100000e+000 9.999999e-002
      endloop
   endfacet
   facet normal 2.458495e-001 8.059976e-002 9.659512e-001
      outer loop
         vertex 6.198404e-001 9.633855e-001 2.339746e-001
         vertex 6.280583e-001 9.348604e-001 2.339746e-001
         vertex 1.100000e+000 1.100000e+000 9.999999e-002
      endloop
   endfacet
   facet normal 2.359177e-001 1.060328e-001 9.659709e-001
      outer loop
         vertex 6.343673e-001 9.196291e-001 2.339746e-001
         vertex 6.495155e-001 8.830581e-001 2.339746e-001
         vertex 1.100000e+000 1.100000e+000 9.999999e-002
      endloop
   endfacet
   facet normal 2.194490e-001 1.372182e-001 9.659262e-001
      outer loop
         vertex 6.750438e-001 8.368682e-001 2.339746e-001
         vertex 6.766379e-001 8.339840e-001 2.339746e-001
         vertex 1.100000e+000 1.100000e+000 9.999999e-002
      endloop
   endfacet
   facet normal 2.037486e-001 1.595749e-001 9.659308e-001
      outer loop
         vertex 7.014531e-001 7.990103e-001 2.339746e-001
         vertex 7.090842e-001 7.882552e-001 2.339746e-001
         vertex 1.100000e+000 1.100000e+000 9.999999e-002
      endloop
   endfacet
   facet normal 1.857671e-001 1.801341e-001 9.659412e-001
      outer loop
         vertex 7.310638e-001 7.636600e-001 2.339746e-001
         vertex 7.464466e-001 7.464466e-001 2.339746e-001
         vertex 1.100000e+000 1.100000e+000 9.999999e-002
      endloop
   endfacet
   facet normal 1.657088e-001 1.986640e-001 9.659572e-001
      outer loop
         vertex 7.636600e-001 7.310638e-001 2.339746e-001
         vertex 7.882552e-001 7.090842e-001 2.339746e-001
         vertex 1.100000e+000 1.100000e+000 9.999999e-002
      endloop
   endfacet
   facet normal 1.133181e-001 2.326884e-001 9.659271e-001
      outer loop
         vertex 8.772888e-001 6.527042e-001 2.339746e-001
         vertex 8.830581e-001 6.495155e-001 2.339746e-001
         vertex 1.100000e+000 1.100000e+000 9.999999e-002
      endloop
   endfacet
   facet normal 8.815202e-002 2.433134e-001 9.659336e-001
      outer loop
         vertex 9.196291e-001 6.343673e-001 2.339746e-001
         vertex 9.348604e-001 6.280583e-001 2.339746e-001
         vertex 1.100000e+000 1.100000e+000 9.999999e-002
      endloop
   endfacet
   facet normal 6.200569e-002 2.512049e-001 9.659458e-001
      outer loop
         vertex 9.633855e-001 6.198404e-001 2.339746e-001
         vertex 9.887396e-001 6.125360e-001 2.339746e-001
         vertex 1.100000e+000 1.100000e+000 9.999999e-002
      endloop
   endfacet
   facet normal 2.558583e-002 2.575407e-001 9.659286e-001
      outer loop
         vertex 1.100000e+000 1.100000e+000 9.999999e-002
         vertex 1.044018e+000 6.031439e-001 2.339746e-001
         vertex 1.053892e+000 6.025894e-001 2.339746e-001
      endloop
   endfacet
   facet normal 7.963629e-003 2.584672e-001 9.659873e-001
      outer loop
         vertex 1.100000e+000 6.000000e-001 2.339746e-001
         vertex 1.100000e+000 1.100000e+000 9.999999e-002
         vertex 1.053892e+000 6.025894e-001 2.339746e-001
      endloop
   endfacet
   facet normal 3.517504e-002 2.562748e-001 9.659638e-001
      outer loop
         vertex 1.008246e+000 6.092218e-001 2.339746e-001
         vertex 1.044018e+000 6.031439e-001 2.339746e-001
         vertex 1.100000e+000 1.100000e+000 9.999999e-002
      endloop
   endfacet
   facet normal 5.090742e-002 2.537203e-001 9.659371e-001
      outer loop
         vertex 9.887396e-001 6.125360e-001 2.339746e-001
         vertex 1.008246e+000 6.092218e-001 2.339746e-001
         vertex 1.100000e+000 1.100000e+000 9.999999e-002
      endloop
   endfacet
   facet normal 7.571476e-002 2.473976e-001 9.659512e-001
      outer loop
         vertex 9.348604e-001 6.280583e-001 2.339746e-001
         vertex 9.633855e-001 6.198404e-001 2.339746e-001
         vertex 1.100000e+000 1.100000e+000 9.999999e-002
      endloop
   endfacet
   facet normal 9.976307e-002 2.386367e-001 9.659709e-001
      outer loop
         vertex 8.830581e-001 6.495155e-001 2.339746e-001
         vertex 9.196291e-001 6.343673e-001 2.339746e-001
         vertex 1.100000e+000 1.100000e+000 9.999999e-002
      endloop
   endfacet
   facet normal 1.367364e-001 2.197495e-001 9.659262e-001
      outer loop
         vertex 1.100000e+000 1.100000e+000 9.999999e-002
         vertex 8.339840e-001 6.766379e-001 2.339746e-001
         vertex 8.368682e-001 6.750438e-001 2.339746e-001
      endloop
   endfacet
   facet normal 1.438013e-001 2.149563e-001 9.659788e-001
      outer loop
         vertex 7.990103e-001 7.014531e-001 2.339746e-001
         vertex 8.339840e-001 6.766379e-001 2.339746e-001
         vertex 1.100000e+000 1.100000e+000 9.999999e-002
      endloop
   endfacet
   facet normal 1.223320e-001 2.278235e-001 9.659873e-001
      outer loop
         vertex 8.368682e-001 6.750438e-001 2.339746e-001
         vertex 8.772888e-001 6.527042e-001 2.339746e-001
         vertex 1.100000e+000 1.100000e+000 9.999999e-002
      endloop
   endfacet
   facet normal 1.577780e-001 2.051432e-001 9.659308e-001
      outer loop
         vertex 7.882552e-001 7.090842e-001 2.339746e-001
         vertex 7.990103e-001 7.014531e-001 2.339746e-001
         vertex 1.100000e+000 1.100000e+000 9.999999e-002
      endloop
   endfacet
   facet normal 1.772525e-001 1.885185e-001 9.659412e-001
      outer loop
         vertex 7.464466e-001 7.464466e-001 2.339746e-001
         vertex 7.636600e-001 7.310638e-001 2.339746e-001
         vertex 1.100000e+000 1.100000e+000 9.999999e-002
      endloop
   endfacet
   facet normal 1.949686e-001 1.700413e-001 9.659572e-001
      outer loop
         vertex 7.090842e-001 7.882552e-001 2.339746e-001
         vertex 7.310638e-001 7.636600e-001 2.339746e-001
         vertex 1.100000e+000 1.100000e+000 9.999999e-002
      endloop
   endfacet
   facet normal 2.107522e-001 1.498951e-001 9.659788e-001
      outer loop
         vertex 6.766379e-001 8.339840e-001 2.339746e-001
         vertex 7.014531e-001 7.990103e-001 2.339746e-001
         vertex 1.100000e+000 1.100000e+000 9.999999e-002
      endloop
   endfacet
   facet normal 2.239438e-001 1.292976e-001 9.659873e-001
      outer loop
         vertex 6.527042e-001 8.772888e-001 2.339746e-001
         vertex 6.750438e-001 8.368682e-001 2.339746e-001
         vertex 1.100000e+000 1.100000e+000 9.999999e-002
      endloop
   endfacet
   facet normal 2.321886e-001 1.143387e-001 9.659271e-001
      outer loop
         vertex 6.495155e-001 8.830581e-001 2.339746e-001
         vertex 6.527042e-001 8.772888e-001 2.339746e-001
         vertex 1.100000e+000 1.100000e+000 9.999999e-002
      endloop
   endfacet
   facet normal 2.423299e-001 9.082086e-002 9.659336e-001
      outer loop
         vertex 6.280583e-001 9.348604e-001 2.339746e-001
         vertex 6.343673e-001 9.196291e-001 2.339746e-001
         vertex 1.100000e+000 1.100000e+000 9.999999e-002
      endloop
   endfacet
   facet normal 2.500746e-001 6.641752e-002 9.659458e-001
      outer loop
         vertex 6.125360e-001 9.887396e-001 2.339746e-001
         vertex 6.198404e-001 9.633855e-001 2.339746e-001
         vertex 1.100000e+000 1.100000e+000 9.999999e-002
      endloop
   endfacet
   facet normal 2.553479e-001 4.137041e-002 9.659638e-001
      outer loop
         vertex 6.031439e-001 1.044018e+000 2.339746e-001
         vertex 6.092218e-001 1.008246e+000 2.339746e-001
         vertex 1.100000e+000 1.100000e+000 9.999999e-002
      endloop
   endfacet
   facet normal 2.580989e-001 1.592726e-002 9.659873e-001
      outer loop
         vertex 6.000000e-001 1.100000e+000 2.339746e-001
         vertex 6.025894e-001 1.053892e+000 2.339746e-001
         vertex 1.100000e+000 1.100000e+000 9.999999e-002
      endloop
   endfacet
   facet normal 0.000000e+000 0.000000e+000 -1.000000e+000
      outer loop
         vertex 1.100000e+000 1.100000e+000 0.000000e+000
         vertex 1.100000e+000 0.000000e+000 0.000000e+000
         vertex 1.013695e+000 3.390945e-003 0.000000e+000
      endloop
   endfacet
   facet normal 0.000000e+000 0.000000e+000 -1.000000e+000
      outer loop
         vertex 1.100000e+000 1.100000e+000 0.000000e+000
         vertex 5.383778e-002 7.600814e-001 0.000000e+000
         vertex 3.039313e-002 8.432101e-001 0.000000e+000
      endloop
   endfacet
   facet normal 0.000000e+000 0.000000e+000 -1.000000e+000
      outer loop
         vertex 3.039313e-002 8.432101e-001 0.000000e+000
         vertex 1.354283e-002 9.279221e-001 0.000000e+000
         vertex 1.100000e+000 1.100000e+000 0.000000e+000
      endloop
   endfacet
   facet normal 0.000000e+000 0.000000e+000 -1.000000e+000
      outer loop
         vertex 1.100000e+000 1.100000e+000 0.000000e+000
         vertex 1.354283e-002 9.279221e-001 0.000000e+000
         vertex 3.390945e-003 1.013695e+000 0.000000e+000
      endloop
   endfacet
   facet normal 0.000000e+000 0.000000e+000 -1.000000e+000
      outer loop
         vertex 1.100000e+000 1.100000e+000 0.000000e+000
         vertex 3.390945e-003 1.013695e+000 0.000000e+000
         vertex 0.000000e+000 1.100000e+000 0.000000e+000
      endloop
   endfacet
   facet normal 0.000000e+000 0.000000e+000 -1.000000e+000
      outer loop
         vertex 1.013695e+000 3.390945e-003 0.000000e+000
         vertex 9.279221e-001 1.354283e-002 0.000000e+000
         vertex 1.100000e+000 1.100000e+000 0.000000e+000
      endloop
   endfacet
   facet normal 0.000000e+000 0.000000e+000 -1.000000e+000
      outer loop
         vertex 1.100000e+000 1.100000e+000 0.000000e+000
         vertex 9.279221e-001 1.354283e-002 0.000000e+000
         vertex 8.432101e-001 3.039313e-002 0.000000e+000
      endloop
   endfacet
   facet normal 0.000000e+000 0.000000e+000 -1.000000e+000
      outer loop
         vertex 1.100000e+000 1.100000e+000 0.000000e+000
         vertex 8.432101e-001 3.039313e-002 0.000000e+000
         vertex 7.600814e-001 5.383778e-002 0.000000e+000
      endloop
   endfacet
   facet normal 0.000000e+000 0.000000e+000 -1.000000e+000
      outer loop
         vertex 5.252516e-001 1.620958e-001 0.000000e+000
         vertex 4.534362e-001 2.100813e-001 0.000000e+000
         vertex 1.100000e+000 1.100000e+000 0.000000e+000
      endloop
   endfacet
   facet normal 0.000000e+000 0.000000e+000 -1.000000e+000
      outer loop
         vertex 1.100000e+000 1.100000e+000 0.000000e+000
         vertex 4.534362e-001 2.100813e-001 0.000000e+000
         vertex 3.856071e-001 2.635534e-001 0.000000e+000
      endloop
   endfacet
   facet normal 0.000000e+000 0.000000e+000 -1.000000e+000
      outer loop
         vertex 1.100000e+000 1.100000e+000 0.000000e+000
         vertex 3.856071e-001 2.635534e-001 0.000000e+000
         vertex 3.221825e-001 3.221825e-001 0.000000e+000
      endloop
   endfacet
   facet normal 0.000000e+000 0.000000e+000 -1.000000e+000
      outer loop
         vertex 1.620958e-001 5.252516e-001 0.000000e+000
         vertex 1.198928e-001 6.006104e-001 0.000000e+000
         vertex 1.100000e+000 1.100000e+000 0.000000e+000
      endloop
   endfacet
   facet normal 0.000000e+000 0.000000e+000 -1.000000e+000
      outer loop
         vertex 1.100000e+000 1.100000e+000 0.000000e+000
         vertex 1.198928e-001 6.006104e-001 0.000000e+000
         vertex 8.373254e-002 6.790482e-001 0.000000e+000
      endloop
   endfacet
   facet normal 0.000000e+000 0.000000e+000 -1.000000e+000
      outer loop
         vertex 1.100000e+000 1.100000e+000 0.000000e+000
         vertex 8.373254e-002 6.790482e-001 0.000000e+000
         vertex 5.383778e-002 7.600814e-001 0.000000e+000
      endloop
   endfacet
   facet normal 0.000000e+000 0.000000e+000 -1.000000e+000
      outer loop
         vertex 3.221825e-001 3.221825e-001 0.000000e+000
         vertex 2.635534e-001 3.856071e-001 0.000000e+000
         vertex 1.100000e+000 1.100000e+000 0.000000e+000
      endloop
   endfacet
   facet normal 0.000000e+000 0.000000e+000 -1.000000e+000
      outer loop
         vertex 1.100000e+000 1.100000e+000 0.000000e+000
         vertex 2.635534e-001 3.856071e-001 0.000000e+000
         vertex 2.100813e-001 4.534362e-001 0.000000e+000
      endloop
   endfacet
   facet normal 0.000000e+000 0.000000e+000 -1.000000e+000
      outer loop
         vertex 1.100000e+000 1.100000e+000 0.000000e+000
         vertex 2.100813e-001 4.534362e-001 0.000000e+000
         vertex 1.620958e-001 5.252516e-001 0.000000e+000
      endloop
   endfacet
   facet normal 0.000000e+000 0.000000e+000 -1.000000e+000
      outer loop
         vertex 7.600814e-001 5.383778e-002 0.000000e+000
         vertex 6.790482e-001 8.373254e-002 0.000000e+000
         vertex 1.100000e+000 1.100000e+000 0.000000e+000
      endloop
   endfacet
   facet normal 0.000000e+000 0.000000e+000 -1.000000e+000
      outer loop
         vertex 1.100000e+000 1.100000e+000 0.000000e+000
         vertex 6.790482e-001 8.373254e-002 0.000000e+000
         vertex 6.006104e-001 1.198928e-001 0.000000e+000
      endloop
   endfacet
   facet normal 0.000000e+000 0.000000e+000 -1.000000e+000
      outer loop
         vertex 1.100000e+000 1.100000e+000 0.000000e+000
         vertex 6.006104e-001 1.198928e-001 0.000000e+000
         vertex 5.252516e-001 1.620958e-001 0.000000e+000
      endloop
   endfacet
   facet normal -9.996575e-001 -2.617097e-002 0.000000e+000
      outer loop
         vertex 0.000000e+000 1.100000e+000 1.100000e+000
         vertex 0.000000e+000 1.100000e+000 0.000000e+000
         vertex 3.390945e-003 1.013695e+000 0.000000e+000
      endloop
   endfacet
   facet normal -9.986292e-001 -5.234194e-002 0.000000e+000
      outer loop
         vertex 0.000000e+000 1.100000e+000 1.100000e+000
         vertex 3.390945e-003 1.013695e+000 0.000000e+000
         vertex 3.390945e-003 1.013695e+000 1.100000e+000
      endloop
   endfacet
   facet normal -9.945225e-001 -1.045225e-001 0.000000e+000
      outer loop
         vertex 3.390945e-003 1.013695e+000 1.100000e+000
         vertex 3.390945e-003 1.013695e+000 0.000000e+000
         vertex 1.354283e-002 9.279221e-001 0.000000e+000
      endloop
   endfacet
   facet normal -9.914441e-001 -1.305321e-001 0.000000e+000
      outer loop
         vertex 3.390945e-003 1.013695e+000 1.100000e+000
         vertex 1.354283e-002 9.279221e-001 0.000000e+000
         vertex 1.354283e-002 9.279221e-001 1.100000e+000
      endloop
   endfacet
   facet normal -9.832560e-001 -1.822296e-001 0.000000e+000
      outer loop
         vertex 1.354283e-002 9.279221e-001 1.100000e+000
         vertex 1.354283e-002 9.279221e-001 0.000000e+000
         vertex 3.039313e-002 8.432101e-001 0.000000e+000
      endloop
   endfacet
   facet normal -9.781464e-001 -2.079175e-001 0.000000e+000
      outer loop
         vertex 1.354283e-002 9.279221e-001 1.100000e+000
         vertex 3.039313e-002 8.432101e-001 0.000000e+000
         vertex 3.039313e-002 8.432101e-001 1.100000e+000
      endloop
   endfacet
   facet normal -9.659274e-001 -2.588133e-001 0.000000e+000
      outer loop
         vertex 3.039313e-002 8.432101e-001 1.100000e+000
         vertex 3.039313e-002 8.432101e-001 0.000000e+000
         vertex 5.383778e-002 7.600814e-001 0.000000e+000
      endloop
   endfacet
   facet normal -9.588180e-001 -2.840211e-001 0.000000e+000
      outer loop
         vertex 3.039313e-002 8.432101e-001 1.100000e+000
         vertex 5.383778e-002 7.600814e-001 0.000000e+000
         vertex 5.383778e-002 7.600814e-001 1.100000e+000
      endloop
   endfacet
   facet normal -9.426435e-001 -3.338012e-001 0.000000e+000
      outer loop
         vertex 5.383778e-002 7.600814e-001 1.100000e+000
         vertex 5.383778e-002 7.600814e-001 0.000000e+000
         vertex 8.373254e-002 6.790482e-001 0.000000e+000
      endloop
   endfacet
   facet normal -9.335783e-001 -3.583735e-001 0.000000e+000
      outer loop
         vertex 5.383778e-002 7.600814e-001 1.100000e+000
         vertex 8.373254e-002 6.790482e-001 0.000000e+000
         vertex 8.373254e-002 6.790482e-001 1.100000e+000
      endloop
   endfacet
   facet normal -9.135479e-001 -4.067312e-001 0.000000e+000
      outer loop
         vertex 8.373254e-002 6.790482e-001 1.100000e+000
         vertex 8.373254e-002 6.790482e-001 0.000000e+000
         vertex 1.198928e-001 6.006104e-001 0.000000e+000
      endloop
   endfacet
   facet normal -9.025827e-001 -4.305165e-001 0.000000e+000
      outer loop
         vertex 8.373254e-002 6.790482e-001 1.100000e+000
         vertex 1.198928e-001 6.006104e-001 0.000000e+000
         vertex 1.198928e-001 6.006104e-001 1.100000e+000
      endloop
   endfacet
   facet normal -8.788199e-001 -4.771535e-001 0.000000e+000
      outer loop
         vertex 1.198928e-001 6.006104e-001 1.100000e+000
         vertex 1.198928e-001 6.006104e-001 0.000000e+000
         vertex 1.620958e-001 5.252516e-001 0.000000e+000
      endloop
   endfacet
   facet normal -8.660224e-001 -5.000052e-001 0.000000e+000
      outer loop
         vertex 1.198928e-001 6.006104e-001 1.100000e+000
         vertex 1.620958e-001 5.252516e-001 0.000000e+000
         vertex 1.620958e-001 5.252516e-001 1.100000e+000
      endloop
   endfacet
   facet normal -8.386738e-001 -5.446340e-001 0.000000e+000
      outer loop
         vertex 1.620958e-001 5.252516e-001 1.100000e+000
         vertex 1.620958e-001 5.252516e-001 0.000000e+000
         vertex 2.100813e-001 4.534362e-001 0.000000e+000
      endloop
   endfacet
   facet normal -8.241228e-001 -5.664112e-001 0.000000e+000
      outer loop
         vertex 1.620958e-001 5.252516e-001 1.100000e+000
         vertex 2.100813e-001 4.534362e-001 0.000000e+000
         vertex 2.100813e-001 4.534362e-001 1.100000e+000
      endloop
   endfacet
   facet normal -7.933570e-001 -6.087567e-001 0.000000e+000
      outer loop
         vertex 2.100813e-001 4.534362e-001 1.100000e+000
         vertex 2.100813e-001 4.534362e-001 0.000000e+000
         vertex 2.635534e-001 3.856071e-001 0.000000e+000
      endloop
   endfacet
   facet normal -7.771422e-001 -6.293250e-001 0.000000e+000
      outer loop
         vertex 2.100813e-001 4.534362e-001 1.100000e+000
         vertex 2.635534e-001 3.856071e-001 0.000000e+000
         vertex 2.635534e-001 3.856071e-001 1.100000e+000
      endloop
   endfacet
   facet normal -7.431488e-001 -6.691262e-001 0.000000e+000
      outer loop
         vertex 2.635534e-001 3.856071e-001 1.100000e+000
         vertex 2.635534e-001 3.856071e-001 0.000000e+000
         vertex 3.221825e-001 3.221825e-001 0.000000e+000
      endloop
   endfacet
   facet normal -7.253702e-001 -6.883590e-001 0.000000e+000
      outer loop
         vertex 2.635534e-001 3.856071e-001 1.100000e+000
         vertex 3.221825e-001 3.221825e-001 0.000000e+000
         vertex 3.221825e-001 3.221825e-001 1.100000e+000
      endloop
   endfacet
   facet normal -6.883590e-001 -7.253702e-001 0.000000e+000
      outer loop
         vertex 3.221825e-001 3.221825e-001 1.100000e+000
         vertex 3.221825e-001 3.221825e-001 0.000000e+000
         vertex 3.856071e-001 2.635534e-001 0.000000e+000
      endloop
   endfacet
   facet normal -6.691262e-001 -7.431488e-001 0.000000e+000
      outer loop
         vertex 3.221825e-001 3.221825e-001 1.100000e+000
         vertex 3.856071e-001 2.635534e-001 0.000000e+000
         vertex 3.856071e-001 2.635534e-001 1.100000e+000
      endloop
   endfacet
   facet normal -6.293250e-001 -7.771422e-001 0.000000e+000
      outer loop
         vertex 3.856071e-001 2.635534e-001 1.100000e+000
         vertex 3.856071e-001 2.635534e-001 0.000000e+000
         vertex 4.534362e-001 2.100813e-001 0.000000e+000
      endloop
   endfacet
   facet normal -6.087567e-001 -7.933570e-001 0.000000e+000
      outer loop
         vertex 3.856071e-001 2.635534e-001 1.100000e+000
         vertex 4.534362e-001 2.100813e-001 0.000000e+000
         vertex 4.534362e-001 2.100813e-001 1.100000e+000
      endloop
   endfacet
   facet normal -5.664112e-001 -8.241228e-001 0.000000e+000
      outer loop
         vertex 4.534362e-001 2.100813e-001 1.100000e+000
         vertex 4.534362e-001 2.100813e-001 0.000000e+000
         vertex 5.252516e-001 1.620958e-001 0.000000e+000
      endloop
   endfacet
   facet normal -5.446340e-001 -8.386738e-001 0.000000e+000
      outer loop
         vertex 4.534362e-001 2.100813e-001 1.100000e+000
         vertex 5.252516e-001 1.620958e-001 0.000000e+000
         vertex 5.252516e-001 1.620958e-001 1.100000e+000
      endloop
   endfacet
   facet normal -5.000052e-001 -8.660224e-001 0.000000e+000
      outer loop
         vertex 5.252516e-001 1.620958e-001 1.100000e+000
         vertex 5.252516e-001 1.620958e-001 0.000000e+000
         vertex 6.006104e-001 1.198928e-001 0.000000e+000
      endloop
   endfacet
   facet normal -4.771535e-001 -8.788199e-001 0.000000e+000
      outer loop
         vertex 5.252516e-001 1.620958e-001 1.100000e+000
         vertex 6.006104e-001 1.198928e-001 0.000000e+000
         vertex 6.006104e-001 1.198928e-001 1.100000e+000
      endloop
   endfacet
   facet normal -4.305165e-001 -9.025827e-001 0.000000e+000
      outer loop
         vertex 6.006104e-001 1.198928e-001 1.100000e+000
         vertex 6.006104e-001 1.198928e-001 0.000000e+000
         vertex 6.790482e-001 8.373254e-002 0.000000e+000
      endloop
   endfacet
   facet normal -4.067312e-001 -9.135479e-001 0.000000e+000
      outer loop
         vertex 6.006104e-001 1.198928e-001 1.100000e+000
         vertex 6.790482e-001 8.373254e-002 0.000000e+000
         vertex 6.790482e-001 8.373254e-002 1.100000e+000
      endloop
   endfacet
   facet normal -3.583735e-001 -9.335783e-001 0.000000e+000
      outer loop
         vertex 6.790482e-001 8.373254e-002 1.100000e+000
         vertex 6.790482e-001 8.373254e-002 0.000000e+000
         vertex 7.600814e-001 5.383778e-002 0.000000e+000
      endloop
   endfacet
   facet normal -3.338012e-001 -9.426435e-001 0.000000e+000
      outer loop
         vertex 6.790482e-001 8.373254e-002 1.100000e+000
         vertex 7.600814e-001 5.383778e-002 0.000000e+000
         vertex 7.600814e-001 5.383778e-002 1.100000e+000
      endloop
   endfacet
   facet normal -2.840210e-001 -9.588181e-001 0.000000e+000
      outer loop
         vertex 7.600814e-001 5.383778e-002 1.100000e+000
         vertex 7.600814e-001 5.383778e-002 0.000000e+000
         vertex 8.432101e-001 3.039313e-002 0.000000e+000
      endloop
   endfacet
   facet normal -2.588133e-001 -9.659274e-001 0.000000e+000
      outer loop
         vertex 7.600814e-001 5.383778e-002 1.100000e+000
         vertex 8.432101e-001 3.039313e-002 0.000000e+000
         vertex 8.432101e-001 3.039313e-002 1.100000e+000
      endloop
   endfacet
   facet normal -2.079175e-001 -9.781464e-001 0.000000e+000
      outer loop
         vertex 8.432101e-001 3.039313e-002 1.100000e+000
         vertex 8.432101e-001 3.039313e-002 0.000000e+000
         vertex 9.279221e-001 1.354283e-002 0.000000e+000
      endloop
   endfacet
   facet normal -1.822297e-001 -9.832560e-001 0.000000e+000
      outer loop
         vertex 8.432101e-001 3.039313e-002 1.100000e+000
         vertex 9.279221e-001 1.354283e-002 0.000000e+000
         vertex 9.279221e-001 1.354283e-002 1.100000e+000
      endloop
   endfacet
   facet normal -1.305321e-001 -9.914441e-001 0.000000e+000
      outer loop
         vertex 9.279221e-001 1.354283e-002 1.100000e+000
         vertex 9.279221e-001 1.354283e-002 0.000000e+000
         vertex 1.013695e+000 3.390945e-003 0.000000e+000
      endloop
   endfacet
   facet normal -1.045225e-001 -9.945225e-001 0.000000e+000
      outer loop
         vertex 9.279221e-001 1.354283e-002 1.100000e+000
         vertex 1.013695e+000 3.390945e-003 0.000000e+000
         vertex 1.013695e+000 3.390945e-003 1.100000e+000
      endloop
   endfacet
   facet normal -5.234194e-002 -9.986292e-001 0.000000e+000
      outer loop
         vertex 1.013695e+000 3.390945e-003 1.100000e+000
         vertex 1.013695e+000 3.390945e-003 0.000000e+000
         vertex 1.100000e+000 0.000000e+000 0.000000e+000
      endloop
   endfacet
   facet normal -2.617097e-002 -9.996575e-001 0.000000e+000
      outer loop
         vertex 1.013695e+000 3.390945e-003 1.100000e+000
         vertex 1.100000e+000 0.000000e+000 0.000000e+000
         vertex 1.100000e+000 0.000000e+000 1.100000e+000
      endloop
   endfacet
   facet normal 0.000000e+000 0.000000e+000 1.000000e+000
      outer loop
         vertex 3.642761e-001 4.227184e-001 1.100000e+000
         vertex 3.221825e-001 3.221825e-001 1.100000e+000
         vertex 4.227184e-001 3.642761e-001 1.100000e+000
      endloop
   endfacet
   facet normal 0.000000e+000 0.000000e+000 1.000000e+000
      outer loop
         vertex 4.227184e-001 3.642761e-001 1.100000e+000
         vertex 3.221825e-001 3.221825e-001 1.100000e+000
         vertex 3.856071e-001 2.635534e-001 1.100000e+000
      endloop
   endfacet
   facet normal 0.000000e+000 0.000000e+000 1.000000e+000
      outer loop
         vertex 4.227184e-001 3.642761e-001 1.100000e+000
         vertex 3.856071e-001 2.635534e-001 1.100000e+000
         vertex 4.857873e-001 3.108595e-001 1.100000e+000
      endloop
   endfacet
   facet normal 0.000000e+000 0.000000e+000 1.000000e+000
      outer loop
         vertex 4.857873e-001 3.108595e-001 1.100000e+000
         vertex 3.856071e-001 2.635534e-001 1.100000e+000
         vertex 4.534362e-001 2.100813e-001 1.100000e+000
      endloop
   endfacet
   facet normal 0.000000e+000 0.000000e+000 1.000000e+000
      outer loop
         vertex 4.857873e-001 3.108595e-001 1.100000e+000
         vertex 4.534362e-001 2.100813e-001 1.100000e+000
         vertex 5.530518e-001 2.628335e-001 1.100000e+000
      endloop
   endfacet
   facet normal 0.000000e+000 0.000000e+000 1.000000e+000
      outer loop
         vertex 5.530518e-001 2.628335e-001 1.100000e+000
         vertex 4.534362e-001 2.100813e-001 1.100000e+000
         vertex 5.252516e-001 1.620958e-001 1.100000e+000
      endloop
   endfacet
   facet normal 0.000000e+000 0.000000e+000 1.000000e+000
      outer loop
         vertex 5.530518e-001 2.628335e-001 1.100000e+000
         vertex 5.252516e-001 1.620958e-001 1.100000e+000
         vertex 6.240526e-001 2.205262e-001 1.100000e+000
      endloop
   endfacet
   facet normal 0.000000e+000 0.000000e+000 1.000000e+000
      outer loop
         vertex 6.240526e-001 2.205262e-001 1.100000e+000
         vertex 5.252516e-001 1.620958e-001 1.100000e+000
         vertex 6.006104e-001 1.198928e-001 1.100000e+000
      endloop
   endfacet
   facet normal 0.000000e+000 0.000000e+000 1.000000e+000
      outer loop
         vertex 6.240526e-001 2.205262e-001 1.100000e+000
         vertex 6.006104e-001 1.198928e-001 1.100000e+000
         vertex 6.983045e-001 1.842267e-001 1.100000e+000
      endloop
   endfacet
   facet normal 0.000000e+000 0.000000e+000 1.000000e+000
      outer loop
         vertex 6.983045e-001 1.842267e-001 1.100000e+000
         vertex 6.006104e-001 1.198928e-001 1.100000e+000
         vertex 6.790482e-001 8.373254e-002 1.100000e+000
      endloop
   endfacet
   facet normal 0.000000e+000 0.000000e+000 1.000000e+000
      outer loop
         vertex 6.983045e-001 1.842267e-001 1.100000e+000
         vertex 6.790482e-001 8.373254e-002 1.100000e+000
         vertex 7.753006e-001 1.541828e-001 1.100000e+000
      endloop
   endfacet
   facet normal 0.000000e+000 0.000000e+000 1.000000e+000
      outer loop
         vertex 7.753006e-001 1.541828e-001 1.100000e+000
         vertex 6.790482e-001 8.373254e-002 1.100000e+000
         vertex 7.600814e-001 5.383778e-002 1.100000e+000
      endloop
   endfacet
   facet normal 0.000000e+000 0.000000e+000 1.000000e+000
      outer loop
         vertex 7.753006e-001 1.541828e-001 1.100000e+000
         vertex 7.600814e-001 5.383778e-002 1.100000e+000
         vertex 8.545145e-001 1.305997e-001 1.100000e+000
      endloop
   endfacet
   facet normal 0.000000e+000 0.000000e+000 1.000000e+000
      outer loop
         vertex 8.545145e-001 1.305997e-001 1.100000e+000
         vertex 7.600814e-001 5.383778e-002 1.100000e+000
         vertex 8.432101e-001 3.039313e-002 1.100000e+000
      endloop
   endfacet
   facet normal 0.000000e+000 0.000000e+000 1.000000e+000
      outer loop
         vertex 8.545145e-001 1.305997e-001 1.100000e+000
         vertex 8.432101e-001 3.039313e-002 1.100000e+000
         vertex 9.354054e-001 1.136387e-001 1.100000e+000
      endloop
   endfacet
   facet normal 0.000000e+000 0.000000e+000 1.000000e+000
      outer loop
         vertex 9.354054e-001 1.136387e-001 1.100000e+000
         vertex 8.432101e-001 3.039313e-002 1.100000e+000
         vertex 9.279221e-001 1.354283e-002 1.100000e+000
      endloop
   endfacet
   facet normal 0.000000e+000 0.000000e+000 1.000000e+000
      outer loop
         vertex 9.354054e-001 1.136387e-001 1.100000e+000
         vertex 9.279221e-001 1.354283e-002 1.100000e+000
         vertex 1.017421e+000 1.034155e-001 1.100000e+000
      endloop
   endfacet
   facet normal 0.000000e+000 0.000000e+000 1.000000e+000
      outer loop
         vertex 1.017421e+000 1.034155e-001 1.100000e+000
         vertex 9.279221e-001 1.354283e-002 1.100000e+000
         vertex 1.013695e+000 3.390945e-003 1.100000e+000
      endloop
   endfacet
   facet normal 0.000000e+000 0.000000e+000 1.000000e+000
      outer loop
         vertex 1.017421e+000 1.034155e-001 1.100000e+000
         vertex 1.013695e+000 3.390945e-003 1.100000e+000
         vertex 1.100000e+000 9.999995e-002 1.100000e+000
      endloop
   endfacet
   facet normal 0.000000e+000 0.000000e+000 1.000000e+000
      outer loop
         vertex 1.100000e+000 9.999995e-002 1.100000e+000
         vertex 1.013695e+000 3.390945e-003 1.100000e+000
         vertex 1.100000e+000 0.000000e+000 1.100000e+000
      endloop
   endfacet
   facet normal 0.000000e+000 0.000000e+000 1.000000e+000
      outer loop
         vertex 9.999995e-002 1.100000e+000 1.100000e+000
         vertex 0.000000e+000 1.100000e+000 1.100000e+000
         vertex 1.034155e-001 1.017421e+000 1.100000e+000
      endloop
   endfacet
   facet normal 0.000000e+000 0.000000e+000 1.000000e+000
      outer loop
         vertex 1.034155e-001 1.017421e+000 1.100000e+000
         vertex 0.000000e+000 1.100000e+000 1.100000e+000
         vertex 3.390945e-003 1.013695e+000 1.100000e+000
      endloop
   endfacet
   facet normal 0.000000e+000 0.000000e+000 1.000000e+000
      outer loop
         vertex 1.034155e-001 1.017421e+000 1.100000e+000
         vertex 3.390945e-003 1.013695e+000 1.100000e+000
         vertex 1.136387e-001 9.354054e-001 1.100000e+000
      endloop
   endfacet
   facet normal 0.000000e+000 0.000000e+000 1.000000e+000
      outer loop
         vertex 1.136387e-001 9.354054e-001 1.100000e+000
         vertex 3.390945e-003 1.013695e+000 1.100000e+000
         vertex 1.354283e-002 9.279221e-001 1.100000e+000
      endloop
   endfacet
   facet normal 0.000000e+000 0.000000e+000 1.000000e+000
      outer loop
         vertex 1.136387e-001 9.354054e-001 1.100000e+000
         vertex 1.354283e-002 9.279221e-001 1.100000e+000
         vertex 1.305997e-001 8.545145e-001 1.100000e+000
      endloop
   endfacet
   facet normal 0.000000e+000 0.000000e+000 1.000000e+000
      outer loop
         vertex 1.305997e-001 8.545145e-001 1.100000e+000
         vertex 1.354283e-002 9.279221e-001 1.100000e+000
         vertex 3.039313e-002 8.432101e-001 1.100000e+000
      endloop
   endfacet
   facet normal 0.000000e+000 0.000000e+000 1.000000e+000
      outer loop
         vertex 1.305997e-001 8.545145e-001 1.100000e+000
         vertex 3.039313e-002 8.432101e-001 1.100000e+000
         vertex 1.541828e-001 7.753006e-001 1.100000e+000
      endloop
   endfacet
   facet normal 0.000000e+000 0.000000e+000 1.000000e+000
      outer loop
         vertex 1.541828e-001 7.753006e-001 1.100000e+000
         vertex 3.039313e-002 8.432101e-001 1.100000e+000
         vertex 5.383778e-002 7.600814e-001 1.100000e+000
      endloop
   endfacet
   facet normal 0.000000e+000 0.000000e+000 1.000000e+000
      outer loop
         vertex 1.541828e-001 7.753006e-001 1.100000e+000
         vertex 5.383778e-002 7.600814e-001 1.100000e+000
         vertex 1.842267e-001 6.983045e-001 1.100000e+000
      endloop
   endfacet
   facet normal 0.000000e+000 0.000000e+000 1.000000e+000
      outer loop
         vertex 1.842267e-001 6.983045e-001 1.100000e+000
         vertex 5.383778e-002 7.600814e-001 1.100000e+000
         vertex 8.373254e-002 6.790482e-001 1.100000e+000
      endloop
   endfacet
   facet normal 0.000000e+000 0.000000e+000 1.000000e+000
      outer loop
         vertex 1.842267e-001 6.983045e-001 1.100000e+000
         vertex 8.373254e-002 6.790482e-001 1.100000e+000
         vertex 2.205262e-001 6.240526e-001 1.100000e+000
      endloop
   endfacet
   facet normal 0.000000e+000 0.000000e+000 1.000000e+000
      outer loop
         vertex 2.205262e-001 6.240526e-001 1.100000e+000
         vertex 8.373254e-002 6.790482e-001 1.100000e+000
         vertex 1.198928e-001 6.006104e-001 1.100000e+000
      endloop
   endfacet
   facet normal 0.000000e+000 0.000000e+000 1.000000e+000
      outer loop
         vertex 2.205262e-001 6.240526e-001 1.100000e+000
         vertex 1.198928e-001 6.006104e-001 1.100000e+000
         vertex 2.628335e-001 5.530518e-001 1.100000e+000
      endloop
   endfacet
   facet normal 0.000000e+000 0.000000e+000 1.000000e+000
      outer loop
         vertex 2.628335e-001 5.530518e-001 1.100000e+000
         vertex 1.198928e-001 6.006104e-001 1.100000e+000
         vertex 1.620958e-001 5.252516e-001 1.100000e+000
      endloop
   endfacet
   facet normal 0.000000e+000 0.000000e+000 1.000000e+000
      outer loop
         vertex 2.628335e-001 5.530518e-001 1.100000e+000
         vertex 1.620958e-001 5.252516e-001 1.100000e+000
         vertex 3.108595e-001 4.857873e-001 1.100000e+000
      endloop
   endfacet
   facet normal 0.000000e+000 0.000000e+000 1.000000e+000
      outer loop
         vertex 3.108595e-001 4.857873e-001 1.100000e+000
         vertex 1.620958e-001 5.252516e-001 1.100000e+000
         vertex 2.100813e-001 4.534362e-001 1.100000e+000
      endloop
   endfacet
   facet normal 0.000000e+000 0.000000e+000 1.000000e+000
      outer loop
         vertex 3.108595e-001 4.857873e-001 1.100000e+000
         vertex 2.100813e-001 4.534362e-001 1.100000e+000
         vertex 3.642761e-001 4.227184e-001 1.100000e+000
      endloop
   endfacet
   facet normal 0.000000e+000 0.000000e+000 1.000000e+000
      outer loop
         vertex 3.642761e-001 4.227184e-001 1.100000e+000
         vertex 2.100813e-001 4.534362e-001 1.100000e+000
         vertex 2.635534e-001 3.856071e-001 1.100000e+000
      endloop
   endfacet
   facet normal 0.000000e+000 0.000000e+000 1.000000e+000
      outer loop
         vertex 3.642761e-001 4.227184e-001 1.100000e+000
         vertex 2.635534e-001 3.856071e-001 1.100000e+000
         vertex 3.221825e-001 3.221825e-001 1.100000e+000
      endloop
   endfacet
   facet normal 2.597461e-002 9.425496e-001 3.330549e-001
      outer loop
         vertex 1.017421e+000 1.034155e-001 1.100000e+000
         vertex 1.100000e+000 9.999995e-002 1.100000e+000
         vertex 1.100000e+000 3.190442e-001 4.793957e-001
      endloop
   endfacet
   facet normal 5.195383e-002 9.414750e-001 3.330549e-001
      outer loop
         vertex 1.100000e+000 3.190442e-001 4.793957e-001
         vertex 1.035524e+000 3.220251e-001 4.793957e-001
         vertex 1.017421e+000 1.034155e-001 1.100000e+000
      endloop
   endfacet
   facet normal 8.092213e-002 9.395072e-001 3.328332e-001
      outer loop
         vertex 1.017421e+000 1.034155e-001 1.100000e+000
         vertex 1.035524e+000 3.220251e-001 4.793957e-001
         vertex 1.027943e+000 3.223756e-001 4.793957e-001
      endloop
   endfacet
   facet normal 1.067611e-001 9.368522e-001 3.330316e-001
      outer loop
         vertex 1.017421e+000 1.034155e-001 1.100000e+000
         vertex 1.027943e+000 3.223756e-001 4.793957e-001
         vertex 9.354054e-001 1.136387e-001 1.100000e+000
      endloop
   endfacet
   facet normal 1.325519e-001 9.335617e-001 3.330051e-001
      outer loop
         vertex 1.027943e+000 3.223756e-001 4.793957e-001
         vertex 9.715354e-001 3.302440e-001 4.793957e-001
         vertex 9.354054e-001 1.136387e-001 1.100000e+000
      endloop
   endfacet
   facet normal 1.612434e-001 9.290945e-001 3.328425e-001
      outer loop
         vertex 9.354054e-001 1.136387e-001 1.100000e+000
         vertex 9.715354e-001 3.302440e-001 4.793957e-001
         vertex 9.564997e-001 3.323414e-001 4.793957e-001
      endloop
   endfacet
   facet normal 1.867612e-001 9.242411e-001 3.330144e-001
      outer loop
         vertex 9.354054e-001 1.136387e-001 1.100000e+000
         vertex 9.564997e-001 3.323414e-001 4.793957e-001
         vertex 8.545145e-001 1.305997e-001 1.100000e+000
      endloop
   endfacet
   facet normal 2.121728e-001 9.187597e-001 3.329616e-001
      outer loop
         vertex 9.564997e-001 3.323414e-001 4.793957e-001
         vertex 9.084516e-001 3.436423e-001 4.793957e-001
         vertex 8.545145e-001 1.305997e-001 1.100000e+000
      endloop
   endfacet
   facet normal 2.403716e-001 9.118263e-001 3.328580e-001
      outer loop
         vertex 8.545145e-001 1.305997e-001 1.100000e+000
         vertex 9.084516e-001 3.436423e-001 4.793957e-001
         vertex 8.862813e-001 3.488567e-001 4.793957e-001
      endloop
   endfacet
   facet normal 2.653841e-001 9.048094e-001 3.330036e-001
      outer loop
         vertex 8.545145e-001 1.305997e-001 1.100000e+000
         vertex 8.862813e-001 3.488567e-001 4.793957e-001
         vertex 7.753006e-001 1.541828e-001 1.100000e+000
      endloop
   endfacet
   facet normal 2.902294e-001 8.971780e-001 3.329242e-001
      outer loop
         vertex 8.862813e-001 3.488567e-001 4.793957e-001
         vertex 8.466823e-001 3.621289e-001 4.793957e-001
         vertex 7.753006e-001 1.541828e-001 1.100000e+000
      endloop
   endfacet
   facet normal 3.177234e-001 8.878305e-001 3.328798e-001
      outer loop
         vertex 7.753006e-001 1.541828e-001 1.100000e+000
         vertex 8.466823e-001 3.621289e-001 4.793957e-001
         vertex 8.178862e-001 3.717804e-001 4.793957e-001
      endloop
   endfacet
   facet normal 3.420491e-001 8.787003e-001 3.329988e-001
      outer loop
         vertex 7.753006e-001 1.541828e-001 1.100000e+000
         vertex 8.178862e-001 3.717804e-001 4.793957e-001
         vertex 6.983045e-001 1.842267e-001 1.100000e+000
      endloop
   endfacet
   facet normal 3.661463e-001 8.689759e-001 3.328931e-001
      outer loop
         vertex 6.983045e-001 1.842267e-001 1.100000e+000
         vertex 8.178862e-001 3.717804e-001 4.793957e-001
         vertex 7.866293e-001 3.855817e-001 4.793957e-001
      endloop
   endfacet
   facet normal 4.024040e-001 8.527282e-001 3.330549e-001
      outer loop
         vertex 6.983045e-001 1.842267e-001 1.100000e+000
         vertex 7.866293e-001 3.855817e-001 4.793957e-001
         vertex 6.240526e-001 2.205262e-001 1.100000e+000
      endloop
   endfacet
   facet normal 4.161892e-001 8.461071e-001 3.330004e-001
      outer loop
         vertex 7.866293e-001 3.855817e-001 4.793957e-001
         vertex 7.518981e-001 4.009170e-001 4.793957e-001
         vertex 6.240526e-001 2.205262e-001 1.100000e+000
      endloop
   endfacet
   facet normal 4.393635e-001 8.343612e-001 3.328682e-001
      outer loop
         vertex 6.240526e-001 2.205262e-001 1.100000e+000
         vertex 7.518981e-001 4.009170e-001 4.793957e-001
         vertex 7.286835e-001 4.138474e-001 4.793957e-001
      endloop
   endfacet
   facet normal 4.714448e-001 8.165870e-001 3.330549e-001
      outer loop
         vertex 6.240526e-001 2.205262e-001 1.100000e+000
         vertex 7.286835e-001 4.138474e-001 4.793957e-001
         vertex 5.530518e-001 2.628335e-001 1.100000e+000
      endloop
   endfacet
   facet normal 4.872560e-001 8.072713e-001 3.330083e-001
      outer loop
         vertex 7.286835e-001 4.138474e-001 4.793957e-001
         vertex 6.888797e-001 4.360180e-001 4.793957e-001
         vertex 5.530518e-001 2.628335e-001 1.100000e+000
      endloop
   endfacet
   facet normal 5.093411e-001 7.935886e-001 3.328495e-001
      outer loop
         vertex 5.530518e-001 2.628335e-001 1.100000e+000
         vertex 6.888797e-001 4.360180e-001 4.793957e-001
         vertex 6.732229e-001 4.467432e-001 4.793957e-001
      endloop
   endfacet
   facet normal 5.372661e-001 7.748674e-001 3.330550e-001
      outer loop
         vertex 5.530518e-001 2.628335e-001 1.100000e+000
         vertex 6.732229e-001 4.467432e-001 4.793957e-001
         vertex 4.857873e-001 3.108595e-001 1.100000e+000
      endloop
   endfacet
   facet normal 5.547274e-001 7.624786e-001 3.330223e-001
      outer loop
         vertex 6.732229e-001 4.467432e-001 4.793957e-001
         vertex 6.293690e-001 4.767838e-001 4.793957e-001
         vertex 4.857873e-001 3.108595e-001 1.100000e+000
      endloop
   endfacet
   facet normal 5.755628e-001 7.469585e-001 3.328370e-001
      outer loop
         vertex 4.857873e-001 3.108595e-001 1.100000e+000
         vertex 6.293690e-001 4.767838e-001 4.793957e-001
         vertex 6.206101e-001 4.840571e-001 4.793957e-001
      endloop
   endfacet
   facet normal 5.994192e-001 7.278538e-001 3.330550e-001
      outer loop
         vertex 4.857873e-001 3.108595e-001 1.100000e+000
         vertex 6.206101e-001 4.840571e-001 4.793957e-001
         vertex 4.227184e-001 3.642761e-001 1.100000e+000
      endloop
   endfacet
   facet normal 6.181059e-001 7.120587e-001 3.330425e-001
      outer loop
         vertex 6.206101e-001 4.840571e-001 4.793957e-001
         vertex 5.738735e-001 5.228667e-001 4.793957e-001
         vertex 4.227184e-001 3.642761e-001 1.100000e+000
      endloop
   endfacet
   facet normal 6.375399e-001 6.948140e-001 3.328308e-001
      outer loop
         vertex 4.227184e-001 3.642761e-001 1.100000e+000
         vertex 5.738735e-001 5.228667e-001 4.793957e-001
         vertex 5.711905e-001 5.255497e-001 4.793957e-001
      endloop
   endfacet
   facet normal 6.574796e-001 6.758661e-001 3.330549e-001
      outer loop
         vertex 4.227184e-001 3.642761e-001 1.100000e+000
         vertex 5.711905e-001 5.255497e-001 4.793957e-001
         vertex 3.642761e-001 4.227184e-001 1.100000e+000
      endloop
   endfacet
   facet normal 6.758642e-001 6.574816e-001 3.330550e-001
      outer loop
         vertex 5.711905e-001 5.255497e-001 4.793957e-001
         vertex 5.255497e-001 5.711905e-001 4.793957e-001
         vertex 3.642761e-001 4.227184e-001 1.100000e+000
      endloop
   endfacet
   facet normal 6.948141e-001 6.375399e-001 3.328308e-001
      outer loop
         vertex 3.642761e-001 4.227184e-001 1.100000e+000
         vertex 5.255497e-001 5.711905e-001 4.793957e-001
         vertex 5.228667e-001 5.738735e-001 4.793957e-001
      endloop
   endfacet
   facet normal 7.120551e-001 6.181103e-001 3.330424e-001
      outer loop
         vertex 3.642761e-001 4.227184e-001 1.100000e+000
         vertex 5.228667e-001 5.738735e-001 4.793957e-001
         vertex 3.108595e-001 4.857873e-001 1.100000e+000
      endloop
   endfacet
   facet normal 7.288308e-001 5.982451e-001 3.330293e-001
      outer loop
         vertex 5.228667e-001 5.738735e-001 4.793957e-001
         vertex 4.840571e-001 6.206101e-001 4.793957e-001
         vertex 3.108595e-001 4.857873e-001 1.100000e+000
      endloop
   endfacet
   facet normal 7.469585e-001 5.755628e-001 3.328370e-001
      outer loop
         vertex 3.108595e-001 4.857873e-001 1.100000e+000
         vertex 4.840571e-001 6.206101e-001 4.793957e-001
         vertex 4.767838e-001 6.293690e-001 4.793957e-001
      endloop
   endfacet
   facet normal 7.624753e-001 5.547321e-001 3.330222e-001
      outer loop
         vertex 3.108595e-001 4.857873e-001 1.100000e+000
         vertex 4.767838e-001 6.293690e-001 4.793957e-001
         vertex 2.628335e-001 5.530518e-001 1.100000e+000
      endloop
   endfacet
   facet normal 7.774904e-001 5.335084e-001 3.329826e-001
      outer loop
         vertex 4.767838e-001 6.293690e-001 4.793957e-001
         vertex 4.467432e-001 6.732229e-001 4.793957e-001
         vertex 2.628335e-001 5.530518e-001 1.100000e+000
      endloop
   endfacet
   facet normal 7.935886e-001 5.093411e-001 3.328495e-001
      outer loop
         vertex 2.628335e-001 5.530518e-001 1.100000e+000
         vertex 4.467432e-001 6.732229e-001 4.793957e-001
         vertex 4.360180e-001 6.888797e-001 4.793957e-001
      endloop
   endfacet
   facet normal 8.072695e-001 4.872592e-001 3.330082e-001
      outer loop
         vertex 2.628335e-001 5.530518e-001 1.100000e+000
         vertex 4.360180e-001 6.888797e-001 4.793957e-001
         vertex 2.205262e-001 6.240526e-001 1.100000e+000
      endloop
   endfacet
   facet normal 8.204138e-001 4.648340e-001 3.329421e-001
      outer loop
         vertex 4.360180e-001 6.888797e-001 4.793957e-001
         vertex 4.138474e-001 7.286835e-001 4.793957e-001
         vertex 2.205262e-001 6.240526e-001 1.100000e+000
      endloop
   endfacet
   facet normal 8.343612e-001 4.393635e-001 3.328682e-001
      outer loop
         vertex 2.205262e-001 6.240526e-001 1.100000e+000
         vertex 4.138474e-001 7.286835e-001 4.793957e-001
         vertex 4.009170e-001 7.518981e-001 4.793957e-001
      endloop
   endfacet
   facet normal 8.461068e-001 4.161900e-001 3.330005e-001
      outer loop
         vertex 2.205262e-001 6.240526e-001 1.100000e+000
         vertex 4.009170e-001 7.518981e-001 4.793957e-001
         vertex 1.842267e-001 6.983045e-001 1.100000e+000
      endloop
   endfacet
   facet normal 8.572844e-001 3.927285e-001 3.329079e-001
      outer loop
         vertex 1.842267e-001 6.983045e-001 1.100000e+000
         vertex 4.009170e-001 7.518981e-001 4.793957e-001
         vertex 3.855817e-001 7.866293e-001 4.793957e-001
      endloop
   endfacet
   facet normal 8.735960e-001 3.548303e-001 3.330549e-001
      outer loop
         vertex 1.842267e-001 6.983045e-001 1.100000e+000
         vertex 3.855817e-001 7.866293e-001 4.793957e-001
         vertex 1.541828e-001 7.753006e-001 1.100000e+000
      endloop
   endfacet
   facet normal 8.787006e-001 3.420483e-001 3.329988e-001
      outer loop
         vertex 3.855817e-001 7.866293e-001 4.793957e-001
         vertex 3.717804e-001 8.178862e-001 4.793957e-001
         vertex 1.541828e-001 7.753006e-001 1.100000e+000
      endloop
   endfacet
   facet normal 8.878305e-001 3.177234e-001 3.328798e-001
      outer loop
         vertex 1.541828e-001 7.753006e-001 1.100000e+000
         vertex 3.717804e-001 8.178862e-001 4.793957e-001
         vertex 3.621289e-001 8.466823e-001 4.793957e-001
      endloop
   endfacet
   facet normal 8.999129e-001 2.814804e-001 3.330549e-001
      outer loop
         vertex 1.541828e-001 7.753006e-001 1.100000e+000
         vertex 3.621289e-001 8.466823e-001 4.793957e-001
         vertex 1.305997e-001 8.545145e-001 1.100000e+000
      endloop
   endfacet
   facet normal 9.048086e-001 2.653864e-001 3.330036e-001
      outer loop
         vertex 3.621289e-001 8.466823e-001 4.793957e-001
         vertex 3.488567e-001 8.862813e-001 4.793957e-001
         vertex 1.305997e-001 8.545145e-001 1.100000e+000
      endloop
   endfacet
   facet normal 9.118263e-001 2.403716e-001 3.328580e-001
      outer loop
         vertex 1.305997e-001 8.545145e-001 1.100000e+000
         vertex 3.488567e-001 8.862813e-001 4.793957e-001
         vertex 3.436423e-001 9.084516e-001 4.793957e-001
      endloop
   endfacet
   facet normal 9.200832e-001 2.062073e-001 3.330550e-001
      outer loop
         vertex 1.305997e-001 8.545145e-001 1.100000e+000
         vertex 3.436423e-001 9.084516e-001 4.793957e-001
         vertex 1.136387e-001 9.354054e-001 1.100000e+000
      endloop
   endfacet
   facet normal 9.242401e-001 1.867661e-001 3.330145e-001
      outer loop
         vertex 3.436423e-001 9.084516e-001 4.793957e-001
         vertex 3.323414e-001 9.564997e-001 4.793957e-001
         vertex 1.136387e-001 9.354054e-001 1.100000e+000
      endloop
   endfacet
   facet normal 9.290945e-001 1.612434e-001 3.328425e-001
      outer loop
         vertex 1.136387e-001 9.354054e-001 1.100000e+000
         vertex 3.323414e-001 9.564997e-001 4.793957e-001
         vertex 3.302440e-001 9.715354e-001 4.793957e-001
      endloop
   endfacet
   facet normal 9.339689e-001 1.295241e-001 3.330550e-001
      outer loop
         vertex 1.136387e-001 9.354054e-001 1.100000e+000
         vertex 3.302440e-001 9.715354e-001 4.793957e-001
         vertex 1.034155e-001 1.017421e+000 1.100000e+000
      endloop
   endfacet
   facet normal 9.425495e-001 2.597922e-002 3.330550e-001
      outer loop
         vertex 3.190442e-001 1.100000e+000 4.793957e-001
         vertex 9.999995e-002 1.100000e+000 1.100000e+000
         vertex 3.220251e-001 1.035524e+000 4.793957e-001
      endloop
   endfacet
   facet normal 9.414750e-001 5.195383e-002 3.330549e-001
      outer loop
         vertex 3.220251e-001 1.035524e+000 4.793957e-001
         vertex 9.999995e-002 1.100000e+000 1.100000e+000
         vertex 1.034155e-001 1.017421e+000 1.100000e+000
      endloop
   endfacet
   facet normal 9.395072e-001 8.092213e-002 3.328332e-001
      outer loop
         vertex 3.220251e-001 1.035524e+000 4.793957e-001
         vertex 1.034155e-001 1.017421e+000 1.100000e+000
         vertex 3.223756e-001 1.027943e+000 4.793957e-001
      endloop
   endfacet
   facet normal 9.368516e-001 1.067671e-001 3.330317e-001
      outer loop
         vertex 3.223756e-001 1.027943e+000 4.793957e-001
         vertex 1.034155e-001 1.017421e+000 1.100000e+000
         vertex 3.302440e-001 9.715354e-001 4.793957e-001
      endloop
   endfacet
   facet normal 1.811809e-002 6.573406e-001 7.533757e-001
      outer loop
         vertex 1.100000e+000 3.190442e-001 4.793957e-001
         vertex 1.100000e+000 6.000000e-001 2.339746e-001
         vertex 1.035524e+000 3.220251e-001 4.793957e-001
      endloop
   endfacet
   facet normal 3.836731e-002 6.564326e-001 7.534083e-001
      outer loop
         vertex 1.035524e+000 3.220251e-001 4.793957e-001
         vertex 1.100000e+000 6.000000e-001 2.339746e-001
         vertex 1.053892e+000 6.025894e-001 2.339746e-001
      endloop
   endfacet
   facet normal 5.858695e-002 6.552560e-001 7.531316e-001
      outer loop
         vertex 1.035524e+000 3.220251e-001 4.793957e-001
         vertex 1.053892e+000 6.025894e-001 2.339746e-001
         vertex 1.027943e+000 3.223756e-001 4.793957e-001
      endloop
   endfacet
   facet normal 6.502861e-002 6.546358e-001 7.531423e-001
      outer loop
         vertex 1.027943e+000 3.223756e-001 4.793957e-001
         vertex 1.053892e+000 6.025894e-001 2.339746e-001
         vertex 1.044018e+000 6.031439e-001 2.339746e-001
      endloop
   endfacet
   facet normal 8.090136e-002 6.527021e-001 7.532828e-001
      outer loop
         vertex 1.027943e+000 3.223756e-001 4.793957e-001
         vertex 1.044018e+000 6.031439e-001 2.339746e-001
         vertex 9.715354e-001 3.302440e-001 4.793957e-001
      endloop
   endfacet
   facet normal 1.009715e-001 6.499012e-001 7.532817e-001
      outer loop
         vertex 9.715354e-001 3.302440e-001 4.793957e-001
         vertex 1.044018e+000 6.031439e-001 2.339746e-001
         vertex 1.008246e+000 6.092218e-001 2.339746e-001
      endloop
   endfacet
   facet normal 1.166948e-001 6.474254e-001 7.531418e-001
      outer loop
         vertex 9.715354e-001 3.302440e-001 4.793957e-001
         vertex 1.008246e+000 6.092218e-001 2.339746e-001
         vertex 9.564997e-001 3.323414e-001 4.793957e-001
      endloop
   endfacet
   facet normal 1.344565e-001 6.438178e-001 7.532729e-001
      outer loop
         vertex 9.564997e-001 3.323414e-001 4.793957e-001
         vertex 1.008246e+000 6.092218e-001 2.339746e-001
         vertex 9.084516e-001 3.436423e-001 4.793957e-001
      endloop
   endfacet
   facet normal 1.429539e-001 6.420243e-001 7.532390e-001
      outer loop
         vertex 9.084516e-001 3.436423e-001 4.793957e-001
         vertex 1.008246e+000 6.092218e-001 2.339746e-001
         vertex 9.887396e-001 6.125360e-001 2.339746e-001
      endloop
   endfacet
   facet normal 1.626614e-001 6.373577e-001 7.532041e-001
      outer loop
         vertex 9.084516e-001 3.436423e-001 4.793957e-001
         vertex 9.887396e-001 6.125360e-001 2.339746e-001
         vertex 8.862813e-001 3.488567e-001 4.793957e-001
      endloop
   endfacet
   facet normal 1.688423e-001 6.357187e-001 7.532291e-001
      outer loop
         vertex 8.862813e-001 3.488567e-001 4.793957e-001
         vertex 9.887396e-001 6.125360e-001 2.339746e-001
         vertex 9.633855e-001 6.198404e-001 2.339746e-001
      endloop
   endfacet
   facet normal 1.912544e-001 6.293358e-001 7.532318e-001
      outer loop
         vertex 8.862813e-001 3.488567e-001 4.793957e-001
         vertex 9.633855e-001 6.198404e-001 2.339746e-001
         vertex 8.466823e-001 3.621289e-001 4.793957e-001
      endloop
   endfacet
   facet normal 2.036750e-001 6.254113e-001 7.532445e-001
      outer loop
         vertex 8.466823e-001 3.621289e-001 4.793957e-001
         vertex 9.633855e-001 6.198404e-001 2.339746e-001
         vertex 9.348604e-001 6.280583e-001 2.339746e-001
      endloop
   endfacet
   facet normal 2.228640e-001 6.189166e-001 7.531759e-001
      outer loop
         vertex 8.466823e-001 3.621289e-001 4.793957e-001
         vertex 9.348604e-001 6.280583e-001 2.339746e-001
         vertex 8.178862e-001 3.717804e-001 4.793957e-001
      endloop
   endfacet
   facet normal 2.308675e-001 6.159861e-001 7.531675e-001
      outer loop
         vertex 8.178862e-001 3.717804e-001 4.793957e-001
         vertex 9.348604e-001 6.280583e-001 2.339746e-001
         vertex 9.196291e-001 6.343673e-001 2.339746e-001
      endloop
   endfacet
   facet normal 2.465387e-001 6.098460e-001 7.531976e-001
      outer loop
         vertex 8.178862e-001 3.717804e-001 4.793957e-001
         vertex 9.196291e-001 6.343673e-001 2.339746e-001
         vertex 7.866293e-001 3.855817e-001 4.793957e-001
      endloop
   endfacet
   facet normal 2.625053e-001 6.030184e-001 7.532993e-001
      outer loop
         vertex 7.866293e-001 3.855817e-001 4.793957e-001
         vertex 9.196291e-001 6.343673e-001 2.339746e-001
         vertex 8.830581e-001 6.495155e-001 2.339746e-001
      endloop
   endfacet
   facet normal 2.810069e-001 5.947518e-001 7.531968e-001
      outer loop
         vertex 7.866293e-001 3.855817e-001 4.793957e-001
         vertex 8.830581e-001 6.495155e-001 2.339746e-001
         vertex 7.518981e-001 4.009170e-001 4.793957e-001
      endloop
   endfacet
   facet normal 2.906369e-001 5.901853e-001 7.531344e-001
      outer loop
         vertex 7.518981e-001 4.009170e-001 4.793957e-001
         vertex 8.830581e-001 6.495155e-001 2.339746e-001
         vertex 8.772888e-001 6.527042e-001 2.339746e-001
      endloop
   endfacet
   facet normal 2.998731e-001 5.855006e-001 7.531701e-001
      outer loop
         vertex 7.518981e-001 4.009170e-001 4.793957e-001
         vertex 8.772888e-001 6.527042e-001 2.339746e-001
         vertex 7.286835e-001 4.138474e-001 4.793957e-001
      endloop
   endfacet
   facet normal 3.176552e-001 5.757912e-001 7.533656e-001
      outer loop
         vertex 7.286835e-001 4.138474e-001 4.793957e-001
         vertex 8.772888e-001 6.527042e-001 2.339746e-001
         vertex 8.368682e-001 6.750438e-001 2.339746e-001
      endloop
   endfacet
   facet normal 3.353109e-001 5.658434e-001 7.532516e-001
      outer loop
         vertex 7.286835e-001 4.138474e-001 4.793957e-001
         vertex 8.368682e-001 6.750438e-001 2.339746e-001
         vertex 6.888797e-001 4.360180e-001 4.793957e-001
      endloop
   endfacet
   facet normal 3.475579e-001 5.585689e-001 7.531297e-001
      outer loop
         vertex 6.888797e-001 4.360180e-001 4.793957e-001
         vertex 8.368682e-001 6.750438e-001 2.339746e-001
         vertex 8.339840e-001 6.766379e-001 2.339746e-001
      endloop
   endfacet
   facet normal 3.520577e-001 5.557226e-001 7.531453e-001
      outer loop
         vertex 6.888797e-001 4.360180e-001 4.793957e-001
         vertex 8.339840e-001 6.766379e-001 2.339746e-001
         vertex 6.732229e-001 4.467432e-001 4.793957e-001
      endloop
   endfacet
   facet normal 3.688753e-001 5.444198e-001 7.533512e-001
      outer loop
         vertex 6.732229e-001 4.467432e-001 4.793957e-001
         vertex 8.339840e-001 6.766379e-001 2.339746e-001
         vertex 7.990103e-001 7.014531e-001 2.339746e-001
      endloop
   endfacet
   facet normal 3.843343e-001 5.336965e-001 7.532962e-001
      outer loop
         vertex 6.732229e-001 4.467432e-001 4.793957e-001
         vertex 7.990103e-001 7.014531e-001 2.339746e-001
         vertex 6.293690e-001 4.767838e-001 4.793957e-001
      endloop
   endfacet
   facet normal 3.990034e-001 5.230514e-001 7.531358e-001
      outer loop
         vertex 6.293690e-001 4.767838e-001 4.793957e-001
         vertex 7.990103e-001 7.014531e-001 2.339746e-001
         vertex 6.206101e-001 4.840571e-001 4.793957e-001
      endloop
   endfacet
   facet normal 4.035829e-001 5.195097e-001 7.531471e-001
      outer loop
         vertex 6.206101e-001 4.840571e-001 4.793957e-001
         vertex 7.990103e-001 7.014531e-001 2.339746e-001
         vertex 7.882552e-001 7.090842e-001 2.339746e-001
      endloop
   endfacet
   facet normal 4.192562e-001 5.066896e-001 7.533192e-001
      outer loop
         vertex 6.206101e-001 4.840571e-001 4.793957e-001
         vertex 7.882552e-001 7.090842e-001 2.339746e-001
         vertex 5.738735e-001 5.228667e-001 4.793957e-001
      endloop
   endfacet
   facet normal 4.322900e-001 4.956669e-001 7.532859e-001
      outer loop
         vertex 5.738735e-001 5.228667e-001 4.793957e-001
         vertex 7.882552e-001 7.090842e-001 2.339746e-001
         vertex 7.636600e-001 7.310638e-001 2.339746e-001
      endloop
   endfacet
   facet normal 4.439946e-001 4.854539e-001 7.531289e-001
      outer loop
         vertex 5.738735e-001 5.228667e-001 4.793957e-001
         vertex 7.636600e-001 7.310638e-001 2.339746e-001
         vertex 5.711905e-001 5.255497e-001 4.793957e-001
      endloop
   endfacet
   facet normal 4.513629e-001 4.785020e-001 7.531981e-001
      outer loop
         vertex 5.711905e-001 5.255497e-001 4.793957e-001
         vertex 7.636600e-001 7.310638e-001 2.339746e-001
         vertex 7.464466e-001 7.464466e-001 2.339746e-001
      endloop
   endfacet
   facet normal 4.650367e-001 4.650367e-001 7.533138e-001
      outer loop
         vertex 5.711905e-001 5.255497e-001 4.793957e-001
         vertex 7.464466e-001 7.464466e-001 2.339746e-001
         vertex 5.255497e-001 5.711905e-001 4.793957e-001
      endloop
   endfacet
   facet normal 4.785020e-001 4.513628e-001 7.531981e-001
      outer loop
         vertex 5.255497e-001 5.711905e-001 4.793957e-001
         vertex 7.464466e-001 7.464466e-001 2.339746e-001
         vertex 7.310638e-001 7.636600e-001 2.339746e-001
      endloop
   endfacet
   facet normal 4.854539e-001 4.439947e-001 7.531289e-001
      outer loop
         vertex 5.255497e-001 5.711905e-001 4.793957e-001
         vertex 7.310638e-001 7.636600e-001 2.339746e-001
         vertex 5.228667e-001 5.738735e-001 4.793957e-001
      endloop
   endfacet
   facet normal 4.973131e-001 4.302873e-001 7.533475e-001
      outer loop
         vertex 5.228667e-001 5.738735e-001 4.793957e-001
         vertex 7.310638e-001 7.636600e-001 2.339746e-001
         vertex 4.840571e-001 6.206101e-001 4.793957e-001
      endloop
   endfacet
   facet normal 5.066874e-001 4.192587e-001 7.533193e-001
      outer loop
         vertex 4.840571e-001 6.206101e-001 4.793957e-001
         vertex 7.310638e-001 7.636600e-001 2.339746e-001
         vertex 7.090842e-001 7.882552e-001 2.339746e-001
      endloop
   endfacet
   facet normal 5.195143e-001 4.035770e-001 7.531471e-001
      outer loop
         vertex 4.840571e-001 6.206101e-001 4.793957e-001
         vertex 7.090842e-001 7.882552e-001 2.339746e-001
         vertex 4.767838e-001 6.293690e-001 4.793957e-001
      endloop
   endfacet
   facet normal 5.214583e-001 4.010503e-001 7.531533e-001
      outer loop
         vertex 4.767838e-001 6.293690e-001 4.793957e-001
         vertex 7.090842e-001 7.882552e-001 2.339746e-001
         vertex 7.014531e-001 7.990103e-001 2.339746e-001
      endloop
   endfacet
   facet normal 5.336965e-001 3.843343e-001 7.532961e-001
      outer loop
         vertex 4.767838e-001 6.293690e-001 4.793957e-001
         vertex 7.014531e-001 7.990103e-001 2.339746e-001
         vertex 4.467432e-001 6.732229e-001 4.793957e-001
      endloop
   endfacet
   facet normal 5.444198e-001 3.688754e-001 7.533513e-001
      outer loop
         vertex 4.467432e-001 6.732229e-001 4.793957e-001
         vertex 7.014531e-001 7.990103e-001 2.339746e-001
         vertex 6.766379e-001 8.339840e-001 2.339746e-001
      endloop
   endfacet
   facet normal 5.557226e-001 3.520577e-001 7.531453e-001
      outer loop
         vertex 4.467432e-001 6.732229e-001 4.793957e-001
         vertex 6.766379e-001 8.339840e-001 2.339746e-001
         vertex 4.360180e-001 6.888797e-001 4.793957e-001
      endloop
   endfacet
   facet normal 5.585689e-001 3.475579e-001 7.531297e-001
      outer loop
         vertex 4.360180e-001 6.888797e-001 4.793957e-001
         vertex 6.766379e-001 8.339840e-001 2.339746e-001
         vertex 6.750438e-001 8.368682e-001 2.339746e-001
      endloop
   endfacet
   facet normal 5.658434e-001 3.353109e-001 7.532516e-001
      outer loop
         vertex 4.360180e-001 6.888797e-001 4.793957e-001
         vertex 6.750438e-001 8.368682e-001 2.339746e-001
         vertex 4.138474e-001 7.286835e-001 4.793957e-001
      endloop
   endfacet
   facet normal 5.757912e-001 3.176552e-001 7.533656e-001
      outer loop
         vertex 4.138474e-001 7.286835e-001 4.793957e-001
         vertex 6.750438e-001 8.368682e-001 2.339746e-001
         vertex 6.527042e-001 8.772888e-001 2.339746e-001
      endloop
   endfacet
   facet normal 5.855006e-001 2.998731e-001 7.531701e-001
      outer loop
         vertex 4.138474e-001 7.286835e-001 4.793957e-001
         vertex 6.527042e-001 8.772888e-001 2.339746e-001
         vertex 4.009170e-001 7.518981e-001 4.793957e-001
      endloop
   endfacet
   facet normal 5.901853e-001 2.906369e-001 7.531344e-001
      outer loop
         vertex 4.009170e-001 7.518981e-001 4.793957e-001
         vertex 6.527042e-001 8.772888e-001 2.339746e-001
         vertex 6.495155e-001 8.830581e-001 2.339746e-001
      endloop
   endfacet
   facet normal 5.947518e-001 2.810069e-001 7.531968e-001
      outer loop
         vertex 4.009170e-001 7.518981e-001 4.793957e-001
         vertex 6.495155e-001 8.830581e-001 2.339746e-001
         vertex 3.855817e-001 7.866293e-001 4.793957e-001
      endloop
   endfacet
   facet normal 6.030184e-001 2.625053e-001 7.532993e-001
      outer loop
         vertex 3.855817e-001 7.866293e-001 4.793957e-001
         vertex 6.495155e-001 8.830581e-001 2.339746e-001
         vertex 6.343673e-001 9.196291e-001 2.339746e-001
      endloop
   endfacet
   facet normal 6.098460e-001 2.465387e-001 7.531976e-001
      outer loop
         vertex 3.855817e-001 7.866293e-001 4.793957e-001
         vertex 6.343673e-001 9.196291e-001 2.339746e-001
         vertex 3.717804e-001 8.178862e-001 4.793957e-001
      endloop
   endfacet
   facet normal 6.164222e-001 2.296502e-001 7.531829e-001
      outer loop
         vertex 3.717804e-001 8.178862e-001 4.793957e-001
         vertex 6.343673e-001 9.196291e-001 2.339746e-001
         vertex 3.621289e-001 8.466823e-001 4.793957e-001
      endloop
   endfacet
   facet normal 6.189190e-001 2.228578e-001 7.531758e-001
      outer loop
         vertex 3.621289e-001 8.466823e-001 4.793957e-001
         vertex 6.343673e-001 9.196291e-001 2.339746e-001
         vertex 6.280583e-001 9.348604e-001 2.339746e-001
      endloop
   endfacet
   facet normal 6.254109e-001 2.036760e-001 7.532445e-001
      outer loop
         vertex 3.621289e-001 8.466823e-001 4.793957e-001
         vertex 6.280583e-001 9.348604e-001 2.339746e-001
         vertex 3.488567e-001 8.862813e-001 4.793957e-001
      endloop
   endfacet
   facet normal 6.289324e-001 1.924827e-001 7.532559e-001
      outer loop
         vertex 3.488567e-001 8.862813e-001 4.793957e-001
         vertex 6.280583e-001 9.348604e-001 2.339746e-001
         vertex 6.198404e-001 9.633855e-001 2.339746e-001
      endloop
   endfacet
   facet normal 6.344464e-001 1.738660e-001 7.531589e-001
      outer loop
         vertex 3.488567e-001 8.862813e-001 4.793957e-001
         vertex 6.198404e-001 9.633855e-001 2.339746e-001
         vertex 3.436423e-001 9.084516e-001 4.793957e-001
      endloop
   endfacet
   facet normal 6.373580e-001 1.626603e-001 7.532041e-001
      outer loop
         vertex 3.436423e-001 9.084516e-001 4.793957e-001
         vertex 6.198404e-001 9.633855e-001 2.339746e-001
         vertex 6.125360e-001 9.887396e-001 2.339746e-001
      endloop
   endfacet
   facet normal 6.420254e-001 1.429488e-001 7.532390e-001
      outer loop
         vertex 3.436423e-001 9.084516e-001 4.793957e-001
         vertex 6.125360e-001 9.887396e-001 2.339746e-001
         vertex 3.323414e-001 9.564997e-001 4.793957e-001
      endloop
   endfacet
   facet normal 6.449557e-001 1.294011e-001 7.531849e-001
      outer loop
         vertex 3.323414e-001 9.564997e-001 4.793957e-001
         vertex 6.125360e-001 9.887396e-001 2.339746e-001
         vertex 6.092218e-001 1.008246e+000 2.339746e-001
      endloop
   endfacet
   facet normal 6.474254e-001 1.166948e-001 7.531418e-001
      outer loop
         vertex 3.323414e-001 9.564997e-001 4.793957e-001
         vertex 6.092218e-001 1.008246e+000 2.339746e-001
         vertex 3.302440e-001 9.715354e-001 4.793957e-001
      endloop
   endfacet
   facet normal 6.499012e-001 1.009715e-001 7.532817e-001
      outer loop
         vertex 3.302440e-001 9.715354e-001 4.793957e-001
         vertex 6.092218e-001 1.008246e+000 2.339746e-001
         vertex 6.031439e-001 1.044018e+000 2.339746e-001
      endloop
   endfacet
   facet normal 6.527021e-001 8.090136e-002 7.532828e-001
      outer loop
         vertex 3.302440e-001 9.715354e-001 4.793957e-001
         vertex 6.031439e-001 1.044018e+000 2.339746e-001
         vertex 3.223756e-001 1.027943e+000 4.793957e-001
      endloop
   endfacet
   facet normal 6.546358e-001 6.502861e-002 7.531423e-001
      outer loop
         vertex 3.223756e-001 1.027943e+000 4.793957e-001
         vertex 6.031439e-001 1.044018e+000 2.339746e-001
         vertex 6.025894e-001 1.053892e+000 2.339746e-001
      endloop
   endfacet
   facet normal 6.552560e-001 5.858696e-002 7.531316e-001
      outer loop
         vertex 3.223756e-001 1.027943e+000 4.793957e-001
         vertex 6.025894e-001 1.053892e+000 2.339746e-001
         vertex 3.220251e-001 1.035524e+000 4.793957e-001
      endloop
   endfacet
   facet normal 6.564326e-001 3.836731e-002 7.534083e-001
      outer loop
         vertex 3.220251e-001 1.035524e+000 4.793957e-001
         vertex 6.025894e-001 1.053892e+000 2.339746e-001
         vertex 6.000000e-001 1.100000e+000 2.339746e-001
      endloop
   endfacet
   facet normal 6.573406e-001 1.811809e-002 7.533757e-001
      outer loop
         vertex 3.220251e-001 1.035524e+000 4.793957e-001
         vertex 6.000000e-001 1.100000e+000 2.339746e-001
         vertex 3.190442e-001 1.100000e+000 4.793957e-001
      endloop
   endfacet
   facet normal 1.000000e+000 3.491481e-015 0.000000e+000
      outer loop
         vertex 1.100000e+000 0.000000e+000 0.000000e+000
         vertex 1.100000e+000 1.100000e+000 0.000000e+000
         vertex 1.100000e+000 1.100000e+000 9.999999e-002
      endloop
   endfacet
   facet normal 1.000000e+000 3.491481e-015 0.000000e+000
      outer loop
         vertex 1.100000e+000 9.999995e-002 1.100000e+000
         vertex 1.100000e+000 0.000000e+000 1.100000e+000
         vertex 1.100000e+000 3.190442e-001 4.793957e-001
      endloop
   endfacet
   facet normal 1.000000e+000 3.491481e-015 0.000000e+000
      outer loop
         vertex 1.100000e+000 3.190442e-001 4.793957e-001
         vertex 1.100000e+000 0.000000e+000 1.100000e+000
         vertex 1.100000e+000 0.000000e+000 0.000000e+000
      endloop
   endfacet
   facet normal 1.000000e+000 3.491481e-015 0.000000e+000
      outer loop
         vertex 1.100000e+000 3.190442e-001 4.793957e-001
         vertex 1.100000e+000 0.000000e+000 0.000000e+000
         vertex 1.100000e+000 6.000000e-001 2.339746e-001
      endloop
   endfacet
   facet normal 1.000000e+000 3.491481e-015 0.000000e+000
      outer loop
         vertex 1.100000e+000 6.000000e-001 2.339746e-001
         vertex 1.100000e+000 0.000000e+000 0.000000e+000
         vertex 1.100000e+000 1.100000e+000 9.999999e-002
      endloop
   endfacet
   facet normal 0.000000e+000 1.000000e+000 0.000000e+000
      outer loop
         vertex 0.000000e+000 1.100000e+000 0.000000e+000
         vertex 0.000000e+000 1.100000e+000 1.100000e+000
         vertex 9.999995e-002 1.100000e+000 1.100000e+000
      endloop
   endfacet
   facet normal 0.000000e+000 1.000000e+000 0.000000e+000
      outer loop
         vertex 1.100000e+000 1.100000e+000 9.999999e-002
         vertex 1.100000e+000 1.100000e+000 0.000000e+000
         vertex 6.000000e-001 1.100000e+000 2.339746e-001
      endloop
   endfacet
   facet normal 0.000000e+000 1.000000e+000 0.000000e+000
      outer loop
         vertex 6.000000e-001 1.100000e+000 2.339746e-001
         vertex 1.100000e+000 1.100000e+000 0.000000e+000
         vertex 0.000000e+000 1.100000e+000 0.000000e+000
      endloop
   endfacet
   facet normal 0.000000e+000 1.000000e+000 0.000000e+000
      outer loop
         vertex 6.000000e-001 1.100000e+000 2.339746e-001
         vertex 0.000000e+000 1.100000e+000 0.000000e+000
         vertex 3.190442e-001 1.100000e+000 4.793957e-001
      endloop
   endfacet
   facet normal 0.000000e+000 1.000000e+000 0.000000e+000
      outer loop
         vertex 3.190442e-001 1.100000e+000 4.793957e-001
         vertex 0.000000e+000 1.100000e+000 0.000000e+000
         vertex 9.999995e-002 1.100000e+000 1.100000e+000
      endloop
   endfacet
endsolid